<svg clip-rule="evenodd" fill-rule="evenodd" stroke-linejoin="round" stroke-miterlimit="2" viewBox="0 0 768 768" xmlns="http://www.w3.org/2000/svg"><path stroke="currentColor" d="m382.5 715.8c-20.4 0-44.4-.5-53.5-.9-9.1-.5-26.6-1.8-39-2.9-12.4-1.2-36.2-4.1-53-6.6s-36.3-5.6-43.5-7-17.9-3.9-24-5.5c-6.1-1.7-17.1-4.8-24.5-7-7.4-2.3-18.7-6.1-25-8.6s-18.3-7.8-26.6-11.9c-8.3-4-19.3-10.1-24.5-13.5s-12.7-9.4-16.6-13.4c-5-5-8.2-9.3-10.3-13.6-1.6-3.5-3.7-10-4.6-14.4-1-5-1.5-10.7-1.2-15.5.4-6.2 1.1-8.7 3.8-13.9 1.9-3.6 6.2-9.2 9.5-12.5 3.3-3.4 9.9-8.7 14.6-11.9 4.8-3.1 14-8.2 20.5-11.3s19.2-8 28.1-11c9-2.9 21.2-6.4 27.3-7.6 10.5-2.2 11-2.4 11-4.8 0-1.4-.4-4.1-1-6-.5-1.9-4-18.3-7.6-36.4-4.7-23.2-6.5-34.4-6.2-37.8.3-3.1 1.4-5.9 3.3-8.3 1.5-2 2.9-3.4 3.1-3.2.3.2 0 1.6-.6 3.1-.5 1.5-1 4.4-1 6.4s.9 5.1 1.9 6.9c1.1 1.7 4 4.5 6.6 6.3 2.5 1.7 7 4.2 9.9 5.5s9.1 3.5 13.7 4.9 13.3 3.7 19.4 5c6.1 1.4 16.8 3.4 24 4.5s16.6 2.2 21 2.5c7.9.6 7.9.6 3.5-.7-2.5-.8-5.5-1.9-6.7-2.6-1.3-.6-2.8-2.1-3.5-3.4-.7-1.2-1.8-4-2.3-6.2-.8-2.8-1.7-4.1-3.1-4.3-1.2-.2-6.7 1.3-12.3 3.2-10 3.4-10.2 3.4-16.6 2.1-3.5-.8-11.9-3.2-18.6-5.5-6.7-2.2-14.6-5.4-17.5-7.1-2.9-1.6-6.4-4.4-7.8-6-1.6-1.8-2.6-4.3-2.6-6.1 0-1.7.9-4.6 2.1-6.4 1.1-1.9 4-4.7 6.2-6.3 2.3-1.6 6.9-4.2 10.2-5.8 3.3-1.7 10.3-4.4 15.5-6.1 5.2-1.8 14.2-4.3 20-5.6s14-3 18.2-3.6c6.2-1 8.1-1 9.3 0 .9.7 1.5 2.9 1.5 5.1 0 2.1.5 4.1 1.1 4.4.5.4 1.8 0 2.9-1s2.1-3.8 2.5-7.3c.4-3.1 1.3-7.2 2-8.9.8-1.8 2.6-4.9 4.1-6.9 1.5-1.9 5.6-5.6 9.1-8.1 3.8-2.7 9.4-5.5 13.9-6.9 5.5-1.8 9.8-2.4 16.2-2.4 4.8 0 10.4.5 12.4 1 2 .6 6.3 2.8 9.5 4.9 3.8 2.5 7.5 4 10.6 4.5 2.6.3 7 1.5 9.8 2.7 3 1.3 6.7 4.1 9.5 7.2 2.4 2.7 5.2 6.3 6.1 7.8 1 1.6 2 2.9 2.4 2.9s1.2-.7 1.9-1.5c1.1-1.3.8-2.5-1.5-7-2.3-4.6-2.7-6.7-2.8-13.7 0-5.1.6-10.5 1.7-14.2 1-3.2 3.2-8.4 4.9-11.5s6.4-9 10.4-13.1c3.9-4.2 8.3-8.2 9.7-9 2.2-1.1 3-1.1 5.2 0 2.1 1.2 3 1.2 5.7.1 1.8-.8 8.1-2.7 14.2-4.2 6.1-1.6 13.6-4.2 16.8-5.8 5.7-3 5.7-3 7.2-.8.7 1.2 1.7 3.6 2.1 5.2.3 1.6 2 6.1 3.7 10 2.4 5.6 3 8.4 3 14.1 0 6-.4 7.9-2.7 11.9-1.6 2.6-4.5 6.6-6.5 8.8s-8.2 7.1-13.9 10.9-10.1 7.5-9.9 8.1c.2.7 2.5 2.5 5 4.1 4.7 2.9 4.7 2.9 11.2-3.2 4.8-4.5 7.9-6.5 11.7-7.7 2.8-.8 8-1.5 11.4-1.5 3.5 0 8.7.5 11.6 1.1s6.7 1.8 8.3 2.6c1.6.9 5.2 3.4 7.9 5.6 4.9 4.1 4.9 4.1 23 5.9 10 .9 24.5 2.7 32.3 3.8 7.9 1.2 20.5 3.6 28.1 5.5 7.7 1.9 18.7 5.2 24.6 7.4 5.8 2.2 13.1 5.6 16.1 7.7 3 2 7.1 5.4 9 7.7 1.9 2.2 3.7 5.5 4.1 7.3.3 1.8 0 5-.6 7.1-.7 2.1-2.6 6-4.2 8.7-2.3 3.8-4.3 10.6-8.9 30.5-3.2 14.1-6.3 27.2-6.9 29.1-.5 1.9-1 4.4-1 5.5 0 1.8 1.6 2.3 14.6 4.8 8 1.6 19.9 4.2 26.3 5.8s15.2 4.1 19.6 5.6c4.4 1.4 13 4.6 19 7.1 6 2.4 14.1 6 18 7.9s10.8 6 15.5 9.1 11.3 8.5 14.7 11.9c3.8 3.9 7.5 8.9 9.5 13 3.3 6.7 3.3 6.8 3.3 21.8 0 12.2-.3 15.9-1.9 19.8-1 2.7-4 7.6-6.8 11-2.7 3.4-7.7 8.6-11.1 11.5s-9.2 7.3-12.9 9.8-11.1 6.5-16.5 9-14.2 6.3-19.5 8.5c-5.4 2.1-16.3 5.9-24.2 8.4-7.9 2.4-20.6 6-28.3 7.9-7.6 1.9-18.5 4.4-24.3 5.5s-17.5 3.2-26 4.6-25.3 3.8-37.3 5.5c-11.9 1.6-28.3 3.6-36.5 4.5-8.1.8-23.3 1.9-33.7 2.5-10.4.5-35.6.9-56 .8zm.1-25.9c22.7 0 44.5-.5 59-1.4 12.6-.8 29.9-2.2 38.4-3.1 8.5-.8 24.9-2.8 36.5-4.5 11.5-1.6 31.4-4.7 44.1-6.9 12.7-2.1 31.2-5.9 41.1-8.4s23.3-6.3 29.9-8.4c6.5-2.2 16.8-6.1 22.7-8.6 6-2.6 13.4-6.1 16.5-7.8 3.2-1.7 9.6-5.8 14.4-9.1 4.8-3.2 11.6-8.9 15.1-12.7 3.5-3.7 7.7-9.3 9.2-12.4 2.2-4.5 2.7-6.6 2.3-10.5-.3-2.6-1.5-6.9-2.7-9.5-1.3-2.6-4.5-7.1-7.2-10-2.6-2.9-8.3-7.7-12.5-10.6-4.3-2.9-13.8-8.2-21.3-11.6s-19-8.1-25.6-10.4c-6.6-2.2-16.5-5.2-22-6.7-5.5-1.4-17.4-4.2-26.5-6.3s-16.9-3.5-17.3-3.1c-.4.5-2.8 8.4-5.1 17.8-2.4 9.3-5.3 18.8-6.4 20.9-1.1 2.2-4.6 6.6-7.6 9.7-3.1 3.1-5.6 6.1-5.6 6.7 0 .5.2 1 .3 1 .2 0 3-.9 6.2-2 3.1-1.1 12.4-3.3 20.4-5 8.1-1.6 15.6-3 16.7-3 1.7 0 1.6.3-.6 2-1.4 1.1-5.9 3.1-10 4.4-4.1 1.4-14.5 4.1-23 6.1s-20.2 4.6-26 6c-5.8 1.3-15.2 3.1-21 3.9-5.8.9-17.5 2.2-26 3-8.5.9-22.9 2.1-32 2.8-11 .9-36.6 1.3-77 1.3-38-.1-66.8-.5-77.5-1.3-9.4-.7-23.1-1.9-30.5-2.8s-19.6-2.7-27-4c-7.4-1.4-20.7-4.1-29.5-6.1-8.8-1.9-20.5-5.1-26-7s-11.8-4.5-14-5.8-5.3-3.6-6.9-5.2c-1.5-1.5-3.8-4.8-5.1-7.3-1.2-2.5-3.7-9.7-5.4-16-1.8-6.3-3.7-13-4.2-14.8-.6-1.8-1.7-3.2-2.6-3.2s-9.3 2.2-18.8 5c-9.4 2.7-21.1 6.3-26.1 8-4.9 1.8-14.8 6-22 9.5-7.1 3.5-16.7 9.1-21.2 12.4-4.4 3.4-10 8.3-12.3 10.9s-5.3 7.1-6.7 10.1c-2 4.5-2.4 6.4-2 11.6.4 4.3 1.5 7.9 3.4 11.5 1.5 2.8 5.5 7.7 8.9 10.8 3.3 3 9.6 7.9 14 10.8 4.4 2.8 12.3 7.5 17.5 10.2 5.2 2.8 14.9 7.2 21.5 9.7 6.6 2.6 17.8 6.4 25 8.5s22 5.8 33 8.3c11 2.6 29.7 6.2 41.5 8.1 11.8 2 32.5 4.9 46 6.5s29.7 3.5 36 4.1c6.3.7 21.9 1.7 34.5 2.4s39.2 1.4 59.1 1.5zm2.6-26.1c-15.2-.1-30.6-.3-34.2-.5-3.6-.1-14.6-.7-24.5-1.3s-25.2-1.8-33.9-2.6c-8.8-.8-23-2.4-31.5-3.5-8.6-1.1-23-3.1-32.1-4.4s-19.7-3.1-23.5-3.9-10.4-2.6-14.5-4c-7.5-2.6-7.5-2.6 11-2.1 18.5.4 18.5.4 12.5-2.6-3.3-1.7-7-4-8.2-5.2-1.2-1.1-3-3.9-3.9-6.3s-2.5-4.6-3.6-4.9c-1.2-.4-5.5 1.4-12.6 5.3-5.9 3.3-13.1 6.8-16.1 7.7-4.3 1.4-7.1 1.6-14 1.1-4.7-.4-14.4-2.2-21.6-4.1-7.1-1.8-16-4.4-19.6-5.8-3.7-1.4-8.5-3.7-10.7-5.1-2.3-1.4-4.8-3.7-5.7-4.9-.8-1.3-2.3-5.8-3.2-9.9-.9-4.3-1.3-8.9-.9-11 .3-1.9 1.3-4.3 2.1-5.4 1.3-1.7 1.4-1.5 1.5 2.9 0 4 .5 5.4 2.8 7.7 1.7 1.7 5.5 3.6 9.3 4.8 3.6 1.1 11.1 2.8 16.7 3.7 7 1.2 13.7 1.6 21.4 1.3 10.7-.4 11.8-.7 20.8-4.7 5.2-2.3 10.3-5 11.3-5.9s1.7-2.5 1.5-3.6c-.2-1.6-1.2-2.2-3.6-2.4-1.7-.2-6.8.3-11.1 1.2-4.4.8-10.5 2.7-13.7 4.2-5.3 2.5-6.3 2.6-15.3 2.1-5.3-.3-14.4-1.6-20.1-2.8-5.8-1.1-11.4-2.6-12.5-3.1-1.1-.6-2.8-1.7-3.7-2.6-1-.8-1.8-2.5-1.8-3.7s1.3-4 3-6.3c1.7-2.4 5.4-5.4 9.2-7.5 3.5-2 9-4.4 12.3-5.3 4.5-1.4 9.1-1.8 18.1-1.7 10.7 0 12.8.4 17.5 2.5 3 1.4 9.5 5.7 14.4 9.5s13.5 11.5 19 17c8.5 8.5 11.4 10.7 19.3 14.6 5.1 2.6 15.6 6.7 23.2 9.1 7.7 2.5 19.7 5.6 26.8 7s23 3.7 35.3 5c12.3 1.4 30 3.1 39.4 3.7 9.4.7 32.5 1.3 51.5 1.3 21.3 0 39.3-.4 47-1.2 6.9-.7 20.4-2.5 30-3.8 9.6-1.4 21.7-3.4 26.8-4.5 5.2-1 16.2-3 24.5-4.4 8.4-1.4 21.3-4.2 28.8-6.1s17-4.8 21.2-6.4c4.1-1.6 10.4-4.3 13.9-6.1 3.4-1.7 9.3-5.1 12.9-7.4s9-6.7 12.1-9.6c3-3 6.5-7.4 7.7-9.7 1.4-2.8 2.8-4.2 4.1-4.2 1.5 0 2 .7 2 2.6 0 1.4-.7 4.1-1.5 5.8-.9 1.8-3.9 5.9-6.7 9s-8.7 8.5-13.2 11.9c-8.1 6.2-8.1 6.2.1 7.3 4.5.7 8.8 1.4 9.5 1.7.8.3.1 1-1.7 1.7-1.6.6-4.1 1.7-5.5 2.2-1.4.6-2 1.2-1.5 1.3.5.2 4.5.6 8.7 1 4.3.4 7.8 1.1 7.8 1.6 0 .6-2.8 2.3-6.2 3.9-3.5 1.6-5.6 2.9-4.7 2.9.8.1 6.2-.8 12-1.8 5.7-1.1 12.9-2.9 15.9-3.9 3-1.1 8.2-3.2 11.5-4.7s8.8-3.8 12.3-5.1c3.4-1.3 6.2-2 6.2-1.6s-1.5 2.2-3.2 3.8c-1.8 1.7-4.9 4-6.8 5.2-1.9 1.1-8 3.8-13.5 6s-15 5.4-21 7.1-19.3 4.9-29.5 7.1-29.4 6.3-42.7 9-32.3 6.1-42.2 7.5c-10 1.4-25.4 3.2-34.3 4-9 .8-25.4 1.9-36.6 2.5-11.2.5-32.8.9-48 .8zm3.8-44c-15.1-.1-30.2-.3-33.5-.5-3.3-.1-13.2-.7-22-1.3s-20.9-1.8-27-2.6-13.6-2.2-16.8-3.1-6-2-6.4-2.6c-.4-.7 4.9-.8 16.3-.4 9.3.4 32.6 1.2 51.9 1.8s44.4.8 56 .4c11.6-.3 29.8-1 40.5-1.6 10.7-.5 26.9-1.6 36-2.4s26.2-3 38-5 29.8-5.6 40-8 22.1-5.7 26.5-7.5c4.4-1.7 10.4-4.5 13.3-6.1 3-1.7 5.9-2.8 6.5-2.6.7.3-1.1 2.7-3.9 5.4-2.8 2.8-8.9 7.1-13.6 9.7-4.6 2.5-11.6 5.9-15.5 7.5s-11.1 4-15.9 5.4c-4.9 1.4-13.6 3.5-19.4 4.6s-15.9 2.7-22.5 3.6c-6.6.8-18.1 1.9-25.5 2.5s-27.4 1.5-44.5 2-43.4.9-58.5.8zm-214.9-6c1.6-.6 3.7-2.1 4.6-3.4.9-1.4 1.3-2.7 1-3s-2.4.9-4.6 2.7c-2.3 1.8-4.1 3.6-4.1 4s1.4.3 3.1-.3zm88.9-23c4.7 0 5.9-.2 4.5-.8-1.1-.5-4.5-1.9-7.6-3-3-1.1-6.4-2.7-7.5-3.6-1.7-1.4-1-1.5 9.1-1 6.1.3 19.1 1 29 1.6s20.5 1 23.5.8c4.9-.3 3.7-.6-10.7-3.1-8.9-1.5-18.3-3.5-20.8-4.3-2.5-.9-4.8-2.1-5.2-2.7-.4-.7 4.2-.8 15.8-.3 9 .4 26.1 1.1 37.9 1.6s33.9.9 49 .9 35.9-.6 46.2-1.4 20.5-1.8 22.5-2.2c3.7-.7 3.6-.8-2.7-1.4-3.6-.4-20.9-.7-38.5-.8s-37.6-.6-44.5-1.1-13.9-1.3-15.5-1.6c-3-.7-3-.7-.5-1.6 1.4-.5 10.4-1.4 20-1.9s25.8-1.4 36-1.9c10.2-.6 25-1.8 32.9-2.7 8-.8 15.4-1.9 16.5-2.3 1.3-.5-2.5-1-9.9-1.4-6.6-.3-18.7-1-26.9-1.6-8.2-.5-15.3-1.3-15.9-1.9-.5-.5 1.7-1.3 6-2 3.7-.6 13.1-1.5 20.8-2.1s18.2-1.5 23.3-2.1c5.1-.7 9.4-1.5 9.7-1.9s-4.6-1-10.8-1.4c-6.1-.4-13.6-1.2-16.6-1.7-3.3-.7-5-1.4-4.4-2 .5-.5 3.6-1.4 6.9-1.9s12.5-1.7 20.4-2.5 14.8-1.9 15.3-2.4c.4-.4-4.4-1.3-10.7-2-6.3-.6-12.9-1.4-14.5-1.7-1.7-.4-3.1-1-3.1-1.4 0-.5 2.3-1.3 5-1.9 2.8-.6 8.3-1.6 12.3-2.1 3.9-.6 9.4-1.6 12-2.2 2.8-.6 4.6-1.5 4.4-2.2s-4.9-1.4-12.2-1.8c-6.6-.5-12.3-1.2-12.8-1.7-.6-.6-.2-1.3 1-1.9 1-.6 7-2 13.2-3.2 6.2-1.1 12.4-2.5 13.8-3.1 1.5-.5 2.2-1.3 1.7-1.8s-10.1-1.6-21.4-2.5-23.3-2.1-26.7-2.7c-3.5-.6-6.1-1.5-5.8-1.9s3.3-1 6.7-1.4c3.5-.3 13.7-1.1 22.8-1.6 9.1-.6 20.8-1.5 26-2.1 5.2-.5 14.9-1.9 21.5-3s14.8-2.7 18.3-3.6c3.4-.8 6.2-1.9 6.2-2.4s-3.9-.9-8.8-.9c-4.8 0-23.1 1.1-40.7 2.5-17.6 1.3-43.5 2.9-57.5 3.5-14 .5-38.6 1-54.5 1s-38.4-.5-50-1c-11.6-.6-28.4-1.7-37.5-2.5-9.1-.9-24.6-2.7-34.5-4.1s-25.4-3.9-34.5-5.5c-9.1-1.7-20-3.9-24.2-5-4.2-1-11.4-3.2-16-4.7-4.6-1.6-11.6-4.3-15.6-6.1-4.1-1.8-7.6-3-7.9-2.7-.4.3 2.2 14.8 5.6 32.1s8.4 39.2 11.2 48.7c2.7 9.4 5.8 19 6.8 21.3s3.2 5.1 4.8 6.3c1.6 1.1 5.6 3.2 8.8 4.7 3.3 1.4 11 4.1 17 6 6.1 1.8 18.4 5 27.5 7 9 2 19.1 4 22.5 4.5 3.3.4 8.9.8 12.5.8zm-128.5-7.5c6.7-.3 12-1.1 16-2.6 5.9-2.1 5.9-2.1 2.6-3.4-1.8-.8-6.1-2.1-9.5-3-4.1-1-8.4-1.4-13.3-1-3.9.3-9.2 1.4-11.7 2.6-2.6 1.1-4.6 2.7-4.6 3.5 0 .9 1.2 1.8 2.8 2.2 1.5.3 3.8.9 5.2 1.4 1.4.4 7 .5 12.5.3zm408.6-9.8c1.3-.4 4.7-2.2 7.6-4.1s5.9-4.4 6.8-5.8c.9-1.3 3.8-11.3 6.4-22.2 2.7-11 6.6-28.1 8.5-38.1 2-10 3.6-20 3.6-22.2 0-3.3-.4-4.1-1.8-4.1-1 0-4.3 1.2-7.3 2.8-5.4 2.7-5.4 2.7-7.1 11.7-1 4.9-3.4 17.6-5.4 28-2 10.5-5.7 26-8.2 34.5-2.4 8.5-4.7 16.6-4.9 17.9-.5 2.1-.3 2.2 1.8 1.6zm-209.5-91.5c1.3 0 2.5-.4 2.8-.9s-.4-2.3-1.7-4.1c-1.2-1.8-3.4-4.2-4.9-5.3-1.8-1.4-4.9-2.2-8.8-2.5-5-.4-6.9 0-11.5 2.3-3.1 1.5-6.3 3.7-7.1 5-.9 1.3-1.3 2.8-1 3.3.2.4 6.9.9 14.7 1s14.5.4 14.7.7c.3.3 1.6.5 2.8.5zm119-2c.3 0 2.5-.5 4.9-1.1 3.7-.9 4.9-1.9 8-6.6 2-3 3.4-5.7 3.1-6.1-.3-.3-1.7.1-3.1.8-1.3.7-4.9 3.5-8 6.2-3 2.7-5.5 5.4-5.5 5.9s.3.9.6.9zm-184.7-1c1 0 2.5-.7 3.2-1.7.8-.9 3.6-2.7 6.4-3.9 2.7-1.3 5.1-2.2 5.2-2 .2.2-.1 1.5-.6 2.9s-.7 2.8-.4 3.1c.4.3 1.4.6 2.3.6.8 0 3.8-2.3 6.5-5.1 2.8-2.7 7.5-6.5 10.5-8.4 3-1.8 7.4-3.8 9.8-4.5 2.3-.6 4-1.5 3.7-2s-2.2-1.4-4.3-2c-2-.5-5.7-1-8.2-1s-7.3.7-10.5 1.6c-3.3.8-8 2.7-10.4 4.1s-6.1 4.1-8.3 6.1c-2.2 1.9-4.6 4.8-5.4 6.3-.8 1.6-1.4 3.5-1.4 4.4 0 .8.8 1.5 1.9 1.5zm220.9-1.2c5.1-.3 8.6-1 10.5-2.2 1.8-1.3 2.7-1.4 2.7-.6 0 .9 1.4 1.1 4.8.7 2.6-.2 10.6-1.2 17.7-2.2 7.1-.9 19.1-3.2 26.5-5.1 8.4-2.2 17-5.2 22.9-8 6.1-3 11-6.2 14.1-9.3s4.9-5.9 5.4-8.3c.3-1.9.2-4.7-.3-6-.5-1.4-2.7-4-4.8-5.7s-6.5-4.4-9.8-6-11-4.4-17-6.4c-6-1.9-18-4.9-26.5-6.6-8.5-1.6-23.4-4.2-33-5.5-9.6-1.4-20.1-2.6-23.4-2.6-5.8 0-5.8 0-5.1 3.7.4 2.1 1.1 4.6 1.6 5.5.6 1.2 2.1 1.8 4.2 1.8 1.8 0 6.1.7 9.7 1.6 3.6.8 8.3 2.6 10.6 3.9s5.5 4 7.2 6c1.8 1.9 3.9 4.9 4.8 6.6s2.1 5.9 2.8 9.2c1.3 6.1 1.3 6.1 7.5 8 5 1.4 7.4 2.9 11.8 7.2 3 2.9 5.3 5.9 5.1 6.6-.3.8-2 1.7-3.9 2.1-2.6.5-4.8 0-9.4-2-5.2-2.4-7.3-2.7-16-2.7-8.8.1-10.6.4-15 2.7-2.7 1.4-6.9 4.5-9.3 6.9-2.3 2.4-4.2 4.9-4.2 5.7 0 1.2 1.5 1.4 7.8 1zm-115.4-2.8c.8 0 4.2-2.1 7.6-4.8 3.4-2.6 7.2-5.3 8.6-6 1.3-.7 2.4-1.7 2.4-2.2 0-.4-1.6-2.2-3.5-3.8-1.9-1.7-5.1-3.6-7.2-4.1-2.1-.6-5.6-1.1-7.8-1.1s-6.3 1.1-9 2.4c-2.7 1.2-6.7 4.1-8.7 6.4-2 2.2-4.4 5.4-5.2 7.1-.9 1.6-1.6 3.5-1.6 4.1s1.2.2 2.6-.9c1.5-1.1 3-1.8 3.5-1.5s.9 1.2.9 2 .4 1.4.9 1.4 3.1-1.8 5.7-4c2.7-2.2 6.4-4.5 8.3-5s3.8-.7 4.3-.4.7 1.1.5 1.8c-.3.6-1.2 2.8-2.1 4.8-1.4 3.2-1.4 3.8-.2 3.8zm50-1c.2 0 2.7-2.8 5.4-6.3 2.8-3.5 6.7-7.2 8.6-8.2 1.9-1.1 3.8-1.7 4.1-1.3.3.3.1 1.7-.5 3.2-.5 1.5-1 3.8-1 5.2 0 1.3.4 2.4.8 2.4s2.4-1.6 4.3-3.6c1.8-1.9 5.4-4.9 7.8-6.5 3-1.9 5.7-2.9 8.3-2.9 2.4 0 3.8-.5 3.8-1.3 0-.7-.7-2.3-1.6-3.6s-3.5-3.2-5.8-4.2c-2.6-1.2-6.4-1.9-10.4-1.9-4.3 0-7.5.6-10.1 1.9-2.1 1.1-5.2 3.6-7 5.6s-4.8 6.1-6.7 9c-3.5 5.2-3.5 5.3-2 8.9.8 2 1.7 3.6 2 3.6zm-12.2-3c.7 0 2.5-1.2 4-2.5 1.6-1.3 2.8-2.9 2.8-3.4 0-.6-.9-1.5-2.1-2.1-1.6-.9-2.5-.8-4 .6-1 .9-1.9 3-1.9 4.6s.5 2.8 1.2 2.8zm-79.3-16.1c.8-1.3 3.2-4.1 5.2-6.1 2-2.1 4.2-3.8 4.8-3.8s.8 1.1.5 3c-.4 1.7-.2 3 .3 3 .6 0 2.4-.7 4.1-1.6 1.8-.8 4.1-1.3 5.2-.9 1.4.5 3.1-.1 5.3-1.8 1.8-1.3 5.2-3.4 7.7-4.7 2.7-1.4 6.3-2.3 9-2.3 2.5 0 6.4.3 8.8.8 2.7.5 4.2.4 4.2-.3 0-.5-1.8-2.6-4-4.5-2.1-2-6.2-4.8-9-6.2-2.7-1.4-7.7-2.8-10.9-3.2-4.3-.4-7.4-.1-11.2 1.1-2.9 1-7.2 3.1-9.5 4.7s-6 5.6-8.2 8.9-4.3 7.7-4.7 9.9-.3 4.6.1 5.2c.5.9 1.2.5 2.3-1.2zm-77.5 1.1c.2 0 2.3-1.6 4.6-3.5s5.1-3.5 6.2-3.5 3.9-1.4 6.4-3.1c2.4-1.6 7.9-4.7 12.2-6.7 7.3-3.5 8.2-3.7 17.7-3.7 8.8 0 10.7.4 15.9 2.8 3.2 1.5 6.2 2.4 6.7 2.1s.9-1.1.9-1.9c0-.7-2.1-3.2-4.8-5.4-2.6-2.3-7-5-9.7-6s-7.3-2.2-10-2.5c-2.7-.4-7.5-.2-10.5.4-3 .5-9.2 2.8-13.6 4.9-4.5 2.1-10 5.5-12.2 7.6-2.2 2-5.4 5.8-7.1 8.4s-3.1 6-3.1 7.4c0 1.5.2 2.7.4 2.7zm153.5-2c.5 0 1.4-.7 2.2-1.6.7-.8 2.6-2.2 4.3-3.1 2.1-1.1 3.1-1.2 3.4-.4.2.6.8 1.1 1.3 1.1.6 0 3-1.5 5.3-3.2 2.4-1.8 6.5-4.5 9-6s4.6-3.2 4.6-3.7-1.2-1.3-2.8-1.9c-1.5-.6-3.9-1.4-5.3-1.7-1.5-.4-4.5-.1-6.8.5s-6 2.7-8.1 4.6-4.8 5.4-5.9 7.8c-1.2 2.3-2.1 5-2.1 5.9s.4 1.7.9 1.7zm-126.4-1c.8 0 3.6-.8 6.2-1.9 2.6-1 7.1-2.2 9.8-2.5 2.8-.4 5.7-1.2 6.5-1.7 1.3-.8 1.2-1.2-.4-2.4-1.1-.8-3.7-1.5-5.8-1.5s-5.5.7-7.5 1.5c-2 .9-5.2 2.7-7 4.1s-3.3 2.9-3.3 3.5c0 .5.7.9 1.5.9zm208.5-8.1c5.5-4.5 10-8.5 10-9 0-.4-.9-1.4-2-2.2-1.3-.9-1.8-2-1.4-3 .4-1.1-.5-2.7-2.3-4.6-1.6-1.6-4.7-3.4-6.9-4-2.1-.6-6.4-1.1-9.4-1.1-3.7 0-7.2.8-10.5 2.4-2.8 1.2-6.5 3.9-8.3 6-1.7 2-3.2 4.3-3.2 5.1s1.4 2.2 3 3c3 1.5 3.1 1.5 6.1-1.5 1.7-1.6 3.9-3 5-3s1.9.7 1.9 1.8c0 .9.4 2.4 1 3.2.7 1.2 1.6.9 5.2-1.6 2.4-1.7 5.5-3.4 6.9-3.7 1.5-.4 3.3-.1 4.5.7 1.8 1.3 1.6 1.7-3.2 6.8-2.8 2.9-5.6 6.4-6.3 7.7-.7 1.2-1 2.9-.7 3.7.4 1.1 3.2-.6 10.6-6.7zm-253.1 7.1c.4 0 3.4-2.6 6.7-5.8 3.3-3.1 9-7.7 12.7-10.2s8.6-5.8 10.9-7.4c3.9-2.7 4-3 2.3-4.2-1-.8-4.1-1.4-6.7-1.4-2.7 0-6.4.7-8.3 1.5-2 .8-6.1 3.8-9.2 6.7-3.1 3-6.6 7.5-7.9 10.3-1.3 2.7-2.4 5.9-2.4 7.1 0 1.1.3 2.4.7 2.7.3.4.9.7 1.2.7zm337-1c-1.9 0-1.8-.3 1.1-3.6 2.3-2.7 3-4.4 2.8-6.7-.3-2.9-1.1-3.6-10-8.2-5.4-2.8-10.3-5.6-11-6.3-.9-.9-.9-1.2.4-1.2.8 0 3.9.5 6.8 1 3 .6 7.6 2.1 10.4 3.4 2.8 1.2 6.3 3.6 7.8 5.1 1.6 1.6 2.8 3.9 2.8 5.3 0 1.7-1.5 4-4.5 6.9-2.5 2.4-5.5 4.3-6.6 4.3zm-344.2-7.9c2.2-4.6 5.6-9.3 10.1-13.9 4.3-4.4 8.8-7.9 12.7-9.8 4.7-2.2 7.7-3 13.7-3.3 6-.2 7.8-.7 7.8-1.8 0-.8-2.1-2.3-4.7-3.5-3.7-1.6-6-1.9-11.4-1.6-4.9.4-8 1.3-11.3 3.2-2.5 1.5-7.1 5.1-10.1 8.1-3.4 3.3-6.7 7.8-8.5 11.7-2.1 4.4-3 7.8-3 11.4 0 2.8.3 5.4.7 5.7.3.4 2.1-2.4 4-6.2zm168.9 1.9c.7 0 2.4-1.6 3.9-3.6s5.4-5.3 8.7-7.4c4.1-2.7 7.9-4.2 12.8-5.1 5.8-1 7.9-1 13.2.3 3.5.9 6.5 1.4 6.8 1.1.3-.2-.6-1.3-2-2.4-1.4-1-4.5-2.9-7-4.1-3.4-1.7-6.8-2.3-13.7-2.6-8.5-.4-9.8-.2-14.8 2.2-3 1.5-7.2 4.8-9.5 7.3-2.2 2.5-4 5.3-4 6.1 0 .9 1 3.1 2.2 4.9 1.3 1.8 2.8 3.3 3.4 3.3zm-20-23c.3 0 2.4-1.3 4.7-2.9 2.3-1.5 5.6-3.6 7.4-4.5s4-1.6 5-1.6 2.5-.4 3.3-1c1.2-.8 1.2-1.3-.2-4.3-1-2.1-4-5-7.7-7.5-3.8-2.5-7.9-4.3-10.7-4.8-2.5-.3-6.7-.4-9.3-.2-2.6.3-7 1.5-9.7 2.8s-6.7 4.3-9 6.6-5 5.6-5.9 7.4c-.9 1.7-1.5 4.1-1.3 5.2.3 2.1.4 2.1 3.3-.4 1.6-1.4 4-3 5.2-3.7 1.8-.9 2.2-.9 1.7.2-.3.8.2 2 1.1 2.7 1.3 1.1 2.8.6 9.4-2.8 4.3-2.3 10-4.4 12.7-4.7 2.7-.4 5.3-.7 5.9-.7.5 0 1.1.5 1.3 1 .1.5-1.5 3.1-3.8 5.8-2.2 2.7-4 5.4-4 6.1s.3 1.3.6 1.3zm-53.8-1c.2 0 2-.9 3.8-2.1 1.9-1.1 3.1-2.6 2.8-3.3-.3-.8-2.7-2.5-5.3-4-3.4-1.8-6.4-2.6-9.9-2.6-2.7 0-6.5.6-8.3 1.4-1.9.8-4.3 2.4-5.3 3.5-1.1 1.2-1.7 2.3-1.4 2.6.2.3 5 .8 10.6 1.1 6.6.5 10.6 1.2 11.3 2.1.6.7 1.4 1.3 1.7 1.3zm-40.2-6c.3 0 5.8-3.5 12.2-7.7 11.7-7.8 11.7-7.8 21.6-8.3 5.8-.3 10.1-.9 10.3-1.6.2-.6-.8-2.2-2.3-3.7-1.4-1.4-4.2-3.1-6.1-3.8-1.9-.6-6.5-.9-10.1-.7-4.3.2-8.4 1.2-11.5 2.7-3.6 1.7-5.7 2.1-8.3 1.6-2.8-.5-4.5-.1-7.7 1.8-2.3 1.4-5.2 3.9-6.5 5.6-1.2 1.6-2.2 3.7-2.2 4.6 0 .8.4 1.5.9 1.5.4 0 3.9-2 7.6-4.5s7-4.4 7.2-4.1c.2.2-.9 3.1-2.6 6.5-1.7 3.3-3.1 7-3.1 8.1s.2 2 .6 2zm154.1 0c.3 0 3.1-1.7 6-3.7 5.3-3.7 5.3-3.7 8.8-2 2.8 1.4 3.7 1.4 4.1.4.2-.7-.2-3-1.1-5-.8-2-2.9-5.2-4.7-7.2-1.7-2-5-4.6-7.2-5.7-2.7-1.4-6.7-2.3-11.7-2.6-5.8-.3-8.3 0-11 1.3-1.9.9-5.3 3.6-7.7 5.8-3 2.9-4.2 4.9-4.2 6.9 0 1.5.2 2.8.5 2.8.2 0 2.1-1.1 4.1-2.5s4.2-2.5 4.9-2.5 1.6 1.6 1.9 3.5c.7 3.5.7 3.5 7.6 0 3.8-1.9 8-3.5 9.4-3.5 1.3 0 2.9.7 3.6 1.5 1 1.2.7 2.3-1.4 5.9-1.4 2.5-2.6 4.9-2.6 5.5s.3 1.1.7 1.1zm-179-15c.3 0 2.9-1.8 5.7-3.9 2.8-2.2 8.6-5.6 12.9-7.7 7.1-3.3 8.2-3.6 11.4-2.6 2.4.7 4.2.8 5.5.1 1-.5 1.8-1.8 1.8-2.8 0-1.3-1.4-2.4-4.2-3.6-2.4-.9-6.8-1.9-9.8-2.2-3.9-.4-7.1 0-11 1.4-3.1 1.1-7.5 3.2-9.8 4.7-2.3 1.4-5.6 4.5-7.2 6.8-1.7 2.2-3 4.5-3 5s.9.4 1.9-.2c1.1-.5 2.7-1 3.5-1 1.1 0 1.6.9 1.6 3 0 1.6.3 3 .7 3zm92.3-17.7c.5-4.8 1.3-6.8 3.1-8.5 1.6-1.5 2.9-4.4 3.8-8 .7-3.2 1.7-6.1 2.3-6.4.5-.4 2 .3 3.2 1.5 1.8 1.9 2.1 3.2 1.9 9.2-.2 7.1-.2 7.1 5.1 2.1 4.2-4 6.2-5.2 9.7-5.6 2.4-.3 9-.5 14.7-.3 10.3.2 10.3.2 13.4-3.2 2.1-2.3 2.7-3.6 1.9-4.4-.7-.7-2.9-.7-7.4.1-3.6.7-8.2 1.2-10.3 1.2-3.9 0-3.9 0-1.4-2 1.4-1.1 4.5-2.6 6.9-3.5 2.5-.8 6.2-1.5 8.2-1.5 2.8 0 4.2-.6 5.3-2.2 1.2-1.6 1.4-3.5 1-6.8-.3-2.6 0-7.1.9-10.8.8-3.4 1.1-6.5.6-6.7-.4-.3-2.2 1-3.9 2.9-2.4 2.6-4.7 3.8-9.8 5.1-3.7.9-7.3 2.2-8.1 2.8-1.1.9-1.5.9-1.8 0s-1.4-1.1-3.1-.7c-1.5.4-4.2 1.3-6 2.1-1.7.9-3.2 2.3-3.2 3.2 0 .8.8 3.5 1.8 5.8.9 2.4 2 4.3 2.4 4.3s1.4-1 2.1-2.2c.8-1.3 2.4-3.9 3.6-5.8 2.2-3.5 2.2-3.5 1.6-.2-.4 1.7-.4 3.2-.1 3.2s2.8-2 5.6-4.5c2.7-2.4 5.9-4.9 7-5.5s2-.8 2-.4-1.8 3.1-3.9 5.9c-2.2 2.9-9.3 9.5-15.8 14.7-8.2 6.7-12.2 9.3-13 8.6-.7-.5-1.9-3.1-2.8-5.8s-1.5-7-1.3-9.7c.3-4.8.3-4.8 1.6-1.8.8 1.6 2.3 4.5 3.4 6.3 1.8 2.9 2.2 3.2 3 1.8.5-.9.9-3.8 1-6.5 0-2.6-.7-6.2-1.6-8-.9-1.7-2.2-3.1-2.9-3.1-.6 0-4 2.7-7.4 6s-7.4 8-8.8 10.4-3.9 8.3-5.5 13.2c-1.7 4.8-3 9.6-3 10.6s.8 3.5 1.7 5.6c1.6 3.7 1.6 3.7 2.3-2.5zm16.9 2.7c2.3 0 7.2-.6 10.9-1.4s8.7-1.7 11.2-2.1c2.5-.3 7.8-2.4 11.9-4.6 4.1-2.3 9.4-6.2 11.9-8.8 2.5-2.5 5.3-6.4 6.3-8.6s1.9-6.3 1.9-9.1-.3-6.6-.6-8.3c-.4-1.7-1-3.1-1.4-3.1-.5 0-1.1 1.9-1.4 4.2-.4 2.4-1.1 6.1-1.7 8.4s-2.7 6.3-4.8 9c-2 2.7-5.9 6.3-8.5 8.1-2.7 1.7-6.9 3.6-9.5 4.2-2.5.5-8.4 1.7-13.1 2.6s-9.8 2.4-11.4 3.3-3.5 2.7-4.4 4c-1.4 2.2-1.4 2.2 2.7 2.2z" transform="matrix(.839187 0 0 .839187 67.7888 54.7349)"/><path stroke="currentColor" d="m196.683 283.667v-181.346h91.688v48.852h78.355v-48.852h91.202v48.852h113.389v132.494zm112.954-68.426c.378-.724.857-1.383 1.438-1.975.832-.848 1.84-1.512 3.024-1.992s2.464-.72 3.84-.72c1.952 0 3.752.496 5.4 1.488s2.968 2.416 3.96 4.272 1.488 4.096 1.488 6.72c0 2.592-.504 4.824-1.512 6.696s-2.344 3.304-4.008 4.296-3.488 1.488-5.472 1.488-3.72-.488-5.208-1.464c-1.163-.763-2.067-1.687-2.712-2.772v-1.668l-.48.72c.14.329.3.644.48.948v13.836h-3.84v-34.08h3.36l.242 4.207c-.164.314-.308.639-.434.977l.528.672zm-50.162-4.687c1.664 0 3.128.256 4.392.768s2.36 1.248 3.288 2.208 1.68 2.096 2.256 3.408l-3.648 1.728c-.512-1.536-1.288-2.712-2.328-3.528s-2.392-1.224-4.056-1.224c-1.6 0-2.976.36-4.128 1.08s-2.032 1.76-2.64 3.12-.912 3-.912 4.92c0 1.888.304 3.52.912 4.896s1.488 2.424 2.64 3.144 2.528 1.08 4.128 1.08c1.248 0 2.328-.192 3.24-.576s1.664-.944 2.256-1.68 1-1.632 1.224-2.688l3.552 1.248c-.544 1.472-1.288 2.736-2.232 3.792s-2.08 1.864-3.408 2.424-2.84.84-4.536.84c-2.24 0-4.24-.496-6-1.488s-3.136-2.424-4.128-4.296-1.488-4.104-1.488-6.696.496-4.824 1.488-6.696 2.368-3.304 4.128-4.296 3.76-1.488 6-1.488zm25.632 24.96c-1.536 0-2.984-.288-4.344-.864s-2.464-1.512-3.312-2.808-1.272-2.984-1.272-5.064v-15.744h3.84v14.736c0 2.432.528 4.104 1.584 5.016s2.544 1.368 4.464 1.368c.896 0 1.776-.152 2.64-.456s1.64-.784 2.328-1.44 1.232-1.496 1.632-2.52.6-2.24.6-3.648v-13.056h3.84v24h-3.36l-.24-3.648c-.832 1.44-1.96 2.488-3.384 3.144s-3.096.984-5.016.984zm122.374-24.96c2.272 0 4.28.496 6.024 1.488s3.112 2.424 4.104 4.296 1.488 4.104 1.488 6.696-.496 4.824-1.488 6.696-2.36 3.304-4.104 4.296-3.752 1.488-6.024 1.488c-2.24 0-4.24-.496-6-1.488s-3.136-2.424-4.128-4.296-1.488-4.104-1.488-6.696.496-4.824 1.488-6.696 2.368-3.304 4.128-4.296 3.76-1.488 6-1.488zm73.382 13.584c.103 1.428.41 2.692.922 3.792.64 1.376 1.544 2.424 2.712 3.144s2.568 1.08 4.2 1.08c1.76 0 3.192-.336 4.296-1.008s1.992-1.584 2.664-2.736l3.024 1.776c-.608 1.088-1.384 2.032-2.328 2.832s-2.048 1.416-3.312 1.848-2.68.648-4.248.648c-2.272 0-4.296-.496-6.072-1.488s-3.16-2.424-4.152-4.296-1.488-4.104-1.488-6.696.496-4.824 1.488-6.696 2.352-3.304 4.08-4.296 3.696-1.488 5.904-1.488c2.24 0 4.152.48 5.736 1.44s2.792 2.264 3.624 3.912 1.248 3.496 1.248 5.544c0 .544-.016 1.04-.048 1.488s-.08.848-.144 1.2zm34.234 11.376c-2.336 0-4.488-.496-6.456-1.488s-3.48-2.4-4.536-4.224l3.264-2.352c.704 1.472 1.736 2.624 3.096 3.456s3 1.248 4.92 1.248c1.696 0 3.024-.328 3.984-.984s1.44-1.512 1.44-2.568c0-.672-.216-1.288-.648-1.848s-1.256-.968-2.472-1.224l-5.76-1.2c-2.336-.48-4.008-1.28-5.016-2.4s-1.512-2.512-1.512-4.176c0-1.312.376-2.512 1.128-3.6s1.824-1.96 3.216-2.616 3.032-.984 4.92-.984c2.368 0 4.368.464 6 1.392s2.848 2.24 3.648 3.936l-3.216 2.112c-.544-1.408-1.424-2.44-2.64-3.096s-2.48-.984-3.792-.984c-1.152 0-2.136.16-2.952.48s-1.44.76-1.872 1.32-.648 1.192-.648 1.896.24 1.352.72 1.944 1.376 1.016 2.688 1.272l6 1.248c2.24.448 3.808 1.184 4.704 2.208s1.344 2.272 1.344 3.744c0 1.504-.4 2.824-1.2 3.96s-1.92 2.008-3.36 2.616-3.104.912-4.992.912zm-85.104-35.52v28.944c0 1.216.224 2.056.672 2.52s1.168.696 2.16.696c.64 0 1.168-.048 1.584-.144s.976-.272 1.68-.528l-.624 3.36c-.512.224-1.072.392-1.68.504s-1.232.168-1.872.168c-1.952 0-3.4-.528-4.344-1.584s-1.416-2.672-1.416-4.848v-29.088zm39.696 11.04h4.032l-9.984 24h-3.84l-9.984-24h4.368l7.584 20.112zm-24.816 0v24h-3.84v-24zm-37.392 2.832c-1.632 0-3.024.368-4.176 1.104s-2.04 1.784-2.664 3.144-.936 3-.936 4.92c0 1.888.312 3.52.936 4.896s1.512 2.432 2.664 3.168 2.544 1.104 4.176 1.104 3.024-.368 4.176-1.104 2.04-1.792 2.664-3.168.936-3.008.936-4.896c0-1.92-.312-3.56-.936-4.92s-1.512-2.408-2.664-3.144-2.544-1.104-4.176-1.104zm-90.07 18.288c2.368 0 4.216-.832 5.544-2.496s1.992-3.872 1.992-6.624-.648-4.96-1.944-6.624-3.112-2.496-5.448-2.496c-1.536 0-2.88.376-4.032 1.128s-2.048 1.808-2.688 3.168-.96 2.968-.96 4.824c0 1.824.312 3.424.936 4.8s1.504 2.44 2.64 3.192 2.456 1.128 3.96 1.128zm177.904-11.424h-14.32c-.113.717-.17 1.485-.17 2.304 0 .378.013.747.038 1.104h-1.286v-3.408h1.418c.153-.964.408-1.836.766-2.616.624-1.36 1.504-2.4 2.64-3.12s2.488-1.08 4.056-1.08c2.048 0 3.704.624 4.968 1.872 1.193 1.178 1.823 2.826 1.89 4.944zm0 0h1.974l-1.968.384c0-.13-.002-.258-.006-.384zm-52.362-14.304c-.864 0-1.56-.264-2.088-.792s-.792-1.224-.792-2.088.264-1.56.792-2.088 1.224-.792 2.088-.792 1.56.264 2.088.792.792 1.224.792 2.088-.264 1.56-.792 2.088-1.224.792-2.088.792zm-211.586-85.079v8.28c0 1.693-.446 2.97-1.34 3.83-.893.86-2.173 1.29-3.84 1.29-1.653 0-2.93-.43-3.83-1.29s-1.35-2.137-1.35-3.83v-8.28h1.6v7.88c0 1.373.29 2.387.87 3.04s1.484.98 2.71.98c1.227 0 2.13-.327 2.71-.98s.87-1.667.87-3.04v-7.88zm194.9 0v13.2h-1.52v-8.3l.18-3.48h-.02l-4.34 11.78h-1.36l-4.34-11.78h-.02l.18 3.48v8.3h-1.52v-13.2h2.46l2.9 8.02 1 3.3h.04l1.02-3.28 2.88-8.04zm-15.44 13.2h-1.7l-1.4-3.66h-5.98l-1.4 3.66h-1.68l5.14-13.2h1.9zm-14.84-13.2v13.2h-1.98l-5.52-8.84-1.4-2.48h-.02l.08 2v9.32h-1.52v-13.2h1.98l5.5 8.8 1.42 2.54h.02l-.08-2.02v-9.32zm34.6 13.2v-13.2h9.26v1.5h-7.66v4.26h5.96v1.5h-5.96v4.44h7.96v1.5zm-165.28-13.2v1.5h-4.6v11.7h-1.6v-11.7h-4.6v-1.5zm-19.52 0v13.2h-1.98l-5.52-8.84-1.4-2.48h-.02l.08 2v9.32h-1.52v-13.2h1.98l5.5 8.8 1.42 2.54h.02l-.08-2.02v-9.32zm5.92 0v13.2h-1.6v-13.2zm150.62 8.04h4.82l-2.42-6.5z"/></svg>
