<svg color="currentColor" clip-rule="evenodd" fill-rule="evenodd" stroke-linejoin="round" stroke-miterlimit="2" viewBox="0 0 768 768" xmlns="http://www.w3.org/2000/svg"><path  d="m159.6 623c-4.5 0-6.9-.5-8-1.6-.9-.8-1.6-1.8-1.6-2 0-.3.4-1.3 1-2.3.5-1 3.3-2.8 6.1-4.1 4.6-1.9 5.8-2.1 9.1-1.1 2.1.7 4.3 2.1 4.9 3.3 1 1.9.8 2.5-2 5-2.7 2.5-3.9 2.8-9.5 2.8zm96.4-2.5c-7.4.2-15.1.1-17-.1-1.9-.3-7.1-1.2-11.5-2-4.4-.9-12.5-3.3-18.1-5.5-5.5-2.1-12.7-5.5-15.9-7.5-3.3-1.9-7.9-5.1-10.3-7.1s-5.9-5.7-7.8-8.2-4.1-6.9-4.9-9.6-1.9-10.9-2.6-18c-.6-7.1-1.7-14.4-2.4-16s-3-5.2-5.1-7.9c-2.2-2.6-4.8-6-6-7.3-2-2.5-2-2.5-6-.5s-4.2 2-7.1.3c-1.6-1-6.1-5.3-9.9-9.5s-8.7-10.7-11-14.4c-3.6-5.8-5.3-7.5-14-13.4-5.4-3.6-12.5-9.5-15.8-13-3.2-3.4-6.5-7.8-7.3-9.7s-1.8-8.3-2.3-14.3c-.4-6-1.1-11.2-1.5-11.6s-4.6-.7-9.3-.7c-8.4 0-8.7-.1-9.9-2.7-.8-1.4-2.1-7.7-2.9-14-.9-6.2-1.4-14.4-1.2-18.3.3-4.3 1.4-9.1 2.9-12.5 1.3-3 4.5-8.3 7.1-11.8 2.7-3.5 4.8-6.8 4.8-7.3 0-.6-1.7-1.7-3.8-2.5-2-.9-5.7-2.5-8.2-3.7-2.4-1.1-6.1-3.6-8.3-5.6-2.1-1.9-4.5-4.7-5.3-6.2-.8-1.6-1.4-5-1.4-7.8 0-2.7.5-6.2 1-7.6.6-1.5 3.1-5.2 5.5-8.4 2.5-3.1 6.1-6.7 8-8.1s3.7-3.1 4-3.9c.3-.7 0-7-.6-14-1-10.9-1-13.7.4-20.6.9-4.4 3-10.7 4.7-14s5.8-9.3 9.1-13.3 9.7-10.2 14.2-13.8 11.7-8.5 15.9-10.9c4.2-2.5 11.7-6.2 16.5-8.3 4.8-2.2 18.7-7.3 30.8-11.5s47-16 77.5-26.3c30.5-10.2 89.2-30 130.5-43.8s79.9-26.4 86-27.9c6.1-1.4 16.6-3.4 23.5-4.3 9.6-1.2 17.8-1.5 35.5-1.1 14.1.3 26.9 1.1 33 2.1 5.5.9 14.6 2.7 20.3 4.1 5.6 1.4 15.1 4.3 21 6.5s14 5.9 18.1 8.3c4.1 2.3 10.5 7.2 14.2 10.8 4.2 4 7.7 8.5 9.1 11.5 2 4.4 2.3 7.3 3 28.9.5 16.1.4 25.3-.3 27.9-.6 2.1-3.1 7.2-5.6 11.3-2.4 4.1-4.2 8-4 8.7.3.7 8.1 3.2 17.3 5.6 9.3 2.3 22.1 6.1 28.4 8.2 6.3 2.2 15 5.8 19.2 8 4.3 2.2 9.5 5.8 11.7 7.9 2.1 2.2 4.6 5.5 5.5 7.3 1.3 2.8 1.7 7.5 1.9 23.8.2 20.4.2 20.4-2.5 24-1.6 2-2.8 4-2.8 4.5 0 .4 1.8 2.4 4 4.4 2.9 2.6 4 4.5 4 6.5 0 2.3-1.6 4.4-7.7 10.3-7.8 7.3-7.8 7.3-5.3 9 1.4.9 6 4.2 10.2 7.4 4.3 3.2 9.1 7.5 10.8 9.5s3.9 5.5 5 7.8c1.3 2.5 2 6.1 2 9.5 0 4.4-.6 6.5-3 10.2-1.7 2.7-5.2 6.2-8.5 8.3-3 2-5.5 4.4-5.6 5.3 0 .9 0 8 .1 15.9.1 12.8-.1 14.8-2 18.7-1.2 2.5-4 6.1-6.3 8.1-2.3 1.9-6.9 5-10.2 6.9-3.3 1.8-28 11.9-55 22.5s-57.1 22.4-67 26.2-25.2 9.6-34 12.9-36 13.7-60.5 23.1c-24.5 9.3-50.6 19.4-58 22.3s-32.9 12.8-56.5 22c-23.6 9.1-47.5 18.4-53 20.5s-14.1 5.1-19 6.5c-7.4 2.2-11.4 2.7-22.5 3zm-8.4-14.6c7.4.1 14.5-.4 16.3-1 2.4-.9 2.9-1.4 1.9-2-.7-.5-2.9-.9-4.9-.9-1.9 0-5.8-.7-8.5-1.5s-6.2-2.7-7.7-4.3c-2.7-2.9-2.7-2.9-.2-4 1.4-.6 2.5-2 2.5-2.9 0-1-.9-3.2-2-4.8s-2-4-2-5.1c0-1.2.7-2.4 1.5-2.8.8-.3 1.5-1.4 1.5-2.4s-.7-2.7-1.5-3.8c-.8-1-1.5-3.1-1.5-4.7 0-1.9.7-3 2.2-3.6 1.3-.5 3.9-1.3 5.8-1.9 3.5-.9 3.5-.9-1.5-1.6-2.7-.3-9.1-1.3-14.1-2.1-5.1-.8-13-2.7-17.5-4.1-4.6-1.5-13.8-5.3-20.3-8.6-6.6-3.3-13.6-7.1-15.7-8.4s-4.2-2.4-4.5-2.4c-.4 0-.4 6.9-.1 15.2.4 8.4 1.1 19.1 1.7 23.7s1.7 9.6 2.5 11c.7 1.4 3.3 4 5.7 5.7 2.3 1.7 7 4.5 10.3 6.1 3.3 1.7 9.7 4.3 14.3 5.8s11.6 3.3 15.5 4c4 .7 13.1 1.4 20.3 1.4zm-162.1-26.3c-4.4.2-11.6-.3-16-1.2-4.4-.8-8.6-2.1-9.4-2.9-1.2-1.2-.8-2.1 2.8-6.4 3.2-3.7 6.5-6.1 13.9-9.9 5.3-2.7 12.1-5.5 15-6.1s7.6-1.1 10.5-1.1 5.8.4 6.6.9c.7.5.9 1.1.5 1.4-.5.3-6.3 1.8-12.9 3.5s-14.7 4.2-18 5.7c-3.3 1.4-6.7 3.3-7.7 4.2s-1.5 2-1.2 2.5 4 .6 8.2.3c4.2-.4 9.9-1.1 12.5-1.7 3.3-.7 7.7-3.1 13.8-7.5 5-3.6 9.7-6.2 10.4-5.9 1 .4 1.2 1.3.5 3.5-.4 1.6-2.2 4.9-3.8 7.3s-4.1 5.3-5.4 6.5-4.6 3.2-7.3 4.4c-3.5 1.6-7.4 2.3-13 2.5zm-22.5-22.7c-3 0-7.6-.7-10.2-1.5-3.5-1.1-4.8-2-4.8-3.4 0-1 1.2-2.8 2.6-3.9s5-2.9 8-4.1c3-1.1 7.4-2 9.7-2s5.8.5 7.9 1c2 .6 3.9 1.7 4.2 2.6.3.8.1 2.4-.4 3.5-.6 1-3.4 3.2-6.3 4.9-4.1 2.4-6.4 3-10.7 2.9zm197.5-11.6c6.1-.3 11.9-1 13-1.5 1.1-.6 6.3-5.2 11.6-10.3 5.2-5 11.5-10.1 13.9-11.3 2.4-1.1 4.7-1.9 5.2-1.5.6.3.7 1.6.4 2.8-.4 1.4-.1 2.5.7 2.8.6.2 4.8.2 9.3-.1 4.4-.2 11.2.1 15 .7 3.8.7 11.1 3 16.2 5.3 9.1 4 9.2 4 12 2.2 1.5-.9 6.3-5.4 10.7-9.9 4.4-4.4 12.4-12.6 17.8-18.2s9.8-10.5 9.7-10.9c0-.4-5.3-.9-11.7-1.1-7-.2-13.7.1-16.6.8-3.8.9-5.1.9-5.7-.1-.4-.6-2.9-1.3-5.6-1.3-4.4-.2-5.7.4-12.9 5.3-4.4 3-12.4 7.3-17.8 9.7-5.4 2.3-17.7 6.3-27.4 8.8-17.6 4.6-17.6 4.6-32.7 4.3s-15.1-.3-23.9 4c-4.9 2.3-9.1 4.2-9.3 4.2s-.4-.4-.4-.9 2.2-2.6 5-4.7 5-4.4 5-5.2c0-.7-1.7-2-3.7-2.8-2-.9-6.5-2.5-10-3.5-3.5-1.1-10.5-4-15.5-6.5-5.7-2.7-10.5-4.4-12.8-4.4s-5.4 1.1-8.5 3.1c-2.8 1.8-6.9 4.7-9.2 6.7-2.4 1.9-4.3 3.8-4.3 4.3s1.9.9 4.2.9c2.4 0 6.1.5 8.3 1.1s6.1 2.4 8.7 4c3 1.9 6.1 5.3 8.9 9.5 2.3 3.6 5.4 7.1 6.8 7.8 1.4.8 6.2 2.2 10.6 3.1 4.4 1 11.6 2.1 16 2.6 4.4.4 12.9.5 19 .2zm-114.9-22.3c1.2 0 2.7-.6 3.3-1.4.7-.8 2.4-1.7 3.9-2.1 1.5-.3 5.2-2.5 8.2-4.8s9.3-7.3 14-11.2c4.7-3.8 12.2-9.5 16.7-12.5 4.6-3 8.3-5.9 8.3-6.3 0-.5-3-.7-6.8-.6-5.9.2-6.7 0-7.1-1.7-.2-1-.8-2.5-1.3-3.2-.6-.6-2-1.2-3.1-1.2s-6.1 1.6-11.1 3.5-10.6 4.3-12.5 5.3c-1.9.9-5.9 3.9-8.9 6.7-3.1 2.7-6.3 6.7-7.3 8.9-1.6 3.6-1.8 3.7-2.8 1.8-.6-1.1-1.1-3.8-1.1-6 0-2.1.7-5.9 1.5-8.3.9-2.5 2.9-6.2 4.6-8.2s3.4-3.7 3.9-3.7.3 1.5-.4 3.2c-.7 1.8-1.1 3.8-.9 4.5.3.7 3.9-1.8 8.8-6 4.6-4 8.5-7.6 8.7-8.1s-2.2-1.5-5.2-2.3c-3-.7-8.2-2.6-11.5-4.2-3.3-1.5-8.1-4.4-10.8-6.4-2.6-2.1-5.3-3.7-6.1-3.7s-2.8 2.1-4.4 4.8c-1.7 2.6-3.8 7.4-4.8 10.7-1.2 4.5-1.5 7.9-1.1 14 .5 6.4 1.4 9.5 4.3 15.3 2.5 5.1 6 9.8 11.3 15.3 4.8 5 8.4 7.9 9.7 7.9zm111.6-23c2.1 0 3.8-.3 3.8-.7 0-.3-.8-1.5-1.8-2.6-1.2-1.5-1.4-2.1-.4-2.4.6-.3 1.2-.8 1.2-1.3 0-.4-3.4-1.3-7.5-1.9-4.2-.6-10.1-1.1-13.2-1.1-4.5 0-5.4.3-4.5 1.2.7.7 5.2 2.9 10 5s10.4 3.8 12.4 3.8zm184.8-13.1c2 0 4.7-.7 6-1.6 1.4-.9 9-7.8 16.9-15.2 7.9-7.5 17.3-17.2 20.8-21.6 3.6-4.3 7.6-10.1 8.9-12.8 1.4-2.7 2.3-5.6 2.1-6.5-.2-1.2-7.5 5.5-24.3 22.3-14.9 15-25.4 24.8-27.9 25.9-3.5 1.7-5.6 1.8-21 1.2-9.3-.3-22.8-1.1-29.8-1.7-8.9-.8-13.2-.8-13.9-.1s.2 1.4 2.8 2.1c2.2.6 7.7 1.8 12.4 2.6 4.7.9 16.4 2.4 26 3.4s19.1 1.9 21 2zm56.7-3c.7.1 2.7-1.2 4.4-2.7s7.4-8.6 12.8-15.7c6.7-9 10.8-13.7 13.6-15.2 3.1-1.8 5.6-2.3 11.3-2.3 4.3 0 7.2-.4 7.2-1s-2.4-2.2-5.2-3.5c-2.9-1.4-6.4-2.5-7.8-2.5s-3.9.4-5.5.9c-1.7.5-7.8 2.9-13.6 5.3s-14 6.9-18.3 9.9c-4.2 2.9-10.6 7.8-14.2 10.8-3.6 2.9-6.3 5.8-6.1 6.5.2.6 4.8 3 10.3 5.3 5.4 2.3 10.5 4.2 11.1 4.2zm-182.4-3.9c2.3 0 6.9-.7 10.1-1.5 3.1-.8 12.6-4.6 20.9-8.4 8.4-3.8 22.4-9.8 31.2-13.4s23.4-9.6 32.5-13.2c9.1-3.7 24.4-10 34-14 9.6-3.9 20.2-8.6 23.5-10.2 3.3-1.7 8.8-4.2 12.2-5.7 3.4-1.4 10.6-3.5 16-4.7 6.7-1.4 13-3.6 20.1-7.1 5.6-2.8 10.2-5.6 10.2-6.3s-1.4-1.8-3.1-2.4c-1.8-.6-4.6-1.1-6.4-1.1-1.9 0-8.8 2.7-16.6 6.4-7.4 3.5-17.2 8-21.9 9.9s-15.7 6.5-24.5 10.2-30.9 12.7-49 20-40 16.4-48.5 20.3c-8.5 3.8-22.1 9.8-30.2 13.2-8.2 3.4-14.8 6.6-14.8 7.1s1.9.9 4.3.9zm-67.5-1.1c7.2 0 13.2-.1 13.2-.3s-4.4-.9-9.8-1.6c-5.3-.6-17.5-3.1-27-5.6-9.4-2.4-21.1-5.9-26-7.8-4.8-1.9-12.2-5-16.5-7s-11.3-4.3-15.5-5.2-9.6-2.6-12.1-3.9-5.6-3.4-6.8-4.7c-1.2-1.2-2.6-3.5-3.1-4.9-.6-1.4-1.2-11.2-1.3-21.7-.2-10.5-.1-19.4.2-19.6.3-.3 3 1.1 6 3.2 3 2 11.1 7.5 17.9 12.1s18.3 11.3 25.5 14.7c8 3.9 16.8 7.3 22.6 8.8 5.3 1.4 13.9 2.9 19.2 3.5s16.5 1.1 24.9 1.1 19.4-.5 24.3-1c4.9-.6 13.1-2 18-3.1 4.9-1.2 20.9-6.8 35.5-12.4 14.6-5.7 37.1-14.5 50-19.5s28.7-11.3 35-13.9c6.3-2.7 22.3-9 35.5-14.1s41.3-16.2 62.5-24.5c21.2-8.4 44.1-17.3 51-19.8s21-7.8 31.5-11.7c10.5-4 25.1-9.4 32.5-12s17.1-6.2 21.5-8c4.4-1.7 11-4.7 14.7-6.7 3.7-1.9 8.8-5.7 11.3-8.4 2.6-2.8 4.5-5.8 4.5-7.1s-.9-3.7-1.9-5.5c-1.1-1.7-4-4.5-6.6-6.3-2.5-1.7-7.8-4.5-11.8-6.1-4-1.7-15.7-5.4-26.2-8.4-10.5-2.9-22.9-6.7-27.6-8.3-4.8-1.6-10.6-4-13.1-5.5-2.4-1.4-6.7-4.6-9.5-7.2-2.8-2.5-6.1-6.5-7.2-8.8-1.2-2.4-2.1-6.3-2.1-8.8s.8-5.7 1.9-7.5c1-1.7 4.7-5.5 8.2-8.5 3.4-3 8.7-7.7 11.7-10.4s6.8-7 8.4-9.3c1.7-2.4 3.2-6.1 3.5-8.1.4-2.7-.1-5-1.7-8.1-1.3-2.5-4.6-6.7-7.5-9.5-2.8-2.7-7.7-6.5-10.8-8.3-3-1.9-9.1-4.9-13.4-6.7-4.3-1.9-11.8-4.6-16.8-6s-14.5-3.5-21.1-4.6c-6.7-1-19.1-2.4-27.5-2.9-8.5-.6-19.9-.8-25.4-.4-5.5.3-15.2 1.2-21.5 2s-14.9 2.3-19 3.3c-4.1 1.1-16.9 4.9-28.5 8.6-11.6 3.6-28.6 9.2-38 12.5-9.4 3.2-20.1 6.8-24 8s-22.7 7.6-42 14.2-65.4 22.2-102.5 34.8c-37.1 12.5-72 24.4-77.5 26.5s-14 5.8-19 8.3c-4.9 2.4-12.2 6.6-16.1 9.3-4 2.7-10 7.4-13.3 10.5s-8.1 8.8-10.5 12.7c-2.4 4-5.1 9.6-6 12.6s-1.6 8.5-1.6 12.3c0 4.2.7 9 1.9 12.3 1.1 3 4.1 8.8 6.8 12.8 2.6 3.9 10.6 13.1 17.8 20.3 7.1 7.1 20.1 19.5 28.8 27.4 8.8 7.9 16.6 15.4 17.4 16.6.8 1.3 1.2 2.8.8 3.4s-2.2.8-4.4.4c-3.8-.6-3.8-.6-4.4 17.2-.3 9.9-1.1 19.7-1.7 21.9-.9 3-.9 5.2-.1 9.1.8 3.6 2.4 6.6 5.1 9.7 2.5 2.8 6.1 5.4 10.1 7.1 3.4 1.6 7.9 3.1 10.1 3.4 2.2.2 6.4-.1 9.3-.8 5.3-1.3 5.3-1.3 10.3 2.4 2.7 2 7.9 5 11.5 6.6 3.5 1.7 11.7 4.4 18 6s14.8 3.3 18.9 3.8c4 .5 13.3 1 20.6 1.1zm-144.2-1.9c.8 0 1.4-.5 1.4-1 0-.6-1.3-3.4-2.9-6.3-1.6-2.8-3.7-8.1-4.6-11.7s-2.6-7.5-3.8-8.8c-1.1-1.2-2.6-2.2-3.4-2.2-.9 0-1.3 1.9-1.3 7 0 3.9.6 8.5 1.4 10.3.7 1.8 3.7 5.4 6.6 8s5.8 4.7 6.6 4.7zm522-4c1.5 0 3.7-2.3 7.7-7.8 3.1-4.2 9.2-12.6 13.5-18.7s10.7-15.7 14.2-21.5 7-11.3 7.9-12.2 5.9-3.1 11.1-4.8 12.2-4.6 15.6-6.5 7.6-5.1 9.3-7 3.4-4.7 3.7-6c.3-1.4.1-3.8-.6-5.4-.6-1.6-3-4.9-5.3-7.3-2.3-2.3-6.8-6-9.9-8.1-3.2-2.1-7.2-4.3-8.8-4.9-1.7-.6-3.4-.8-3.7-.4-.3.3 1.2 2.7 3.3 5.3 2.2 2.7 5 6.2 6.2 7.9s1.9 3.4 1.5 3.8c-.3.3-2.4.6-4.5.6-2.2 0-5.9.5-8.3 1.1-2.5.6-5 1.8-5.6 2.6-.9 1-.9 1.7-.1 2.5.9.9-.7 3-6.3 8.4-4.3 4.2-8.6 7.4-10.2 7.7-1.5.3-9.1-.4-16.7-1.5-12.9-1.8-14.2-1.8-18-.4-2.3.9-6.3 3.2-8.9 5.2-4.8 3.5-4.8 3.5-.4 8.7 2.5 2.9 6.1 7.8 8.1 11 2 3.1 4.6 7.8 5.6 10.3 1.1 2.5 2 6.6 2 9.1 0 3.9-.2 4.4-1.5 3.3-.8-.7-4.7-7.4-8.5-14.9-3.9-7.5-8.5-15.4-10.2-17.5-2.5-3.1-3.6-3.7-5.7-3.3-1.4.3-9.1 3.3-17.1 6.8-8 3.4-16.4 6.3-18.6 6.5-2.3.1-9.2 2.4-15.3 4.9-6.1 2.6-11.3 5.1-11.6 5.6-.3.4 1.1 1.3 3.2 1.8s7.6 1.9 12.3 3.1 10.3 3.2 12.6 4.5c2.2 1.3 4.7 3.1 5.4 4 .8.9 3.4 2.7 5.9 3.9 2.5 1.3 10 4 16.6 6.1 6.6 2 14.4 5 17.5 6.5 3 1.5 6.6 3.7 8 4.9 1.4 1.1 3.4 2 4.6 2.1zm-223.3-1c2.6 0 6.4-.7 8.4-1.5 3.3-1.4 3.5-1.7 2.2-3.1-.9-.8-4.5-1.9-8.1-2.5-4.7-.7-7.8-.7-10.8.1-2.4.6-4 1.6-3.8 2.3.3.7 2 2 3.9 2.9 1.9 1 5.6 1.8 8.2 1.8zm18.6-14.3c8.7-.4 13-1 16.2-2.5 2.4-1 7.3-4.5 10.9-7.7s6.6-6.7 6.8-7.7c.2-1.3-.3-1.8-1.8-1.8-1.1 0-5.3 1.8-9.3 3.9-4 2.2-12.4 5.8-18.7 8-6.3 2.3-12.5 4.7-13.8 5.3-1.2.6-2.2 1.6-2.2 2.1 0 .6 4.4.8 11.9.4zm-300.9-9.8c2.5.1 5.2-.4 6-.9 1.2-.7 1.1-1.3-1-3.5-1.4-1.4-3.8-3.4-5.5-4.4s-6-2.1-9.9-2.4c-3.7-.4-8.4-1.4-10.4-2.4s-3.8-2.3-4-3 1.3-1.6 3.5-2.1c2.1-.6 5.1-1.3 6.8-1.7 3-.7 3-.7 0-3.3-1.7-1.5-4.1-3.4-5.5-4.3-2.5-1.7-2.5-1.7-.2-4.1 1.2-1.3 2.2-3.2 2.2-4.1s-.8-2-1.7-2.6c-1.2-.6-3.8-.2-8.8 1.6-3.8 1.4-8.3 3.2-9.9 4-1.5.8-4.8 3.3-7.2 5.5s-5.7 6.4-7.4 9.3c-1.6 2.9-3 5.8-3 6.4s.7 1.1 1.5 1.1 4.5-1 8.2-2.2c6.7-2.2 6.7-2.2 15.7 2.7 5 2.7 12.9 6.1 17.6 7.6 4.7 1.6 10.5 2.8 13 2.8zm3.3-20.9c1 0 3.2-1.4 4.9-3 1.6-1.7 2.8-3.6 2.6-4.3-.3-.6-1.6-1.5-2.9-1.9-1.3-.3-6-1.6-10.4-2.9-4.4-1.2-9.2-2.4-10.7-2.7-2-.3-2.8 0-2.8 1 0 .8 3.9 4.3 8.8 7.6 4.8 3.4 9.5 6.2 10.5 6.2zm-57.7-4c.8 0 3.9-2.2 6.7-4.8 2.9-2.6 6.4-5.6 7.9-6.5 1.6-1 2.8-2.2 2.8-2.7 0-.6-1.1-1.5-2.5-2s-2.5-1.4-2.5-1.9.7-1.6 1.5-2.5c.8-.8 2.4-1.8 3.6-2.1 1.1-.4 1.8-1.2 1.6-1.8-.2-.7-1.8-2.1-3.5-3.2-2.5-1.6-3.2-2.6-3.1-5 .1-1.6.1-3.8 0-4.7 0-1-.7-1.8-1.5-1.8s-3 1.8-4.9 4c-1.8 2.2-4.7 6.3-6.3 9.2-2.5 4.5-2.9 6.4-2.9 12.8 0 4.1.3 8.7.8 10.2.4 1.6 1.4 2.8 2.3 2.8zm51.4-18c3.3 0 3-.3-6.1-6.2-5.2-3.5-13.4-9.9-18.2-14.3s-9.2-8.1-9.7-8.3c-.6-.2-1 .4-1 1.2 0 .9.6 3.1 1.3 4.9.8 1.8 2.6 4.6 4.1 6.4s5.9 5.3 9.7 7.9c3.9 2.5 9.1 5.5 11.7 6.5s6.3 1.8 8.2 1.9zm535.7-13c.7 0 2.9-3.3 5-7.2 2-4 6.2-13.6 9.3-21.3 5.1-12.5 6.2-14.3 9.8-17 2.3-1.6 6.9-4.7 10.2-6.8 4.9-3 6.1-4.2 5.8-6-.2-1.6-1.1-2.3-3-2.5-1.8-.2-4 .6-6 2.1-1.8 1.4-6 3.8-9.3 5.4s-9.6 4.4-14 6.1-14.7 5.6-23 8.6-20.5 7.5-27.2 10-16 5.3-20.5 6.2c-4.6.9-12.8 2.9-18.3 4.4s-13.3 3-17.3 3.4-9.4 1.4-12.1 2.2-5.4 2.1-6.1 2.9-.9 1.5-.5 1.5 6.4.9 13.4 1.9c6.9 1.1 17.8 2.5 24.2 3.2 11 1.1 11.9 1.1 15-.7 1.8-1.1 3.4-2.4 3.6-3.1.2-.6-1.6-2.1-4.1-3.2s-4.6-2.4-4.6-2.9c0-.6 1-1.2 2.2-1.5 1.3-.3 8.1-1.3 15.1-2.2 11.9-1.6 13.5-1.6 22.5-.1 5.3.9 12.1 2.8 15 4.2 3 1.5 7 4.6 9.5 7.5 2.3 2.7 4.8 4.9 5.4 4.9zm-410.7-4.7c-1.9.3-4.5.3-5.7 0-1.2-.2-2.7-1.1-3.3-1.9-1-1.1-.9-1.9.3-3.8.9-1.3 3.1-3.3 4.9-4.4 1.9-1.2 5.4-2.6 7.9-3.3s5.7-.9 7.2-.5c1.7.4 2.7 1.3 2.7 2.5 0 1-.9 3-2 4.4s-3.5 3.5-5.3 4.5c-1.7 1.1-4.8 2.2-6.7 2.5zm-42.3-2.3c-1.8 0-4.2-.6-5.2-1.4-1.1-.8-1.6-1.9-1.2-3 .4-.9 1.8-2.1 3.2-2.6 1.5-.6 3.5-1 4.5-1s2.8.8 4 1.8c2.3 1.9 2.3 1.9.2 4-1.4 1.4-3.5 2.2-5.5 2.2zm-127.5-17c.5 0 .8-.6.8-1.3s-1.6-3.6-3.5-6.4c-1.9-2.9-3.5-6.3-3.5-7.6s-.6-3.2-1.4-4.2c-.9-1.3-1.2-3.7-.8-8.2.4-5.2.2-6.4-1.2-6.9-.9-.3-2.4 0-3.3.7-.9.8-3.6 4-6 7.3-3 4-4.3 6.8-4.3 9.1 0 1.8.9 4.4 2 5.8s4.1 3.8 6.7 5.3c2.7 1.5 6.8 3.6 9.3 4.5 2.5 1 4.8 1.8 5.2 1.9zm260.9-5.1c-1.4 0-3.6-.4-4.9-.9-1.3-.6-2.2-1.8-2.2-3s1.2-3.2 2.7-4.6c1.4-1.3 4.9-3.1 7.6-3.9 2.8-.8 6.2-1.5 7.7-1.5 1.4 0 3.4.6 4.4 1.3 1.3 1 1.6 2 1.2 3.5-.4 1.2-2.2 3.3-3.9 4.6-1.8 1.3-4.7 2.8-6.6 3.5-1.9.6-4.6 1.1-6 1zm-253.9-2.9c.7 0 .9-2.7.4-9.2-.4-5.1-1.2-11-1.7-13-.5-2.1-2.1-5-3.5-6.5-2.5-2.8-2.5-2.8-1.9 6.7.3 5.2.9 11.2 1.4 13.3.5 2 1.6 4.9 2.5 6.2.9 1.4 2.1 2.5 2.8 2.5zm95.9-11.1c-2.6-.1-5.4-.3-6.3-.6-1.1-.3-1.8-1.4-1.8-2.8 0-1.3.8-3.1 1.7-4.1 1-.9 3.6-2.5 5.9-3.6 2.3-1 6.2-2.1 8.6-2.4 3-.4 4.9-.1 6.3.9 1.7 1.3 1.8 1.8.7 4.1-.6 1.4-3.3 4-5.9 5.6-3.6 2.3-5.8 3-9.2 2.9zm232.9-12.5c-2.5.3-5.5.1-6.8-.4-1.2-.5-2.5-1.7-2.8-2.5-.4-.9.3-2.6 1.6-4 1.2-1.3 4.2-3.3 6.6-4.4 2.7-1.3 6.4-2.1 9.8-2.1 3.7 0 5.8.5 6.7 1.6 1 1.3 1 2-.3 4.2-.9 1.5-3.6 3.7-6 4.9s-6.3 2.4-8.8 2.7zm-134.4-7.4c-4.9 0-7.9-.5-9.4-1.6-1.2-.8-2.2-2.4-2.2-3.5s1.1-3.1 2.6-4.4c1.4-1.3 4.5-3.3 6.9-4.4 3.4-1.6 6.5-2.1 12.5-2.1 6.5 0 8.2.3 8.7 1.6.3.9-.2 3.2-1.2 5-1 1.9-3.9 4.8-6.3 6.4-4 2.6-5.4 3-11.6 3zm-178.1-18c-.8 0-2.4-.9-3.6-2.1-1.1-1.1-2.9-3.9-4-6.2-1-2.3-1.9-6.5-1.9-9.3s.7-7.3 1.5-10c.8-2.8 3.2-7.5 5.4-10.5s5.7-6.8 8-8.3c2.2-1.5 4.5-2.6 5-2.5.6.2-1 4-3.5 8.4s-5.4 10.6-6.5 13.7c-1 3.2-1.9 7.5-1.9 9.6s.7 6.4 1.5 9.5c.8 3.2 1.5 6.2 1.5 6.7 0 .6-.7 1-1.5 1zm250.4-1c-1.9 0-4.4-.6-5.5-1.4-1.5-1.2-1.7-1.9-.8-3.3.6-.9 3-2.8 5.4-4 2.8-1.5 6-2.3 9.2-2.3 3.3 0 5 .5 5.4 1.4.3.8.1 2.3-.5 3.4s-3 2.9-5.4 4.1-5.9 2.1-7.8 2.1zm-209.4-20.7c-1.7.3-4.1.2-5.5-.2-1.8-.5-2.5-1.4-2.5-3.1 0-2.1 1.2-3.1 6.4-5.8 3.5-1.7 7.7-3.2 9.2-3.2s3.5.7 4.3 1.6c.9.8 1.6 1.9 1.6 2.3s-1 1.7-2.2 2.8c-1.3 1.1-3.6 2.7-5.3 3.6-1.7.8-4.3 1.7-6 2zm460.7-1.3c-2.1 0-4.3-.5-5-1.2s-1.2-1.8-1.2-2.4c0-.7 1.5-2.4 3.2-3.7 1.8-1.3 4.8-2.9 6.7-3.6 1.9-.6 4.6-1.1 6.1-1.1s3.3.7 4 1.5c.6.8.9 2.3.5 3.5-.4 1.1-2.8 3.2-5.5 4.5-2.7 1.4-6.7 2.5-8.8 2.5zm-324.2-4.1c-1.4 0-3.5-.4-4.8-.9-1.2-.5-2.2-1.6-2.2-2.5 0-.8.8-2.3 1.9-3.4 1-1 4.1-2.6 6.9-3.5 2.8-1 6.6-1.6 8.4-1.4 2.2.2 3.4.9 3.6 2.1.2 1-.5 2.8-1.5 3.9-1 1.2-3.6 2.9-5.8 3.9s-5.1 1.8-6.5 1.8zm93-1.5c-2.5.3-5.4.2-6.5-.1s-2.8-1.2-3.7-2.1c-1-.8-1.8-2.4-1.8-3.4 0-1.3 2-2.9 7.2-5.3 5-2.4 8.7-3.5 11.8-3.5 2.6 0 5.5.6 6.5 1.4 1.6 1.2 1.8 1.9 1 4.2-.6 1.7-2.9 4-5.5 5.6-2.5 1.5-6.5 3-9 3.2zm-174.2-.4c-3.7 0-7-.5-7.3-1.1-.4-.5-.4-2-.1-3.2s2.1-3.2 3.9-4.4c1.9-1.2 5.2-2.7 7.3-3.3 2.2-.6 6.1-1 8.8-.8 3.3.2 5.3.9 6 2 .8 1.3.5 2.3-1.4 4.4-1.4 1.5-4.3 3.5-6.5 4.5-2.6 1.2-6.3 1.9-10.7 1.9zm241.7-.7c-2.2.3-5.1.3-6.5 0s-3.3-1.2-4.2-2c-1-.9-1.8-2.4-1.8-3.3s.8-2.4 1.8-3.3c.9-.9 3.8-2.5 6.2-3.6 2.6-1.2 6.7-2.1 9.6-2.1 2.8 0 5.9.6 6.9 1.4 1.6 1.2 1.8 1.9 1 4.1-.6 1.5-2.8 4-5 5.5-2.2 1.6-5.8 3.1-8 3.3zm204.3-8.3c-4 0-4.8-.3-4.8-1.8 0-1.1 1.1-2.4 2.5-3 1.4-.7 3.6-1.2 4.9-1.2 1.2 0 3.1.7 4.2 1.5 1.9 1.5 1.9 1.5 0 3-1.1.9-4 1.5-6.8 1.5zm-133.5-1c-3.2 0-6.4-.4-7.1-.9-.8-.4-1.2-1.9-1-3.2s2-3.5 4.3-5.1c2.2-1.5 5.6-3.2 7.5-3.8 1.9-.5 5.6-1 8.1-1 2.7 0 5.1.6 5.8 1.4.8.9.8 2.2.2 3.7-.5 1.3-1.7 3.2-2.8 4.1-1 1-3.5 2.4-5.6 3.3-2 .8-6.2 1.5-9.4 1.5zm76.3-20c-1.8 0-4-.6-5-1.3s-1.7-2.2-1.4-3.2c.2-1.1 1.4-2.5 2.8-3.2s4-1.3 5.8-1.3c1.9 0 4 .8 5.2 2 1.1 1.1 1.7 2.6 1.3 3.6-.3.8-1.7 2-3 2.5s-3.9.9-5.7.9zm-359.7-12c-1.4 0-3.3-.6-4.3-1.3-1.5-1.1-1.6-1.7-.7-3.4.6-1.2 3.9-3.5 7.3-5.2 3.3-1.7 7.5-3.1 9.3-3.1 1.7 0 3.6.5 4.3 1.2s1.2 2 1.2 2.9c0 1-1.5 2.9-3.2 4.3-1.8 1.3-5.1 2.9-7.3 3.5s-5.2 1.1-6.6 1.1zm86.1-1.6c-2.5.3-4.9.4-5.5.1-.6-.2-2.2-.6-3.7-.9-2.3-.5-2.8-1.2-2.8-3.5 0-2.1 1-3.7 3.2-5.7 1.8-1.5 4.7-3.3 6.5-4.1 1.8-.7 5.7-1.3 8.7-1.3s6.6.4 8 1c1.4.5 2.6 1.6 2.6 2.4 0 .9-1.4 3.1-3 5-1.7 1.8-4.5 4.1-6.3 4.9-1.7.8-5.2 1.8-7.7 2.1zm97.8-2.4c-1.8 0-3.9-.4-4.6-.9-.8-.5-1.2-1.6-1-2.6.1-1 1.5-2.7 2.9-3.8 1.5-1 4.7-2.1 7.1-2.4 3.2-.4 4.7-.1 5.7 1 .7 1 1 2.5.6 3.7s-2.2 2.8-4.1 3.6c-1.8.8-4.8 1.4-6.6 1.4zm-20.3-16.1c-2.2-.1-5.1-.4-6.5-.8s-2.6-1.5-2.8-2.5.6-2.9 1.9-4.2c1.2-1.3 4.2-3.1 6.7-4.1 2.5-.9 6.9-1.7 9.8-1.8 2.9 0 5.8.6 6.5 1.2 1 1 1 1.8.1 3.7-.6 1.4-3.5 3.9-6.4 5.5-3.6 2.1-6.6 3.1-9.3 3zm79.3-6c-.7 0-2.3-.4-3.6-.9-1.2-.5-2.2-1.8-2.2-2.9s1.5-3.1 3.2-4.4c1.8-1.4 4.8-3.2 6.7-4.2 1.8-.9 5.3-1.7 7.7-1.8 2.4 0 5 .6 5.9 1.3.8.7 1.5 1.9 1.5 2.6 0 .8-2.1 2.9-4.8 4.8-2.6 1.9-6.6 4-8.9 4.5-2.3.6-4.8 1.1-5.5 1zm75.5-22.9c-3.2 0-6.6-.5-7.5-1.1-1-.5-1.8-1.6-1.8-2.4s1-2.4 2.2-3.6c1.3-1.2 4.6-3.2 7.3-4.5 3.1-1.5 6.8-2.4 9.8-2.4 2.7 0 5.7.5 6.8 1 1 .6 1.9 1.8 1.9 2.6s-1.5 2.9-3.2 4.6c-1.8 1.6-4.7 3.6-6.5 4.4s-5.8 1.4-9 1.4zm-172.4-16c-2.5 0-5.4-.7-6.5-1.5-1.8-1.5-1.8-1.6 1.5-4.5 1.9-1.6 5.5-3.6 7.9-4.5 2.5-.8 5.5-1.5 6.7-1.5s3 .6 4 1.4c1.7 1.3 1.8 1.7.6 4-.8 1.4-3.3 3.5-5.6 4.6s-6.2 2-8.6 2zm100.9 0c-1.8 0-4.1-.5-5-1.1-1-.5-1.8-1.8-1.8-2.9 0-1.2 1.6-2.6 4.5-4 2.5-1.2 6.2-2.4 8.3-2.7 2.9-.4 4.1 0 5.6 1.6 1.9 2.1 1.9 2.1 0 4.2-1 1.2-3.3 2.8-5.1 3.5-1.8.8-4.7 1.4-6.5 1.4zm58.4-24c-2.2 0-4.5-.6-5.2-1.5-.6-.8-.9-1.9-.5-2.6.4-.6 2.6-2 4.9-3 2.2-1 5.7-1.9 7.8-1.9 2 0 3.8.6 4.1 1.2.2.7 0 2.1-.5 3-.5 1-2.2 2.5-3.8 3.3s-4.7 1.5-6.8 1.5zm-85.3-1c-1.5 0-3.2-.7-3.9-1.5-1-1.3-1-1.9.5-3.4.9-1.1 3.2-2.7 5-3.5 1.8-.9 5.1-1.6 7.3-1.6 2.3 0 4.3.4 4.6.9.4.5.3 1.7 0 2.6-.4 1-3 2.8-5.8 4.1s-6.3 2.4-7.7 2.4zm125.5 0c-1.7 0-3.7-.7-4.5-1.6-.9-1.1-1-2-.3-3.2.6-1 3-2.3 5.3-3.1 3.2-1 4.9-1.1 6.7-.2 1.3.6 2.4 1.7 2.4 2.6 0 .8-1.5 2.4-3.2 3.5-1.8 1.1-4.7 2-6.4 2z" stroke="#000" transform="matrix(.76972 0 0 .76972 81.4476 137.262)"/><path d="m1293.23 618.2c.27-37.7-181.53-103.38-201.63-90.54s28.85 54.15 21.4 73.84-153 96.5-365 33.5c-15.906-7.534-38.197-18.651-61.355-36.326-59.828-45.666-125.436-135.111-101.645-319.674-109 623 525.51 422.92 541.5 428.5s-16.88 64.39 15.06 72.19 151.44-123.79 151.67-161.49z" fill-rule="nonzero" transform="matrix(-.134211 .190206 .190206 .134211 303.969 19.743)"/><path d="m1293.23 618.2c.27-37.7-181.53-103.38-201.63-90.54s28.85 54.15 21.4 73.84-153 96.5-365 33.5c-57-27-196-100-163-356-109 623 525.51 422.92 541.5 428.5s-16.88 64.39 15.06 72.19 151.44-123.79 151.67-161.49z" fill-rule="nonzero" transform="matrix(-.218848 -.0793645 -.0793645 .218848 706.772 575.209)"/><path d="m468.405 644.971c-.002-2.362-1.945-4.305-4.307-4.307h-66.44c-2.362.002-4.305 1.945-4.307 4.307v8.616c.002 2.363 1.945 4.306 4.308 4.307h66.439c2.363-.001 4.306-1.944 4.308-4.307v-8.616zm125.612-26.981c-.002-2.363-1.945-4.306-4.308-4.307h-192.049c-2.362.002-4.305 1.945-4.307 4.307v8.616c.002 2.362 1.945 4.305 4.307 4.307h192.05c2.363-.001 4.306-1.944 4.308-4.307v-8.616zm-50.557-26.98c-.002-2.363-1.945-4.306-4.308-4.307h-141.494c-2.362.002-4.305 1.945-4.307 4.307v8.616c.002 2.362 1.945 4.305 4.307 4.307h141.494c2.363-.001 4.306-1.944 4.308-4.307z" transform="translate(-229.499 -489.435)"/><path d="m462.797 148.42c-.002-2.363-1.945-4.306-4.308-4.307h-130.182c-2.362.002-4.305 1.945-4.307 4.307v8.616c.001 2.362 1.945 4.306 4.307 4.307h130.182c2.363-.001 4.306-1.944 4.308-4.307zm-91.995-26.98c-.002-2.362-1.945-4.305-4.307-4.307h-38.187c-2.363.001-4.306 1.944-4.308 4.307v8.616c.002 2.363 1.945 4.306 4.308 4.307h38.187c2.362-.002 4.305-1.945 4.307-4.307z" transform="translate(219.352 415.77)"/></svg>
