<svg clip-rule="evenodd" fill-rule="evenodd" stroke-linejoin="round" stroke-miterlimit="2" viewBox="0 0 186 186" xmlns="http://www.w3.org/2000/svg"><path d="m0 0h219.433v265.113h-219.433z" fill="#e33d25" transform="scale(.847639 .701587)"/><path d="m139 25c0-20-19-25-34-25v3c9 0 16 3 16 10-.261 5.617-4.953 10.096-10.576 10.096-.476 0-.952-.032-1.424-.096-11.303-1.208-22.399-3.897-33-8-11.251-4.239-23.025-6.931-35-8-.434-.017-.868-.026-1.303-.026-17.685 0-32.33 14.345-32.697 32.026-.131 9.737 5.888 18.565 15 22l1-2c-3.823-1.818-6.194-5.771-6-10 .859-6.839 7.152-11.784 14-11 12.67 1.392 25.107 4.417 37 9 12.141 3.491 24.502 6.163 37 8v31l-15 13v1l15 13v43c-7.597 4.326-16.268 6.407-25 6-14.731.774-29.057-5.103-39-16l41-20v-70l-50 22c5.595-12.032 14.648-22.129 26-29l-1-2c-32.105 7.794-55.406 36.001-57 69 .106 38.361 31.639 69.894 70 70 .316.005.631.007.947.007 35.669 0 65.028-29.337 65.053-65.007h-2c-5.263 12.765-14.346 23.595-26 31v-41l16-13v-1l-15-13v-30c.474.024.949.036 1.425.036 15.678 0 28.579-12.902 28.579-28.58 0-.152-.002-.304-.004-.456zm-87 110-12 6c-7.905-11.033-11.789-24.451-11-38-.056-7.111.955-14.19 3-21l21-9z" fill="#fff" fill-rule="nonzero" transform="matrix(.861876 0 0 .861876 33.0981 12.8426)"/></svg>