<svg xmlns="http://www.w3.org/2000/svg" xml:space="preserve" fill-rule="evenodd" stroke-linejoin="round" stroke-miterlimit="2" clip-rule="evenodd" viewBox="0 0 192 192"><path fill="#fff" d="M0 0h192v192H0z"/><path fill="#070707" d="M19.8 48.8 13 50.5 12 140H28V93.5c0-25.6-.3-46.5-.8-46.4l-7.4 1.7m65.5 0a70.4 70.4 0 0 0-31.6 28A58 58 0 0 0 49 112a41.5 41.5 0 0 0 22.3 29.6c8 3.6 20.8 4.5 28.6 2 9.3-3.2 24-15.2 30.1-24.6 15-23.4 6.4-57.9-17.3-68.6A39.7 39.7 0 0 0 85.3 49m86.5-.1-6.8 1.5V83c0 18-.3 38.2-.7 44.8l-.6 12.2h16.8V93.5c0-30.4-.3-46.5-1-46.4l-7.8 1.7M77.5 60.3c-7.3 2-10 4-13 10.7-10.2 23-2 49.3 18.3 58.8 5 2.4 7 2.7 15.7 2.7 13.4 0 17.5-1.7 21-8.9a53 53 0 0 0 3-33.7c-3.7-17.8-16-29.1-33-30.4-4.2-.2-9 0-12 .8"/></svg>