<svg xmlns="http://www.w3.org/2000/svg" xml:space="preserve" fill-rule="evenodd" stroke-linejoin="round" stroke-miterlimit="2" clip-rule="evenodd" viewBox="0 0 200 200"><path fill="#fff" d="M0 0h200v200H0z"/><path fill="#49c5b1" fill-rule="nonzero" d="m54.2 61.5.2.2H54v-.2Zm67.2 62.5v.3-.3m-13.7 41.7v-.3.3m-33.4-44.3c0 .2-.1.2-.3 0h.3Zm31.5-59.2.1-.3v.3m-67 0v.4-.3m-1 .7-.2-.2h.1l.1.1v.1Zm101.9-26.4-.3.2.2-.3m-66 84.5.2-.2c0 .2 0 .3-.3.2m39.1 41.5h.2l-.2.1m-2.2-.5.1-.1h.1l-.1.2-.1-.1m2-100.5-.3-.1v-.1h.3v.2M77.1 36.5l.2.1v.1l-.3-.2m34.4 124.7h-.3.3m12.9-39.1-.3.3c0-.2 0-.3.3-.3m-56.6-1.8H67.5h.3m38.6-59h-.1.2m-10.2 8V69v.1m13.2.4h-.3c.1-.2.2-.2.3 0ZM147.1 49v-.3h.2l-.1.3h-.1M129 121.2c.2-.1.3 0 .2.2l-.2-.2Zm29.4-71.7.2-.2-.1.2M86.8 60.3l.1.1v.1h-.1v-.2Zm39 59.3h.2-.2ZM54.2 71.3l.2.1c-.2.1-.2 0-.2-.1m89-31.2c-.1 0-.2.1-.2.3V40h.1m-37.3 116.2v.4c-.1 0-.2-.1 0-.4ZM94.9 74.6v-.2l.1.2Zm-40.1-1.4v.2h-.2l.1-.2h.1m56.7-12h-.2V61h.2v.2m38.5 16h-.1V77h.2l-.1.2M118.3 156l.2-.2v.2h-.2m1.8-107.4.1-.2v.2h-.1Zm-25 106.1v.3c-.2 0-.2-.2 0-.3m9 .4-.2-.2s.2 0 .2.2M41.4 74.4v.3-.3Zm122.5-11.7h-.2v-.1l.2.1m-65 91v.2h-.2v-.2h.1Zm43.7-34.2.3-.2-.2.3h-.1v-.1m-23.5 33 .2.1v.1h-.3v-.2M54.7 75.1l.3-.1c-.1.2-.2.2-.3 0m92.4 3.3-.1-.1h.2v.1m-92-3h.2v.1H55Zm64 51.3h.1c0 .1 0 0 0 0h-.1Zm-47.4-1.2h.2v.2h-.2v-.2M53 114v.2l-.1-.2h.1m67.5 36v.3l-.1-.2.1-.2m-24.7-.7-.2.2-.1-.1.1-.2.2.1Zm-43-35.5h.3c0 .2-.1.3-.2 0m69.9 14h-.3.3M96.2 149l.1-.1h.1l-.2.2ZM42.5 77.2v-.3c.3 0 0 .2 0 .3m80.6-28.3h.3-.3ZM75.7 38.8h-.2l.2-.1m57.6 76.8.2.2-.2-.1m-52 11-.2.1v-.1h.1m39.2 1.4.3-.1-.2.2v-.1M96 148.7v-.3l.1.2m34.2-20v-.1.2M105 79.5l.1-.2.1.2h-.2M53.3 59h-.2v-.1h.1M99 79.5v.3c-.2 0 0-.2 0-.3m12.3 68.8c-.1 0-.2.1-.2 0h.2Zm-8.6-.3h.2-.2m27.1-107 .1-.1v.2h-.1Zm-77.3-2.5h-.3c0-.2.1-.2.3 0M39.8 79l.1.2-.1-.2m63-19-.1.3h-.1V60h.1M55 58.6h-.2v-.1h.2v.1m105.6 25-.3-.1v-.2l.3.1v.1ZM131.8 114v.3-.3Zm-18.5-54h-.2.2m45.6 1.6v-.2l.1.2M149.4 47v.3h-.2l.1-.3m-39.7 13-.1-.2.2.1h-.1m24.9 53.7-.3.3c0-.2 0-.2.3-.3m12.9-29.5v-.3.3m-61.2 61.6c-.2-.1-.3-.2 0-.3v.3Zm44-104.3-.2-.2.3.2h-.1Zm-18.7 104.6h.3v.2h-.3v-.2m-31.7-18h.2-.2M107 59.4l-.2.1.2-.1M38.3 81.6v-.2h.1v.2h-.1m39.3 46.8v-.3l.1.1-.1.2Zm70.9-43V85v.2M132.3 113h-.3.3m26-51.8v.2-.2m-48-1.4-.4-.2.4.1v.1m-2.4-.2h-.2v-.1h.3v.1Zm37 28.6v-.2h.1v.3l-.2-.1M93.6 58v.2h-.1V58h.1m-29 51.6h-.2v-.1s0-.1 0 0h.1M85 144.3l.2-.2h.1l-.2.3v-.1m73.4-55.4c-.1.3-.3.2-.4.1h.4M56.2 85.6l.1.2-.2-.2h.1m89.1 3.4v-.4l.1.4h-.1Zm17-29v.3-.3m-61.1 84v-.3l.1.3h-.1ZM87.5 41c0-.2.1-.2.3-.2l-.3.3ZM158 89.5v.2-.2m-24.4 21.4.1.3-.2-.3h.1m-18 20.4-.1-.1v-.1l.1.1v.1m4.1.2h-.1v-.2l.2.1v.1Zm27.8-41.8h-.3v-.1h.3v.1m-4 0 .2.1h-.2l.1-.1m-23.5 41.8c.2-.2.2 0 .2.1l-.2-.1ZM144.3 90v.1h-.1v-.2l.1.1M131 109.5l-.2-.2s.2 0 .2.2m-64.1 20.2.2.2c-.1 0-.2 0-.2-.2m31.5-72.2h.2-.2Zm52 34v.2h-.2l.1-.3Zm-34.9 40-.2.1.2-.2m10.3 11.6-.2.1.1-.2Zm-45.8-1.6.1.2h-.2l.1-.2Zm77-82.3-.4.1.2-.2.1.1m2.4-12.3v.3l-.1-.2m-80.8 85.6h-.2v-.2l.3.1v.1M144.5 94v-.2l.1.2Zm-4.2 0v-.3.3Zm-14.7-50.5h-.2l.1-.3.1.3M58.4 91v.3l-.1-.3h.1Zm75.8 14.7-.1.1.1-.1m-29-43.1v.2-.2m26 43h.2l-.1.1h-.1m-8.4 28.5v.2h-.2l.2-.3Zm-76.2-31.6-.2.2c0-.1 0-.2.2-.2Zm88.3 2.3.2-.1-.2.1m-9.8 36-.2.1v-.1h.2M54 92l-.2.2v-.3h.2Zm85.7 12.8v-.2.2m-20.3-46.9c.2 0 .3 0 .3.2l-.3-.2Zm-10.1-1.7V56v.2m-54.8-2h-.3.3Zm78.6 49h-.2v-.1h.2m27-45.8v.3-.3m-32.8-13.1v.2-.3m-50 95v.3c-.1 0-.1-.2 0-.4m62.7-37.2.2.1h-.3l.1-.1m-84.8-48H55v-.1h.3v.2Zm64.6 82H119.5v-.1h.3m10.3 4.8-.1.2-.1-.1.1-.2.1.1m-1.4-.2.1.2h-.1v-.2m-70-46.7.3-.1-.1.2-.1-.1Zm81.7 2.7-.2.2V96h.2M158 45.3l-.1.3v-.3M54 51.6v.2h-.1v-.3l.2.1m18.2-8.8v-.2l.1.2M85 52.6h.3v.1H85m29.6 83.5v-.3h.2l-.2.3m18.2.6v.3-.3m-43.5-1.3.3.3c-.2 0-.2 0-.3-.3M58.1 52v.2H58v-.2h.1m16.4 83.9-.2.2c0-.2 0-.2.2-.2m65.4-35.7.2-.2v.2h-.1m-22.4 37.2v.2-.2Zm24-37.7.3.1-.2.1h-.1v-.2m.5-.3-.3.2c0-.2.1-.3.3-.2m-95.6-4.7v.2h-.2v-.2h.1m43.8 42 .1.2v.1l-.2-.2M47.5 42V42l.1.2Zm36 94.8c0-.1-.2-.2 0-.3v.3M163 56v.2l-.1.1V56m-26.8 42.4-.2.2v-.1l.1-.2v.1Zm2.4.3h-.3.3M40 51.8l-.4.1v-.1h.3m52.4 85.5h.3v.2h-.3v-.2m-10.4-.1-.1.2v-.3l.1.1Zm43-92.3c-.1 0-.2.1-.2 0h-.1v-.1l.3.1m-8.1 9.3.2-.4c0 .2 0 .3-.2.4m-2.6 84 .1.3h-.2v-.2Zm-22-2-.1.4H92l.1-.4.1.1m49.3-36.1-.2-.1v-.1h.3v.2ZM79.7 52.8l-.3-.1H79.7v.1m43.9 84.3v.2l-.1-.2m-12-83.4-.2.4v-.5h.1Zm-66-11.2-.1-.2.2.2h-.1m-1.4 51.2.3-.2-.2.2m27.2-51-.3.1h.3Zm9.7 92.5-.5.2c.1-.3.3-.3.5-.2m48.7 4-.2-.2h.2v.2m-40.6-1.5h.1v.3-.2ZM156 57.1s.3.2 0 .2V57Zm-31.8-13-.1.1h-.1V44h.2ZM58 50.6v.2l-.1-.1v-.1M88 140c-.4 0-.5 0-.5-.3l.4.3Zm53.3-44.8v-.3.3m-19-50 .3.2c-.1 0-.2 0-.2-.2m1.6-1.5-.2.4v-.5h.2Zm36.3 10 .3.2c-.1 0-.2 0-.3-.2Zm-96.8 48.8-.2.2-.2-.2h.4Zm74.2 3v-.2c.2 0 .1.2 0 .3m-13.3 28.9c.2-.2.2-.2.3 0h-.3m-15.2-78.2-.2.2.1-.2M86.4 133h-.2v-.2l.2.2m27.9 8.5.1.5c-.1-.2-.2-.3-.1-.5Zm21-35.2v-.3h.2v.3h-.1M123.5 43h-.3v-.2h.3v.2Zm8 91.4v-.2l.2-.1v.3h-.1m8.2-28.3h-.1v-.1l.1.1m-58.5 26.7-.1-.4.2.4h-.1M119.7 52v.4c-.1-.2-.1-.3 0-.4m-27.5 4.1c.1 0 .1.2 0 .4V56Zm-51.3-6.4v-.2h.2l-.1.2h-.1m100 57v.2-.2m19-53.9h-.3v-.2l.3.2M56 89.7l-.2.2v-.1h.3v-.1m57.3-38.5-.2-.3c.2 0 .3 0 .2.3m33.4 40.6.3-.1v.1h-.3m-4.3-.5c.1.2.1.3 0 .4v-.4Zm-94 14.3.2-.1c0 .1 0 .2-.2.1m93.1-14.3h-.4l.4-.1m-89.9 14.9.1.2-.2-.2h.1m.7-50.1v.3h-.2c0-.2 0-.2.2-.3m40 1.9-.1-.3.2.3h-.2m35.8-15v-.3l.1.2v.1Zm-18.3 100.8c-.1.2-.1.4-.4.2l.4-.2Zm19.2-33.5v.3l-.1-.2v-.1m1.3 1-.2.2v-.2h.2m-36.7 32.3c0 .3-.2.3-.4.2l.4-.2Zm66-54.6-.4-.1v-.1h.3v.1m-40.3 42v-.2h.1v.3h-.1M160 51.6c-.2-.1-.3-.2-.1-.4l.1.4Zm-35.5 79 .4-.1v.2h-.4Zm34.2-42.3-.2.3c0-.2 0-.3.2-.3Zm-74.4 56.5v-.3.3M40 82l.1.2-.1-.2m15.8-24.2v.3l-.1-.2M84 145l-.1-.2h.2v.2M42.3 81.5l-.1.3h-.1l.1-.3h.1m80 48.2-.2-.4h.2v.4m-.3-.2-.4-.2h.1s.3-.1.3.2m10.1-16c-.2.1-.3 0-.3-.2l.3.1M51.7 39c-.3 0-.3-.1-.2-.3 0 0 0 .2.2.3m76.1 74.8c.4-.1.3 0 .3.2l-.3-.2Zm-5.4-67.4-.2.1v-.2l.2.1m-35 99.7v-.3h.1v.3h-.1m25-86v.3c-.2-.2 0-.2 0-.4Zm35.7 23.2v.3h-.1v-.3m8.8-36c.1.2.3.2.2.4l-.3-.3Zm-7.9 0v.3l-.3-.1.3-.2Zm-50.5 99.3h-.3l.1-.3.2.3Zm17.9-86c-.2 0-.2-.1 0-.3v.4ZM42.2 77.4l-.3-.1V77h.3v.2Zm118.8 4c0-.2-.1-.3.1-.4l-.1.4Zm-57 67.8-.2-.1.1-.1c.2 0 .3 0 .2.2m4.3 0h.3c-.1 0-.2.2-.3 0m-10.3-.3.2.2h-.1l-.2-.1h.1m54.7-69.2c-.1.2-.2.1-.4 0h.4m-22 47.9.1.4c-.2-.1-.2-.2 0-.4m-29.7 22c0 .2 0 .3-.2.2l.2-.2Zm22.2-100.9h-.2.2m-53 66.6v-.3c0-.1 0 0 .1 0v.3M38.7 76c0-.3 0-.3.3-.2l-.3.2Zm5.8-29.7-.3-.2h.1l.2.1v.1M69 115.6h.2-.2m62.5 2.2h-.3v-.2l.3.1v.1m-11.5 9v-.3h.2l-.1.3h-.1m42.6-64.3-.1.2v-.2m-107 53.9-.1.2v-.2h.1m62 36.7v-.4l.1.1-.1.3m2.2 1.3-.2-.3c.3 0 .3 0 .3.2h-.1m-65-79.8.3.3h-.1l-.2-.3m52.4 83 .1-.2c.1.1 0 .2-.1.3M151 74v.4l-.1-.4m-83.3 50.3v-.3l.1.2h-.1m85-76.5h-.4c.1-.2.2-.2.4-.1M55 71v.3H55v-.3m3.3 46.8-.2.2v-.2h.2Zm103.9-44.2c-.2-.1-.3-.2-.2-.4l.2.4Zm-32.8 47-.2-.2c.1 0 .2 0 .2.2M53.6 91.7h-.4.4m76.4 30-.1-.3c.1 0 .2.2.1.3M51 68.8l.1.2-.3.2.1-.4m43.6-.9c-.2.1-.3 0-.3-.2l.3.2m8.5 93.1-.2-.2h.2v.2M62.6 45.4v.3h-.1v-.3m32.2 22V67v.3m20.3.4h.2c0 .1 0 .2-.2 0m6.5 55v-.2.2m-13.9 41.7v-.4c.2.2.1.2 0 .4Zm.1-102.5v.2h-.2l.2-.2Zm-35.8 60.5-.3.3c0-.3 0-.3.3-.3Zm56.7.7c.1.2.2.3 0 .4v-.4Zm-17.6-59-.2.2h-.1l.2-.3h.1m4.7-1.2-.1.2h-.2l.1-.1.2-.1M72 33.4l-.2.1h-.1v-.1h.3m-.1 89 .2-.2s.2 0 .2.2h-.4m51.2 1h-.2v-.2h.3v.3Zm-74.7-22.7.1.1v.2l-.2-.2.1-.1m75 22.7h.3c0 .3-.2.2-.3 0Zm-62-1.5c.2-.3.3-.2.5-.2l-.4.2Zm17-80.8v.2c-.2 0-.2-.1-.2-.2h.1m31.1 125.8v-.2l.1-.2c.1.2.1.3 0 .4M54.6 62.2l-.4-.3c.2 0 .3.1.4.3Zm87.8 28.4-.1-.4c.2 0 .1.3.1.4ZM62.8 45.1c.3.2.2.3 0 .5V45ZM38.6 55.7v-.5.5Zm123.8 10.8h-.4c.2-.2.3-.3.4 0Zm-22.4 25 .2-.3h.1l-.1.3h-.2ZM78.8 45.8v-.3h.1v.3h-.1m10.4 19.2-.3.1v-.1h.3m54 24c-.2.1 0 .4-.3.3l.2-.2ZM125.3 144l.3-.3c0 .1 0 .3-.3.3M46.3 65c-.2 0-.3-.1-.3-.2 0 0 .2 0 .2.2m28.5 58.2.2.2-.1.1-.2-.2h.1Zm59.6-18.3c-.2 0-.3 0-.2-.2l.3.1-.1.1m5 20.7h.3v.2l-.4-.1v-.1m-16.4-3.8c-.2.1-.3 0-.5-.2l.5.2m-5.7 12.6.3.1-.2.2-.2-.2.1-.1M65.7 120h-.4c.2-.1.3-.1.4 0Zm67.5 1.9.3.2c-.2 0-.3 0-.3-.2m-92.6-37 .1.2c-.2.2-.1-.1-.2-.1v-.1Zm6-41.9v.3c-.2 0-.2 0 0-.3M80 141.8v.2h-.1l.1-.2m28 19.4c-.1 0 0 .4-.3.3l.3-.3Zm27.8-55.3h-.3l.1-.4.1.4M120 134.4s-.4.2-.3-.2l.3.2Zm-49.4-14.5-.3-.2c.2 0 .3 0 .3.2m70.6-24.4h.3c0 .2-.2.1-.3 0Zm-28 65.5v.3c-.2 0-.2-.2 0-.3ZM94.4 68.7c-.2-.2 0-.3 0-.4v.4ZM39.3 59l.1.2-.2-.2h.1M84 144.3v.4h-.1v-.4h.1m74-90.8-.3.2c0-.1 0-.2.2-.3M50 39.7l-.4-.2c.2-.1.3 0 .4.2Zm91.3-.3-.1.2-.1-.1.1-.1h.2m-85.4 78.3v-.4c.2.2.1.3 0 .4M97.7 145c-.2.1-.3.2-.3-.1h.3ZM57 92.6l-.1.3h-.1v-.4h.2m40.2-19.3c-.3 0-.2-.1-.2-.3l.2.3m29.5 45.4c-.1-.1-.2-.2 0-.4v.4ZM159.5 61l-.2.1-.1-.1.1-.2.2.2M37 72.9l.3-.3c.1.2 0 .2-.3.3m88.4-33.1-.1.3h-.1l.2-.4M69.1 132c.1 0 .2.1.2.3l-.2-.3Zm77.3-44.9.4-.2-.4.2Zm11.9-29.9.1-.4c.1.2.2.3-.1.4m-38.8-8.4c0-.2 0-.4.3-.3l-.3.3Zm7.3 6.9.2.2h-.2v-.2m-7 7.7-.4-.2c.2-.1.3 0 .4 0v.2m2.3 86.9-.1.4c-.2-.2-.2-.3 0-.4M51.7 57.8h-.3l.1-.2.2.2m89.2 49.7.2-.4.2.2-.4.2Zm-56 23.8c.3 0 .4 0 .3.3l-.3-.3ZM40.5 82.6c-.1-.1-.2-.2 0-.4v.4m71.7 66.4.1-.2h.1v.3h-.2M89.4 56v-.4c.3.3.1.3 0 .4m37.9 58.6c-.1-.2 0-.3.3-.3l-.3.3ZM101.7 148v-.4l.1.4m21-101.9-.3-.2c.2 0 .3 0 .3.2m-33.3 89.2v-.3.3M42.8 78.5v-.3h.2l-.1.4h-.1m79.9 52.8-.5.1c.2-.3.3-.2.4-.2v.1m6.9-89.8.3.1h-.4v-.1m-14.7 96.5c-.2.1-.3 0-.4-.1h.4m8 .4-.4-.2c.2 0 .3 0 .3.2m-8.2 8.6.3.2h-.4v-.2m-1.7-94.5c.2.1.3.2 0 .4v-.4Zm24.4 58.2.1-.4.2.2-.3.2m-4.4 3.2.2-.2c0 .1 0 .2-.2.2Zm22.5-71.7c-.2-.1-.2-.2 0-.4v.4Zm-1.2 52.3v-.3h.1v.3m-32.3-37.4h.2l-.2.1v-.1m38.6 27-.2.2h-.1l.1-.3.1.1M49.4 107.5c0 .2.1.2.2.3-.2 0-.2 0-.2-.3M98 146h.4c-.1 0-.2.1-.4 0Zm54-52.6c.3 0 .2.1.3.3l-.3-.3ZM41.2 80.8l-.2-.2c.2 0 .2 0 .2.2m67-21a5 5 0 0 1-.4 0c.2-.2.3-.1.4 0m10.6-9.7v.4c-.2-.2-.2-.3 0-.4m27.7 34.3-.2-.5.2.5Zm3.4-37.5h-.3v-.1c.2-.1.2-.1.3.1m-8.6 46.3-.4.4c0-.2.2-.3.4-.4m-19-48.4-.3.2v-.2l.3-.1Zm7.5 9.5v.3h-.1v-.4h.1Zm-46.5 75v.3c-.1 0-.1-.2 0-.4m46.4-16.8v-.4c.2 0 .2.2 0 .4m3.5-71-.2.4-.2-.3.4-.1m-16.6 89-.1-.1.1-.2.2.1-.2.2m4.2 1c-.2-.3-.2-.4 0-.5v.4Zm-37.7-2.2-.3.1v-.1s.1-.3.3 0M51.4 55.1l.2-.3.1.3h-.3m54 28.3-.3.6c0-.3 0-.5.3-.6ZM82.1 128c.1.2 0 .3-.2.4l.2-.4Zm64-45.7-.4-.1c.2-.1.3-.1.4 0M51.8 55.9l-.2-.4c.2 0 .2.3.3.4h-.1m-11 26.4-.3-.2.2-.4v.6m47.1 58.6-.1.3v-.3h.1M89 59l-.3.1c0-.2.2-.2.3-.1m7.4 89c0 .3 0 .4-.3.4 0-.2.2-.3.3-.3M160 52.2c-.2 0-.3-.1-.2-.4l.2.3v.1Zm-77.3 78.1.1.4h-.1c-.1 0-.2-.2 0-.4M48 105l.2.2-.3.2.1-.4Zm91.7-7.1v-.3h.2v.3h-.2Zm-21.4 30v.3h-.2v-.3h.2m23.5-30.3.2.4-.3-.1v-.3m-75.6 15.8v.6-.6Zm-16-72-.1-.5c.2.2.2.2 0 .5m6.2 41.8L56 83l.3-.1v.3h-.1m65.4 66.6-.1.1-.1-.1v-.1h.2m-33.7-5-.5.2c0-.2.2-.2.5-.2ZM74 44.5c-.2-.1-.2-.2 0-.4v.4Zm7-5.5c-.2 0-.2-.2-.1-.4l.2.4m-29.5-1.1c-.2 0-.3-.1-.2-.4l.2.4M159 54.6v.3h-.1v-.3M118.2 155l.1.3h-.2v-.2h.1m23.6-52h.3-.3ZM53.5 92l.2.1v.3l-.2-.3Zm42.7-18.9-.3-.1c.2-.2.3 0 .4 0v.1m31 46c0 .3-.2.4-.4.2l.3-.1ZM80.4 37v.2c-.2 0-.2-.2-.3-.3h.3m7.7 21.5v.3H88v-.3m23 2.8.2.3-.2.1v-.4Zm-5.8 98.7v-.4c.3.1.2.2.2.4h-.2m-47.7-41.5h.3v.2c-.1.1-.2 0-.3-.2m48.1 42.2c0 .2-.1.3-.2.2v-.2h.2Zm8-92.3c.1 0 .3.1.1.4l-.2-.3Zm20.8 53.7-.3.2c0-.3.1-.2.2-.3v.1Zm-41.2 22c.4-.1.3.1.3.3v-.2l-.3-.1M59 34.4l-.2.3c-.2-.2 0-.3 0-.4h.2m46 129h-.2.3m40.2-67.2.5-.2c0 .2-.2.2-.5.2m-20.6-54c.3 0 .4 0 .5.4l-.5-.3ZM101.7 144c.1.2 0 .3-.1.3l.1-.3Zm-9.9-78 .2-.3c.2.3 0 .3-.2.3M52.5 50.2v.5-.5m47.7 93.2-.2.5v-.5h.2ZM40.8 86.6h.4l-.2.3-.1-.3Zm82.7 37.9a2 2 0 0 1-.3 0l.1-.2.2.2m-47.7-1.8.2-.3.1.3h-.2m30.4-59.4H106l.1-.2.1.1v.1M97.7 143c.1 0 0 .2 0 .4v-.4Zm64.8-83.1h-.3l.2-.4.1.4m-35.8-6.4-.1-.3h.2v.3M82.7 143l-.2.3c0-.3 0-.4.2-.4m65.6-54.8c-.1.1-.2.1-.4 0 .1-.2.2 0 .4 0m-94.2.6h-.4v-.3l.4.3Zm95-2.1v.3c-.3 0 0-.2-.2-.3h.1ZM52.1 51c.3 0 .3 0 .3.3l-.2-.3Zm40.6 91.6c0-.3 0-.4.2-.5l-.2.5ZM154.5 92h.3l-.1.2-.2-.1V92Zm-16 16v-.4h.1v.4M86.2 52.4l.3.2h-.3v-.1m54.3 48.9v.4c-.2-.1 0-.3 0-.4m-1.7 0h-.1c-.1 0-.2 0-.3-.2h.2l.2.1M124 42c-.2 0-.3 0-.4-.2.2 0 .3 0 .4.2ZM54.1 89.6v-.4c.2.2.1.3 0 .4Zm66.9 41.9c.2-.1.3 0 .3.2l-.3-.2Zm-77.6-80s-.1-.3.3-.2l-.3.3Zm91.1 59.7-.2-.4h.3l-.1.4M55.2 58.3a6 6 0 0 0-.4-.3c.2 0 .5 0 .4.3m-12-10.8h.5-.5M159 51.3v.4c-.3-.2-.2-.3 0-.4M38.4 55.1v-.4c.3 0 .1.2.1.4Zm121.2 29.8.2-.4v.4h-.2Zm-17 8.7-.2.4.1-.5M45.4 43.9l.3-.3c0 .2.1.4-.3.3m5-3.4.1.2H50l.3-.2Zm80.7 2.8.1.3c-.1 0-.2-.1 0-.3m-43.8 93.3.1.4c-.3 0-.3-.2-.2-.4m57-52.8c0 .3 0 .4-.3.4l.3-.4Zm11-39.3-.4-.2.3-.3v.5M49.4 38.8l-.2-.1.2-.2.1.3m11.8 57.6c.3 0 .3.2.2.4-.2 0-.1-.2-.2-.4m22.5-56.8c.4-.2.2.1.2.3l-.2-.3Zm45 1.4-.2.4c0-.4 0-.4.2-.4m-53.6 95.4-.1.4c-.1-.1 0-.3 0-.4ZM55.9 52.2l.3.3c-.2 0-.3 0-.3.2h-.1l.1-.5m100.3-4.4.3-.3c0 .2-.1.3-.3.3m-7.9 46.7H148.6v.3l-.3-.3m5.3-11.7c.2.1.4.2.2.4-.2 0-.2-.1-.2-.4m-71.3 54c.2.4.1.4 0 .5v-.5ZM73 39v.3l-.2-.1c0-.2 0-.2.2-.3m54 75-.4.2c0-.2 0-.3.3-.2m1.4.3h-.4l.2-.3.2.3M71.9 39c.4.2 0 .2 0 .4v-.4Zm-19 14 .3.1-.2.2-.2-.1v-.2m102.4-7.5-.3.2c0-.2.1-.3.3-.2M98.6 78.6v.4l-.3-.1.2-.3Zm31.6 37-.2.2v-.2h.2v.1M97.8 78.5c-.1-.2 0-.3.1-.3l-.1.3Zm12-23.4.1.4c-.1-.1-.1-.2 0-.4m35.8 24c.1.2.2.3 0 .5V79Zm-16.3 48.6c.2 0 .2 0 .3.2l-.3-.2Zm-2-83 .3-.2v.1l-.2.1m1.2 82.5.5-.2-.5.3M75.5 125l.4.4c-.3 0-.4 0-.4-.4M53.2 37c-.1.2-.3.2-.5 0h.5Zm73.2 82.4c-.2 0-.3.1-.4-.1.1-.1.2-.2.4 0m-9.7 39.2-.2.3c-.1-.2 0-.3.2-.3m39.6-112.8v-.4c.1.1.1.3 0 .4m-78.2-8.5c-.2-.2-.2-.3-.1-.5l.1.5Zm62.7 59-.2-.3h.1l.2.1v.1m-68.3 23.8.3.3-.2.2-.1-.5Zm15-58.6c.2.2.3.4 0 .5v-.5Zm52.2 34.6v.4c-.2-.1 0-.3 0-.4ZM82 132.1l-.2.3-.3-.2.5-.1ZM55.3 68.8l.3.5c-.2 0-.3-.1-.3-.5Zm89.5 17.3.2.3h-.2c-.2 0-.1-.1 0-.3M106 159.3c-.3 0-.1-.2 0-.4v.4Zm-12.6-19.6.4-.2-.1.3h-.3v-.1ZM38.7 82.9l.4-.1c0 .1-.2.2-.4 0M123 134c-.2 0-.4 0-.3-.2h.3v.2m-36.3-1c-.3 0-.4 0-.4-.3l.4.3Zm43.5-6.6a3 3 0 0 0-.2-.3h.4l-.2.3m26-76.5v-.6c0 .1.2.3 0 .6Zm-99.1 68.8-.1.4c-.2 0-.3-.1-.2-.3l.3-.1m61.5-66.2c-.2-.2-.2-.3-.1-.4 0 0 .2.2 0 .4m-4.2 81 .1.1.2.3c-.1 0-.2 0-.3-.3m-58.6-16.9-.2-.4c.2 0 .3.2.2.4m81.5 11c-.3-.2-.2-.4 0-.7v.7m-28.4 36.5v-.6c.2.2.2.3 0 .6Zm-54.5-49c.2.2 0 .3 0 .5-.2-.2-.1-.3 0-.5m-12.2-67 .3-.4.1.3-.3.1ZM97.4 75l.3.3c-.3.2-.3 0-.3-.3M84.6 44.2l.4.4c-.4 0-.4-.1-.4-.3v-.1Zm-43.5 3.4v.5c-.3-.1-.2-.3-.1-.5m85 84-.2-.4.1-.1c.2.1 0 .3 0 .5m-7.8 24.4-.4-.2.3-.2s.2.2 0 .3m18.1-51.6c.2.3.2.4 0 .5v-.5Zm-89-2.7.3-.2c0 .2-.2.3-.4.2m-7.7-40.2v-.3h.3l-.2.3m80.3 66c0 .2-.2.3-.3.3 0-.2.1-.3.3-.4M146 89.7c0 .1.3.3 0 .5v-.5m-25 60 .1.4c-.3 0-.3 0-.2-.4M38.6 76.3l.3-.1v.2c-.1 0-.2.1-.3-.1m107.7 14.4h-.3c0-.1-.1-.3.2-.4v.4m.7 3.4-.2-.1.3-.3v.5m-11.7 18.5.4-.3v.3h-.5m11.6-22h-.2v-.1h.4l-.2.2m-22.2-32 .3-.2v.4l-.3-.2m2.7-13v-.5c0 .2.3.3 0 .5Zm5.5 67-.2-.2.5-.1-.3.3ZM159 59.2v-.5c.2.2 0 .4 0 .5m-26.8 55v.5l-.3-.3.3-.2M115 142c-.1.3-.3.3-.6.1l.6-.1m29.4-59.7-.3.4c-.1-.3 0-.4.2-.5l.1.1m5.5.6c-.1-.1 0-.3.1-.5l-.1.5Zm-3 8.1-.2.3-.2-.3h.4m-25.6 38.3h.3v.3l-.3-.2v-.1Zm2.7-88.5c.3 0 .3.1.4.3-.2 0-.3-.1-.4-.3ZM55 66.2l-.1-.5c.3.1.3.3.1.5m58.8 2-.1-.4c.2 0 .3 0 .3.3h-.2m-67 30.6-.3.3.3-.3m46.8 43.5h-.3l.2-.6.1.6Zm44.4-40v.5c-.1-.1-.1-.3 0-.4m-9-59-.3-.1.3-.4v.5M160.1 54h.3l-.2.5V54Zm-9-8.2c.2.3.1.5 0 .7v-.7m6 5.2-.4-.2.2-.3c0 .2 0 .3.2.5m-22.2 52.2-.2-.5c.3 0 .3.2.2.5m-52.2 24.6v.4c-.4-.1-.4-.2 0-.4m77.2-73.2-.4-.3h.4v.3ZM52.5 58.4l.1-.4.3.2-.3.2m87.5 44.4-.2-.4h.2c.2.1.2.2 0 .4m-75.5 24.5-.2-.2.1-.1h.2l-.1.3m-12.4-16 .1.4c-.2 0-.2-.2-.1-.4m10-13.2-.2.3h-.2v-.2h.3M57.6 88c.4.2.4.2 0 .4V88M68 120.5l-.1-.5c.4.1.2.3.2.5m63-5.8v-.4c.1 0 .3 0 .3.2l-.2.2m-14.9-65c0-.2.2-.3.4-.4 0 .2 0 .3-.4.3Zm13.5 71.8.3.3c-.1.2-.3.1-.3 0v-.3m-49.1 4.9c.2 0 .2.2.2.3h-.2v-.3M109 64.8v-.4l.2.1c.1.2 0 .2-.2.3m16.6 66.1-.1.3-.4-.1v-.1h.5ZM55 77.3l-.2-.4c.2 0 .2.1.2.4Zm35.7 65.6v.4l-.4-.2.4-.2m-15.4-21.2v-.6c.3.4.3.5 0 .6m43.9-71.3-.2-.2.2-.2v.4m9.2 4.2-.1.6v-.7m11.7 45-.3-.2.2-.2.2.3v.1ZM40.8 86.1v.4l-.4-.1.4-.3m48.5 64 .2.3c-.2 0-.3 0-.2-.4M74 119.3l-.2-.4h.3l-.1.4m49.8-75.5c-.3 0-.3-.1-.3-.5l.3.5Zm-75-4-.1.5c-.2-.1-.2-.3 0-.4m109.8 8 .2-.2.1.6-.4-.4Zm.6 1c-.4 0-.2-.4-.5-.4.3 0 .3.2.5.4M132.4 105v-.5h.1v.5M52.6 37.3h.3l.1.3-.4-.2v-.1m78.7 2.8.5-.4c-.2.3-.3.4-.5.4Zm9.7 57.3.2-.6c0 .3 0 .5-.2.6m-93.9 5 .2.3v.1c-.3 0-.3-.1-.2-.4m70 38.1c0 .4-.1.5-.3.3l.3-.3Zm31.1-65.8-.2-.4.2-.1v.5m-10.3-35 .4-.4c.2.4-.2.3-.3.5v-.1m-8 81.4.3-.3.2.1-.5.2M76 138.5l.3-.2.1.3H76M56.4 93.6c0-.1 0-.3.2-.4 0 .1.2.4-.2.4m84.7 27.6v-.5c.2.1.2.3 0 .5m-33.7 38.1c.3.2.4.3.2.5 0-.2 0-.3-.2-.5m20.9-31.2c-.3-.2 0-.4 0-.5 0 .1.2.3 0 .5Zm-28.8-73c.2 0 .4.1.4.4-.2-.2-.4-.2-.4-.5m-46.2 29s0-.1 0 0m-.3-32-.1.6c0-.2-.2-.4 0-.6M42.2 47H42l.4-.4-.2.4Zm67 12.1c.2.1 0 .3.1.5l-.2-.5m-48 64.2-.2-.3v-.3c.3.2.2.4.2.6Zm35.1-48-.1-.4h.3c0 .2 0 .3-.2.4m41.5 49-.4.6c0-.3.1-.5.4-.6m-52 9.5-.2-.4c.3 0 .4.1.2.4m46.5-28.7c-.2 0-.3 0-.3-.2 0 0 .1-.1.2 0 .2 0 .1 0 .1.2m-15.8-54.9.4.2-.2.3-.2-.5m-8.3 7.3c-.1 0-.3-.2-.1-.4.1.1.2.3 0 .4m2 3.7v-.6c.2.2.2.4 0 .6M39.8 55c0 .2 0 .3-.2.5V55h.2Zm108.7-9c.3.2 0 .3 0 .5V46m-40 96.4.1-.2H108.8l-.1.2h-.3m43.7-59.8h-.3l-.1-.4.4.3m-72 60c.1.2.5.1.4.4-.2 0-.3-.1-.3-.3Zm6.4-85.3.2.5c-.2 0-.3-.2-.2-.5m-10 67.7-.2.3-.1.2v-.5h.2m38-75.3v-.3l.5.3h-.5ZM55 92.3l-.2-.2h.5l-.3.2Zm53-29.2.4.4c-.4 0-.4 0-.3-.4m-1.7 93.5.2-.2.2.3c-.3.2-.3 0-.4 0M96 73.6c.3 0 .4.2.3.5l-.3-.5Zm-4.8 63.6.4.3-.4.2v-.5Zm-5.7 8.5c.2.2.1.4 0 .5-.1-.2-.3-.4 0-.5Zm53.6-50.4v-.7c0 .2.4.4 0 .7M39.6 79.9c.3-.2.4.2.6.2-.2 0-.4 0-.6-.2m93.6 23.4h.3v.5h-.2v-.5m-21.2 43 .5.3-.2.1c-.2 0-.3-.2-.3-.5ZM68.8 112c0-.2 0-.3.2-.3l.1.2c0 .2-.1.2-.3.1m36 45.4-.3-.6c.3.1.4.3.3.6Zm-57.6-56.6h.4c-.2.3-.2.3-.4 0M115.3 62h-.3c-.1 0-.2-.2 0-.5v.3c.1 0 .2 0 .3.2m26.3 30.2c0 .3 0 .4-.5.3l.3-.2.2-.1m-63.8 36.5-.2-.3.4-.3-.2.6Zm42.1 1.7c-.2-.2-.4 0-.7-.2.3 0 .6 0 .7.2m-66-43-.3-.5c.3 0 .4 0 .3.4m3.8-37 .2.4-.2.1-.1-.5m65.7 9.9h-.2l.1-.3c.2.1.3.3.2.5l-.1-.2m-16.5 104.2c-.3-.2-.3-.4 0-.6.3.2-.3.4 0 .6M85.2 56.8v-.5h.2v.3l-.2.2M143.6 95v.3l-.4-.5.4.2m-53.8 53.4v-.6h.2c0 .2.1.5-.2.6m-42.5-43.8.2-.2.2.2v.3l-.4-.3m24.8-61.3.2-.2c.2 0 .3 0 .3.2h-.5m-35 21.6-.5-.3.2-.2c.3 0 .1.3.2.5Zm94.2-24 .5-.3v.2c-.2 0-.2.3-.5 0M89 136.5l.3.4c-.2 0-.2 0-.3-.4ZM52.3 51.8l.2.4s-.2 0-.3.2v-.6m107.6 4.7h.4l-.1.4-.3-.3Zm-112.3 47v-.5l.2.1c0 .2 0 .3-.2.4m90.2 25.3.1-.6c.3.2.3.3 0 .6m-27-67.6-.2-.2.3-.2c.2.2.2.3 0 .4m13-16.5h.4v.4l-.4-.4M148 87.5l-.2-.7.3.2-.1.5m-94.7 26.1c.2 0 .4 0 .4.2s.1.2.3.2l-.4.1-.3-.5m89-15.4v.5c-.3-.4-.3-.5 0-.5M113 151.8v-.3c.1.4.5 0 .6.4h-.6M85.9 53.1l-.5.3.2-.3-.1-.4.3.2v.2Zm42.4 64.3h.3v.5l-.3-.5m16.2-1.7h.4v.5h-.2l.2-.3-.4-.2ZM50 59.8l.2-.3.2.2-.3.3-.1-.2M147.6 77v-.5h.3c0 .3-.2.5-.3.5m-8 15.5c.1.2.3.2.2.4h-.2c-.2 0-.1-.2 0-.3M109 164.9l-.4.1.1-.4.1.2h.2v.1m14.1-29-.4-.1v-.2h.1l.3.1v.1m-12.7 27.8-.3-.4.5.2-.2.2ZM144.8 84l-.3.4c-.1-.2-.3-.3-.1-.4h.4m-12.2 25.4h-.5l.5-.4v.4m-94-27.5.1.4-.2.2c-.2-.2-.1-.4 0-.6m99.2-42.4c.1.1 0 .4-.1.6-.2-.3 0-.4 0-.6m-22.3 101.5.1-.2-.3-.2.3-.2c.1.2.2.4 0 .6M134 109v-.2l.2.3c-.3 0-.5-.1-.5-.3l.2.3v-.1Zm1.5-1.6a.8.8 0 0 1 0-.6c.2.2.2.4 0 .6m-88.4-64 .3-.6h.2v.2c-.2.1-.2.3-.5.4M64.5 121l.4-.5c0 .3-.1.5-.4.5m94.6-67.6h-.4V53c.1 0 .2 0 .4.3M148.7 87l-.2-.4h.3v.4M54.2 67.6l.1.6c-.3-.1-.2-.3-.2-.5h.1m42 8c.3-.4.4 0 .6 0-.2 0-.3.2-.6 0m54.2-27.9c.2.2 0 .3 0 .3-.1.1-.3.2-.4 0l.4-.3M52.8 38c-.2 0-.4.2-.3-.2v-.2l.3.4Zm75.9 77.5-.2-.1.2-.4c.1.2.2.3 0 .5m.5-.4-.1-.1v-.5c.2 0 .2.2.1.6m-4.7 14-.2-.5c.2-.1.3 0 .4.2 0 0 0 .2-.2.3m-12 18.7c-.4-.4-.4-.6-.1-.8v.8m25-18-.3.2c-.2-.2-.2-.3 0-.4.2-.1.3 0 .4.1m-61.5-6-.3.1v.4c-.2 0-.2 0-.2-.2s.1-.4.5-.4m17.3-56-.4-.5c.3.2.4.3.4.6M50 39l.3-.6.2.4c-.1 0-.4-.1-.5.1m-9 42 .4-.3.2.1.2.2h-.7Zm-3.3-16c-.2 0-.4-.1-.2-.3h.2v.3m86.7 66.5v-.5h.4l-.3.5h-.1Zm-65-81.8c.2.4.2.4-.1.4l.1-.4m24 94.4.1.3h.2l-.4.1.1-.4m30.8 1-.7.3v-.2l.6-.2.1.1m17.4-39.9-.2-.7.3.2v.5h-.1ZM82 144h-.3c-.2-.4.4-.2.3-.4v.4m25.5-85.6c.3-.2.4 0 .5.1v.3l-.5-.4Zm50.7 2.2-.3-.7c.3.3.3.5.3.7m-33.6-2.2.6-.2c0 .4-.2.4-.6.2m-9.5 4v.8c-.3-.3-.3-.6 0-.8m41.4 30.6-.5-.1.5-.4v.5M115.3 64l-.2.4c-.1 0-.2 0-.1-.2l.2-.5.1.3ZM73.7 33.5h.3l-.1.5c-.2 0-.2-.2-.2-.4M92 139.2l.3-.1.2.5-.5-.4Zm61.6-38.5v.2h-.3l.2.2-.3.1c0-.3 0-.5.4-.5m-13-3.7-.2-.3c-.2 0-.2 0-.3-.2.4 0 .5.2.6.4v.1m6.8-7.6c-.3 0-.2-.3-.3-.5.2 0 .4.2.3.5m.8-37.4.3.5-.2.1c-.2-.2-.3-.3 0-.6M82.5 38.6c.5.2.6.2.6.6l-.6-.6Zm-9.3 81.8.4-.4v.5c0 .2-.2 0-.4 0m60.9-8.8v.5l-.2-.1v-.2c.1 0-.1-.3.2-.2M128 120c.3-.3.4 0 .6.1l-.2.2-.1-.3h-.3Zm7.8-22.1s0 .2.2.3c-.2.2-.4.1-.5-.1l.3-.2m-31.7 65c0-.2-.2-.4.2-.6 0 .3 0 .5-.2.6m44.4-73.3-.4-.3c.2 0 .3-.1.5-.3v.6Zm-21.2 22.6.3.4h-.5c0-.2.2-.3.3-.4m-23.7 46c.3.1.2.4.2.6-.2-.2-.3-.3-.2-.6Zm-45-65.5c.3-.1.5 0 .7.2l-.6-.2ZM128 42.1l-.6.3V42l.3.1h.2Zm-13.5 115 .3.6c-.3 0-.4-.2-.3-.6M54.9 70.6c-.1-.2-.4-.3-.2-.6 0 .2.5.2.2.6Zm38.6 2.7.2.3.1-.3.1.2c0 .2-.3.1-.6 0v-.2h.2Zm36.3-19.5h.5c0 .2 0 .3-.2.3s-.2-.1-.3-.3M54.8 69l.1.5s-.2.1-.2 0v-.5M42.6 82.9c.2 0 .2.2 0 0ZM127 42v.5l-.2-.4h-.3l.1-.2.4.2m5.6 62.3c-.4 0 0-.4-.4-.5l.2-.3v.1l.1.3v.4Zm-83-.8-.1-.4.2-.3h.1c-.2.2 0 .4-.2.7m79.2 21.8.2.1h-.5l.5-.4c.3.2 0 .2-.2.4m13-26.6c.1-.3-.4-.5-.2-.8.3.5.3.7.2.8m-24.7-44c.2-.1.3.2.5-.2v.2l-.2.4-.3-.4Zm-70.4 3.3a3 3 0 0 0-.3.1l-.1.3-.1-.2c0-.2 0-.3.5-.2m23.2 65.1v-.6c.2.2.1.4 0 .7m-27-77.8-.1-.8.3.1-.2.7m51 21.2c-.2.1-.3-.1-.5-.1v-.6l.5.7m53.3 17.6c0 .3.3.6 0 .9l-.2-.7c-.1-.2.1 0 .1-.2m-108-27h-.2l.2.1v.1h-.3c-.2-.2 0-.3 0-.5l.3.2m48 5.7.3.2c-.1.2-.3.3-.6.2l.4-.4ZM50 103.8l.4.3v.2h-.4v-.5M129 118l-.3-.2c.2 0 .4 0 .4-.2 0-.1.2-.2.3-.1l-.4.5m.7-1h-.2l.1-.4h.4l-.3.5m19.6-63.8c0 .3.2.5 0 .8l-.2-.7h.2m-23 63 .1-.7v.6M85 131.1v-.2c0-.2-.2-.4.1-.5.2.2 0 .5 0 .7m69-53 .6.2-.3.3-.3-.6m-30.2-36.6h-.6v-.1l.3-.1v-.4h.2v.5m-30.4 29 .1-.1c.2 0 .4.1.4.5l-.5-.4ZM87 58.8v-.4l.5.3c-.1.2-.3.2-.5 0m4 78.5v-.9c.2 0 .3.1.2.3v.6H91m17.8 30v.7h-.2v-.2l.1-.4h.1ZM140 96.9h-.2l-.1.4-.3-.6h.4l.2.2m-53 48.5-.2-.4h.6l-.2.4h-.1m-36.1-37v-.4l.3-.1v.3c0 .2-.1.2-.3.2M39.6 56.8v-.5h.3v.5h-.2Zm104 39.2-.5.2c-.1-.4.3-.3.3-.6l.1.4Zm-51 43.5c.4.2.5.3.4.6-.3 0-.3-.3-.4-.6m7-84.5-.6-.2.5-.5v.7m-31.2 64.8.2.4-.1.2c-.1 0-.2 0-.2-.2v-.4h.1m67-13.2.4-.7c0 .6 0 .8-.4.7m-54.6 30.8.2-.5.1-.4.3.4c-.4-.1-.3.3-.6.5m9.6 11.2c0 .3 0 .5-.2.7l-.2-.3.4-.4Zm54.9-67.4.1.3c-.2 0-.3-.2-.4-.1l-.4.2v-.3h.7M99 146.4l-.3-.3.2-.4c0 .3.4.4.1.7M95.3 72l-.2-.6c.3.1.5.2.5.4l-.2-.2v.4h-.1m42.6 31.4.1.4v.1a5 5 0 0 1-.4-.3l-.2.2v-.3h.5Zm-13.7 43.8v.7c-.2-.3-.3-.3-.2-.5 0-.1 0-.3.2-.3m-.8-.1v.7l-.2.1c0-.3-.2-.7.2-.8m-31-89.6L92 57c.2-.1.3-.1.4 0 .1.2 0 .3 0 .4M45.1 42.7l.5.2c-.2.2 0 .4-.3.5 0-.2 0-.4-.2-.7Zm81 3-.3.3-.3-.3c.2 0 .4-.3.7 0m1.4-2.2.2-.3.4.3-.1.3c-.2-.2-.3-.3-.5-.3m-32 31.1v.5h-.2c.1-.4 0-.5-.3-.6l.6.1m-2 66.6c-.5.2-.5.2-.7 0 .2-.2.4-.2.6 0m-5.3-.1.1-.6c.3 0 .3.3.5.3l-.5.3m52.2-41.2h-.3l-.2-.3c.1-.2.4-.2.5 0v.3m-25-45c0-.3-.2-.4-.3-.6l.2-.1c.2.2.3.5 0 .7M55.2 68.5v-.2l.4.1-.3.3h-.5l.4-.2m-18.6-2.9c-.2-.4-.1-.5.3-.6l-.3.6m111.8 16.5-.2 1c-.2-.2-.2-.4-.1-.4 0-.2 0-.5.2-.6m.9 1 .4-.2.1.4v.3l-.1-.3-.4-.2M123.7 138v.6l-.3.2.2-.8m5-16.7h-.4v-.4c.4 0 .4 0 .4.4M51 62.5H51.3l-.1-.3c.3 0 .2.2.2.4l-.2.4-.2-.5m57.6 1.8-.1-.7.4.2-.2.5h-.1m-20.9-5.5c.1.1.3.2.1.4h-.2c-.2-.1-.1-.3.1-.4m16.7 100c.3.3.2.5.1.7l.2.2c-.3 0-.3 0-.3-.8m28.3-46.4v-.8l.1.2c0 .3 0 .3.4.4l-.5.2M92.9 144l-.4.3c-.3 0 .2-.4-.2-.5.3-.1.4.2.6.2ZM51.7 36.7c0-.2-.3-.5 0-.8l.1.5h.2c.1 0 .1 0 0 0l-.3.3ZM39 55.9c-.3-.3.1-.5 0-.7l.4.5-.4.2Zm70.6 111.8c-.3 0-.5-.1-.4-.3l.2-.2.1.2v.3M54.9 88c0-.3.1-.4.4-.3v.4h-.4ZM161 51.8l-.2-.2.5-.2c.1.2.1.2-.1.3l-.2.1M48.6 39.5l.3-.6h.1v.6h-.4M148.8 82v.3l-.3-.5c.2-.2.4 0 .7 0l-.4.2M53 53.4l.3.6c-.5 0-.5-.1-.3-.6Zm96.4 26.2-.2-.6.1-.1h.2v.7ZM57 50l-.3.2-.2-.3m40 97.8.2-.5h.4c-.3.3-.3.5-.2.7l-.3-.2M53.7 88v-.3l.7.1v.4l-.1-.2h-.5M45 45a1 1 0 0 1-.2 0l.4-.7s.2 0 .1.1l-.3.7m93.6 55.3c0-.4.3-.6.6-.4-.1.1-.4.1-.4.4h-.2m-39 53.7.3.5-.5-.1c0-.2 0-.4.2-.4m-54-60-.3-.6s.5.3.3.6ZM52.2 58l-.1.2.1.2.1.1-.1.1-.3-.2c-.1-.2 0-.3.3-.4m48.7 97.5.6.2c-.2.1-.2.4-.4.3l-.2-.5m17.5-21.3v.8l-.4.2.3-1M67 120.7c.2.2.3 0 .4-.3v.3c-.1.2-.2.4-.6.3l.2-.3Zm61.8 18.3c.5.2 0 .5.3.7h-.3c0-.2-.2-.4 0-.7Zm-13.8-1.7c.2.3.2.6 0 1-.3-.4 0-.7 0-1M56.7 117l.1.5h-.3l-.2-.4.4-.2m85.8-31 .3-.4-.4.1c0-.2.3-.3.6-.2 0 .3-.3.3-.4.5m-28-24 .3.4h-.2c-.1 0-.1.4-.3.2.2-.2-.2-.2 0-.4l.2-.2Zm17-9.3c.1 0 .3-.2.6 0l-.2.2c-.3.2-.4.1-.5-.2m-29.2 96.7c0-.3-.5 0-.4-.4l.5-.2c.2.3-.1.4-.1.6m22.2-108v-.6h.3l.1.1v.1l-.3.4m4.3 99.6-.3.5h-.7l.6-.2c.2-.1.1-.5.4-.3M40.6 84.2c-.2.2 0 .5-.4.5L40 84l.6.2m101 12.8c.5 0 .2-.4.3-.6.2.2.1.5 0 .8h-.3V97ZM86.5 59h-.4c0-.2-.2-.3 0-.4l.1-.1h.1l.1.5Zm-6.3 70 .3-.1-.1-.5.2.3.1.3-.3.2-.2-.2Zm26.5 30.5c.2-.2-.2-.5.1-.7l.3.4-.3.4-.1-.1Zm9.3-.4.2 1-.4-.4.1-.6h.1ZM86 57.3h-.2c0-.3-.3-.7.1-.8v.8m7.5 83.2v-.4h.5l-.4.5h-.1m54.5-51c0-.3 0-.4-.3-.5l.1-.4c.3.4.4.7.2.8m.3-4.6c0 .3-.1.4-.3.4-.2 0-.3-.1-.3-.3l-.2-.2.3-.1.2.4.3-.2m-82.6 42.6c-.4 0-.2-.3-.4-.5l.5.1v.4m57.2-82.3v-.8l.3.2c0 .2 0 .4-.3.7M37.6 61.9l.2.4-.3.4c-.2-.2-.1-.5 0-.8Zm47.6 83.7v-.3h.6l-.1.3a9 9 0 0 1-.5 0M92.4 56H92c0-.4.2-.5.3-.8.1 0 .2.1 0 .3v.5m48.4 43.6-.2-.5c.2-.2.3.1.6 0v.3a1 1 0 0 1-.4.2m-13.2 19 .2-.4c.2.2.3.5.1.7l-.3-.2ZM57 50.4h.4l-.2.8-.2-.8m42.2 4 .2-.7.2.3v.4h-.4ZM46.6 103l.5-.1v.2l.2.2c-.4.1-.5.1-.6-.3m86.6 7.4h.2l.2-.1-.3.7-.1-.6m-3.9-.6-.1-.1c0-.3 0-.5.3-.7v.4h.1l-.3.4m-19.7-55.6.7.3-.1.4-.6-.6m.4 111.3c-.2 0-.3 0-.4-.3 0-.2 0-.3.2-.5l.1.4.1.4M38.7 59.4c-.5 0-.5-.2-.3-.7l.2.2c-.2.3 0 .3.1.5m105.8 38v-.6h.2v.4l.3-.2c0 .3-.2.4-.5.4M112 146.8l-.2.3-.2-.1c-.1-.3-.1-.4.2-.5l.2.3m14.2-29.6.5.7h-.5v-.4l-.1-.2Zm11.3-12.2-.1.4v.5l-.2.1.2-1M161 83.9l.2.6h-.5l.2-.6h.1m-46.4-30.7.5.2c0 .3-.4.1-.4.4l-.3-.3.2-.3m-35 81.7c-.5 0 0-.5-.4-.5.1-.1.3-.3.5-.2-.3.2.1.5-.2.7m8.1-.8v.6h.4c-.5.2-.5.2-.6-.1l-.1-.5h.4m-.7-.4c.1.2.2.5.1.8l-.4-.2.2-.2.1-.4m26-79.8c-.2 0-.6 0-.7-.3 0-.1 0-.2.2-.3v.3l.2-.2.4.5m-53.5 66 .4.2-.4.7v-1m67.3 23.4v-.2l.2-.7h.1c.1.1.1.3 0 .4-.1.2.2.5-.3.5m18.5-52.7c.5.1.2.5.4.8l-.6-.2c.3-.1.3-.4.2-.6M98.7 53.2l.3-.3.2.8c-.4 0-.3-.3-.5-.5m.2 94.3c-.2 0-.3 0-.3-.2s0-.2-.2-.3l-.2-.2h.4c0 .3.4.4.2.7M151 74.8h-.7l.2-.7h.1c-.1.3 0 .6.4.7Zm-21.8 49.5c-.2.2-.2.5-.5.4.3-.4.5-.6.8-.5.2.1.2.2.1.4l-.4-.3M46.6 93.9v.2c-.2-.2-.5-.2-.7-.6.3.2.7 0 .9.3h-.2Zm73.4 57.8-.4-.4.2-.3c.4 0 0 .5.3.6v.1Zm21-55.5V96l.2-.2c.2.3.5-.3.7 0-.3.3-.3.3-.9.3m-4.8 34c-.5 0-.3-.4-.3-.5l.3-.3.2.1s0 .3-.2.1l-.1.1v.4m-11.2-.5-.3.4h.5v.4c-.1 0-.2-.3-.4-.2l-.2-.3.4-.2m-18.6 32.6-.1-.8.5.1-.4.7ZM43.5 51.1l-.7-.2c0-.3.3.1.4 0 .1-.2.3-.2.5-.3 0 .2 0 .4-.2.5m.4-4c-.4-.1-.1-.7-.5-.7l.1-.4.1.4c.4 0 .3.3.3.6m75 83.9c0 .3 0 .6-.4.7l-.2.2c-.2-.2 0-.3 0-.4h.4l-.1-.2.3-.3m-28.3-63c-.2-.2-.2-.5-.2-.8-.1-.3 0-.3-.3-.5.4 0 .5.1.5.5v.8m25.1 91.6-.5.3-.4-.2.3-.3.6.2M160 61.6l-.4.3.3.2-.2.1h-.3v-.8l.5.2m-38.9.2c.2.2.5.3.5.6 0 .2 0 .3-.2.3l-.2-.5c0-.1-.3-.2 0-.4m-12.6-4.5.3.4c0 .2-.3.2-.5.4 0-.3 0-.6.2-.8m-37 63.6h.7c0 .3-.2.4-.3.7l-.4-.7ZM41.1 75.1c.3-.1.5 0 .8.4l-.3-.1-.3.1-.3-.4m107.8-22.6v.2c0 .2.3.2.1.4l-.1.6-.3-.6c.3-.1 0-.5.3-.6M121 152.2l.4.3c0 .5-.4.1-.6.3-.1-.3 0-.4.2-.6m-14 4.8c0-.4-.2-.8-.5-1 .2 0 .4 0 .5.2l.2.5v.3h-.2M48.8 41.2c0-.3-.3-.2-.5-.5.2-.2.4-.3.7 0l-.1.5h-.1Zm5.1 74-.3.2-.4-.6c.4-.2.5 0 .7.3m69.6-69.6-.5.6v-.7c.2-.1.4 0 .5.1M162 70.8l.5.3-.2.2v.2h-.2c-.2-.2-.3-.4-.1-.7m-95.6 50.7-.5-.3.1-.3c.5 0 .6.2.4.6m77.5-27.7-.6.4c0 .2.1.2.2.3v.1c-.2-.1-.5 0-.6-.3h.3l.1-.4.6-.1m12-44.4v.5l-.4.2c-.2-.4 0-.6.4-.7m-70.6 97.8h.4c.3-.3.5-.2.5.2l-.7.1-.2-.3Zm24.3-2c0 .1 0 .3-.2.5v.1c0 .3-.1.3-.3.2v-.4c.3 0 .1-.6.5-.4M107 163l-.5-.4 1-.2.1.1-.6.5Zm8-107.5c.2 0 .3-.3.5 0h.3c0 .2 0 .2-.3.2l-.4.2-.1-.4Zm19.4 53.7-.3.7-.2.1c-.2-.7-.1-.8.5-.8ZM54 53.3l-.5.2.2-.3-.3-.2.5-.4.1.7Zm86.4 37.5v-.4.2c-.2 0-.5.3-.6-.1h.3l.1-.4.4.2c.1.1 0 .4-.2.5M70.7 114l.3.7c-.5-.2-.7-.4-.6-.8l.3.1M139 98.4h.3s0 .7-.3 1l-.2-.2.2-.8M61.5 98l-.3.2.1.2c-.5 0-.5-.2-.3-.6h.5v.2Zm30.9 45.4v-.5l.3.2.2-.1h.1v.2h-.2l-.1.4-.4-.2m35.8-27.2c.3.5.2.9-.2 1.2-.3-.3.2-.4.2-.7l-.3-.3.3-.3m-20.4-53.5h.4l.2.6c-.4 0-.5-.2-.6-.6M81 135.7l.1.3h-.3c-.1-.3 0-.4.2-.5.2 0 .5 0 .6.5l-.6-.2m60.2-38-.3.2-.2-.2-.1.3-.2-.7v-.2c.4 0 .3.7.8.6Zm-53.6 39.4.6-.4-.2.6h-.5l-.4-.3c.2-.3.4 0 .5 0m-6.2-10h.2c.2.3.1.7 0 1-.3-.2-.3-.3-.2-1M159 50l.3.3h-.2l-.2.4h-.3l-.1.2-.4-.3c.3-.3.9 0 1-.5M52.6 112.9h1c-.5-.2-.6.4-1 .2v-.2Zm14.5 16.5H67l-.3-.3.4-.6.5.4-.5.3v.2Zm21.5 20.4-.2.4-.1-.3c-.3 0-.5 0-.7-.3l.6-.3.2.4h.2m58.6-63-.2-.4-.1.4V86.1h.3l.2-.2.2.1c-.1.2-.1.6-.4.7M126 116.3c.2.3.4.3.7.3v-.3l.2.3.2-.3.2.5c-.3-.1-.6-.2-.8.1-.5 0-.6-.2-.5-.6m-16.8 47.5.7.4c-.1.4-.3.5-.5.3a.4.4 0 0 1-.2-.2v-.5m6.9-23.5.4.6-.2.2v-.3l-.3.3c-.1 0-.2 0-.3-.2l.4-.6m20.3-12a1 1 0 0 1 0-1h.4v.3c.1.3-.2.5-.4.7m21-78.3c.3 0 .4 0 .6.2 0 .1.3-.2.4.1h-.7c0 .2.4.5-.1.7v-.3c-.3-.1 0-.2-.1-.4V50m-64.4 6h.1c.3 0 .4.2.4.3h-.3l.2.2h-.1l-.3-.2-.2-.1c0-.3-.1-.6-.3-.8h.5c0 .2-.2.4 0 .7m15.8 6.1c-.3.2 0 .5-.2.7-.1 0 .1.4-.2.5v-.2l-.1-.4c-.1 0-.1-.3 0-.4l.1-.3.4.1m50.3-5 .5.2h-.7c0-.3 0-.5-.5-.5.3-.2.5-.2.5-.5.4.2.2.5.2.8Zm-10.5 26.3.3.2v-.4l.1.2.2.1-.2.2c-.4 0-.5 0-.7.3v-.4h-.3l.2-.1c.1 0 .3 0 .4-.2m-7.2 16.9-.2.3h.3l.2.2-.5.5-.1-.3v-.2c-.1-.3 0-.5.3-.5m-99-18.4v-.5c-.1-.1 0-.4-.3-.3v-.3l.3-.3h.2v.2c.1.1-.1.2 0 .4l-.1.3v.4l-.1.1M71 122c0-.1.1-.3-.2-.4v-.5h.5c.1.1 0 .3-.1.4v.3c.1.2 0 .3-.2.2m14.2-64.4h.3v.3a1 1 0 0 0-.3 0c-.2 0-.3.1-.3-.1l-.2-.8c.4.1.5.3.5.6M55.5 80.9c.1-.2.2-.4.5-.3h.1c.2-.2.3-.3.4-.1v.6l-.5-.4-.3.5-.2-.3m79.7 26 .4.8c-.3 0-.4.2-.3.6-.2-.1-.3 0-.3-.3l-.2-.3c.4-.1.3-.4.4-.7m-.5 1.4-.3-.4c-.2 0-.2.3-.2.6l-.5-.3.5-.4.4-.2.3.2-.1.3-.1.2Zm2.8-69.5-.2-.1-.3.4-.6-.5.3-.5c0 .4.3.5.7.4.2 0 .2.2.1.3m-89.3 62.7.4.3.4-.1v.1c0 .2-.2.3-.4.6l-.2-.5-.2.7v-1M56 50.8h-.4l.1-.3v-.8c0-.1.2-.1.2.1v.8l.1.2m71 73.9.6.6v.1h-.2l.3.6c-.2 0-.4-.2-.4-.3 0-.2-.1-.3-.3-.4-.2-.2-.3-.3-.1-.6M98.4 144l.5-.3c-.2-.3.1-.3.2-.6l.3.2c-.4.2-.3.2-.2.6v.4h-.1c-.2-.2-.5 0-.7-.3ZM88.1 62.6l.2.1.2-.1.4.7.4.2c-.5.2-.5.1-.7-.3l-.3-.2c-.3-.1-.3-.1-.2-.4M48.4 42.2h-.3c-.3-.2-.3-.2-.2-.5.1-.2 0-.5.4-.5h.1v1m11 52.4 1.2.7c-.2 0-.3.2-.5 0 0 0-.2 0-.2-.2l-.4.2-.1-.7m20.4 38.7c0 .3 0 .5.4.5l.2.3v.1c.4 0 .2.2.2.4-.2-.2-.3 0-.3 0-.2 0-.1-.4-.5-.1.2-.4 0-.7 0-1v-.2M41 85.6l.3-.2-.1-.4c-.3 0-.1-.3-.2-.4l.5-.2V86c0-.2-.4 0-.5-.3m16.6 32.6c-.2.4-.5.1-.7.4l-.2-.8.9.1-.3.2.3.1ZM36.9 67.3l-.2-.6.1-.7.2.2V66c.4.2.2.5.1.7v.6H37m102-28.3c-.1 0-.3.2-.4.1-.3-.1-.3.2-.5.2 0-.2-.2-.3 0-.6l.2.2v-.6c.3.1 0 .5.4.5l.4-.4v.6m-26.5 20h-.3c.5.3.5.4.2.7l-.6-.5V59s0-.2.1-.1l.6.1m-24.3 76.3v-.6l.3.4.1-.5.7.8-1.1-.1M56.7 51.4c0 .3-.1.5 0 .8.1.1 0 .3 0 .4-.4-.1-.5-.6-.7-1l.3.1v-.2h.4m72.6 71.8h-.4l-.3-.2.6-.4c.2.3.2.7.5.6v.7c0-.3-.1-.4-.4-.4l-.2-.1.2-.2m-49.4 9.8c.2-.4.3-.7 0-1 .3-.2.1.1.3.1.2-.1.3 0 .3.1 0 .2.1.3-.1.4V133.3l-.2-.1v.3l-.3-.4m48.5-90.7c0-.3 0-.6.2-.7l.4.5h.5v.4l-1-.2m-35.6 98.8c0 .3 0 .6-.3.6-.2.2-.5.5-.3.9-.2.1-.4.2-.7 0 .2 0 .6-.1.5-.3v-.7c.4 0 .5-.2.8-.5m34.8-30.4.4.3c.2.3.2.4 0 .5l-.5.2s-.2 0-.3.2l.1-1 .3.4v-.6m-2 18v.2c-.4 0-.3-.2-.3-.4 0-.4 0-.4-.4-.4v-.1l-.1-.1c.2-.1.3-.3.3-.5-.1-.2 0-.1.2-.3v.5h.3v.5c-.3.2 0 .3 0 .4v.1Zm-37.6 20.5-.7-.3.2-1.1.4.4c-.1.3.3.6.1 1m25-94.2c.2 0 .4 0 .5-.2 0-.2.3-.2.5-.4-.2.7-.3.7-.7.7l-.3.6c-.2 0-.3-.2-.3-.3l.2-1.1.4.4-.3.2v.1m1.2.8c-.1-.2-.2-.3-.1-.6-.2-.2 0-.3 0-.4l.1-.3c.1-.4 0-.5-.4-.6l.4-.2.3.2h.2c0 .4-.2.3-.4.3l.2.3-.2.2.2 1-.3.1m31 30.2c.2-.2.4-.3.3-.6 0-.2.1-.3.3-.3 0 .2 0 .4.2.5.1.2 0 .2-.2.3l.3.3-.2.2c0 .4 0 .4-.2.6l-.3-.6v-.3l-.2-.1m1.9-4.4.2.3.2-.2v.1c0 .2-.2.4-.1.7 0 .1 0 .4-.3.4l.2.2-.2.2h-.3c.2-.4 0-.7-.2-1l.5-.7ZM53.6 50.2l.3-.1c.1.1 0 .6-.2.7l-.5.1-.2-.2c.2 0 .3-.2.2-.5l.2-.3H53m80.5 62.6c.2-.2.5-.2.8-.2h.4l.2.2-.4.2c-.2-.1-.4-.2-.8-.1h.4c.1.1.3.1.3.3l-.2.3-.1.5-.4.2v-.4h-.4v-.4l.3.2v-.8M41.1 83.3l.4-.3.5.6c-.2 0-.3.1-.3.3-.3 0-.3.2-.3.4l-.4-.1.2-.3c-.4 0-.7 0-.7-.5-.4.1 0 .4-.2.5l-.1-.2c0-.3.2-.6.3-.8v-.1l.5-.5c.2.1 0 .3 0 .5-.2.1 0 .3 0 .5m74.4-31.5-.1-.3-.2.3c-.3 0-.4 0-.3.3-.3.1 0 .4-.3.6-.3-.4 0-.6 0-1-.3-.1-.7-.2-.8-.5l.3-.6s.2.2.4 0l-.5-.3c.2-.3.3-.5.5-.5 0 .4.2.9 0 1.4l.4-.2-.1.6c.2-.2.3-.3.3-.6l.7.4-.2.1-.1.3m-4.6 3.5.2.1.2-.3-.4-.1.2-.4.5.4.1-.1-.2-.4h.1l.4.3h.1v-.3l.2-.1.2.6h-.5v.5l-.2-.4c-.2.1-.2.2-.2.3l.3.5c.4-.1 0-.5.3-.7l.2.1c.2.1.3.2 0 .3.3.1 0 .5.4.5h.2c0 .2-.3.4-.7.6 0 .1.4.1.2.3l-.4-.1c-.3-.1-.4-.1-.6.3a5 5 0 0 1-.4 0l-.1.4-.4.2c-.2-.1.3-.2 0-.4l-.2.2-.2-.4-.7.3-.4.6c-.2-.3-.2-.3.2-.4v-.8h.3l.3.1.1.2v-.4l.4.3-.2-.6h.2c0-.3-.4-.3-.6-.5l.3-.5c0 .2.2.3.3.5.2.1.3-.1.4-.3l.1-.4h-.3l.2-.2.1.2m-14.5 89.4-.1.4.4.2-.5.1.3.7-.5.3c0-.2 0-.4.2-.6l-.3.1-.5.1c.1-.2.3-.1.5-.1a1 1 0 0 0-.5-.3l.3-.3-.2-.2-.3.3v-.2l.2-.2.1-.2H95c.1-.2 0-.5.3-.6l.1-.2c-.3 0-.4-.2-.4-.5l.4-.3.2.1.3-.3-.4-.2.4-.4c.2 0 .5 0 .6-.3l1 .2c0 .2-.3 0-.5.2 0 .3.3.1.5.2 0 .2-.4.2-.3.5l-.8-.5v.7c.2 0 .3.4.6.3l.2.3s0 .2-.2.2h-.3v.2c.2-.1.4 0 .5.2l-.3.3-.5-.1ZM42.7 79.5c-.2 0-.2.2-.3.3a1 1 0 0 0-.4 1h-.1l-.3-.7-.4.2-.5-.2-.3-.2.3-.2h-.5c0-.2.1-.2.2-.2.2 0 .1-.2.2-.3l.1.2c.2 0 0-.3-.1-.4h-.2v-.2l.2.1v-.5h-.4l.4-.2c.2 0 .3 0 .4-.2h.2c0-.2 0-.5.3-.7v.4c0 .2 0 .3.3.3 0-.3-.2-.5.1-.6l.3.2.5-.2c0 .3-.4.4-.1.8-.4 0-.3.3-.5.5.1 0 .3 0 .3.2v.1l.3.5.2-.2s-.2.9-.5 1l.3-.8m79.9 49.2h-.2v.3l-.3.2c-.1-.1-.2-.3 0-.5.3-.3.2-.4 0-.7v-.3c.3 0 .4.3.7.1l.2.2.3.4c.2-.3-.2-.3-.2-.5l.2-.4h-.2l-.2-.7.2-.1v-.1l-.4-.2-.2-.7.2-.3-.5-.7c.3-.1.3.3.5.2l-.2-.5.4-.4c0 .2 0 .4-.2.5l.5.6c0 .3.3.6 0 .9.1 0 .3-.2.3-.7l.2.5.3-.3c.2-.1.2 0 .2.1h.5c.1-.1 0-.2-.1-.3h.3v-.2a8 8 0 0 1-.3-.4c-.4 0-.5.4-1 .5.2-.4.2-.6 0-.9l.2-.3v-.2h.3l.4-.9c.2 0 0-.2 0-.3h-.2c.1-.1.2 0 .2 0h.7v-.5h.2v.2h.4l-.3.2.2.2h.1c0-.4.5-.6.2-1l.4-.2h.3v-1l.4.2s.1-.2.2 0c.1 0 .2 0 .3.2h-.4c.3.2-.1.3 0 .5l.6.2.1-.5c.1.2.3.4.1.6-.1.2 0 .3.1.5.3-.1.2-.3.1-.5l.7-.4c0 .1 0 .4.3.2l-.2.6.7.2-.3.4c-.1-.3-.6 0-.7-.5l-.1.4c-.2 0-.3 0-.4-.2-.2-.2-.3-.5-.7-.4 0 .2-.2.4 0 .6l-.2.3.4.2c-.1 0-.2 0-.3.2l.1.2h.3v-.3c.4-.1.2.3.4.3l-.8.8c0-.2-.1-.4-.4-.4v.6c-.3-.2-.1-.7-.5-.7v.7l-.4.2.5.2c-.2.1-.5.1-.5.4l.4.4h-1l-.1-.3c-.2.1-.5 0-.5.3v.5h-.5c.2.4.5.2.6.2h.2c.2.1.3.1.3-.1s0-.4.3-.5c.2.2 0 .3 0 .4.1 0 .3.3.6 0l.1.5v.4l.3-.3v.4l-1.1-.2-.2-.2h-.2c-.1.4-.4.2-.6.4-.2-.3-.3.1-.5 0-.1-.1 0-.4-.3-.3-.2 0-.2-.1 0-.3l-.4-.2c-.2 0-.1.4-.4.3l.2.3.2.3.1-.3.3.1-.2.2.3.3c.3 0 .3 0 .3.3-.1 0-.3-.1-.4.1 0 .3 0 .2-.3.2h-.2c.2.2.6.2.6.6-.2.3-.4 0-.6 0v.3l-.2-.2v.1c0 .2 0 .4.3.4l.3.4c-.3.1-.2.4-.2.6-.3 0-.2.4-.5.4l-.3-.6c-.3.4-.3.4-.7.4v-.4c-.3-.1-.3 0-.4.1l-.2-.2.7-.3.2.5h.1v-.4c0-.1.2-.4.5-.4l-.4-.1.5-.8-.6.1c.2 0 .2.1.2.3-.2 0-.2-.2-.2-.3m25.5-48-.3.2-.3-.4-.4.4c0-.2 0-.4.3-.6V80c-.2 0-.3-.1-.4-.3 0-.3.1-.3.3-.4.2.3.5.3.8.3 0-.2-.3-.2-.4-.3.3-.5.3-1.1.6-1.6.2-.1.6 0 .7-.4 0-.2-.3-.3 0-.5.3 0 .2.4.2.6 0 .4 0 .4.4.4.2-.3.3-.3.6-.1-.2.2-.4.1-.6 0l-.2.6c-.1-.3-.5-.3-.6-.5-.2 0-.4.1-.3.4l.4.1c0 .2-.4.3-.2.6l-.2.2c-.2.2-.2.3-.1.5l.2.6h.4c0-.2-.3-.3 0-.4.2.3.3.5.1.9h-.2l-.3-.3-.2.5c.1.3-.1.6-.2 1v-1.3Zm1.4-6.7.2.5c-.4-.1-.2-.3-.2-.5 0-.4.1-.6.6-.7l-.3-.1c0-.3 0-.7.2-1l-.1-.4.2-.2h.4c.1-.2 0-.4-.2-.6h-.2l.5-.5.4.9-.5 1V73h.3s0-.3.2-.2V74l-.3-.6c-.2.1-.3.6-.8.3.1.3.2.5 0 .9 0-.4-.2-.5-.4-.5m-24-29c0 .2-.2.2-.3 0 0 0-.2-.2 0-.3.1 0 .3.1.2.3l.2.1.2-.1c-.2-.3 0-.6 0-1l-.5.1v-.5c.3.1.5 0 .8-.2 0 0 .2-.2.1-.3 0-.2-.1-.4-.3-.2l-.3-.5s0-.2.2-.2c0 0 .2 0 .1-.1l-.1-.1a2 2 0 0 0-.4-.1V41c.1-.1.1.2.2.2l.3-.3c.3.2.2.3 0 .5l.3.5-.2.5.1.3c.3-.1.4.2.6.2v.5h-.2c-.2.2-.3.4-.2.6v.2l.2-.3.3.4-.5-.1-.2-.3v.2l-.1.5c0 .2.2.2.1.3 0 .3.3.2.3.4-.1.2-.5 0-.6.2l-.2-.4M51 100.8c-.3.1-.4 0-.5-.2v.3c-.3 0-.4-.3-.5-.5v.7c-.3-.2-.3-.4-.3-.7h.3c-.4-.2.1-.2.4-.1 0 0 .1.3.2 0l.3.3c.1 0 .1-.3 0-.4m70.2 25.7c.4 0 .3-.3.4-.5.1-.1.4-.2.6-.1-.1.4 0 .4.3.6-.2.2 0 .6-.4.7l.4.3-.3.2v-.1h-.8c0 .1.1.3-.1.4-.2.1-.2 0-.4-.1l.3-.1c-.4-.4 0-.8.2-1 0-.2-.3 0-.2-.3-.1 0-.3.1-.3-.2 0-.2 0-.2-.2-.2l.2-.2h-.3l.4-.2v-.2c.2-.3.4-.1.7 0l-.1.3-.3-.2-.2.5.1.4m-10.5-67.2c-.4-.1-.4-.1-.2-.5l.2.3.2-.2c.3-.2.5-.5.5-1 .1.2.3.4.2.7l.2-.6.3.1v-.2h.5l.3.1v.4l-.2.4.1.4c0 .1-.2.1-.2 0l-.1-.3c-.1-.5-.2-.5-.6-.3l-.1.6c0 .2-.3.3-.4.4h-.3l.4-.3c-.2 0-.3-.2-.5 0-.2.3-.3 0-.3 0m3-6.4c-.2.1-.2.3-.2.5l-.2-.3h-.3l.1-.3-.4-.1c.1-.3.1-.7.4-1l.1.3.2-.2.2.4c.5 0 .7.2.9.7l-.6.3-.2-.3Zm-5.9 9c-.1 0-.3 0-.4-.2l.4.1v-.3h.2c-.1-.4-.7-.6-.4-1.1v.1l.3.1v.4l.4.1v.2h.8l-.5.6.3.1c0 .2-.2.4 0 .7-.2-.2-.3-.4-.5-.4l-.6.2v-.6m13.1 68.7h.4c-.2.2-.3 0-.4 0v.2l-.4.1v.2l-.1-.1.2-.1c-.2 0-.3-.2-.4-.3-.2-.2-.3-.5-.3-.8 0-.2.1 0 .3 0 .4-.4.4-.4.2-.9.2 0 .3 0 .3.2.3.2.3.1.4-.1l.1-.2.2.2c0-.2.1-.2.3-.2 0 0 .1 0 0 .2l.1.3-.5.2s-.1-.3-.4-.2c-.3.2-.4.5-.2.8l-.2.3c.2 0 .3.2.5.1m-4.4 9.5-.2.2.4.2c.3.3.3.3 0 .7-.3-.2-.5-.6-.8-.3l-.3-.8c.4-.3.3-.3.9 0l.2-.2.3.2-.1.4c-.2 0-.2-.3-.4-.2v-.2m-3-83c.2 0 .4 0 .4-.2l.3.2.3-.2-.3.8c-.2 0-.2 0-.1-.3h-.2c0 .2-.3.4 0 .5l-.2.5a.7.7 0 0 1-.3-.5h-.3c.2-.1.3-.2.2-.5 0-.2 0-.3.2-.3m-59.1-3c-.2-.1-.2-.4 0-.6v-.5l-.1-.2c.6 0 .4-.7.6-1l.4.7-.4.2v.3c-.1.2-.2.4 0 .6h-.5l.2.5h-.2v.2l-.2.1.2-.2m90.8 41.9c-.2.2-.4.4-.8.5 0-.2 0-.4.3-.5.3-.2.2-.5.2-.7l.1-.6.2-.5h.4c-.3.2-.4.2-.3.5l.2-.2.1.5h-.4v.5h-.2l.2.5c.4.1.4.2 0 .5v-.5Zm-34-35.7h.5c0 .4-.3.3-.5.4l.2.3-.5.4c-.1-.3.1-.4.2-.5-.2-.2-.3 0-.5.1l.2-.3v-.6l.2.3h.2v-.1c-.2 0-.1-.2-.2-.3.2 0 .3 0 .2.3M42 85l.1-.2.6-.3-.5-.4c.3-.1.5 0 .7.1l-.1.9c-.2.1-.5.2-.7 0v.4h-.2v-.4M72 119.7c.4 0 .4.1.4.4l-.4-.4Zm0 0v1l-.5-.2c-.1-.2-.3-.5-.3-1 0 .3.3.2.4.4l.4-.1m9.6 13.7.6.3-.3.3c.2.2.2.5 0 .8v-.4h-.3c0-.3 0-.5-.2-.7v-.5l.2.2Zm35.9 23c0-.2 0-.4-.5-.5.2 0 .4 0 .6-.2l-.1.8Zm0 0v.5h-.3c-.2 0-.2 0-.3.3l-.2-.5h-.3v-.2c.4 0 .7-.3 1 0m-1.2-99.1-.2.1v.5c-.2-.2-.3 0-.5.1 0-.3-.2-.5 0-.7V57l.7.6h.1v.4c-.2-.1-.2-.3-.1-.4Zm-18.7 86.2c.1-.1.2-.3.4-.3 0-.2.1-.4.4-.2l-.1.5c-.2 0 0-.4-.3-.3 0 .5 0 .5-.3 1l.2.3-.5-.2c0-.3-.1-.6.2-.8Zm27.5-15.1-.2-.2c.2 0 .3 0 .2.2v.7c-.2.1-.2-.2-.5-.3 0 .2 0 .4-.3.3-.2 0-.4 0-.4-.3h.6c.3 0 .5-.2.7-.4m10.7-25.4c.2 0 .2.1.3.3l.5-.5.2.2-.5.5h-.3v.3l-.4.1.3-.8h-.1v-.4h.1l-.1.3m-87 1.6-.3-.2.2-.1v-.3c-.1-.1-.1-.2 0-.4a8 8 0 0 0-.2-.5c.2 0 .3.2.3.3.1.2 0 .5.2.6.1.1-.2.3 0 .4l-.2.3.1.3c-.2 0-.1-.2-.1-.4m68 30.6c-.2-.2-.2 0-.3.1l-.2-.5.3.1v-.1l.3-.4.2.2-.2.6.3.1-.3.3v-.4m3.9-1.7c-.2-.2-.6-.3-.7-.6h-.1c.2-.1.3-.1.3.2l.1-.3c.3 0 .5 0 .6.3.1.3-.2.2-.3.4l.3.1h-.3v-.1m-25 7.6.2-.1.4.4-.4.5c-.2-.2-.3-.5-.2-.8-.3 0-.4-.1-.3-.3l.3-.5v.8m-55.4-64c.2-.3.4 0 .6 0l.3.4h-.5l-.1-.2h-.2l-.2.1.2-.4H40v-.1c.2 0 .3 0 .2.1M119 46.9h-.4l-.1-.2.3-.2V46l.3-.3c.2.3-.3.5 0 .7l-.2.2v.2l.4.2c-.1.3-.3.1-.4 0l.1-.2m20.2 49.5.3-.2c0 .1-.1.2-.3.2-.1.3-.2.4-.7.4 0-.2.2-.3.3-.5l-.1-.1.3-.2.2.4M89 137.9c0 .4-.3.8 0 1.2l-.2.1.1.1c.2 0 .3 0 .4.2l.4-.7-.1-.2c-.2-.2-.1-.3 0-.4.2 0 .4-.2.6.2h-.4l.2.1c.5 0 .8.3 1.2.5 0 0 .2 0 0 .2v.1c.3.1.3.3.1.5l.2.2v-.4c.3.2.7 0 1 .4-.1 0-.2.2-.3 0-.1-.1-.2 0-.4 0l.5.3-.1.3v.3h-.1l-.2-.2h-.2s-.2.1 0 .3c0 .2.2.5 0 .8l-.5-.3-.4.3h.6c0 .2-.2.2-.3.2 0 .3 0 .6.3.7v.5l-.2.2.3.5h-.4v-.8c.1-.1 0-.3 0-.4v-.2c-.2-.4-.3-.5-.7-.5v-.4c-.3.2-.3.2-.3.5s0 .6-.2.9c.1-.3 0-.4-.2-.5l.2-.4-.2-.3-.2.6-.4-.6-.3.1.2-.3.2.2.1-.4h-.2v-.3h.3v-.7l-.3-.2s-.1.2-.3 0c-.2-.1-.2.2-.3.2l-.4.2.2-.8-.2-.1.1-.2.2-.3-.3-.3c-.4-.1-.4-.1-.5-.5-.3-.2-.3-.2-.4-.6l.2-.1v.3l1-.4-.2-.3.4.1v-.4l.4.3c0 .2.3.4 0 .6ZM55 90.2h-.3v-.4h-.2l.2-.2v-.2h.1c.1.1.4.2.1.5l.1.4c.2-.2.2.1.3.2v.1l-.3-.3M56 93l-.3.3h-.1V92.7c0-.3.1-.3.3-.3l.1.6.2.2c-.1 0-.2 0-.2-.2m2.2 26.3c-.2-.2 0-.5 0-.7 0-.1.2-.2.3 0l-.2.6c.2 0 .1.3.2.4h-.3v-.4m85.4-28.2.3.1-.4.2-.1-.1c-.2 0-.3 0-.4-.2l-.1-.3.4.3.2-.4c0 .1.2.2.1.4m-65.3 40.7c0 .1.2.2 0 .3h-.5v-.5c.2.1.4 0 .5.2m31-70.1.3-.1.2-.2c.1.3.1.4-.3.7l-.1-.4-.3.1c0-.2.2-.2.3-.3v.2M89 59.4c.2 0 .4 0 .6.2v.2l-.2.2-.2-.2-.2-.4c-.2 0-.4.2-.5-.1V59l.5.3m40.4 56.5-.5.4.1-.8h.1l.3.4Zm0 0c0 .1.4 0 .2.3-.1 0-.4 0-.2-.3M53.8 37h-.2c-.1 0-.2 0-.2-.2l.2-.2c.2 0 .3 0 .3-.3l.2.4-.4.1.1.2.2.1-.2-.1m89 61.4.3-.6.2.2h-.3l.4.3-.3.1c-.1 0-.3.2-.4 0 0-.2-.2-.3 0-.5 0 .2.2.3 0 .5m3.6-15.2-.5-.2c.1-.2.2 0 .2 0h.3v.2Zm0 0 .2.4c-.2.2-.2.2-.4-.1l-.2-.3c.1-.2.3 0 .4 0M56 53.5l-.4.2v-.3l.4.1-.4-.3-.2.2-.3-.4h.5c.2 0 .3.3.3.5M146 93l-.8.2v-.4c-.2.3-.3.3-.6.2l.7-.7v-.2c-.2 0-.3 0-.4-.3l.4.3.1-.2v-.6l.6.7-.7.8h.4l.3.2.3.7-.4.1.1-.8m-19.4 33 .2.1c.3 0 .3 0 .2.4l-.4-.2v-.3l-.2.2-.2-.1.3-.2ZM124 42.6c.2 0 .2.2.2.3l-.5.1c-.2-.2.1-.3.3-.4l-.4-.1.3-.1v.2m-11.2 18.7c0-.1 0-.2.2-.2l.3.3v.5l-.2-.3c0-.2 0-.3-.2-.3v.4h-.1v-.4m-69-12.9h.6c-.2.2-.4.2-.6 0v.5c-.3 0-.3-.3-.2-.4 0-.1.1-.2.3 0m22.4 71.8.2.4H66l.1-.4.2-.3.4.1h-.3l.2.4-.5-.2m74.6-21.9c.2-.2.3 0 .5.1h-.5V98.7l-.3-.1-.1-.3h.4m-6 15.5c.3.2.3.3.2.6l-.4-.3.1-.3-.2.2c0-.2 0-.3.2-.2m-17.4 24.4.4.1.3.5c-.4 0-.5-.4-.7-.6h-.2.2ZM115 58.7l.1.4a.9.9 0 0 1-.7-.3c-.2 0-.2 0-.1-.2 0-.2 0-.3.2-.2 0-.2 0-.5.3-.6l.3.4-.2.3s.2 0 .3.2h-.3M57.1 54l-.3-.1c.3-.1.5-.1.6-.3l.1.1-.2-.4.3-.1c0-.2-.2-.4 0-.5l.2-.2c.2 0 .3-.2.4-.3 0-.1 0-.4.3-.4l-.1.6c.2 0 .4-.2.4-.3 0-.4.3-.6.6-.9l.1-.2-.2-.3-.1.1-.3-.4c.2-.3.4 0 .5-.1.1.2 0 .5.3.5.1-.2.3-.3.1-.6v-.1c.3-.1.1-.4 0-.4-.2-.1 0-.3 0-.5.4 0 .5.1.6.6.2-.1.2-.1 0-.6.3-.1.3-.7.7-.5.1-.3 1.7-1.8 1.7-1.8 0-.1-.4 0-.2-.3.1 0 .3.2.4 0l.3-.3h.1c.4-.3.8 0 1.1-.2l.6-.1c.3 0 .4 0 .5-.5h.2l.2-.2c.2 0 .3.3.5 0h1.1l.3.1c0-.1 0-.4.2-.4l.4.6.1-.4.2.3.3-.3c.3.2.5.5.8.4l.1.2c.3 0 0-.2.1-.3.3.2.4.6.8.7 0-.2.1-.3.3-.5v.5c.3.3.8 0 1.2.1 0 .3 0 .6.3.8.2-.1.4 0 .6.1.1.1.3.2.5 0l.1.2.1.2.2-.1.1.4h.3l.2.7h.2c.3 0 .2.6.8.7h-.3v.1h.6l-.3.4.7.5.3-.2.3.4c.2 0 .1-.2.2-.4l.1.5H77c.1.3.4.5.8.5 0 .2-.4.2-.4.5.2.3.5.2.7.3l.1.4c0 .2.3 0 .4.1l.5.1v.2l.3.3c.4 0 .4.2.4.4h.5c0 .2 0 .4.2.5 0 0 0 .2.2.3l.5.3v.3l.3.3.1.5h-.4l.1.2c.2 0 .2.3.5.2l.3.4s-.2.3 0 .4l.3-.1c.1 0 .2.1.1.3 0 .3.1.5.4.7.2.2.4.1.6.2 0 0-.2.2-.1.3l.2.2.1.4h.1c.2-.3.3-.3.6-.1l.1.1c.4.2.4.5.3.8h.4c.1.2.1.3-.1.3v-.2h-.3c.2.1 0 .2-.1.3l.3.2v-.1l.6.4v.5c-.2-.3-.5-.2-.3-.6l-.3.1v-.2h-.3l.1.6v-.2l.4.1-.2.3.4.7.2-.2v.6c.3-.1.5 0 .6.4 0 0-.2.1 0 .3 0 0-.2.3.1.3l.2.3v.2c.4 0 .5.4.6.7.1.1.2.3.5.3l-.3-.4.8.1c.3.1.3.3 0 .5.1.4.1.8.3 1.1l.5-.3c0-.2-.2 0-.3 0l.2-.4.3.1c0 .2.1.4-.2.5.1.3 0 .4-.3.5.4 0 0 .5.4.4v-.3h.4c.2-.3.2-.3.4 0v.5c.3.1.4.4.3.7v.3c0 .2 0 .4.3.4 0 .5.7.5.5 1l.1.1c.2.1.2.3.1.4-.2.2.1.4 0 .7.3 0 .3.3.4.4.2.1.3.3.3.5l.3.1-.1-.9.3.2v.4h.4c0 .2.1.3 0 .4-.3 0-.3.3-.2.5l.2.5h.4v-.2l.1.4v.3l-.2.2c-.2.3.5.2.3.6.2.1.4.4.4.6l.2 1c.2-.3.4-.3.3-.6v-.2l.2-.4-.4.1.3-.3.2.2v.3c-.2.3-.1.6 0 .8v.2l-.3-.3.1.5.4.5.3-.1c0-.3-.1-.4-.3-.5.2-.4.5 0 .7 0 0 .2-.2 0-.3.2l.3.2-.3.3.3.6c.2.2-.1.3 0 .5.1 0 .3-.1.4 0 .4.2.3.5.3.8 0 .3 0 .3.3.5l.2-.5c.2.1.1.3.1.4v.3c0 .2.2.1.2 0l.4.5v.5c.3.3 0 .8.4 1l.1-.2-.1.4.6-.4.2.3h-.3c.3.1.3.3.4.6l.2.3h-.2c.2.3.4.5.3.9h.4c0 .2 0 .5.3.5v.4l.3-.4.8.6.2.1c.4 0 .5.2.7.5.2 0 .4-.3.6 0-.3 0-.3.3-.5.5.2.4.4.2.7.1v.3l.5-.2.5.3h.1l-.1-.2c0-.1 0-.3.2-.2l.5-.2.1-.4c.1.2 0 .4-.1.4.3.1.4 0 .4-.4h.3v-1c.3.2.1.3.1.5l.5.4.3-1.4.2.3c0-.3 0-.5.2-.7.2-.1.2-.3.2-.5l.4-.6c0 .4.1.5.3.5 0-.2 0-.5.4-.5l.2-.4c.2-.1 0-.2 0-.4h.3l-.1-.2c.2 0 .3 0 .4-.3h-.7l.3-.3c.1-.2.2-.3.4-.3l-.2.4.5.2c.2-.3.2-.8.8-.7 0-.3-.2-.5-.3-.8.2.1.3 0 .4-.1l.5-.6h.2l-.3-1.2c.1-.3.3-.3.6-.3 0-.1-.3 0-.2-.3h.2V76c.3 0 .3-.7.8-.4l.3-.8c0-.2.1 0 .2-.1v-.4l.2-.3.2-.3h.2v-.3c0-.2 0-.5.3-.7.4-.2.4-.6.7-1l.2-.1c.2 0 .3-.2.4-.3 0-.2.2-.3.4-.4.1 0 .3-.2.2-.4l.1-.1c.3 0 .5-.1.5-.4 0-.2.2-.4.4-.5V69c.4 0 .4-.7.9-.5l-.1-.8c.2 0 .2.1.3.2l.2-.4c0-.3.2-.1.3-.1 0-.2.2-.4.3-.5h.5l-.1-.6.2.2c.1-.2.2-.3.5-.3l.2-.5v-.2l.3.1c-.1-.3 0-.7.1-1 0 .4 0 .7.4 1-.1-.3.1-.3.2-.5l.3-.3-.2-.6h.4l-.2.6c.4-.2.5-.6.7-1l.7-.5.2-.1.2-.1c.2-.4.5-.6.8-.8l.2-.3h-.4c.1-.4-.2-.4-.3-.6h.3v-.5l.7.6v-.4l.6-.2v-.3l.3.3.2-.3c-.4-.1-.4-.4-.3-.7 0 .1 0 .3.2.5l.1-.7h.3c0 .2-.3.4 0 .6l.2-.2.6-.5c.2-.1.3-.2.3-.5l.2-.2-.2-.2c.2-.4.2-.9.7-1l.3-.5c0 .3.1.4.2.5.3 0 .4-.2.2-.6l.4-.1.4-.7c.2.3.2.4-.2.7l.6-.1c0-.3.3-.4.1-.7h-.2v-.1c.2-.1 0-.2 0-.4l-.2.2v-.2h-.3l.5-.2.3.1c.2.2.3.3.6.1l.5-.3c0-.1 0-.1-.2 0h-.6c0-.4.3-.5.5-.6h-.3l.3-.4v.4l.7.1c.2 0 .3-.1.4-.3 0-.2 0-.3.3-.1V54l.3.1v-.5c.3-.2.7.1.8-.4.3.1.5 0 .7-.2l.5-.6c-.1 0-.2 0-.3-.2.2 0 .4 0 .5-.2v-.5h.1c.4.3.5.3.7-.1l.9.3c0-.3-.4-.4-.2-.7l.4-.3.1.4c.3 0 .4-.2.4-.4l-.2.2.1-.3H135.7v-.3c.2 0 .3-.4.6-.2l.4-.4c.3-.2.5-.3.8-.2l.1-.4.3.8v-.5h.5l.3-.2V49l-.2-.3.5.1v-.5h.1l.1.2.3-.2v.2h.7l.2-.2c0-.1.1 0 .2 0 .1-.4.3 0 .4 0 0-.2.1-.4.3-.2l.4.2.4-.3h.2c.2.2.3.1.4 0l.3.2h.5l1 .2.5.1c.2.1.2.3.3.6l.6-.1v.3l.4-.4.4.7.6.2c.1.3.4.4.7.4v.3c-.2.1-.5.2-.3.5l-.3.2.3.1c.2.2.2.4.3.7 0 0-.2 0 0 .2-.2.1 0 .2 0 .4v.5l.4-.1-.2.2c0 .3.5.2.5.6h.5l-.1.5.1.3c.4.2.3.6.5.8-.1.2 0 .5-.3.6 0-.2-.4-.3-.2-.6l-.2-.6h-.4l.2.2c0 .1-.2.2 0 .4v1h.3l.6-.4c0 .3.3.7.1 1.1v.2c.2.3.2.7 0 1h.2c-.1.3 0 .6-.3.8l.2.2h.6v1c0 .3 0 .5-.3.7a1 1 0 0 0-.1.7c.1.4-.1.8-.1 1.2h.3l.2.7-.4.6.2.2c-.7.7-.5.8-.1 1.1-.1.2-.1.4-.3.5v.5l-.1.5v.1c.2.3-.2.5-.2.8l-.2.8-.1.5.3-.2.1.4c-.4 0-.5.3-.6.6 0 .2-.1.2-.3.2v1h-.4c.3.1 0 .4.2.5v.1c-.1 0-.3 0-.2.2l.2.2h.1c0 .2-.2.4-.3.5-.2.2-.5.3-.4.7v.2c-.2 0-.2-.3-.5-.1l.3.3c-.4.1 0 .5-.3.6 0-.2-.1-.3-.3 0l-.2.3h.3l-.5.3c.3.2.6-.2.8.2v.4l-.3-.4c0 .5-.3.7-.4 1 .1.3.2.5 0 .8l-.4-.5-.5 1 .3.4-.3.5h-.1l-.6.3c0 .4.3.6.3 1l-.2.1-.3-.3c-.2 0-.3.1-.2.3 0 .3 0 .5-.2.8a.5.5 0 0 1-.3-.4l-.5 1 .2.6c-.3 0-.4 0-.4.3s-.3.6-.4 1v.2s-.3.1-.1.4h.3v.1a6 6 0 0 0-.4.1c0 .3.4.2.5.5l-.3.4v-.2c-.5.2-.8.4-1 .8v.6l-.4-.2v.1l.2.1c0 .2-.4.4 0 .6v.2c-.1.1.1.4-.2.5l.1.4s-.2 0-.2-.2-.2-.5 0-.7l-.2-.1-.2.6.2.4-.5.7-.3-.3-.1.1v.6c0 .3-.1.5-.3.7-.6.2-.8.7-.8 1.2l-.1.7-.4 1-.1 1s-.2 0-.3.2l.2.4c-.2.2-.2-.3-.5-.2l.1.2-.5.5-.1-.3c.1-.1.4 0 .3-.3-.3 0-.5.3-.7.5.4.6.3.4-.2 1l.5-.2-.7.8h-.2c-.4.5-.8 1-1 1.7h-.6l.3.2c-.1 0-.4 0-.3.3-.2 0-.2.2-.3.4v.4c0 .2 0 .4-.2.4v.1c0 .4-.3.6-.5.7l-.2.2-.3 1.3h-.3l-.2.4v.1c0 .5.1.4-.5.8v-.4a6 6 0 0 0-.6.5c.1 0 .2 0 .2.2l.1.1v.2c-.3-.1-.3.6-.6.1l-.2.6v-.1l-.5.4c0 .1-.2.3 0 .5V106c-.2 0-.4 0-.5-.2l-.2-.3v.7c.2 0 .3-.3.5 0l-.5.5-.1.7c0-.3-.1-.4-.4-.5v1.1c-.3 0-.4.3-.5.5l-.2-.3v.7s0 .2-.2.3l-.2.4c-.3 0-.2-.4-.4-.5l-.5.9v.4c-.4-.1-.7 0-1 .4v.5c0 .2-.1.1-.2.2l-.1.2-.2-.2-.4.7.2.2.4-.2v.4h-.4l-.3 1 .3.2v-.6l.4.2-.5.4.2.4c-.4-.1-.8.3-1.2 0 .1.2 0 .4-.1.5l.1.7-.3-.1-.4.3-.2-.3v.1c0 .3 0 .6-.3.8l.6.1-.1.3-.4-.1c0 .4-.4.4-.3.8 0 .4-.3.7 0 1-.3.2-.6.4-1 .4 0 .3 0 .7-.2.9-.2 0-.3-.2-.5-.3-.1.3.2.2.3.3v.2c-.3.2-.3.5-.7.7-.1 0-.3.2-.3.5l-.4.2-.4 1-.2.2c-.2.1-.2.1-.2.4-.5 0-.6.2-.4.6l-.5.2.3.4-.5-.2.1.5-.2.4-.2.6.3-.1v1.3l-.4-.5v.5l-.7.2v.4l.2.3c-.2.1-.4.1-.5.4l-.3.2.1.2v.1l-.4-.2c0 .1-.1.4-.3.5-.2.3 0 .5 0 .7h-.3v-.5l-.3 1c-.3.1-.4.2-.4.6v.4l-.6-.3c0 .2 0 .4-.3.5v.2c-.2 0 .1.5-.3.4l-.2.5-.2.4c0 .1-.2.2 0 .3-.3.3.2.3.2.5h-.3c-.2 0-.3.3-.3.3.1.3-.2.4-.3.6v.3l-.1.3c-.2 0-.1.2-.3.3l-.2-.2c0 .3-.3.6-.3 1v.5h-.3l.4.2-.4.4.2.1-1.1.2c0 .3-.2.6 0 1h-.3l.2.3c-.3 0-.3.3-.5.4l-.3-.2v.5l-.3-.2-.3.1V140.1c0 .2 0 .3-.2.3-.5.2-.6.4-.3.8v.4h.3l.2.1c-.3.2-.4 0-.5 0h-.4c-.5.2-.6.2-.6.6v.5c-.2 0-.3.1-.4.4l-.5.2.1.5-.2.4-.4.2c.1.3 0 .4-.3.4h-.2l-.2.7-.3-.2c0 .4-.4.7-.6 1.1v.5c-.5-.4-.6-.5-.6-.9l-.2.4c0-.4.3-.8-.3-.9l-.2.3.4.8v1.5c.3 0 .2-.3.3-.4h.2c-.1.2-.2.4-.1.7l.2.2h-.6l.4-.3H104.3l-.1-.4h-.3l-.2-.1-.2.2c-.2-.1-.1-.3 0-.5l-.4-.3a.7.7 0 0 0-.4 0c-.3 0-.6-.1-.8-.5l-.5.3-.2-.2.2-.2-.4-.3c0 .3-.3.2-.4.3-.3.1-.2.4-.3.6 0 .2 0 .3-.2.4l-.5-.2-.1-.2h-.2c-.2 0-.2-.1-.2-.2v-.3c.3.2.5.5.8.5l.4-.5-.3-.2v-.1l.6.2-.1-.2h.3c0-.4-.3 0-.5-.1.1-.4-.4-.4-.4-.7l-.1-.1c-.2 0-.3-.2-.3-.4.2 0 .2.3.4.2.1 0 .2 0 .2.3l.4-.2c.1.3.3.6.6.5l-.2-.1c0-.2.2-.4-.1-.5l-.7-.1-.3-.2.3-.4-.2-.3-.2.5c-.5-.2.1-.5 0-.7l.2.2.2-.3.4.4v.6l.3.3v-.1c.3-.2 0-.5 0-.8l.5-.2.1.4h-.3v.6l.3.2c.3-.2.3-.5.3-.8l.2.4.4-.3-.3-.2.2-.3h-.1v-.5h-.4l-.1-.4-.1.3-.5-.1c0-.1 0-.5-.3-.4v-.3l-.3-.1v.2l-.2-.3-.3.2h-.2l.2-.2-.5-.8h-.3v-.2c-.4.3-.6-.2-.8-.3-.3 0-.4 0-.3-.3 0-.2-.1-.3-.2-.3-.2 0-.3-.2-.4-.4-.1-.2-.3-.3-.5-.2l-.1.4h-.1l-.5-.7c0-.4-.4-.3-.5-.6 0-.2-.4 0-.2-.2l-.3-.1v-.2l-.1-.2-.3.2-.5-.6-.4-.3a.6.6 0 0 1-.3-.3c-.1-.3-.2-.4-.5-.4l.3-.2-.4-.4-.5-.4-.4-.2-1-.9a1 1 0 0 0-.4-.2l-.2-.1c0-.2-.3-.2-.4-.3l-.6-.4c0-.1 0-.2.2-.3-.3-.2-.6-.2-1-.2 0-.3-.1-.5.1-.7l-.2-.2c-.2.2-.3 0-.4-.1l.1-.2c-.2 0-.4-.2-.4-.5l-.2-.2-.3-.2-.6.7c0-.4.3-.6.2-.9l-.8.2.2-.3h-.3l-.3-.3-.3-.1c.2-.3.3-.4.6-.2.2-.2 0-.3-.1-.5l-.4.3-.2-.4-.4.1-.4-.5-.3-.5-.1-.6c-.2 0-.3.3-.3.4l-.2 1-.3-.3c.2-.3.2-.6-.2-1h.5c-.1-.1-.3-.1-.3-.3 0-.2 0-.4-.3-.5h-.4l-.2-.7-.3.2v-.4s-.2 0-.3-.2v-.1c0-.2-.1-.3-.2-.3h-.5c-.2.2-.4 0-.6 0 0-.3-.1-.4-.4-.5l-.1-.4h-.3l-.2.6-.4-.4.3-.1-.2-.3-.1.2c-.5-.3-.4-.8-.6-1.3l-.3.3v-.2H78c-.1 0-.3.2-.4.1v-.8l-.2.3c-.3 0-.2-.4-.4-.6l-.2.2v-1c0 .3 0 .6.4.7v-.3h.3v-.1c-.2-.3-.5-.6-.9-.7l-1.1-.8h.3c0-.2-.1-.3-.3-.2-.2 0-.3.1-.4 0l.1-.4v-.1l-.4-.1c0-.3.3-.4.5-.3v-.1c0-.1 0-.4-.2-.4s-.3.1-.3.3l-.3.3c0-.5-.4-.6-.6-1l.7-.3-.5-.3s.2-.3-.2-.4l-.4.5h-.2l.4-.4-.4-.1.5-.3-.2-.4-.3.3c-.2-.2.2-.3 0-.4-.2-.1-.2-.3-.3-.5l-.2-.3-.2.1-.2-.7c-.3 0-.1.2-.1.4-.3 0-.1-.3-.3-.3l-.3-.2.2-.4-.5.3-.3-.4.1-.5c0-.3 0-.7-.2-1l-.5-1-.6.5.2-.6-.5-.2.2-.4c-.1-.1-.4 0-.5-.2 0-.1-.2-.3.1-.3 0 0 0-.2.2-.3h-.8l-.1-.2h-.6l.3-.2h-.2c-.3 0 0-.4-.3-.5-.2-.1-.2-.4-.3-.6-.6.2-.7-.4-1-.7l.4-.3c-.2-.3-.3-.3-.4 0 0 .2-.2 0-.3 0 0-.3-.1-.7.4-1h-.4a7 7 0 0 0-.2-.5s-.1.1-.1 0c-.2 0-.3 0-.3.2l.2.2c-.4 0-.4 0-.5-.4l-.1-.3-.1-.3.3.1h.2v-.1h-.3v-.1l.3-.1-.5-.8.3-.2-.8-1 .2-.2c-.3-.4-.8-.7-1-1.3l.2-.1a.8.8 0 0 1-.6-.8c0-.2 0-.5-.3-.5.1-.5-.3-.7-.4-1l-.2-.4c0-.2 0-.5-.3-.6-.2 0-.3-.3 0-.5-.2-.3 0-.7-.3-1V98h.2a16 16 0 0 0-.4-1l-.3-.2V97.5l-.4-.2c.1-.2.5-.3.4-.6l.1-.2-.3-.2c-.5-.1-.6-.6-.7-1v-.5c-.3-.2-.2-.4-.3-.7v-.3c-.2-.1-.3-.2-.4-.5h-.2l-.2-1.2-.3.4-.2-.5.5-.2c-.2-.3-.1-.7-.5-.7v-.2c-.2-.2 0-.4 0-.6-.2-.2-.3-.5-.6-.6v-.4c.2-.4 0-.5-.1-.7l-.4.1v-.5h.3c0-.3 0-.5-.3-.7-.1-.1.2-.2 0-.4 0-.2-.2-.5-.5-.6.2-.4-.2-.8.1-1.3 0-.1-.3-.3 0-.6 0-.1 0-.4-.2-.4-.2.2.1.6-.3.6v.5c-.2-.2-.4-.3-.2-.5v-.5l-.3-.4c.3-.4.3-.5 0-.9v-.4c0-.4 0-.5-.4-.5l-.2-.3h.2l-.2-.5.4.2.4-.4h-.2V80l-.2-.6s-.2 0-.3-.2L56 79l.1-.4c0-.3-.3-.2-.3-.5 0 0 .3-.2 0-.3l-.1.4-.2-.1v-.5h.6l-.4-.5.1-.3c-.4-.2-.5-.5-.3-1h-.3c0-.2.2-.1.3-.1 0-.2-.6-1.3-1-1.6l.2-.3h.5c-.1-.2-.2-.4 0-.5 0 .2.2.3.1.6l.2.3H55c0 .3 0 .5.3.4h.1c.1.4.3.2.4 0l.2-.2c-.2-.4-.4-.9-.2-1.4l-.1-.2c.2-.3-.1-.5 0-.8l-.2-.7c.2-.4 0-.7 0-1 0-.2-.2-.5.1-.6V67c0-.4 0-.4-.5-.6l-.5.4v-.3h-.3v-.3h.2c.3.2.5.2.6 0l.3-.6H55c0-.5 0-.5.2-.7.2.2-.2.4.1.6l.2-.2v-.7l-.1-.5v-.3l.2-.2c.1-.4.3-.7-.1-1v-.3h.3v-1.6c0-.3-.3-.3-.5-.4 0-.5.5-.8.3-1.3l-.3.2.1.4h-.2l.1-.4-.1-.2.6-.3-.4-.2.3-.1.2-.9v-.3c.3-.2.5-.5.6-.8l.1-.2-.3-.5-.1.5-.4.1-.2.2-.2-.4.4.2c0-.2.1-.5.4-.7 0-.2-.2-.4 0-.5.2 0 .2.3.2.4l.4.2V55h.4V55h-.5l.4-.3v-.5l-.1.3c-.3-.2-.3-.2 0-.4m60.6 79.4.2.2c0 .2 0 .3-.3.4l.1-.6-.1-.2.2-.2v-.4l.4.1v.7l-.4-.4v.4Zm1-85.2h-.4c0 .2 0 .4-.2.4l-.5-.1s0 .3-.2.2c.2-.6.5-.8 1-.5l.3-.1v-.4l.3.3-.2.2.4.2-.4.2v-.4m18.4-8.6.1.2c-.4 0-.4-.1-.3-.4l.3.3c-.1-.2-.2-.3 0-.4 0-.1.1-.1.2 0 .1 0 .1.1 0 .2l-.2.2M37.3 69c0-.1-.1-.3.1-.3l.2.1c0 .2-.1.2-.3.2v.3-.3M51 39.8l-.1-.3c.3.1.3.2.2.6l-.1-.3v.3c-.2 0-.4 0-.5-.3h.5m55.4 20.5v-.1h.5c0 .3-.3.2-.4.2v.4c-.3-.1-.3-.3-.3-.5h.2Zm6 80.3c.2 0 0 .2 0 .4-.3-.1-.3-.1-.1-.3v-.1c0-.1-.2-.1-.2-.3.3 0 .2.1.2.3m-33.4-.1-.4-.4v-.2c.3.2.3.4.4.6.2-.1.1.2.3.3l-.3.1v-.4M42 83.5l-.4-.6h.4l-.2-.3c.2-.1.3-.5.6-.4v.3h.1l.3-.4c.3 0 0 .4-.2.6l-.6.2v.5l.4-.1-.1.3-.3-.2M132 107c0 .2 0 .3-.3.4l.3-.5c-.2 0-.2-.1 0-.3v.3M44.3 47.7c0-.1-.1-.3 0-.4 0 .1.2.3 0 .4l.1.3H44v-.1l.3-.2Zm-3 34-.5-.2v-.4c0 .3.3.3.4.5l.4-.2v.4c.1-.3.4-.5.3-.8.3.3 0 .6.1 1l-.4-.2.1.5-.4-.2.3-.3-.4-.2m98.5 22.1h.1c.1.1 0 .3-.1.4l-.1-.1.2-.3h-.3v-.3h.1l.1.3M103 149.2l-.3.2.2-.4h.1v.2h.3c0 .1 0 .2-.2.2-.1 0-.1-.1 0-.2m-35.3-25.7-.2-.5c.3 0 .3.1.3.2v.3l.5-.1c-.2.2-.4.2-.6 0M43.8 50.3l-.2-.1.1-.2c.3 0 .1.2.1.3l.2.3c-.2 0-.2-.1-.2-.3M106.6 62l.2.2h-.4V62h.2Zm0 0c.1-.1 0-.4.3-.2 0 .2-.1.2-.3.2m19.4 65.6.2-.2c0 .2 0 .3-.3.4v-.2c-.2-.1 0-.2.2-.4l-.1.4m14.4-32.3-.1-.5c.2.2.1.3.1.5l.3-.2.1.3-.4-.1M86 58v.4c-.2-.2-.2-.4-.2-.6l.2.2.1-.3.4.1a6 6 0 0 0-.5.2m-31.5 5v-.3c.2 0 .2 0 .2.2 0 .1 0 .2-.2.1l.2.3c-.2.1-.2.1-.2-.3m60.2 77.3v.2h-.2l.1-.1h.1l-.2-.4h.3c0 .1.1.3 0 .4m-5.6-85 .3.3c-.3 0-.3-.2-.3-.4l-.4.2c0-.2.2-.2.4-.2m-26.8 81-.2-.4c.2 0 .2.2.2.4.1 0 .2 0 .2.3-.1 0-.3-.1-.2-.3M44.3 45l-.4-.1c.2-.1.3 0 .4 0 0 0 .2 0 .3.2-.2.1-.2-.1-.3-.1m38 83.9H82l.3-.3v.3l.4.1-.4-.1ZM59.2 34.5 59 34v.5l.1.3-.2-.3h.2M36.4 68.1l.3-.5c.3.1 0 .4.2.6l-.3-.1.1.7v.2l-.2.3c.1.1.1.3 0 .4.2.1.2.3 0 .5-.1 0-.1.2 0 .4 0 .2 0 .5-.3.7.2.2.2.2.3 0l.1-.1v-.6l.3.2-.3.4v.1l.1 1c.1.4 0 .2-.1.2h.4c.1.6 0 1.2.4 1.7l-.2.2.5.7c-.2.3-.2 0-.3 0-.1.4-.1.8.2 1.1l.2-.1.2.2c-.2 0-.3.1-.4 0v.2h-.3l.5.3-.4.2c.2.1.5.1.4.5l-.2.1c.3.3.3.4 0 .9.2.2.3.5 0 .8l1 .3-.9.2.3.2c.2-.1.4-.3.7 0l-.7.1h-.2v.3l.3-.2c.2.1.3.3.2.5l.3-.2c0 .2-.2.3-.1.5-.3 0-.2-.2-.2-.3-.1.1-.4 0-.4.2h.2v1.5l.6.3-.4.1.5.7h.2l.3.3.2-.4-.6-.2.7-.3-.1.3.2.2-.1 1.3c-.1.2 0 .4.1.6.3.4.8.8.4 1.4 0 .1 0 .4.3.4l-.1-.5c.1.2.6 0 .5.5h-.5l.2.4c.1.4.4.5.8.5l.2-.7.2.3V87h-.1l-.2-.3h.2l.3-.1c-.2 0-.2-.2-.2-.4l.2.4.5-.2-.4-.1v-.4h.1c0-.2.1-.4.3-.3.1 0 .3 0 .4.2 0 0 .3.6.1.6-.2 0-.4 0-.2-.3l-.2-.1-.3.1.6.6h-.2l-.3-.1-.1.2c0 .2.2.3.3.5l.4-.5v1.8c-.3-.1-.5-.2-.6-.1l.5.3.2.4c-.5.2-.6.5-.5 1l-.6-.5c.2-.3-.4-.3-.2-.6v.7l.2.3v1.8l.5-.5-.4-.1c0-.3.2 0 .4-.1l.1-.5c0 .2.2.3.3.4.1-.1-.1-.6-.2-.8l.2-.2-.2-.3h.3c.2-.3.6 3.8.8 4.1.3 0 .6.2.9.4l-.1.2h.2v-.6c0-.3.1-.3.5-.2l-.2.4c.3.1.2.6.5.7v.4c.3 0 .3 0 .2.3v.3c.1.3.2.5 0 .8.3 0 .4 0 .4.3 0 .2 0 .5.2.7v.1c-.2.2.2 0 .1.2-.4.4-.4.4-.1.8v.3l-.1.4c-.1.2 0 .5.1.7l.4.2v.8h.3c-.2.1-.3.3-.3.5h-.2c0 .3 0 .5.2.7-.3.3-.7 0-1 .3.3.2 0 .6.4.8.1-.2-.2-.4 0-.6.1.5.2.6.7.7 0 .5.4.5.8.6-.2.1-.4.2-.4.4s-.2.3-.4.4h.5c0 .5.5.7.8 1l.3-.4v.4c0 .2.3 0 .3.3h-.3l-.1.5.7-.2c-.2.2-.6.3-.5.8l.6-.3c0-.3 0-.5.3-.7l.3.2v-1.3l.1-.2c.2.7.3 1.3 0 1.8l.3.3-.4.4-.2-.6-.3.3.1.4c-.2 0-.3 0-.5-.2v.2l.9.5.1.5h-.2l.2.2c0 .3.2.2.4.2.2.1.3 0 .4 0l.4.1-.7.2v.4c-.4 0-.2-.4-.4-.5l-.3.5.2.4h.4l-.3.2c.1.2.4.4.3.7l.6-.1v-.4c-.1-.2-.2-.3-.4-.3.2-.2.2-.3.3-.7h.7l.2.3h-.3c-.1 0-.3-.2-.4 0v.4l-.1.3h.2v-.5c.3.2.5.3.7 0v-.6l.3.1c-.1.3 0 .6.2.8-.4.2-1 0-1.3.4.4.2.4.3.2.8v.5h.1v-.3c.3 0 .3 0 .3.4-.1.3 0 .6.1.9.2.2.3.4.2.7v.4c.4 0 .5-.1.7-.3l.4 1.2h.4v.4l.2.2v.5c0 .2.1.3.3.4.1.2.3.2.3.5h.2l.2-.1-.3-.6c-.2-.1-.1-.2 0-.4H54l-.3-.4.4-.1c0 .2-.2.4 0 .5l.4.3c.3.1.3.3.3.6l.5.1c.2 0 .3.1.1.3l-.2.2.4.2v.3l-.2-.2c0 .3 0 .3.2.3.4-.1.5.1.6.4l.5.5.2.2.3.1h.2l-.1.2H57l.5.2v-.1l.4.4c-.1.3.2.5.4.8l.2-.2.4.3-.2.8h.4c0 .4.5.5.4.9h.3l-.2.3h.5l.3-.4.3.3c-.2.1-.3-.2-.4.1l.2.6c.2.1.3.4.7.3l-.3-.3v-.2h.2l.4.6v-.5l.3.5-.3.2v.4l.6.4.1-.3h.4c0 .3-.1.5-.4.5.2.1.2.5.5.3v.3h-.3l.1.3.5-.2c0 .3 0 .3-.2.4l-.3.4-.5.1c.5 0 .6.4.9.6l.5-.3.3-.3v-.3c.2-.1.1.1.2.2l.4.3v.7h.2l.1-.2.8.5-.2.2.1.4c.1.3.3 0 .4.2v.3l-.4-.1 1.2.7.3-.3V130c.2.1.4 0 .5.2h.2c.2-.1.3-.3.4-.1.1.2-.1.3-.2.4l-.3-.1.2.5.2-.3c.2 0 .4.1.5.3v1c.5.2.7 0 .7-.5l.1-.2c0 .3.3.5 0 .7 0 .2 0 .5-.3.6.2 0 .3.2.5.3h.1v-.2c.3 0 .2.3.3.5.2-.2.3-.2.3 0 0 .3.2.4.3.5l-.1.4h.5l.5-.1c.1.1.3.3.3.5 0 .3.4.3.3.6.3-.2.4-.1.5.2.4 0 .7.2 1 .4 0 .3-.5 0-.4.4.2-.2.2 0 .2.1l-.2.5v.4c0-.4.4-.5.6-.7 0 .3.2.3.4.5 0-.4.2-.3.4-.3 0 .3-.2.4-.4.5.1 0 .3 0 .4.2h.1l.2-.3v.4l.5.5h.1l-.2-.3.1-.2h.3c.2.2 0 .4 0 .6 0 .2-.2.3-.4.1v-.2h-.3c0 .3.1.3.3.4.3 0 .4.1.4.4l.2.6.2-.5.5.4c.2.2.3 0 .3 0l.4.2-.2.7v.2l.4.6c.3-.3 0-.5 0-.7l.2-.3h.1v.5c.4 0 .2-.3.3-.6 0 .3.3.3.5.4.2 0 .4.2.5.3-.3.3-.4-.2-.7-.1-.1.2-.2.2-.5 0-.2.1 0 .3 0 .4l.3-.2c0 .3.2.5 0 .7l.2.2.1-.5h.4l-.2.2.2.2c.2.1.3.2.4 0l.4-.1.3-.3v.5c0 .1.3.2 0 .4l.4.6-.3.8.5-.2.1.3c.2-.2 0-.5.3-.5v.8c.2-.1.3-.3.3-.5l-.2-.2.2-.2.2.1c.5 0 .7.3.8.7h-.6l-.2-.6-.2.2c.2 0 .2.2.1.2-.2.2 0 .4 0 .6l.6-.2v.4l.4-.1c0 .2-.2.4-.1.7.1-.4.2-.8.6-.9.2.3.3.5.1.8l.4.5h.3l.2.1h.7l-.1.3.5-.3c.3.2.6.2.7.6-.3.1-.5 0-.7-.2v.7l-.2.1-.2-.1c0 .2-.1.3-.3.1h-.3c0 .1 0 .3.2.3.3 0 .6.1.8-.3l.4.5.3-.1c0 .4 0 .8.3 1h.3l.2.5h.1c.1-.2 0-.4-.2-.5v-.1l.2-.2h.2l.2-.2-.2-.4.6.2v-.4h.3l.3.3-.5.3c.3.8.4 1.2.2 1.6l-.2-.1-.1.4c-.3-.2-.3 0-.3.2l.7.2c.2 0 .3 0 .4.2 0 .2 0 .3.3.3l.2.1.3.5c0 .2.2.2.4 0h.2l.7.3.4-.2c0-.2 0-.4.3-.5.2.4-.3.6-.1 1l.4-.1-.5.5c.1.2.3.4.5.4s.4-.2.5-.3l-.2-.3.3-.4c.2 0 .3.3.2.3-.2.2 0 .4-.1.6 0 .3 0 .6.2.8l.2-.4c.4.2.4.2.3.6l.1.5h.5l.5.5h.2v.2l.1.3c.2 0 .2-.2.2-.3v-.2c0-.2.1-.2.2-.2l.3.5-.3.2c.3.3.4.7.7.8.2-.2.4-.3.5-.2v.1l.3.4.2-.3c.4-.2.6.2 1 .3l-.4.2c.2 0 .4 0 .4.3-.3.2-.3.2 0 .6l.2-.2h.2v.2c.5 0 .6 0 .7.4.1 0 .4.1.8.5v.5c.3 0 .3-.4.6-.6 0 .4.2.3.3.3.2.3-.3.4 0 .6v.5h-.1c-.1.2.2.3.2.5.2 0 .3.1.5.3 0-.4 0-.6-.2-.6h-.1v-.2h.3l.2-.1c.2 0 .2.3.2.5s0 .3-.3.4c.2.1.4.2.9.2v.3l.2-.1.1.3.1-.4h.1v.6h.7l-.3-.4.1-.1-.2-.2c.3 0 .4.1.4.2l.1.6.4.4c.3 0 .3 0 .4.2v.2c.3.3.5.6.5 1l.2.4c.2.2.6.2.5.6.5 0 .3.5.4.8 0 .2.2.5 0 .8l.2.4.5-.3c.1.2.2.3.5.1.3.2.1.6.2.7l-.3.7h.5c.3-.2.6 0 .9 0l.2-.4v.7c-.1 0 0 .1 0 .2l.1-.3.1.2-.4.3c.2 0 .4.2.4.4l.3.1c0-.2-.3-.5 0-.8l.4-.1v.7c-.2.2-.2.4 0 .6l.5-.4.1.3h.6l.1-.5c.1-.2.4-.2.6-.3v-.4h.1l.1-.5c0 .2 0 .4.2.5.2-.1 0-.3 0-.4v-.4l-.1-.4c-.2-.2.2-.2 0-.3-.1-.2-.1-.3 0-.4l.1-.3c.3.1.1-.2.3-.2.2.4.2.8.1 1.3.2 0 .4 0 .4-.2l-.1-.9.2-.1c.4-.2.4-.3.4-.7v-.2c.2 0 .1-.3.1-.4 0-.3 0-.5.3-.6 0-.3.3-.2.5-.3l.5-.8.4-.4v.4h-.2c.5.3.3-.3.6-.4.1.1.2.3.4.1 0-.1-.4-.2 0-.4l.3.2-.3-.3c-.3-.2-.3-.2 0-.7v.5h.3l-.1-.5h.6c.2.1.2.4.5.4.1-.3.2-.3.3-.1.2 0 .3-.2.5-.3.2-.1.2-.4.2-.6v-.4l.3-.4.3-.1v-.6l-.1-.1c-.3.1-.5 0-.8 0v-.2c.3-.1.5 0 .8.2.2-.2 0-.5 0-.7.1 0 .3 0 .3-.2v-.5c.2.4.3.6 0 .9l.5.2v.5c.2-.3.1-.5 0-.7 0-.2.3-.3.2-.5.2 0 .2-.4.4-.5h-.3l.1-.1.1.1h.2l.1-.5v-.3c0-.2.2-.2.2-.3l.3.2.8-1.2-.1-.4.5-.1v-.1l-.7.2c-.2-.2-.2-.4-.2-.7v.2l.6-.1.1.3.2-.1-.1-.5c0-.2 0-.4.2-.4l.5.4.3-.7h.3l-.1-.7.4.1c.2-.2.1-.6.4-.8-.2-.3 0-.4.1-.6 0-.3.2-.4.6-.6l.3-.3v-.3l.3.2.2-.4c0-.2-.4-.2-.3-.4l.5.2.3-.6c0-.2.1-.3 0-.4 0-.3.2-.3.3-.5l.3-.2.2.2c0-.4 0-.7.2-1 .1-.2 0-.6.2-.9l.7.3.2-.3-.2-.5.4-.2.1-.3h.1l-.1.4.2.3-.4.3c.3 0 .5 0 .6-.3v-1l.2-.3c.4 0 0 .4.3.5.2-.4.2-.6 0-1 0-.2.1-.4.4-.5.1 0 0 .3.2.4l.2-.4.5-.1-.3-.2.1-.2.2.2.1-.5.2.2v.3l.2-.7v-.4c0-.1 0-.3.2-.2v.2l.5-.3.3-.3V139.9h.3c.2-.4.6-.6.2-1.2l.5.1-.3-.2.1-.2h-.3c0-.4.3-.2.5-.4v.4l.1.1v.3h.2c0-.2 0-.4.2-.5.1 0 .2-.2 0-.4v.2l-.5-.4v-.6c.3.1.3.6.6.5.3 0 .5-.2.7-.3v-.6c0-.3-.3-.3-.4-.5.1-.3.4-.2.6-.3.2.3 0 .7.1 1l.2-.4-.1-.3v-.3l.1-.4h.1c0-.2.2-.4.3-.5l-.1-.3.5-.4c.1-.3.5-.1.6-.3.3.1.3-.1.3-.3l.2-.4a.6.6 0 0 1-.3-.4l.2-.6h.2c.3 0 .5-.1.7-.3.4-.3.6-.7.6-1l.4-.1v-.4c.3-.2.4-.4.4-.7l-.2-.8c.2 0 .5-.2.7 0l.3-1 .3-.1-.5-.2.6-.3-.3-.3h.5v-.2h-.2l.6-.7c-.2-.1-.4-.2-.2-.4l.6.2.2-.6h.3c-.2-.2-.2-.4-.1-.6v-.5l.4-.2.2.2v-.6h-.3l.4-.4v-.2l.3.1.3-.5.3.1v-.5l.2-.3c.3 0 .4-.4.5-.6 0-.1 0-.2-.2-.3h.6v-.3l-.5-.1v-.4c.3-.1.6-.1.8-.4l.2-.7c0-.3.1-.4.4-.4v-.3c.3 0 .3-.2.2-.4h-.2v-.7h.6l.7-.7c0-.5 0-1 .2-1.4h.1v.4c.2-.1.2-.1.2-.3 0-.3 0-.6.2-1l.1-.2c.2.1.3 0 .3-.1l.3-.4.5.3.2-.4h-.3c0-.2 0-.2.3-.3h-.2l.3-.6h-.4c.3-.2.3-.1.4 0 .1-.1 0-.4.4-.3l.1-.3v-.6c.2 0 .4-.1.4-.4l.4-.5.1.1.1-.7h.1l-.1-.5c.2.1.4.1.4.4l.3-.7h.3v-.5c-.1-.2 0-.4.1-.5 0 0-.3 0-.1-.3l.2.1.2-.4h.3c0-.5 0-.5.5-.4.2 0 .3 0 .3-.3l-.2-.1v-.2c.2-.2.1-.6.6-.5v-.2c-.2-.4 0-.6.2-.9h-.5l-.2-.3-.3-.1.4-.3c.1.3.2.4.5.3v.5c.3-.1.1-.4.2-.5.2-.3.1-.4-.1-.6v-.3l.5.2c0-.3-.4-.2-.4-.4.2-.4.6-.7.7-1.2l.2-.2v-.6c.4.2.6 0 .8-.2l-.2-.2.3-.2c0-.3.2-.3.4-.4l-.3-.4.4-.2c-.3-.3 0-.5-.1-.7l.4-.2c0-.4.1-.5.3-.5v.3c.2-.2.4-.5.4-.9v-1.2l.4.2c0-.4.2-.8.3-1.1l.1-.3.5-.2.6-1.1.4-1.2h.2l.2-.8.4-1.1c0-.5.3-1 .9-1v-.3h-.2l-.3-.8h.5c0 .3-.3.6 0 .8l.2-.9c.2-.2.2-.2 0-.6v-.2l-.2.4c-.2-.1-.1-.2 0-.3.1-.4 0-.4-.3-.6v.4c-.2-.2 0-.3 0-.4l.4-.1c.2-.2.3-.3.6-.2 0 .1.2 0 .2-.2h-.3l.1-.7v-.2l-.3.3v.3l-.2-.3h.2c.1-.6.5-1 1-1.2l-.1-.8h.6c.2-.1.3-.4.2-.7-.1-.1 0-.3 0-.4 0-.2 0-.4-.2-.6v-.2c.3-.2.3-.6.6-.7.1-.2.3-.4.1-.6v-.4l.5-1.1-.3-.5c.2 0 .4 0 .4-.3-.2 0-.3-.2-.2-.4l.3.2.3-.2-.6-.5v-.3h.2l.2-.2c0-.4.1-.7.3-1-.3-.2 0-.6-.2-1 .1-.5.4-1 .7-1.3-.3-.2-.5.1-.8 0 .1-.1 0-.4.3-.2l.3-.2-.3-.3h.6l-.3-.5.3-.5h-.4l-.2-.2.8-.2c0-.2-.1-.5 0-.8 0-.4 0-.8.3-1.2v-.4h-.3c0-.5.4-.2.5-.3v-.6l-.5.3c-.2-.3-.2-.4 0-.9h.3l-.2-.2v-.3h-.4l.2-.3.6-.1c-.5-.5-.3-1-.4-1.6l-.4.6c-.2-.1-.3-.3-.2-.6l.2.3.3-.4.4-.2c-.2-.4-.3 0-.5 0v-.8c.2-.1 0-.3 0-.5l.4.1-.1-.3c.2-.2.3-.6.4-1l-.4.3-.1-.2c-.2 0-.1-.2 0-.2h.2l-.4-1.6c0-.2.3-.5.1-.9l.1-.1-.3-.4c.4-.3.4-.3.2-.7l-.1-.7s0-.2-.2-.3c-.3-.2-.3-.5-.3-.8 0-.2 0-.4.2-.6.1-.1 0 0 0 0l-.3-.2.1-.3v-.9c0-.5-.4-.8-.7-1l-.3-.2c0-.4 0-.5-.3-.7l-.2-.7h.3l-.1-.3c-.2 0-.3-.1-.3-.4v-1.3c-.4 0-.5-.4-.5-.6 0-.1 0-.2-.2-.3l-1-.9c.2-.2 0-.5 0-.8-.2-.2-.2-.6-.5-.6 0-.3.1-.5 0-.8 0-.2.1-.5-.2-.7l-.1.3-.1-.6v-.3l-.8-.4.4-.3h-.4v-.7c-.3.2-.4 0-.6 0V44.4h-.2v-.2l.2-.1-.3-.2-.2-.7-.3.2.1-.4c-.4-.2-.4.3-.8.4V43h-.2v-.5l-.4.2c-.2-.2-.1-.4 0-.6l-.2-.1-.1.3h-.1c0-.3 0-.6.2-1l-1 .3v-.3l-.4.2c.2-.3.2-.7 0-1-.2 0-.3 0-.2.4l-.3-.1c0-.2 0-.3-.3-.3l-.1.3-.4-.4c.2-.1.5 0 .6-.3-.4 0-.2-.5-.5-.6-.3 0 0 .4-.3.5 0-.2-.2-.4-.1-.5 0-.2 0-.4-.2-.6h-.2v.8c.3 0 .3 0 .1.4-.6-.7-1.6-.8-2.3-1.5l.1-.2c-.3-.1-.6 0-.8-.4l-.1.3-.2-.3c-.1 0-.2 0-.3-.2h-.5c-.3-.2-.8 0-1-.5h-.7c-.1-.1-.3-.1-.4 0l-.3.2h-.2v-.2c0-.2-.2-.3-.4-.4l-.4.7c0-.3 0-.6.2-.8-.2-.3-.5-.2-.8-.2-.2.1-.5.1-.7.4v-.3H142l.2-.3c-.3.2-.3-.3-.6-.2l-.6-.1h-.6l-.4-.5-.2.3.2.2h-.5l.2-.4c-.2 0-.4.2-.2.4h-.6v.2c0 .2 0 .3-.2.2-.4-.3-.7-.2-1.1 0-.3-.3-.4-.3-.8-.1h-.3c-.2-.2-.5-.2-.7-.2-.4 0-.9 0-1.2.5l-.3.1v-.4l-1 .6h-.7c-.2 0-.4.3-.6.4h-1.3c-.2 0-.3.2-.5.3l-.6.1-.1.1v.1h.2l.3.5.2-.1c0 .3-.2.4-.3.3-.3 0-.5-.2-.5-.6l-.3.2-.2-.2-.1.2-.2.2c-.2 0-.2.3-.1.5 0 .2.2.2.3.1h.5l-.1.6c-.1.1-.2.3-.1.5v.2l-.3-.2-.4.6-.2-.2-.2.1.4-.4v-.5h.4c-.5-.3-.5-.3-.5-1l-.4.2v-.3l-.5.2c-.1.2-.3.2-.5.2l.1.2a9 9 0 0 1-.7.1l-.1.4-.3-.3c-.2 0-.2-.3-.3-.5l-.4.6h-.2c.3.2 0 .5-.1.7l-.2-.5-.4.2-.3.1v.4l-.2-.2-.7.7v.4h-.2c-.2-.3-.4-.3-.5 0l-.8.4-.1.6-.1.3h-.2V42h-.3c-.2.3-.2.6 0 .8-.3 0-.5 0-.7.2l-.3.6-.1-.3-.3.6-.4.4h.4c.1.2 0 .3-.3.4l.9.3-.4.3-.2-.2-.4.1-.3-.8h-.1l-.3 1.4v.4c0 .3-.3 0-.4.2-.2.2-.4 0-.5 0-.1.2 0 .3.1.4.1 0 0-.3.3-.2l-.1.6c-.2-.3-.6-.1-.7-.5l-.1.2v.3c.1.1.1.3 0 .4v-.4c-.3.2-.1.4 0 .6v.3h-.4l-.1.3-.4-.1v.1l.3.4.3-.2.1.2c-.3.3-.7 0-1.1.2l.1.3.3-.2c0 .3-.1.3-.3.2l.2.5s.4-.1.3.2h-.2l.3.2-.3.9c-.2-.1-.4-.1-.3-.4 0-.1 0-.3.3-.3l-.4-.2h.1l-.3-1.2c-.2.2-.4.3-.5.2.2 0 .3-.3.1-.5l.3.1.1-.4h-.3v-.3c-.2 0-.2.2-.1.4 0 .3 0 .4-.3.5l-.2-.5-.2.5-.4.3c-.2 0-.3 0-.3.2v.4l.3-.4c.3.3-.2.4-.2.6v-.3h-.5v.8c0-.2 0-.4-.4-.4.2.4-.2.4-.3.6-.1.4-.4.1-.6.3-.1.2 0 .2.2.4v-.1l.4-.1v.3l-.4-.2c-.2.3-.2.4.2.6h-.5l.3.4c-.2 0-.3-.1-.3-.4v-.5h-.5v.3l-.4.7c-.1.1-.1.3 0 .4l.2-.5h.5l.3.5-.4.2c0-.1 0-.2-.2-.3 0 .4-.3.5-.6.6l.2.4c-.3 0-.4-.2-.5-.4.1-.1.3-.3.5-.2l.2-.3h-.4c-.1-.2-.3-.2-.5-.2 0 .4 0 .7-.2 1l-.2-.3-.1.4-.3.1-.2-.3v.8c0 .2-.2.2-.4.2 0 0-.2 0-.2.2l-.1.3v-.4h-.2v.6l-.3-.2c0 .3-.1.3-.3.3v.3l.2.3c0-.2.3-.3.1-.5v-.1h.3l.2.3-.3.6-.5-.2c0 .4 0 .5-.7.5l.7.5c-.4 0-.2.4-.3.4-.3 0-.1.3-.3.5l.5.2v.1c-.2 0-.3.2-.4 0h-.4V58l-.2-.2c.2-.2.3-.3.3-.5s-.2-.3-.3-.3l-.6.4h.1l.1.2c.3.2.4.4.1.6-.3.1-.4.4-.4.7l.3.2c-.2.1 0 .5-.5.5l.1-.5c-.2 0-.2.2-.2.3 0 .2 0 .4-.3.4l-.2-.5c0 .3-.1.4-.3.4l-.1-.3c-.3 0-.3.2-.4.4-.1 0-.3 0-.4.2h.6-.6l-.4-.7-.1.6h-.1l-.1-.8c-.2-.1-.5-.3-.5-.7h-.2v-.3l.4-.2v-.3c-.2 0-.2 0-.3-.2 0-.1 0-.2-.2-.2h-.3c0-.5 0-.7-.2-.7a117.5 117.5 0 0 1 .3 1.8l-.7-1c.1-.1.4-.2.3-.5l-.3.2h-.4l-.2-.3c0-.1 0-.2.2-.3l.4.4c.2-.2.3-.4.2-.6l-.5-.6h-.2c0-.3-.4-.2-.6-.4l.1.8c.2 0 .5 0 .4.3l-.3.1-.1-.3c-.2-.2-.2-.4-.2-.7 0-.3.1-.6-.1-.9v-.1c0-.4 0-.8-.4-1-.2 0-.2-.1-.2-.3-.1-.3-.2-.7-.7-.8 0-.2 0-.5-.3-.5h-.5l-.4-.4.2-.5h-.3v-.4h-.4l-.2.3a6 6 0 0 1-.2-.4c-.2-.2-.2-.2-.5-.2l.1-.4c.2-.1.2-.2.2-.5-.1.1-.1.4-.4.3l.2-.3c-.6.4-1 .4-1.1 0l.6-.1c-.3-.3-.4-1-1-.9l-.3-.3c-.2 0-.2-.1-.3-.3l-.2-.3-.2-.3-.7-1-.2-.2h-.7c.2-.6-.4-.9-.7-1.2V44h-.4l.2-.7H91l-.6-.8-.2.3c-.2-.2-.3-.6-.6-.5v-.4c-.2 0-.5 0-.5-.3-.5.2-.9 0-1.3-.5l.2-.5c-.2 0-.4 0-.6-.2h-.6l-.3-.5-.5-.4c0-.3 0-.3-.3-.4h-.4c0-.3-.3-.3-.5-.3-.1-.2 0-.5-.3-.6-.2 0-.3-.3-.5 0l-.3-.3c-.1-.2-.2 0-.4 0l-.1-.5v.3l-.3-.5h-.7c-.3-.2-.5 0-.7-.2-.4.2-.5-.1-.6-.4l-.2-.2c-.2 0-.2-.3-.4-.5l-.1-.2v.3c-.3 0-.5-.2-.7-.3h-.7l-.1-.5H78l-.3-.6H77c.4 0 .5 0 .5-.3l-.6-.3c-.1.2-.2.4-.5.2V34a6 6 0 0 1-.5-.2c-.2.3-.3.3-.4 0 0-.2-.3-.2-.4-.2v-.2c-.3 0 0 .4-.4.3v.2h-.3l-.3-.3.6.1v-.4h-.3l-.1-.5h-.5c-.1.1-.4 0-.4 0 0-.3-.2-.3-.4-.2v.2h-.2v.3l-.2-.6H72L72 32l-.3.1-.1-.2v.2l-.4-.3-.1.5-.3-.4-.2.4c-.3 0-.6.2-.8-.2h-.2c-.2.2-.3.2-.5 0h-.2l-.2.3c-.2-.2-.4-.1-.6-.1l-.6-.2c-.2 0-.5 0-.6-.2-.1-.2-.4.2-.5 0l-.2.1-.2-.4-.7.2v.1l.2.2h-.6c-.2 0-.4-.1-.6.1-.1.1-.3.1-.4 0l-.1.3c0-.3-.2-.5-.3-.8h-.6c0 .2.1.5-.2.6l-.2-.3h-.1l.2.8h-.4l-.1-.7-.6.4c0-.1-.2-.2-.4 0v.2h-.8l-.2.2c0-.2 0-.4-.2-.4s-.2.4-.4.2l-.4.2-.3.3c-.1.1-.3.1-.4 0-.2-.2-.3 0-.5 0v.3l-.4-.2v.4c.3.1.4.2.4.4-.1-.3-.4-.2-.6-.3v-.2h-.5c-.2 0-.4 0-.4.3h-.2v.3c-.2 0-.5 0-.6.2l-.3.2V34l-.4.2.1.3-.5-.1.1.6h-.5c-.4.1-.6 0-.8-.3l-.3.6c-.2 0-.4 0-.5.3l-.3-.4c0 .4-.3.4-.5.3l-.4.1v.5c0 .3 0 .4-.3.3-.3 0-.4.1-.5.4l-.2.2.2.3-.3.4h-.3V37h-.3l.1.3-.3-.2v.4H49l-.1.3c0 .3-.2.4-.3.3l-.3.1c0 .2-.1.4-.3.5-.2.2-.3.3-.2.6 0 .2-.1.3-.3.4l-.4.3c-.2 0-.5 0-.5.2-.1.4-.5.6-.4 1l-.6.2c-.2 0-.3-.3-.1-.5.3 0 .4 0 .4-.3-.3-.1-.4 0-.6.2-.3.3.2.5 0 .8l-.5.1c-.3.1 0 .3-.1.5l-.2.4-.1-.2c0-.1 0-.2-.2 0h-.1v.3h.4-.8c.3.2.3.4.2.6l-.3-.2v.7c0 .2-.1.4-.3.4l-.3.2-.3.3-.2-.4a4 4 0 0 0-.1 1.6H42v-.4H42v.4h-.1c-.3 0-.5.2-.4.5v.8h-.2c-.1.3-.3 0-.4.1l-.3.9.5-.2v.4c-.1.2.1.4-.2.5l.1-.5-.2-.1-.2-.1-.1.3H40c-.2.2 0 .5.1.7l-.2.1.3.3H40v.3l-.4.5.2.3-.1.2-.6.3.2.8-.2 1c-.4.2-.2.7-.6.8.2.3 0 .4 0 .7l-.2-.1c-.3 0-.5-.2-.5-.6l-.1-.1-.2.8.5.2v.7c0 .4-.3 1-.7 1v.2h.3l.1.4h-.1c0 .2-.2.3-.1.4.1.4.2.4 0 .7l-.2-.3v.7l-.1.3-.2.3v.7l-.1-.4-.2.6c0 .1.4.2 0 .5l-.2-.5-.4.1.2.1v.2l.6.3.3-.1v.3c-.3.3-.5 0-.7-.1l.2 1c-.4.2-.6.5-.4.7l.3.3c.2.1.3-.3.5-.3.2.3.1.3 0 .6l-.3.2c-.2.1-.3.3-.3.4.2.3-.2.3-.2.5v.2c0 .2 0 .3-.2.4v-.4c-.2.3-.5.5-.5 1l.5-.3v.7l-.5.2.1.4H35.4l.2.2h.5c.2 0 .1.2 0 .4.1.1.2.3.1.5 0 .1-.2.3 0 .4l.2.3Zm8.1 30c.2 0 .3 0 .3.2.1.1.2.1.4 0v-.2c-.1-.2 0-.2.1-.3l.2.5-.6.4.3.3v.4c.2 0 .3-.1.3-.2V99l-.3-.3c.2 0 .3-.3.6-.2v-.1c-.3-.4-.7-.7-.8-1.3l-.3.2c-.2.1 0 .4-.2.5v.4Zm71.3 64c0-.3.3-.4.4-.8 0-.2 0-.3-.2-.2l-.9.2v.5c.2 0 .2.2.4.1.1-.1.1.2.3.2Zm-3.4.9v.3l-.1.6v.3l.4-.4v.4h.2v-.9c.1 0 .4.2.3-.2-.2 0-.5 0-.6-.2h-.2m-67-60.4.5-.5v-.5l-.2-.2-.5 1 .1.2Zm38.1 44c.2-.2.3-.4.1-.7h-.3l-.4.3c.2 0 .3.2.3.4l.1.3.1-.4h.1M50.1 111l-.2.2c.2 0 .3.2.3.4s.2.3.4.1l.3-.5c-.2-.2-.4 0-.6-.1l-.2-.1m16.6 19.2h-.2v-.4c-.3 0-.3 0-.3.2 0 0-.3 0-.3.2.1.2.4-.2.5.2 0 0-.3.2-.1.4l.3-.2v-.2h.4l-.3-.3m51-84.2.3-.3c.1-.1.2-.2.1-.3l-.1-.2-.4-.2-.1.6c-.2.2-.1.3.2.4ZM45 101.1c.2 0 .2-.3.5-.1.1.1.3 0 .2-.3-.3 0-.3-.2-.5-.4-.4.2 0 .5-.2.8Zm68.2 62 .3.4v-.4l.7-.6h-.7l-.3.7M40.7 88.4c0 .4.2.6.7.7-.1-.4-.2-.7-.7-.7m3.4 9.3c-.4-.1-.3-.6-.6-.9l-.4.1c.3 0 .1.4.4.3.2.6.2.6.6.5m1-1-.3-.2v-.3c-.2 0-.3 0-.4-.2-.2.3.2.4.1.7l.3.1h.3Zm28.6 41 .1.2c.2-.2.3 0 .5.1l.1-.6-.2.2v-.3c-.2.3-.3.4-.5.4ZM39.4 84.1c-.2-.3-.4-.5-.6-.4l.3.8.3-.4ZM54 117.1c0 .5 0 .6.5.7v-.6l-.5-.1m87.2 6.3h-.3v.3s.2 0 .1.3c0 0 0 .2.2.2 0-.2 0-.3.2-.5l-.2-.3m-25-76.5c-.2.3-.3.6-.3 1l.4-.5-.1-.5Zm-70 57.8.3-.7H46l.3.7Zm-4.6-16a15.1 15.1 0 0 1 0-1c-.3.3-.3.7 0 1M96 156.2l.2-.3-.4-.1c0 .1.2.3 0 .5l.3.4-.1-.5m57.3-53.8c.2 0 .4-.2.3-.5l-.4.1.1.4m-73.8 39.1-.3-.1v.7c.2-.2.4-.3.3-.5Zm-35-41.8c-.2-.1-.2-.2-.4 0l-.2.3h.2l.3-.3m61.8-41.3h-.6l.1.3c.2.1.3-.2.5-.3m-69.8 9.7-.2.2.1.6c.2-.3.3-.5.1-.8m78.8-20.2.4.5.2-.3-.6-.2Zm-41.6 89.7v-.4l-.2.3v.1-.3h-.2v.3h.5Zm31.5-78c0-.1.3-.3.1-.5l-.4.4c.1 0 .2 0 .3.2M79.3 143l.1-.7c-.3.2-.3.4-.1.7m-7-7.3-.2.3.3.2v-.5m-35.5-60c.2-.2.2-.4.2-.7l-.2.6Zm7 20.1-.2.4h.1c.3 0 .2-.1.2-.4m-6.8-21.4h-.4c0 .2.1.3.4.3v-.3m33.4 60.2c.1.3.3.2.6.2-.2-.2-.4-.3-.6-.2ZM44.3 99h.3c0-.2-.3-.2-.1-.4l-.3-.2.1.6m101.5-61.8c0-.4 0-.6-.2-.6l.2.6Zm15 11.8h-.3l.2.5V49m-43.5-2.5-.4-.3v.6l.4-.3m-35 98.8c.2 0 .2-.2 0-.4h-.1v.4M62.3 126H62l-.1.2.1.2.2-.2v-.2m5.3 5.5.3-.2c0-.1 0-.3-.2-.4l-.1.6Zm95-53.6v.3c.2-.2.3-.4.2-.6l-.2.3m.8-20.4s.1.2.3 0v-.3l-.4.3Zm-13.4 50.9v.3h.2v-.5l-.1.2m-33.3 52.9c0-.2-.1-.3-.3-.3l.3.3Zm-70-60.2c-.4-.3-.5-.3-.6 0h.5Zm111.4-57c-.2-.3-.4-.3-.6-.2l.6.1Zm-19.3-7.9V36h-.3l.3.2Zm22 12.3-.6-.2c.2.2.3.2.6.2m-113 58.1c.2 0 .1-.2.2-.3l-.2-.2v.5M42 92.2c.1 0 .4 0 .4-.3l-.4.3m74.3 68.4-.3.1-.1.2c.2 0 .4 0 .3-.3ZM44.8 95c-.2-.1-.4-.1-.5.1h.5Zm-3.5-47.5v-.2h-.5l.5.2Zm107.4 64c.3-.2.3-.2.2-.5l-.2.4ZM44.5 98.1c-.1 0-.2-.2-.4 0l.2.2.2-.3m26.1 36.5c0-.1.2-.4-.1-.4 0 .1-.2.3.1.4M106 59.2l-.3-.2v.3l.2-.1m9.9 103 .2.2v-.4l-.2.1Zm3.3-6c.2 0 .3 0 .4-.2l-.4.1m41.4-70v-.4h-.1v.4m3-29.8v.1l.2.3c.1-.3 0-.3-.1-.4M156 41.8v.2l.3-.1v-.1h-.3M43.1 96.2v.5c.3-.2.2-.3 0-.5m0-.5c-.1 0-.2 0-.2.3l.2-.3m38.7 49.2-.1.2v.1l.1-.3m-31.3-32.7v-.3.3m75.7 34c.2-.1.2-.2 0-.3v.3m-82-52-.5-.1h.4Zm119.3-37.3.4.3-.1-.3h-.3Zm.2 16.7.2-.2-.2.2ZM159.5 88l.5-.1c-.2-.2-.3-.2-.5 0m-28.7 53h.1v-.3h-.1v.3M58.6 122v-.3.3m-22-49.5c0 .2.1.3.3.3l-.3-.3Zm79.5-24 .2-.3c-.1 0-.4 0-.2.2m28 69.8.4.2-.3-.4v.3M37.7 80.9v.3-.3m8.4 22.7.2.1v-.2l-.2.1m61.2-47.3h.2V56l-.2.2m1.4-1.5c0-.2-.1-.3-.2-.2l.2.2M43 94.9l.2.2V95l-.2-.1Zm-3.4-44h-.3l.1.1h.2m94.7 84.3v-.3c-.1.1-.2.2 0 .3M159 44.7H158.6l.2.1h.1m-23 87.9v-.1l-.3.2.3-.1m-86.8-26c.2.2.3.1.3 0h-.3ZM126 147l-.2-.2.2.2Zm-39.2.3.1.3-.1-.3Zm-44.2-103V44h-.1v.2m118.6 5.2v.1h.2v-.1h-.2ZM98.9 158.2v.1h.2-.2m3.1 2.6h-.3.3Zm2.2 2.6v-.1l-.2-.1.2.2Zm40.7-126.8v-.1l-.1-.1.1.3m-41.6 109.7h.4c0-.3 0-.4.3-.4v-.3c0-.2.1-.3 0-.4l-.5.3c-.2 0-.3 0-.3-.2l-.1-.1-.6-.2c0-.2.2-.4.4-.4l-.2-.2c0-.3-.1-.4-.3-.5l-.3.2h.3v.9l-.2-.2v.8l.7.4-.3.2c.3.1.5.2.7 0M90.1 67.8l-.2-.1V67c-.3-.1-.2-.2-.1-.4v-.2l-.3.3v1.2l.5.8c.1-.3 0-.3-.1-.4l.2-.6ZM89 138v-.1c-.2 0-.4-.2-.3-.4h-.2s0 .2-.2.2c-.2.2 0 .4 0 .6l.4-.4h.3Zm19.9 3.7h.2v-.6h-.2v.6m17.4-20.1c0 .2.1.3.3.2l-.3-.2Zm-18.1-60.8v.3-.3M138.6 50h-.4v.3l-.2-.2-.2.2-.2-.3-.2.2.6.3.3.6.2-.6v-.5Zm10.7 7.1-.3.3c.2 0 .3.3.5.2 0-.6 0-.7.2-1h-.3c-.2 0-.3 0-.2.3v.3m-.5-3.5h-.3c.4.3.1.5.2.8.3-.1.4-.2.3-.4l-.2-.4M78 123.7H78v.4c.3-.1.5-.3.4-.5l-.2.3-.1-.2M57.2 54.2h.4v-.4l-.5.2.1.2m54.8 82-.2.2-.2.2c.5 0 .5 0 .4-.4m-5-54-.2.4c.5-.3.5-.4.4-.6l-.2.2m41.7-12v-.4l-.4-.1v.2h.3v.1l-.1.1h.2M118 125.8c0 .4 0 .4.4.4 0-.3-.1-.4-.4-.4M80 124.5c.2-.1.3-.3 0-.5v.5m68.3-54.8.5-.3-.1-.1-.5.3.1.1m-9.8-19.6c.2-.1.3-.3.3-.5-.3 0-.2.3-.2.5m-12.7 63.5c-.3-.2-.4-.2-.6 0h.6M84.6 59.3H84c.2.2.3.2.6 0Zm12.6 20.3-.4-.2v.1l.2.4.2-.3M72 115h-.5c.2.2.3.2.5 0Zm48 7.1c.2 0 .3-.1.3-.3l-.3.3Zm22.7-37.8h.1c0-.1.2-.2 0-.4l-.1.4ZM137.4 50c-.3 0-.3.2-.3.4.3 0 .3-.2.3-.4Zm-1 1-.5-.1c.2.3.3.1.5.1m2.2-1.7h.3V49l-.3.4ZM123 61.9v-.5l-.3.3.3.2Zm9.7 40.4h.4v-.1c-.2 0-.3-.2-.4.1m-2.7 3.9c.1-.1.2-.2 0-.4v.4ZM74 48.3l.2.4.2-.3H74v-.1Zm70.7 31c.2 0 .3 0 .4-.3l-.4.3Zm-65 45.8h.2l.2-.3H80l-.2.3M144.7 49h.1v-.3.3m-57 16h-.2l.2.3h.1c0-.2-.1-.2-.2-.3M78 122c0 .1 0 .4.3.1H78Zm-1.6-1.7h-.2v.1h.2m73.4-58h-.1.1M95.8 78s.2-.1 0-.3v.3ZM150 60.4c0-.2 0-.3-.3-.1h.3Zm-.2-1.1v.4c.2-.2 0-.3 0-.4m-92.1-6.8.3.2-.3-.2m55 82.3.1-.2c-.1 0-.2 0-.3.2h.2M74 48.3v-.2c-.2.1-.1.2 0 .2Zm9 79.5.1-.3c-.2.1-.2.2 0 .3m34.7-.8-.2-.3v.3h.2M79 125h.2v-.2l-.2.2m36.4-55.6v.3c0-.2.1-.2.3-.4l-.3.1M89 67.2h.2-.2m-11 55v-.4c-.2.2-.3.3 0 .3m46 4.5h-.1.4v-.4l-.3.2-.2-.4h-.3c.3 0 .2.3.3.5l.1.1m1.9-3.4.2.4.2-.2v-.1l-.4-.1m-1.7 2.5c-.1.1-.1.2.1.3h.4s-.2 0-.3-.2l-.2-.1m1-1.5-.2-.1c.2.3 0 .4-.2.4l.4.2v-.5m2-1.9c-.3.2-.3.3-.2.4l.1-.4Zm-.5.2v-.1h-.3v.2h.1l.2-.1m.5 1.2.4.2-.3-.3v.1m-.2.3.1-.3h-.4l.3.3m-.5 2.8-.2-.2c0 .1-.2.3 0 .4.1 0 0-.3.2-.2m-1.6-1.6c.1-.1.2-.2 0-.4v.4Zm-.2-1.8c-.2 0 0 .2 0 .3v-.3Zm1 2.1v-.1.2m-35.3 14.6h.3c0 .2 0 .4-.2.5.3.2.3.2.3.5l.1.2h.3c0-.2-.3-.4-.1-.6l-.3-.2.3-.1-.2-.2.2-.2-.3-.6h-.1l-.1.2h-.4l.1.5Zm0 1.3.1-.5c-.3 0-.4-.1-.5-.4-.2.2-.1.3 0 .5 0 .2 0 .4.3.4m1.5-.8.2-.4-.6-.2c0 .3 0 .6.4.6m-1.5-.5-.3-.1v-.2h-.3l.8.7-.1-.4m-2.2-1.3.4-.4h-.4v.4m.5.5v.2c0-.1.3.2.4-.1l-.4-.1m1.4.2.1-.2v-.2l-.2.1.1.3m-.4 1.7v.2h.1v-.2m13.5 5.2.2.4h.2l.2.3h.2s.2 0 .2-.2c0-.1 0-.2-.2 0l-.5-.4v-.1h-.3m-1-.7h-.1c-.2 0-.3-.3-.3-.4v-.2l-.3.2c.2.6.3.6.7.6l-.1-.2m-1.2.2-.2.2.3.1.2-.4-.3.1m1.1.5-.2-.1c0 .2.1.3.2.1m0 0c0 .2 0 .3.3.4l-.3-.4Zm9-90v.5-.5ZM95.3 144l.5.3v-.7l-.2.4-.1-.4h-.4l.2.4m1 .7-.1-.1-.4.3.5-.2m-.2.5c-.2 0-.3 0-.3.2l.3-.2Zm-54.7-67 .5.4c0-.3-.1-.4-.5-.4m.8-.2c0-.2-.2-.2-.4 0h.4Zm-.4 1.3-.2-.3h-.1l.3.3ZM148 80.6c0-.1 0-.3-.2-.4l-.3.1c.2 0 .2.4.5.3m-.1-1v.4l.2-.2-.2-.2m2.3-6.6-.2.2h.1l.1-.2Zm-36.7-20.7v-.5l-.3.1-.1.3.4.1Zm-6 9h.3l.1-.3-.3.2m8 78c.1.3.2.4.4.3l-.4-.2Zm-2.2-82.8v.4h.1v-.4m-32 77.2v.2l.1.2.1-.2-.2-.2m36 23.2-.4.2c.2 0 .3 0 .3-.2m-20-13v.3l.2-.2h-.2m17.4-85.4-.2.1-.3.3h.4l.1-.1v-.3M78.2 132c-.1 0-.2 0-.1.3l.1-.3Z"/></svg>