<svg clip-rule="evenodd" fill-rule="evenodd" stroke-linejoin="round" stroke-miterlimit="2" viewBox="0 0 960 960" xmlns="http://www.w3.org/2000/svg"><path d="m-42.192 0h292.466v283.231h-292.466z" fill="#f4f6e9" transform="matrix(3.28476 0 0 3.38946 138.89 0)"/><g transform="matrix(.804149 0 0 .804149 93.5512 93.981)"><path d="m453.25.716c1.512.229 3.988.229 5.5 0s.275-.416-2.75-.416-4.262.187-2.75.416m47.5.007c1.788.222 4.712.222 6.5 0 1.788-.221.325-.403-3.25-.403s-5.038.182-3.25.403m-77.75 2.277c-2.656.559-2.897.755-1 .811 1.375.04 4.3-.299 6.5-.754 3.334-.689 3.501-.824 1-.81-1.65.009-4.575.348-6.5.753m123.5 2c1.65.42 4.35.765 6 .767 2.522.002 2.363-.129-1-.824-5.066-1.048-9.159-1.001-5 .057m77.5 17.433c1.925.778 4.175 1.435 5 1.461 2.631.08-1.033-1.584-5-2.27l-3.5-.606zm-331.8 15.255c-4.564 1.95-8.134 3.711-7.932 3.913.361.361 16.775-6.311 17.629-7.165 1.066-1.066-1.993-.04-9.697 3.252m372.8-.273c1.375.735 3.625 1.633 5 1.996 1.46.386.866-.186-1.429-1.375-2.16-1.12-4.41-2.018-5-1.996-.589.022.054.641 1.429 1.375m-388.5 7.151c-2.75 1.325-4.325 2.394-3.5 2.376s3.525-1.117 6-2.442c5.814-3.113 4.002-3.066-2.5.066m438.5 16.785c0 .221 4.388 3.009 9.75 6.194 5.362 3.186 10.875 6.474 12.25 7.307s2.05 1.02 1.5.416c-1.902-2.09-23.5-14.88-23.5-13.917m-487.696 9.973c-6.158 3.947-11.558 7.597-12 8.111-.442.515.771-.063 2.696-1.282 1.925-1.22 7.662-4.734 12.75-7.809s9.25-5.76 9.25-5.967c0-.975-2.301.284-12.696 6.947m256.196 5.655c-7.729 1.287-17.484 3.771-18.807 4.787-.656.505-3.067 1.645-5.357 2.533-7.025 2.726-16.812 9.532-26.982 18.763-2.743 2.49-16.354 18.502-16.354 19.24 0 .306-1.861 3.359-4.136 6.783-7.901 11.895-16.962 32.925-21.077 48.915-6.267 24.353-8.351 43.926-7.454 70 1.06 30.751 9.486 61.514 21.827 79.68 1.562 2.299 2.84 4.485 2.84 4.856 0 1.193 9.65 12.967 15.074 18.39 7.529 7.529 20.711 17.074 23.581 17.074.74 0 1.345.356 1.345.792 0 .634 13.911 6.123 19.847 7.832 1.118.322 1.231 9.177.668 52.132-.934 71.165-4.56 203.515-6.432 234.744-.56 9.35-1.284 24.2-1.607 33-.551 14.99-1.359 29.005-4.959 86-1.348 21.335-3.634 51.126-5.105 66.501l-.621 6.501 4.854 1.337c2.67.736 6.132 1.738 7.692 2.228 6.895 2.163 33.47 3.326 48.662 2.129 13.464-1.06 29.279-4.126 31.248-6.058.411-.403.303-4.311-.24-8.685-.544-4.374-1.452-14.028-2.019-21.453s-1.468-18.675-2.003-25-1.633-20.95-2.44-32.5c-.808-11.55-1.941-27.75-2.519-36-1.665-23.778-4.102-67.129-5.059-90-.483-11.55-1.349-29.55-1.924-40-1.182-21.466-2.153-48.378-5.033-139.5-1.104-34.925-2.12-66.65-2.259-70.5l-.251-7-8-.551c-4.4-.303-9.325-1.261-10.944-2.129l-2.944-1.579 5.444-.694c6.006-.765 16.514-3.094 21.944-4.863 5.502-1.792 22.224-10.377 25.128-12.9 1.446-1.256 4.821-4.053 7.5-6.215 2.68-2.162 7.572-7.051 10.872-10.864 3.3-3.814 6.563-7.525 7.25-8.248.688-.723 1.25-1.579 1.25-1.904 0-.324 1.688-3.399 3.75-6.833 7.437-12.384 13.876-27.982 16.19-39.22.453-2.2 1.539-7.375 2.414-11.5 6.045-28.504 4.242-68.531-4.503-100-2.312-8.319-6.451-20.15-8.396-24-.694-1.375-2.652-5.425-4.35-9s-3.647-7.4-4.331-8.5c-.685-1.1-3.005-4.925-5.157-8.5-7.238-12.026-21.799-27.648-32.617-34.994-17.021-11.558-39.61-17.674-55.5-15.027m264.5 4.998c1.375 1.112 2.978 2.412 3.563 2.887.585.476 2.16 1.407 3.5 2.068l2.437 1.202-2.5-2.067c-1.375-1.137-4.075-2.977-6-4.09l-3.5-2.023zm-545.803 6.11c-2.308 1.697-4.197 3.327-4.197 3.622s.563.082 1.25-.472c.688-.555 3-2.185 5.14-3.623 2.139-1.438 3.465-2.614 2.947-2.614-.519 0-2.832 1.389-5.14 3.087m555.846.665c.024.411 3.062 2.907 6.75 5.546 3.689 2.639 8.169 5.959 9.957 7.378s3.233 2.185 3.212 1.702-1.708-2.05-3.75-3.482c-2.042-1.433-6.524-4.694-9.962-7.248-3.437-2.554-6.231-4.307-6.207-3.896m-564.543 5.494c-7.043 5.123-23.312 18.423-27 22.071-3.418 3.383-3.134 3.247 1.954-.929 3.275-2.689 6.693-5.563 7.596-6.388s4.923-3.975 8.933-7c8.305-6.264 12.746-9.937 12.017-9.937-.275 0-1.85.982-3.5 2.183m588.118 12.42c8.79 7.989 15.376 13.44 15.323 12.683-.058-.836-10.081-9.488-15.612-13.477-2.539-1.832-2.51-1.75.289.794m-629.118 22.036c-4.95 4.683-7.65 7.526-6 6.319 3.604-2.636 15.707-14.152 15.293-14.551-.161-.155-4.343 3.55-9.293 8.232m645.5-8.438c0 .361 2.362 2.78 5.25 5.376s12.429 11.952 21.203 20.79c8.775 8.839 14.4 14.216 12.5 11.951-6.156-7.344-38.953-39.437-38.953-38.117m-669.682 32.486c-4.463 4.813-7.988 8.885-7.834 9.049.316.337 9.846-9.576 13.987-14.549 4.944-5.936 2.067-3.365-6.153 5.5m-14.238 15.95c-2.794 3.134-5.08 6.149-5.08 6.7 0 .625.299.644.797.05 7.248-8.638 10.267-12.45 9.86-12.45-.273 0-2.783 2.565-5.577 5.7m729.054-1.785c1.851 2.154 3.756 3.954 4.232 4 .476.047-.649-1.677-2.5-3.83-1.851-2.154-3.756-3.954-4.232-4-.476-.047.649 1.677 2.5 3.83m-741.134 16.42c-6.579 8.453-10.243 13.665-9.608 13.665.256 0 2.598-2.812 5.204-6.25 2.607-3.437 6.09-7.937 7.739-10 1.65-2.062 2.811-3.914 2.582-4.116-.229-.201-2.892 2.814-5.917 6.701m761.012 7.915c1.753 2.338 4.154 5.707 5.337 7.488 1.183 1.78 2.544 3.243 3.023 3.25.48.006.429-.55-.115-1.238-.543-.687-3.105-4.062-5.694-7.5-2.588-3.437-4.938-6.25-5.221-6.25s.918 1.912 2.67 4.25m-774.925 10.947c-1.698 2.308-3.087 4.621-3.087 5.14 0 .518 1.176-.808 2.614-2.947 1.438-2.14 3.068-4.452 3.623-5.14.554-.687.767-1.25.472-1.25s-1.925 1.889-3.622 4.197m797.878 22.303c1.174 2.2 3.05 5.125 4.17 6.5 1.94 2.383 1.935 2.312-.1-1.5-1.174-2.2-3.05-5.125-4.17-6.5-1.94-2.383-1.935-2.312.1 1.5m19.132 32c0 .55 1.531 3.925 3.403 7.5s3.403 6.05 3.403 5.5-1.531-3.925-3.403-7.5-3.403-6.05-3.403-5.5m-860.597 20.234c-2.917 6.854-2.912 7.386.019 1.94 1.428-2.655 2.458-5.234 2.289-5.733-.169-.498-1.208 1.209-2.308 3.793m181.25 29.012c5.637.178 14.863.178 20.5 0s1.025-.324-10.25-.324-15.887.146-10.25.324m-34.25 1.303c-2.949.433-.693.522 5.5.217 5.775-.284 10.688-.685 10.917-.891.671-.604-10.971-.126-16.417.674m76.5-.007c3.025.418 7.075.745 9 .725 2.805-.027 2.507-.189-1.5-.813-2.75-.428-6.8-.755-9-.726-3.483.047-3.289.152 1.5.814m575-.024c-3.168.421-.325.513 6.705.217l12.206-.513.362 7.642.362 7.643-.067-7.754-.068-7.753-7-.106c-3.85-.059-9.475.222-12.5.624m-560.917 1.354c.23.204 2.667.632 5.417.949 3.372.39 4.186.301 2.5-.272-2.498-.849-8.704-1.38-7.917-.677m544.029.709c-2.414.474-4.647 1.12-4.963 1.436-.616.617 6.125-.256 11.851-1.535 3.383-.755 3.4-.781.5-.772-1.65.005-4.975.397-7.388.871m-17.112 4.919c-5.964 2.502-3.889 2.541 2.5.046 2.75-1.074 4.325-1.948 3.5-1.943s-3.525.858-6 1.897m-496.063 1.542c4.091 1.329 7.604 2.251 7.806 2.048.524-.523-11.811-4.603-13.687-4.527-.856.035 1.791 1.15 5.881 2.479m355.063-.542c-4.064.632-4.161.706-1 .762 1.925.035 5.75-.288 8.5-.716 4.729-.737 4.784-.778 1-.762-2.2.009-6.025.331-8.5.716m-341 5.429c0 .209 3.15 2.01 7 4.002 7.821 4.047 9.374 4.15 2.585.171-4.516-2.646-9.585-4.853-9.585-4.173m461.954 3.045c-3 1.911-5.043 3.486-4.542 3.5.994.028 10.588-5.933 10.588-6.578 0-.707-.517-.444-6.046 3.078m-178.486-1.224c-1.001 2.663-.969 383.75.032 383.75.664 0 .914-64.476.745-191.939l-.255-191.94 3.755-.392 3.755-.393-3.781-.168c-2.245-.1-3.973.34-4.251 1.082m-502.218 2.997c-1.787.573-3.25 1.375-3.25 1.781 0 .678 7.954-1.649 8.913-2.608.704-.704-2.226-.276-5.663.827m234.25 3.436c2.127 1.972 8.404 6.317 9.128 6.317.418 0-.789-1.158-2.684-2.572-3.605-2.693-8.169-5.345-6.444-3.745m434.761 3.567c-2.646 2.337-7.404 7.195-10.571 10.795-5.73 6.512-15.079 19.899-14.384 20.595.201.2 2.795-3.349 5.766-7.888 2.97-4.539 9.775-12.639 15.122-18.002 5.348-5.363 9.533-9.75 9.301-9.75-.231 0-2.587 1.913-5.234 4.25m83.401 15.085c-.454 10.91-.612 20.048-.352 20.308.631.632 1.97-31.06 1.527-36.143-.192-2.2-.721 4.926-1.175 15.835m75.707-15.585c.277.962 1.054 3.665 1.727 6.006.674 2.341 1.404 4.077 1.623 3.858.512-.512-2.697-11.614-3.357-11.614-.273 0-.27.788.007 1.75m-572.858 15.525c2.074 2.627 3.987 4.56 4.25 4.297s-1.434-2.412-3.771-4.775l-4.25-4.297zm5.659 7.225c.878 1.1 3.042 4.587 4.809 7.75 1.766 3.163 3.437 5.75 3.712 5.75.932 0-5.88-11.487-8.005-13.5l-2.112-2zm574.952 3c-.042.55.808 4.15 1.889 8s1.741 5.393 1.465 3.428c-.545-3.895-3.231-13.046-3.354-11.428m-196.57 14.398c-1.968 3.906-3.377 7.102-3.131 7.102.705 0 7.591-13.321 7.126-13.787-.23-.23-2.028 2.778-3.995 6.685m-646.851 7.471c-.438 6.528-.593 12.072-.345 12.321.677.676 1.868-15.583 1.48-20.19-.186-2.2-.696 1.341-1.135 7.869m758.635 5.631c0 4.125.177 5.813.392 3.75.216-2.062.216-5.437 0-7.5-.215-2.062-.392-.375-.392 3.75m-116.336-4.879c0 .25-1.569 4.231-3.487 8.847-1.917 4.616-3.267 8.611-3 8.879.268.267.487.282.487.032s1.569-4.231 3.487-8.847c1.917-4.616 3.267-8.611 3-8.879-.268-.267-.487-.282-.487-.032m-644.455 24.924c-.394 5.564-.503 10.33-.243 10.591.261.26.8-4.076 1.198-9.636s.507-10.326.243-10.59-.803 4.072-1.198 9.635m759.829.455c.002 6.05.167 8.396.366 5.213.199-3.182.197-8.132-.004-11-.201-2.867-.364-.263-.362 5.787m94.726-4.917c.055 1.605.482 4.042.949 5.417.573 1.686.662.872.272-2.5-.649-5.625-1.373-7.353-1.221-2.917m-767.372 6.139c1.775.221 4.925.224 7 .008 2.074-.217.622-.397-3.228-.402-3.85-.004-5.548.173-3.772.394m25 0c1.775.221 4.925.224 7 .008 2.074-.217.622-.397-3.228-.402-3.85-.004-5.548.173-3.772.394m27.772 3.143c1.1.482 3.575 1.161 5.5 1.51 2.403.436 2.873.36 1.5-.24-1.1-.482-3.575-1.161-5.5-1.51-2.403-.436-2.873-.36-1.5.24m491.1 5.735c-.967 3.067-1.578 5.756-1.358 5.976s1.191-2.109 2.158-5.176 1.578-5.756 1.358-5.976-1.191 2.109-2.158 5.176m-463.85 8.159c.962.967 2.796 3.105 4.074 4.75s1.985 2.316 1.571 1.491c-1.419-2.826-5.632-8-6.514-8-.484 0-.093.791.869 1.759m591.218 8.241-.468 8.5-15.5.54-15.5.539 15.731.211c18.243.244 17.125 1.008 16.538-11.311l-.333-6.979zm-466.211 134.5c-.141 76.725.08 139.5.493 139.5s.75-62.775.75-139.5-.222-139.5-.493-139.5-.609 62.775-.75 139.5m417.743-123.5c-3.338.598-3.503.725-1 .77 1.65.03 5.25-.296 8-.724 4.747-.739 4.797-.778 1-.77-2.2.004-5.8.33-8 .724m-13.5 2.049c-1.686.573-.872.662 2.5.272 2.75-.317 5.188-.745 5.417-.949.787-.703-5.419-.172-7.917.677m164.015 8.642c-.008 3.405.435 6.469.985 6.809 1.308.808 1.308-9.476 0-11.5-.684-1.058-.974.325-.985 4.691m-186.015-3.472c-1.925.572-3.027 1.214-2.45 1.427.578.213 2.828-.263 5-1.059 4.527-1.657 2.688-1.923-2.55-.368m-10.425 3.36c-2.159.79-4.183 1.695-4.498 2.01-.941.942 5.225-.761 7.923-2.187 3.267-1.727 1.528-1.637-3.425.177m-12.575 5.026c-3.025 1.423-6.575 3.006-7.889 3.519-1.313.512-2.171 1.15-1.905 1.416.267.266 4.266-1.309 8.889-3.501 4.623-2.191 7.955-3.992 7.405-4.002-.55-.009-3.475 1.146-6.5 2.568m-16.223 7.796c-5.236 3.111-6.066 4.256-1.277 1.761 5.013-2.612 7.297-4.155 6-4.052-.55.043-2.676 1.074-4.723 2.291m-473.277.111c-.55.195-5.403 1.344-10.785 2.553s-9.573 2.41-9.314 2.669c.473.473 22.735-4.573 23.516-5.33.493-.478-1.983-.4-3.417.108m-46.34 10.672c-2.387.533-4.14 1.169-3.896 1.413.517.517 10.736-1.558 10.736-2.18 0-.569-1.723-.376-6.84.767m-34.495 8.323c-5.283 1.452-8.013 3.11-3.163 1.921 5.5-1.349 11.017-3.23 9.498-3.24-.825-.005-3.676.589-6.335 1.319m-18.977 5.676c-3.197 1.114-5.638 2.2-5.424 2.414s3.504-.699 7.312-2.03c3.808-1.33 6.249-2.416 5.424-2.414-.825.003-4.116.916-7.312 2.03m-160.388 13.817c0 3.025.187 4.262.416 2.75s.229-3.988 0-5.5-.416-.275-.416 2.75m959.02 1c0 3.575.182 5.038.403 3.25.222-1.788.222-4.712 0-6.5-.221-1.788-.403-.325-.403 3.25m-836.008 1.327c-6.849 4.189-8.183 5.806-1.812 2.196 6.392-3.622 9.204-5.543 7.973-5.446-.535.042-3.308 1.504-6.161 3.25m-12.53 7.929c-2.595 1.784-4.732 3.619-4.75 4.078-.026.686 5.577-3.188 9.418-6.512 2.138-1.85-.243-.609-4.668 2.434m-14.643 12.494c-6.927 6.936-13.678 15.661-17.022 22-2.555 4.842-.091 1.876 4.319-5.199 2.553-4.097 8.525-11.297 13.271-16 4.745-4.703 8.3-8.551 7.9-8.551-.401 0-4.211 3.487-8.468 7.75m141.361 6.322c-2.2 1.058-2.904 1.643-1.565 1.3 3.661-.938 8.779-3.299 7.065-3.259-.825.02-3.3.901-5.5 1.959m-14.25 5.886c-3.437 1.627-6.25 3.178-6.25 3.447 0 .424 12.781-5.149 13.917-6.068 1.489-1.205-2.363.112-7.667 2.621m-15.16 8.549c-10.957 7.505-19.835 17.632-21.473 24.493-.407 1.706-.109 1.435.939-.854 1.839-4.02 8.268-12.8 11.571-15.804 1.305-1.186 5.716-4.449 9.801-7.25 4.085-2.8 7.01-5.066 6.5-5.034s-3.812 2.034-7.338 4.449m-133.444 10.347c-1.455 3.243-2.62 6.29-2.588 6.771s1.402-1.993 3.044-5.498 2.806-6.552 2.587-6.771c-.218-.219-1.588 2.256-3.043 5.498m108.69 32.146c0 4.125.177 5.813.392 3.75.216-2.062.216-5.437 0-7.5-.215-2.062-.392-.375-.392 3.75m94.849 5.945c-.151 4.432-.697 5.979-2.933 8.314-1.512 1.578-2.074 2.596-1.25 2.262 3.35-1.356 5.114-5.37 4.735-10.778l-.367-5.243zm663.415 13.655c-.967 3.067-1.578 5.756-1.358 5.976s1.191-2.109 2.158-5.176 1.578-5.756 1.358-5.976-1.191 2.109-2.158 5.176m-686.527 9.985c-5.54 3.049-6.247 3.726-2.499 2.394 2.532-.899 8.809-5.026 7.426-4.882-.275.028-2.492 1.148-4.927 2.488m682.594 3.082c-.894 3.14-1.451 5.883-1.238 6.095.212.213 1.129-2.17 2.038-5.295.908-3.125 1.465-5.868 1.238-6.096-.228-.227-1.145 2.156-2.038 5.296m-735.667.828c0 .891 7.231 3.506 9.372 3.389 2.008-.109 2.015-.141.128-.56-1.1-.244-3.687-1.089-5.75-1.876-2.062-.787-3.75-1.216-3.75-.953m16.784 4.243c2.905.203 7.405.201 10-.004 2.594-.206.216-.371-5.284-.369-5.5.003-7.622.171-4.716.373m-148.71 13.855c-.197 2.899 8.039 22.407 9.46 22.407.275 0-.699-2.362-2.164-5.25s-3.689-8.175-4.943-11.75c-1.253-3.575-2.312-6.008-2.353-5.407m11.632 26.273c4.595 8.622 20.694 22.769 33.004 29.002 7.45 3.772 6.038 2.272-2.286-2.429-13.333-7.531-21.678-14.992-30.718-27.464-1.724-2.38-1.724-2.346 0 .891m180.115 6.526c-5.324 5.122-13.311 11.702-17.75 14.623s-8.071 5.489-8.071 5.707c0 .497.906-.035 9.338-5.486 5.662-3.66 28.306-24.18 26.662-24.161-.275.003-4.856 4.196-10.179 9.317m645.889 22.143c-2.031 4.106-3.478 7.465-3.214 7.465.668 0 7.716-14.122 7.27-14.567-.199-.2-2.024 2.997-4.056 7.102m-675.26-.661c-.522.48-4.55 2.263-8.95 3.962-4.4 1.698-7.476 3.105-6.835 3.126 1.817.059 17.254-6.023 17.888-7.047.72-1.165-.847-1.196-2.103-.041m-75.95 12.288c6.544.867 28.76.876 34.5.014 2.475-.372-5.4-.676-17.5-.676s-19.75.298-17 .662m740.099 8.833c-1.498 2.753-2.509 5.005-2.247 5.005.669 0 5.756-9.226 5.324-9.657-.194-.194-1.579 1.899-3.077 4.652m-832.599 2.432c0 .741 10.12 17.027 11.231 18.073 1.429 1.345 1.046.633-5.242-9.75-4.813-7.949-5.989-9.583-5.989-8.323m828.307 4.823c-.515.688-2.84 4.4-5.166 8.25-2.325 3.85-4.991 8.125-5.923 9.5-1.596 2.355-1.595 2.422.012 1.154.938-.74 2.771-3.215 4.072-5.5s3.778-6.516 5.506-9.404c2.918-4.879 3.677-6.904 1.499-4m-810.33 23.75c1.113 1.925 2.953 4.625 4.09 6l2.067 2.5-1.202-2.437c-.661-1.34-1.592-2.915-2.068-3.5-.475-.585-1.775-2.188-2.887-3.563l-2.023-2.5zm794.406 1.231c-4.192 6.153-4.935 7.689-2.062 4.269 2.742-3.265 6.048-8.5 5.368-8.5-.233 0-1.721 1.904-3.306 4.231m-6.383 8.538c0 .422-3.12 4.922-6.932 10-3.813 5.077-6.626 9.218-6.25 9.202.375-.016 2.707-2.799 5.182-6.184s5.776-7.872 7.337-9.971c1.56-2.099 2.347-3.816 1.75-3.816-.598 0-1.087.346-1.087.769m-775.141 8.526c1.742 2.531 3.696 4.93 4.342 5.329.646.4-.363-1.415-2.242-4.031-4.447-6.193-6.223-7.29-2.1-1.298m756.333 16.362c-1.819 2.493-2.864 4.259-2.323 3.924 1.61-.995 7.371-8.586 6.465-8.519-.459.034-2.323 2.102-4.142 4.595m-740.409 3.566c3.026 4.2 8.298 10.029 8.704 9.624.199-.2-2.119-3.06-5.152-6.355-3.033-3.296-4.631-4.767-3.552-3.269m729.217 9.53c-5.842 6.906-9.513 12.016-5.911 8.228 5.416-5.696 13.966-15.975 13.264-15.946-.469.019-3.778 3.492-7.353 7.718m-716.866 5.162c1.851 2.154 3.756 3.954 4.232 4 .476.047-.649-1.677-2.5-3.83-1.851-2.154-3.756-3.954-4.232-4-.476-.047.649 1.677 2.5 3.83m15.892 16.568c6.238 6.316 11.486 11.338 11.663 11.161.375-.375-21.754-22.644-22.502-22.644-.275 0 4.602 5.167 10.839 11.483m12.974 11.866c0 1.023 9.381 9.603 9.915 9.069.23-.23.222-.53-.017-.668s-2.564-2.256-5.167-4.708c-2.602-2.452-4.731-4.114-4.731-3.693m644.836 9.458c-4.216 3.681-7.703 7.077-7.75 7.546-.048.469 3.176-2.006 7.163-5.5 9.434-8.269 10.048-8.864 9.072-8.796-.451.031-4.27 3.069-8.485 6.75m-633.777.844c.061.884 11.131 10.49 15.773 13.687 2.157 1.485 2.07 1.293-.45-1-8.71-7.926-15.376-13.445-15.323-12.687m610.252 18.752c-2.304 1.703-4.216 3.472-4.25 3.931s1.852-.641 4.189-2.443 4.438-3.415 4.667-3.584.229-.463 0-.654-2.302 1.046-4.606 2.75m-586.311.939c0 .283 2.813 2.633 6.25 5.221 3.438 2.589 6.813 5.151 7.5 5.694.688.544 1.244.595 1.238.115-.007-.479-1.47-1.84-3.25-3.023-1.781-1.183-5.15-3.584-7.488-5.337-2.338-1.752-4.25-2.953-4.25-2.67m575.768 6.972c-2.602 1.752-4.74 3.551-4.75 3.998-.018.828 8.755-5.135 9.623-6.541.713-1.153.281-.928-4.873 2.543m-11.165 8.163c-5.92 4.209-7.156 5.443-3.103 3.098 3.266-1.889 9.309-6.562 8.497-6.57-.277-.003-2.704 1.56-5.394 3.472m-530.103 9.278c1.265 1.36 17.414 11.252 18.323 11.224.373-.012-2.023-1.728-5.323-3.814-9.057-5.726-14.115-8.609-13-7.41m495.75 12.275c-2.888 1.656-5.25 3.245-5.25 3.532 0 .547 8.802-4.277 10.45-5.727 1.752-1.54.089-.838-5.2 2.195m-462.25 7.466c0 .668 14.122 7.716 14.567 7.27.2-.199-2.997-2.024-7.102-4.056-4.106-2.031-7.465-3.478-7.465-3.214m442.75 3.067c-3.712 1.906-6.75 3.689-6.75 3.963 0 .275 3.15-1.087 7-3.026s7-3.744 7-4.013c0-.67.28-.789-7.25 3.076m-426.75 4.936c0 .871 15.157 7.677 15.758 7.076.291-.29-.324-.83-1.365-1.199-2.39-.847-10.331-4.321-12.643-5.531-.962-.503-1.75-.659-1.75-.346m20.429 9.465c2.16 1.12 4.41 2.018 5 1.996 1.446-.054-3.308-2.547-6.429-3.371-1.46-.386-.866.186 1.429 1.375m16.571 6.449c0 .55 13.272 5.603 14.521 5.529.793-.048-13.348-5.942-14.255-5.942-.146 0-.266.186-.266.413m22 7.949c0 .66 11.102 3.869 11.614 3.357.219-.219-1.517-.949-3.858-1.623-2.341-.673-5.044-1.45-6.006-1.727s-1.75-.28-1.75-.007m293 1.597c-3.025 1.009-5.119 1.882-4.654 1.938 1.22.148 11.654-2.957 11.654-3.468 0-.678-1.126-.432-7 1.53m-171.25 21.764c1.788.222 4.712.222 6.5 0 1.788-.221.325-.403-3.25-.403s-5.038.182-3.25.403m49.978-.001c1.775.221 4.925.224 7 .008 2.074-.217.622-.397-3.228-.402-3.85-.004-5.548.173-3.772.394" fill="#e7ac46"/><path d="m445.5 1.531c-38.029 3.096-68.861 8.758-103.825 19.068-6.696 1.975-13.593 4.223-15.326 4.996s-3.534 1.405-4.003 1.405c-2.917 0-37.116 14.35-54.346 22.804-17.87 8.767-51.703 28.583-60.5 35.434-.55.428-5.725 4.28-11.5 8.56-13.112 9.717-20.352 15.258-21 16.073-.275.346-3.2 2.864-6.5 5.596-15.652 12.957-40.842 38.187-53.446 53.533-2.937 3.575-5.613 6.725-5.947 7-.913.752-6.35 7.841-15.177 19.789-4.352 5.891-8.256 11.161-8.674 11.711-2.25 2.956-12.716 19.282-17.951 28-9.783 16.291-21.944 40.497-29.894 59.5-4.089 9.773-10.411 26.38-10.411 27.346 0 .469-.632 2.27-1.405 4.003-3.239 7.262-11.869 39.099-15.492 57.151-9.135 45.515-11.925 87.735-8.589 130 1.521 19.278 1.995 23.374 4.97 43 3.504 23.107 13.082 62.145 19.014 77.5.744 1.925 2.572 6.875 4.062 11 2.233 6.181 6.635 17.206 11.38 28.5 8.511 20.256 37.71 71.97 44.788 79.321.699.727 1.272 1.671 1.272 2.097 0 .427.787 1.703 1.75 2.835.962 1.133 5.189 6.715 9.391 12.403 4.203 5.689 9.997 13.044 12.875 16.344s7.754 8.925 10.835 12.5c16.091 18.671 47.761 47.945 68.316 63.147 5.133 3.797 10.021 7.477 10.863 8.179 2.631 2.197 23.99 16.074 34.97 22.722 9.781 5.922 42.736 22.981 49.5 25.624 1.65.645 7.275 2.949 12.5 5.121 48.174 20.021 98.465 31.526 153.83 35.192 61.371 4.064 130.462-5.816 189.67-27.121 6.05-2.177 13.025-4.82 15.5-5.873 2.475-1.052 9-3.78 14.5-6.06 15.912-6.598 37.331-17.598 55-28.247 6.749-4.067 30.875-19.917 31.5-20.694.275-.342 2.74-2.147 5.477-4.011 2.738-1.863 5.663-3.945 6.5-4.625.838-.681 5.348-4.287 10.023-8.014 4.675-3.726 10.075-8.179 12-9.895 18.182-16.205 23.66-21.308 31.16-29.029 4.763-4.904 11.935-12.741 15.938-17.416s7.876-9.101 8.605-9.837c.73-.735 2.558-2.985 4.062-5 1.504-2.014 3.381-4.338 4.17-5.163s4.078-5.1 7.31-9.5c3.231-4.4 6.456-8.715 7.167-9.588 1.812-2.229 17.951-26.778 19.993-30.412.927-1.65 3.451-5.925 5.609-9.5 4.287-7.103 20.07-38.206 23.85-47 21.5-50.02 34.885-104.098 38.241-154.5.586-8.8 1.477-16.781 1.98-17.736 1.155-2.193 1.213-38.462.063-39.173-.469-.289-1.17-6.24-1.558-13.222-2.852-51.333-17.24-110.085-39.274-160.369-4.097-9.349-18.698-38.435-22.375-44.572-8.26-13.784-24.613-39.293-25.917-40.428-.316-.275-3.021-3.875-6.012-8-6.109-8.427-15.702-20.511-20.994-26.446-12.028-13.489-16.357-18.095-25.43-27.054-18.23-18.001-31.346-29.453-48.246-42.122-6.513-4.883-12.437-9.44-13.163-10.128-.727-.688-1.708-1.25-2.179-1.25s-1.452-.566-2.179-1.258c-7.897-7.516-57.285-35.404-79.321-44.79-9.106-3.879-22.29-9.149-28.5-11.392-4.125-1.49-9.075-3.307-11-4.038s-9.8-3.172-17.5-5.424c-56.268-16.458-116.532-23.002-171-18.567m38 75.448c-7.729 1.287-17.484 3.771-18.807 4.787-.656.505-3.067 1.645-5.357 2.533-7.025 2.726-16.812 9.532-26.982 18.763-2.743 2.49-16.354 18.502-16.354 19.24 0 .306-1.861 3.359-4.136 6.783-7.901 11.895-16.962 32.925-21.077 48.915-6.267 24.353-8.351 43.926-7.454 70 1.06 30.751 9.486 61.514 21.827 79.68 1.562 2.299 2.84 4.485 2.84 4.856 0 1.193 9.65 12.967 15.074 18.39 7.529 7.529 20.711 17.074 23.581 17.074.74 0 1.345.356 1.345.792 0 .634 13.911 6.123 19.847 7.832 1.118.322 1.231 9.177.668 52.132-.934 71.165-4.56 203.515-6.432 234.744-.56 9.35-1.284 24.2-1.607 33-.551 14.99-1.359 29.005-4.959 86-1.348 21.335-3.634 51.126-5.105 66.501l-.621 6.501 4.854 1.337c2.67.736 6.132 1.738 7.692 2.228 6.895 2.163 33.47 3.326 48.662 2.129 13.464-1.06 29.279-4.126 31.248-6.058.411-.403.303-4.311-.24-8.685-.544-4.374-1.452-14.028-2.019-21.453s-1.468-18.675-2.003-25-1.633-20.95-2.44-32.5c-.808-11.55-1.941-27.75-2.519-36-1.665-23.778-4.102-67.129-5.059-90-.483-11.55-1.349-29.55-1.924-40-1.182-21.466-2.153-48.378-5.033-139.5-1.104-34.925-2.12-66.65-2.259-70.5l-.251-7-8-.551c-4.4-.303-9.325-1.261-10.944-2.129l-2.944-1.579 5.444-.694c6.006-.765 16.514-3.094 21.944-4.863 5.502-1.792 22.224-10.377 25.128-12.9 1.446-1.256 4.821-4.053 7.5-6.215 2.68-2.162 7.572-7.051 10.872-10.864 3.3-3.814 6.563-7.525 7.25-8.248.688-.723 1.25-1.579 1.25-1.904 0-.324 1.688-3.399 3.75-6.833 7.437-12.384 13.876-27.982 16.19-39.22.453-2.2 1.539-7.375 2.414-11.5 6.045-28.504 4.242-68.531-4.503-100-2.312-8.319-6.451-20.15-8.396-24-.694-1.375-2.652-5.425-4.35-9s-3.647-7.4-4.331-8.5c-.685-1.1-3.005-4.925-5.157-8.5-7.238-12.026-21.799-27.648-32.617-34.994-17.021-11.558-39.61-17.674-55.5-15.027m-274.5 228.632c-12.08.583-26.501 2.299-41.5 4.936-16.377 2.88-23.134 4.496-45.66 10.926l-16.66 4.755-.592 6.636c-4.514 50.577-7.216 87.971-6.67 92.282.045.355 6.72-1.328 14.832-3.742 15.438-4.593 40.674-10.635 51.93-12.433 3.63-.58 13.62-1.477 22.199-1.994 28.202-1.699 52.493 1.368 67.388 8.509 11.576 5.549 20.238 17.653 22.612 31.596 1.162 6.823 1.507 15.918.604 15.918-1.229 0-25.287 5.381-39.983 8.944-8.8 2.132-21.4 5.099-28 6.591-26.655 6.027-47.234 11.7-55.833 15.391-2.658 1.141-5.234 2.074-5.725 2.074-1.044 0-11.873 4.87-20.413 9.18-22.34 11.276-40.366 28.688-50.54 48.82-8.378 16.578-11.485 33.695-10.707 58.991.445 14.493.989 19.231 3.155 27.509 5.922 22.628 17.325 39.18 35.426 51.424 29.594 20.018 81.939 23.907 121.137 9.002 12.374-4.705 24.983-13.716 39.25-28.047l12.75-12.808v45.929h114l-.009-137.25c-.005-84.444-.398-141.656-1.022-148.701-1.138-12.868-3.877-27.349-7.006-37.049-2.74-8.497-10.214-23.956-13.427-27.775-1.395-1.658-2.536-3.413-2.536-3.9 0-.488-4.179-4.947-9.286-9.91-19.078-18.537-43.02-28.815-79.214-34.006-9.79-1.405-54.854-2.554-70.5-1.798m628.5 1.925c-15.901 1.907-29.261 5.879-42.5 12.636-7.398 3.776-9.101 4.957-18.027 12.501-6.191 5.232-15.167 15.585-20.336 23.454-5.267 8.018-14.507 26.021-18.027 35.123-6.51 16.834-7.513 19.608-9.135 25.25-.948 3.3-2.085 6.9-2.527 8-.441 1.1-1.249 3.35-1.796 5-.682 2.059-1.019-16.378-1.073-58.75-.072-55.927-.23-61.75-1.68-61.75-1.75 0-31.951 3.433-70.399 8.002-13.475 1.602-28.246 3.206-32.824 3.566-4.742.372-8.508 1.144-8.751 1.793-.235.626-.539 87.202-.676 192.389l-.249 191.25h114.5l.016-233.5 2.242-1.107c1.233-.609 7.417-3.722 13.742-6.918 11.585-5.853 22.952-10.368 32.88-13.059 2.958-.802 5.693-1.652 6.077-1.889 1.573-.973 21.34-4.629 32.543-6.021 6.6-.819 19.529-1.494 28.731-1.498 16.549-.008 16.736-.032 17.176-2.258.396-2.006 1.747-32.838 4.697-107.208.523-13.177.727-24.54.455-25.25-.632-1.645-10.076-1.553-25.059.244m-837.081 173.464c0 10.725.147 15.113.327 9.75.179-5.363.179-14.137 0-19.5-.18-5.363-.327-.975-.327 9.75m263.081 45.473c-35.563 9.946-59.439 22.453-70.338 36.845-13.61 17.97-12.036 45.932 3.22 57.232 7.715 5.715 12.625 6.95 27.618 6.95 14.806 0 20.591-1.266 31-6.784 6.723-3.565 10.906-6.645 17.75-13.075l5.25-4.931v-39.855c0-31.248-.27-39.842-1.25-39.797-.687.033-6.65 1.569-13.25 3.415" fill="#df5b42"/></g></svg>