<svg xmlns="http://www.w3.org/2000/svg" xml:space="preserve" style="fill-rule:evenodd;clip-rule:evenodd;stroke-linejoin:round;stroke-miterlimit:2" viewBox="0 0 150 150"><path d="M17.342 17.436h21.566V30.93H17.342z" style="fill:#ec5424" transform="matrix(6.95546 0 0 11.1163 -120.62 -193.826)"/><path d="M63.886 27.5c-8.407 2.699-14.865 11.979-14.88 21.384-.017 10.323 5.412 16.918 22.494 27.324 16.655 10.145 19.786 13.656 19.786 22.188 0 10.316-6.052 15.604-17.856 15.604-8.273 0-13.94-2.441-18.773-8.088-3.413-3.987-6.657-5.145-6.657-2.376 0 .845.965 5.383 2.144 10.084l2.144 8.549 3.412-.64c1.965-.369 6.616.072 10.97 1.041 9.208 2.049 15.722 1.451 22.999-2.109 15.19-7.432 18.953-27.196 7.685-40.361-1.946-2.273-9.927-8.335-17.736-13.472-7.809-5.136-15.002-10.565-15.984-12.064-4.046-6.175-2.872-14.356 2.457-17.111C67.636 36.654 71.535 36 74.755 36c7.784 0 14.037 3.81 17.976 10.952 1.916 3.473 3.4 5.024 4.816 5.034 1.895.013 2.023-.491 1.721-6.736-.698-14.44-1.734-17.384-4.974-14.144-.808.808-2.937.374-7.904-1.613-8.236-3.295-16.238-4.004-22.504-1.993" style="fill:#f4f0e7"/></svg>