<svg xmlns="http://www.w3.org/2000/svg" xml:space="preserve" fill-rule="evenodd" stroke-linejoin="round" stroke-miterlimit="2" clip-rule="evenodd" viewBox="0 0 180 180"><path fill="#fff" d="M0 0h180v180H0z"/><path fill="#ec1f27" d="M85.525 16.405c-6.066 6.431-7.425 20.713-2.615 27.468 1.269 1.783 2.147 3.349 1.949 3.48-.197.131-2.67.948-5.495 1.814l-5.137 1.576-4.363-16.96c-2.4-9.329-4.663-17.448-5.029-18.043-1.156-1.882-5.45 1.834-7.851 6.793-1.831 3.783-2.153 5.776-1.747 10.831.728 9.064 3.555 13.909 9.869 16.91l5.155 2.45-4.807 3.308-4.807 3.307-2.862-3.419c-1.573-1.881-5.881-7.787-9.573-13.123-3.692-5.337-6.952-9.725-7.246-9.75C39.46 32.915 37 39.365 37 43.444 37 53.061 45.903 63 54.518 63h2.618l-2.244 3.25c-1.234 1.787-2.388 3.435-2.563 3.662-.176.226-6.387-3.261-13.803-7.75C31.11 57.673 24.619 54 24.101 54c-.518 0-1.239 1.35-1.601 3-2.645 12.044 14.019 23.508 26.82 18.451 1.635-.646 1.75-.322 1.129 3.165-.38 2.136-1.092 4.316-1.58 4.844-.566.611-6.243.356-15.627-.702-8.105-.915-15.068-1.332-15.472-.928-1.318 1.318 3.143 8.686 6.477 10.699 4.372 2.639 16.123 2.769 20.012.221C47.877 90.38 48 90.448 48 94.833v3.833l-16.25 2.782c-8.937 1.53-16.597 3.1-17.021 3.488-1.329 1.217 5.232 9.15 8.801 10.641 7.445 3.111 15.881 1.135 21.988-5.149l4.291-4.415 1.095 3.143c.603 1.728 1.096 3.709 1.096 4.4 0 .692-6.785 5.187-15.077 9.989-16.13 9.34-16.494 9.837-9.024 12.324 11.1 3.694 24.874-2.482 26.779-12.009.315-1.573.853-2.828 1.197-2.788.344.04 1.952 1.666 3.573 3.614l2.948 3.542-3.076 2.636c-6.493 5.562-16.135 20.008-14.799 22.17.935 1.513 7.248 1.133 10.779-.648 7.252-3.658 12.7-11.313 12.7-17.846 0-1.947.158-3.54.351-3.54.193 0 1.88.49 3.75 1.088 1.869.599 3.936 1.249 4.591 1.447.815.245-.402 5.13-3.846 15.439-2.771 8.295-4.785 15.744-4.474 16.554.401 1.044 2.132 1.472 5.96 1.472 4.546 0 5.826-.431 8.132-2.737 6.609-6.609 8.508-16.973 4.536-24.763-1.1-2.158-2-4.013-2-4.123 0-.109 2.659-.352 5.908-.538l5.908-.339.576 7c.316 3.85.866 11.172 1.222 16.272.356 5.099 1.054 9.523 1.551 9.83.497.307 2.547-.294 4.555-1.336 4.635-2.406 7.557-7.941 8.091-15.329.494-6.826-1.556-11.85-6.415-15.727l-3.302-2.635 5.621-2.287c3.091-1.257 5.716-2.174 5.833-2.037.117.137 3.464 6.324 7.439 13.749 3.975 7.425 7.575 13.874 8.002 14.332 1.093 1.174 4.665-1.277 5.94-4.075 1.495-3.281 1.337-12.684-.277-16.548-1.65-3.948-8.092-8.582-13.052-9.386-2.021-.329-3.546-.873-3.388-1.21 1.025-2.183 5.416-8.09 6.023-8.101.404-.006 6.704 4.238 14 9.433 11.795 8.398 13.404 9.263 14.515 7.809 1.92-2.513 1.53-10.31-.684-13.668-4.306-6.532-14.318-10.567-22.44-9.044l-3.469.651 1.721-5.563c.946-3.059 1.927-5.768 2.179-6.021.252-.252 7.655 1.07 16.451 2.938 8.795 1.868 16.779 3.409 17.742 3.424 2.268.037 2.4-5.813.227-10.015-1.674-3.238-8.76-7.281-14.627-8.346-4.655-.846-12.531.864-16.179 3.513-1.555 1.129-2.955 1.901-3.11 1.715-.155-.186-.55-3.347-.878-7.025l-.596-6.687 3.207-1.019c1.763-.561 7.931-2.184 13.706-3.607 13.578-3.346 17-4.459 17-5.529 0-.481-1.594-2.423-3.542-4.315-5.886-5.716-13.998-6.598-21.958-2.386-3.711 1.963-9.5 7.249-9.5 8.674 0 2.38-1.744.775-4.015-3.694-1.328-2.612-2.43-5.14-2.449-5.617-.02-.477 6.039-4.362 13.464-8.633 7.425-4.271 13.5-8.368 13.5-9.103 0-3.593-13.236-5.296-19.782-2.545-4.588 1.928-9.581 7.427-10.778 11.87l-1.025 3.807-4.477-3.743c-2.462-2.058-4.271-4.28-4.018-4.938.252-.657 4.311-7.334 9.019-14.838C123.148 27.007 127 20.496 127 20.041c0-2.461-8.758-2.724-13.634-.411-8.015 3.804-12.783 14.65-10.612 24.139.595 2.601 1.007 4.789.914 4.864-.092.075-3.04-.333-6.55-.907l-6.383-1.044.657-11.091c.361-6.1.929-13.678 1.261-16.841.577-5.483.5-5.75-1.656-5.75-1.276 0-3.659 1.483-5.472 3.405"/></svg>