<svg xmlns="http://www.w3.org/2000/svg" xml:space="preserve" fill-rule="evenodd" stroke-linejoin="round" stroke-miterlimit="2" clip-rule="evenodd" viewBox="0 0 256 256"><path fill="#fbf9f9" d="M0 0h256v256H0z"/><path fill="#b52224" d="M111.8 21.9a107.1 107.1 0 0 0-16.9 207.9c9.7 3.2 23.7 5.6 33.2 5.6 9.5 0 23.5-2.4 33.2-5.6a107.5 107.5 0 0 0 72.2-81.2 131 131 0 0 0 0-41.3c-12.3-57.1-65-94-121.7-85.4m3.9 8.1a98.7 98.7 0 0 0-75.3 142.8A98.2 98.2 0 0 0 170 217a97.9 97.9 0 0 0 43.4-39.7A98.7 98.7 0 0 0 115.7 30m-4.2 9.9a89.2 89.2 0 0 0-72.8 88c0 38.1 23.2 71.1 59.1 84.2 5.6 2 18.8 5.2 21.8 5.2.5 0 .8-37.8.8-89.4 0-84.6-.1-89.4-1.5-89.3-.8 0-4.2.6-7.4 1.3m24.4 88c0 51.6.3 89.4.7 89.4a89.7 89.7 0 0 0 77-62.6c3-9.6 3-9.6-2-9.6h-4.2l-2 6.2c-6 20-19.8 37.1-38.6 47.8a109 109 0 0 1-21.4 7.9c-.7 0-1-22-1-79 0-43.6.4-79.2.8-79.2 1.4 0 10.2 2.9 15.2 5 11.8 4.9 26.6 17 33.8 27.5 4.7 7 9 16 11.3 23.2l1.9 6.2h4.2c5 0 5 0 2-9.6a89.4 89.4 0 0 0-75.4-62.3l-2.3-.4v89.5m-34-76.4A80.9 80.9 0 0 0 50.3 106a56 56 0 0 0-2.4 22 56 56 0 0 0 2.4 21.8 80.6 80.6 0 0 0 60.6 57.2c.7 0 1-22 1-79 0-62.8-.2-79.2-1-79.1-.7 0-4.6 1.1-8.8 2.6"/></svg>