<svg xmlns="http://www.w3.org/2000/svg" xml:space="preserve" fill-rule="evenodd" stroke-linejoin="round" stroke-miterlimit="2" clip-rule="evenodd" viewBox="0 0 256 256"><path fill="#fff" d="M0 0h256v256H0z"/><path fill="#2c2c2c" d="M102 25.6c-1.2 1.3-1.2 2 0 4.2 1.4 2.4 2.3 2.8 8.1 3.2a21 21 0 0 1 8.3 2c1.6 1.2 4.6 6.2 4.6 7.4 0 .3-20.9.7-46.4.8-55.7.4-52-.6-52.4 12.7-.2 7-.5 8.1-2 8.1-3.2 0-6.2 3-6.2 6v3h224v-3c0-3-3-6-6.2-6-1.6 0-1.8-1-1.8-7.4 0-6.5-.3-7.9-2.4-10.3l-2.4-2.8-47-.3-47-.3 1-2.8c1.6-4.9 4.4-6.6 11.6-7.1 5.9-.4 6.8-.8 8.1-3.2 1.3-2.2 1.3-2.9.2-4.2-1.2-1.4-4.7-1.6-26.1-1.6-21.4 0-25 .2-26 1.6M1.6 81c-1.9 1.1-2.2 5.3-.7 9.3C2.3 94 7.6 97 12.3 97c3.5 0 3.7.2 3.7 3 0 3.3 3.8 8 6.5 8 1.1 0 1.5 1.2 1.5 4.8 0 2.6 1.6 27.3 3.4 54.8 3.6 55.6 3.5 54.7 11 60.8l3.8 3.1 84.4.3c82.3.2 84.5.2 88.3-1.7 5.5-2.8 8.8-7.2 10-13.3.9-4.5 7.2-97.8 7.1-106 0-1.7.5-2.8 1.4-2.8.7 0 2.5-1 4-2 1.9-1.6 2.6-3 2.6-5.6 0-3.2.2-3.4 3.6-3.4 4.7 0 9-2.4 11.4-6.3 2.2-3.6 2.6-9.2.8-9.7-.7-.2-57.8-.5-126.8-.6-84.4-.2-126 0-127.3.7M.4 85.5c0 2.2.2 3 .4 1.7.2-1.2.2-3 0-4-.3-1-.5.1-.4 2.3m47.4 24.1c-.4.4-.7 21.8-.7 47.6V204h19v-71l2 1c4 2.2 10.1 8.4 12.3 12.4 1.7 3.3 2.3 6.4 2.7 16.1l.5 12h16l.5-11.5c.4-8.6 1-12.5 2.5-15.5a42 42 0 0 1 12.4-13.4l2.1-1.2V204h19v-47.5c0-44.6-.1-47.5-1.8-47.5a59.6 59.6 0 0 0-36.4 16l-6.2 5.9-6.3-6a55.8 55.8 0 0 0-23.4-13.2c-7.3-2.1-13.3-3-14.2-2m98.5.1c-1 .7-1.2 10.8-1 47.3l.3 46.4h19l.3-14.6.3-14.7 11.7-.4c19.7-.8 30-5.7 35.7-17.3 2.6-5.3 3-7 3-14.5a28 28 0 0 0-2.1-13c-4.5-9.8-12.8-15.7-24.9-17.9-7.6-1.3-40.6-2.3-42.3-1.3m18.8 32.7V157h8c11.5 0 17.8-1.6 21.7-5.5 3-3 3.3-3.9 3.3-9s-.3-6-3.3-9c-3.9-3.9-10.2-5.5-21.7-5.5h-8v14.5"/></svg>