<svg clip-rule="evenodd" fill-rule="evenodd" stroke-linecap="round" stroke-linejoin="round" stroke-miterlimit="1.5" viewBox="0 0 192 192" xmlns="http://www.w3.org/2000/svg"><path d="m0 0h192v192h-192z" fill="#fff" stroke="#fff"/><path d="m24 96v96h144v-192h-144zm3 0v93h138v-186h-138zm1 0v92h136v-184h-136zm4-.004v88.504l64.005.006 64.006.006-.256-88.504-.255-88.504-127.5-.012zm28.02-82.033c-.641 1.197-1.653 1.731-2.595 1.37-1.023-.393-1.731.123-2.098 1.526-.305 1.165-.984 1.853-1.508 1.529s-1.187.304-1.473 1.395c-.374 1.431-1.096 1.834-2.59 1.443-1.744-.456-1.979-.188-1.487 1.694.474 1.812.03 2.428-2.342 3.255-3.583 1.249-3.821 2.825-.427 2.825 3.046 0 3.07.46.341 6.623-4.757 10.743-1.694 25.909 6.727 33.302 6.902 6.061 11.052 7.56 20.932 7.564 6.414.002 9.862-.463 12-1.621 1.842-.997 4.281-1.431 6.318-1.123 2.994.453 3.651 1.213 6.72 7.769 4.072 8.697 6.665 18.348 4.585 17.062-.482-.298-1.364-2.462-1.958-4.809-.84-3.315-2.21-5.159-6.141-8.267-4.704-3.719-7.134-4.77-14.299-6.186-2.721-.538-16.21 3.075-18.217 4.878-1.3 1.168.718 2.398 5.38 3.279 4.446.84 12.943 9.529 9.319 9.529-1.13 0-3.391-1.125-5.025-2.5-8.356-7.031-22.112 2.066-26.376 17.444-2.068 7.456-2.268 10.653-.726 11.605.594.367 1.719-.245 2.501-1.361s2.818-2.336 4.525-2.711c8.711-1.914 22.894-12.144 22.894-16.515 0-.961.712-2.021 1.582-2.355 2.537-.974 8.418-.699 8.418.393 0 .55-.494 1-1.099 1-4.905 0-12.901 8.596-12.901 13.869 0 1.107-.415 2.269-.922 2.583-.507.313-.785 3.015-.619 6.003.223 4.013 1.142 6.8 3.513 10.654 4.926 8.005 10.855 12.034 9.445 6.418-.637-2.541 1.342-10.443 4.687-18.712 2.111-5.217 2.627-17.245.789-18.381-.771-.477-.696-.944.25-1.544 2.641-1.673 3.585-.894 3.471 2.86-.102 3.364.143 3.75 2.386 3.75 2.148 0 2.47-.413 2.286-2.94-.251-3.435 1.203-5.56 3.801-5.56 4.501 0 4.387 8.189-.241 17.336-3.416 6.75-5.587 9.313-9.44 11.141-3.366 1.598-3.512 1.845-1.995 3.363 1.518 1.517 1.997 1.436 6.511-1.101 2.68-1.506 5.931-2.736 7.225-2.732s5.676 2.271 9.737 5.038l7.383 5.031 10.881-.149c7.445-.102 11.357.247 12.39 1.105 2.474 2.053 2.862.304 1.009-4.549-2.267-5.936-5.354-9.509-11.775-13.63-4.901-3.146-5.761-3.353-13.91-3.353-7.44 0-9.125.323-11.734 2.25-1.676 1.237-3.275 2.25-3.554 2.25-1.442 0 4.271-7.574 8.75-11.601 4.683-4.21 5.225-4.456 6.156-2.782 2.84 5.11 7.088 8.136 12.545 8.939 3.011.443 6.289.691 7.285.552.995-.14 3.33.906 5.188 2.323 4.105 3.131 4.858 2.282 2.933-3.307-3.145-9.127-8.79-13.857-17.103-14.33-4.938-.281-5.097-.376-3.522-2.124 1.222-1.357 2.431-1.663 4.671-1.186 9.77 2.084 10.966 1.914 14.454-2.058 2.846-3.242 3.219-4.274 2.764-7.664-.289-2.154-1.293-4.766-2.232-5.802-2.117-2.34-1.329-4.699 1.716-5.132 2.593-.37 3.882-3.828 1.426-3.828-.96 0-1.325-.566-.967-1.5.544-1.417-.533-1.935-3.312-1.592-.646.08-1.464-.767-1.818-1.882-.653-2.059-2.508-2.834-2.508-1.047 0 .594-.982.531-2.504-.163-2.814-1.282-4.487-.407-2.679 1.401.651.651 1.183 1.945 1.183 2.877 0 1.467-.551 1.57-4.115.769-2.263-.509-4.892-.678-5.842-.377-3.002.953-6.329 5.336-6.95 9.155l-.598 3.684-2.81-5.163c-1.545-2.839-3.22-5.162-3.722-5.162-.501 0-1.653 1.433-2.558 3.184-2.831 5.475-.837 15.045 4.784 22.961.962 1.354.652 2.098-1.761 4.218-1.61 1.416-3.199 2.588-3.531 2.605-.332.018-.385-2.241-.118-5.018.32-3.331-.296-8.295-1.811-14.583-2.987-12.401-2.308-14.991 3.829-14.599 7.59.484 18.181-7.142 24.703-17.788 1.334-2.178 3.495-3.808 6.491-4.897 2.783-1.012 4.628-2.344 4.851-3.501.277-1.438-.097-1.749-1.623-1.35-1.09.286-4.173-.039-6.851-.721-2.677-.681-6.914-1.121-9.414-.976-5.805.336-14.143 4.348-17.616 8.476-1.486 1.765-3.223 3.732-3.862 4.37-1.744 1.744-3.535 5.387-4.823 9.809-.634 2.177-1.603 3.922-2.153 3.878-1.644-.132-1.217-7.376.592-10.068 4.803-7.144 5.255-19.687 1.029-28.5-3.446-7.186-7.87-11.614-14.621-14.636-5.311-2.377-14.283-3.057-20.25-1.535-3.143.803-3.25.728-3.25-2.25 0-3.496-1.421-4.029-2.98-1.116m-.02 18.108c0 .59.679 1.751 1.509 2.581s1.283 1.876 1.006 2.324.169 1.072.991 1.388c.822.315 1.494 1.319 1.494 2.23 0 1.332-.63 1.53-3.219 1.012-2.601-.52-2.975-.4-1.946.625.7.698 2.711 1.269 4.469 1.269 2.889 0 3.177.272 2.997 2.83-.16 2.27.067 2.609 1.147 1.714.754-.626 1.102-2.05.791-3.239-.466-1.78-.208-2.03 1.603-1.557 1.497.392 2.158.109 2.158-.925 0-1.98 2.411-1.118 2.823 1.01.182.939-.31 1.667-1.127 1.667-.798 0-2.001.663-2.674 1.473-1.042 1.256-.766 1.246 1.858-.063 1.694-.845 3.301-1.893 3.57-2.329.921-1.49-6.39-8.833-10.912-10.958-5.063-2.38-6.538-2.617-6.538-1.052m6 8.37c0 2.054 2.07 3.063 3.046 1.485.452-.732.6-1.689.329-2.128-.84-1.36-3.375-.877-3.375.643m-11 1.559c0 .55.477 1 1.059 1s.781-.45.441-1-.816-1-1.059-1-.441.45-.441 1m6 3.893c0 .491.739 1.176 1.641 1.523 1.373.527 1.435.38.378-.893-1.44-1.735-2.019-1.916-2.019-.63m-5 .516c0 .19.675.906 1.5 1.591.865.718 1.5.815 1.5.229 0-.558-.675-1.274-1.5-1.591-.825-.316-1.5-.419-1.5-.229m24.564.884c.376.986.935 1.541 1.243 1.233.308-.307.001-1.114-.683-1.793-.988-.98-1.102-.865-.56.56m-7.103 3.643c.318.515 1.438.872 2.489.793 2.492-.188 1.539-1.729-1.068-1.729-1.1 0-1.74.421-1.421.936m-10.128.731a.948.948 0 0 0 1.334 0c.366-.367.066-.667-.667-.667s-1.033.3-.667.667m3.087.462c-.503.814-.242 1.017.794.619 2.286-.877 3.905 1.161 2.704 3.405-.583 1.09-.608 1.847-.062 1.847.863 0 2.604-4.923 1.943-5.494-1.317-1.136-4.761-1.377-5.379-.377m12.58.371c0 .825.436 1.5.969 1.5.532 0 .709-.675.393-1.5-.317-.825-.753-1.5-.969-1.5s-.393.675-.393 1.5m-18 1.378c0 1.008 2.892 3.605 3.357 3.015.171-.216-.515-1.181-1.524-2.143-1.008-.962-1.833-1.355-1.833-.872m13 1.122c0 .733.3 1.033.667.667a.948.948 0 0 0 0-1.334c-.367-.366-.667-.066-.667.667m4.5 2c-.34.55-.141 1 .441 1s1.059-.45 1.059-1-.198-1-.441-1-.719.45-1.059 1m-1.5 5c-.901.582-1.025.975-.309.985.655.008 1.469-.435 1.809-.985.767-1.242.421-1.242-1.5 0m4.5 1c.34.55.843 1 1.118 1s.222-.45-.118-1-.843-1-1.118-1-.222.45.118 1m4.531.5c0 .55.436 1.675.969 2.5s.969 1.05.969.5-.436-1.675-.969-2.5-.969-1.05-.969-.5m-10.031 1.5c0 .55.477 1 1.059 1s.781-.45.441-1-.816-1-1.059-1-.441.45-.441 1m5.333 2.667a.948.948 0 0 0 1.334 0c.366-.367.066-.667-.667-.667s-1.033.3-.667.667m38.086 26.827c.045 3.022.349 5.497.676 5.5s1.39-.872 2.361-1.946c1.694-1.871 1.676-2.098-.426-5.5-1.206-1.951-2.305-3.548-2.442-3.548s-.213 2.472-.169 5.494m-75.419 53.433c0 .509.782 1.077 1.738 1.261 1.52.293 1.743 1.685 1.774 11.073.032 9.809-.126 10.739-1.822 10.739-1.021 0-1.681.527-1.466 1.172.543 1.629 11.992 1.679 12.534.054.235-.706-.474-1.226-1.675-1.226-1.833 0-2.083-.6-2.083-5v-5h12v5c0 3.895-.35 5-1.583 5-.871 0-1.414.51-1.206 1.133.22.659 2.646 1.134 5.789 1.134s5.569-.475 5.789-1.134c.208-.623-.335-1.133-1.206-1.133-1.348 0-1.583-1.632-1.583-11 0-9.111.258-11 1.5-11 .825 0 1.5-.45 1.5-1 0-.564-2.833-1-6.5-1s-6.5.436-6.5 1c0 .55.9 1 2 1 1.704 0 2 .667 2 4.5v4.5h-12v-4.5c0-3.333.389-4.5 1.5-4.5.825 0 1.5-.45 1.5-1 0-.556-2.667-1-6-1-3.3 0-6 .417-6 .927m41 .073c0 .55.675 1 1.5 1 1.241 0 1.5 1.876 1.5 10.883 0 10.437-.092 10.909-2.25 11.5-4.205 1.153-.09 2.156 8.582 2.094 8.976-.065 11.134-.943 12.747-5.186 1.172-3.082-.273-6.522-3.457-8.226-2.546-1.363-2.559-1.421-.611-2.785 2.516-1.763 2.603-6.415.16-8.625-1.387-1.256-3.8-1.655-10-1.655-4.781 0-8.171.415-8.171 1m33 0c0 .55.9 1 2 1 1.879 0 2 .667 2 11 0 10.48-.098 11-2.083 11-1.176 0-1.909.523-1.684 1.2.251.752 2.593 1.2 6.267 1.2s6.016-.448 6.267-1.2c.225-.677-.508-1.2-1.684-1.2-1.833 0-2.083-.6-2.083-5v-5h12v5c0 3.895-.35 5-1.583 5-.871 0-1.412.514-1.203 1.143.315.943 4.971 1.344 10.786.928 1.616-.115 1.144-2.071-.5-2.071-1.242 0-1.5-1.889-1.5-11s.258-11 1.5-11c.825 0 1.5-.45 1.5-1 0-.564-2.833-1-6.5-1s-6.5.436-6.5 1c0 .55.9 1 2 1 1.704 0 2 .667 2 4.5v4.5h-12v-4.5c0-3.333.389-4.5 1.5-4.5.825 0 1.5-.45 1.5-1 0-.556-2.667-1-6-1s-6 .444-6 1m-24 5.5c0 4.239.194 4.612 2.25 4.32 1.905-.271 2.25-.933 2.25-4.32s-.345-4.049-2.25-4.32c-2.056-.292-2.25.081-2.25 4.32m.192 12.182c.282 4.407.54 4.845 3.023 5.131 2.177.251 2.838-.174 3.333-2.148 1.23-4.901.227-7.139-3.356-7.483l-3.307-.317z" fill="#4c4c34" transform="matrix(.86782 0 0 .86782 12.689 12.689)"/></svg>