<svg clip-rule="evenodd" fill-rule="evenodd" stroke-linecap="round" stroke-linejoin="round" stroke-miterlimit="1.5" viewBox="0 0 120 120" xmlns="http://www.w3.org/2000/svg"><path d="m0 0h85.973v66.485h-85.973z" fill="#fafafa" stroke="#fafafa" stroke-width=".62" transform="scale(1.39579 1.80491)"/><path d="m67.513 34.507c-2.192.781-4.555 2.198-5.25 3.148-1.931 2.641-1.59 7.106.596 7.8 3.113.988 5.067-.467 6.181-4.602 1.289-4.79 4.683-6.575 8.773-4.613 3.461 1.659 5.164 5.233 5.128 10.76-.057 8.861-2.832 13.794-16.466 29.269l-8.574 9.731h35.093l1.364-3.25c.749-1.787 1.174-3.588.943-4-.23-.412-6.293-.75-13.473-.75h-13.054l9.536-9.025c10.625-10.056 13.69-15.068 13.69-22.391 0-4.078-.487-5.271-3.297-8.081-5.231-5.231-13.397-6.771-21.19-3.996m-36.513-.193c0 .172-.674 5.423-1.498 11.669-.823 6.245-1.297 11.555-1.052 11.8s2.411-.506 4.814-1.669c7.574-3.666 12.848-2.484 15.321 3.434 3.065 7.337.527 20.716-4.434 23.371-2.748 1.471-8.848 1.366-9.842-.169-.445-.687-1.272-2.825-1.837-4.75-1.116-3.799-4.364-5.164-7.027-2.954-2.064 1.712-1.799 3.379 1.078 6.799 4.718 5.607 17.551 6.065 25.19.898 6.777-4.583 9.503-16.596 5.322-23.453-2.747-4.506-8.69-7.29-15.561-7.29-3.083 0-6.514.486-7.625 1.081s-2.234.867-2.496.605-.165-3.223.215-6.581l.69-6.105h10.896c10.775 0 10.906-.028 11.871-2.565.536-1.411.975-2.986.975-3.5 0-.53-5.414-.935-12.5-.935-6.875 0-12.5.141-12.5.314" fill="#362f31"/></svg>