<svg xmlns="http://www.w3.org/2000/svg" xml:space="preserve" fill-rule="evenodd" stroke-linejoin="round" stroke-miterlimit="2" clip-rule="evenodd" viewBox="0 0 192 192"><path fill="#f6e6db" d="M0 0h192v192H0z"/><path fill="#f1c0b2" d="M89.381 4.306c-3.585 1.372-8.94 5.469-8.163 6.245.74.74 6.121-1.753 7.082-3.28.97-1.543 8.73-1.668 13.926-.225 2.05.569 5.766 2.592 8.259 4.495C115.108 15.069 117 15.784 117 14c0-.57 3.33-1.052 7.75-1.12 7.63-.118 7.682-.136 3.365-1.171-3.101-.742-5.577-.732-8.456.036-3.733.997-4.322.874-7.115-1.484-7.352-6.21-16.411-8.538-23.163-5.955M58.5 10.481l-6 2.378 4.05.071c2.227.038 4.58-.46 5.228-1.108.648-.648 5.126-1.388 9.95-1.644 5.701-.302 8.072-.74 6.772-1.251-4.142-1.628-13.88-.871-20 1.554m46.833 2.186a.948.948 0 0 0 1.334 0c.366-.367.066-.667-.667-.667-.733 0-1.033.3-.667.667M47 14c0 .733.3 1.033.667.667a.948.948 0 0 0 0-1.334C47.3 12.967 47 13.267 47 14m40.299 4.5.201 6 6.5.114c6.449.113 6.459.109 1.235-.5l-5.264-.614 3.569-2.836c1.963-1.56 4.219-2.587 5.014-2.281 1.059.406 1.446-.233 1.446-2.39 0-2.746-.172-2.878-2.565-1.968-3.603 1.37-9.166 1.214-9.803-.275-.294-.687-.444 1.45-.333 4.75m20.716-1.441c.011 2.983.308 3.98.905 3.036 1.333-2.106 5.888 3.241 6.624 7.777 1.077 6.632 1.223 6.674 1.34.378.066-3.577-.312-6.25-.884-6.25-.55 0-1-.702-1-1.559 0-.876.48-1.262 1.096-.882.68.421.962-.031.742-1.191-.235-1.234-1.37-1.974-3.347-2.18-1.645-.172-3.553-1.045-4.241-1.941-1.056-1.377-1.248-.942-1.235 2.812M73 16.327c0 .905.953 1.187 3 .886 1.65-.242 3-.839 3-1.326 0-.488-1.35-.887-3-.887-1.826 0-3 .519-3 1.327m15.452.555c-.249.248-.452 1.771-.452 3.383v2.932l3.344-2.849c1.84-1.566 3.187-3.039 2.993-3.272-.488-.588-5.332-.748-5.885-.194m51.256 2.128c-.287 1.095-.225 2.009.136 2.032.361.023 2.456 2.459 4.656 5.413 2.824 3.792 5.051 5.687 7.574 6.445 7.224 2.172 16.888 14.834 16.916 22.163.006 1.556 1.225 3.716 3.103 5.5 1.702 1.615 4.237 5.179 5.635 7.92 2.38 4.666 2.501 5.603 1.905 14.707-.554 8.458-.361 10.463 1.49 15.409 2.816 7.526 2.131 14.451-2.308 23.318-2.324 4.642-3.322 8.057-3.385 11.583-.121 6.711-2.217 10.342-10.874 18.834-4.018 3.941-8.036 8.604-8.929 10.362-1.838 3.62-4.989 7.152-8.545 9.578-2.186 1.491-2.527 1.5-3.561.086-.916-1.253-1.06-.849-.723 2.038l.421 3.602-11.36.132c-6.256.072-9.855.409-8.012.75l3.347.618-2.847 2.033c-4.969 3.548-13.936 5.748-20.243 4.966-3.082-.382-6.969-1.261-8.637-1.955-2.07-.86-6.268-1.105-13.223-.77-6.359.306-11.329.065-13.217-.642a859.024 859.024 0 0 1-6.277-2.382l-3.25-1.25 4-.608c2.293-.349-.694-.606-7-.603-8.147.004-9.573.167-5.5.629 3.025.343 6.682 1.418 8.127 2.388 5.728 3.844 18.527 6.06 26.496 4.587 4.247-.785 6.044-.682 8.621.497 9.157 4.188 23.464 2.59 30.995-3.462 3.156-2.536 4.977-3.146 10.866-3.64 4.56-.382 7.259-1.072 7.592-1.941.284-.741 1.041-1.347 1.682-1.347 2.015 0 8.501-5.961 11.78-10.827 1.732-2.57 6.614-8.273 10.848-12.673 8.447-8.778 10.613-13.223 9.582-19.667-.504-3.151-.201-4.511 1.48-6.647 3.313-4.211 5.018-9.136 5.628-16.249.461-5.393.173-7.443-1.618-11.492-1.96-4.43-2.112-5.952-1.503-15.038.821-12.265-.192-15.994-6.075-22.351-3.042-3.288-4.397-5.735-4.868-8.793-1.413-9.178-9.098-18.47-17.231-20.834-3.298-.959-5.51-2.272-6.247-3.707-1.379-2.686-3.1-5.435-5.291-8.45-1.586-2.183-1.652-2.191-2.156-.262m-93.214 2.019C45.975 23.388 45.309 24 43.258 24c-3.832 0-10.938 4.576-14.289 9.201-1.62 2.237-3.477 6.594-4.126 9.683-1.064 5.062-1.633 5.912-5.762 8.616C11.999 56.137 9.5 62.018 9.5 74.044c0 7.261-.403 10.158-1.684 12.113-4.037 6.163-4.28 23.97-.412 30.156.752 1.203 1.607 5.787 1.899 10.187.291 4.4 1.266 9.443 2.165 11.207 1.854 3.635 9.259 9.928 10.328 8.777.387-.417.183-.945-.454-1.173-1.842-.662-4.738-3.527-7.389-7.311-2.086-2.976-2.464-4.699-2.529-11.5-.05-5.288-.669-9.356-1.827-12-3.462-7.905-2.929-22.292 1.052-28.367 1.223-1.867 1.678-5.006 1.752-12.078.119-11.512 1.906-15.858 8.599-20.916 3.745-2.83 4.759-4.343 6.043-9.02 2.771-10.095 7.175-14.974 15.589-17.271 2.127-.581 4.382-1.474 5.01-1.985 1.786-1.453 2.182-4.304.78-5.614-1.011-.944-1.411-.574-1.928 1.78m25.259-1.087c-2.378.883-.447 4.451 3.749 6.927 2.215 1.307 3.522 1.665 3.286.9-.215-.698-1.821-1.944-3.568-2.769-1.747-.825-3.186-1.837-3.198-2.25-.02-.682 2.537-1.137 5.728-1.019.688.026 1.25-.302 1.25-.729 0-1.007-5.301-1.782-7.247-1.06M64 32v12h-6.849l2.06 2.312c2.502 2.809 6.396 9.196 7.888 12.938.603 1.513 1.517 2.75 2.03 2.75 1.778 0 2.103-3.097 1.239-11.779-.794-7.974-1.061-8.748-3.118-9.041-1.947-.276-2.25-.916-2.25-4.75 0-2.609.461-4.43 1.122-4.43.784 0 .753-.446-.102-1.476-.71-.856-1.074-3.378-.865-6 .198-2.488.019-4.524-.398-4.524-.416 0-.757 5.4-.757 12m61-9.571c0 2.445.257 2.567 5.25 2.492 5.317-.08 5.399-.274.57-1.335-1.474-.324-3.387-1.295-4.25-2.159-1.427-1.426-1.57-1.335-1.57 1.002M108.36 31c0 5.225.169 7.362.375 4.75.206-2.613.206-6.888 0-9.5-.206-2.613-.375-.475-.375 4.75M136 23.848c0 .505.9 1.154 2 1.442 1.1.287 2 .356 2 .152 0-.205-.9-.853-2-1.442-1.105-.591-2-.659-2-.152m-83.5 2.754c-1.1.847-1.901 1.918-1.779 2.381.121.463-1.115 1.307-2.748 1.877C43.845 32.298 37.655 38.75 26 53.762c-1.375 1.771-3.036 3.224-3.691 3.229-.655.005-1.4.347-1.656.759-.256.413 1.742.594 4.44.404 2.698-.191 4.655-.754 4.347-1.25-.307-.497.108-.904.922-.904.866 0 1.755 1.347 2.144 3.25C33.824 65.691 35.335 70 36.275 70c.527 0 .711-.787.409-1.75s-1.225-4.154-2.05-7.091c-.826-2.938-2.261-5.897-3.191-6.577-1.538-1.125-1.345-1.719 2.172-6.659 2.123-2.982 4.635-6.276 5.582-7.318 1.651-1.817 1.683-1.756.783 1.504-.516 1.869-.898 4.747-.85 6.395.048 1.648-.419 6.101-1.038 9.896-.619 3.794-.938 7.087-.708 7.317.229.23.727-1.413 1.105-3.65.643-3.807.9-4.067 4.026-4.067 2.338 0 3.475.524 3.796 1.75.347 1.329.485 1.214.573-.479.115-2.207.15-2.212 3.591-.5 2.095 1.042 3.533 2.524 3.619 3.729.091 1.272.374.908.779-1 .558-2.632 1.113-3.039 4.53-3.319 2.439-.2 4.206.173 4.73 1 .633.999.84.894.852-.431.011-1.253-.779-1.75-2.781-1.75-2.325 0-3.3-.883-5.789-5.244-4.047-7.091-5.736-7.206-8.206-.562-1.701 4.577-2.372 5.347-4.881 5.604l-2.909.297.694-8.076c.628-7.317 1.036-8.494 4.326-12.509 2.573-3.141 4.641-4.622 7.096-5.083C54.593 31.041 56 30.19 56 29.33c0-.797-.45-1.17-1-.83-.55.34-1 .141-1-.441S54.45 27 55 27s1-.45 1-1c0-1.397-1.16-1.198-3.5.602m20 4.069c2.75.842 5.331 2.049 5.735 2.68.487.763.74.614.75-.44.019-2.014-4.117-3.932-8.282-3.841-2.89.062-2.714.219 1.797 1.601m66.259.714c-1.642 1.247-1.628 1.424.25 3.123 1.921 1.738 1.991 1.736 1.991-.072 0-1.381 1.571-.319 5.974 4.038 3.285 3.251 5.771 6.114 5.524 6.361-.247.248-1.071-.066-1.83-.696-.76-.63-3.471-1.536-6.025-2.013-3.688-.689-4.643-.586-4.643.503 0 .995-1.713 1.422-6.25 1.556l-6.25.185 5.381.372c2.959.204 6.109.054 7-.334 4.453-1.94 10.106.61 16.032 7.23 3.795 4.241 4.066 4.852 2.429 5.496-1.739.685-1.741.729-.042.796.989.038 3.167.777 4.839 1.642 2.989 1.546 3.01 1.608 1.201 3.672-1.012 1.155-1.297 1.783-.633 1.395 1.866-1.089 5.809 8.158 6.762 15.861.136 1.1.839 6.1 1.561 11.11.966 6.7 1.035 10.273.262 13.5l-1.052 4.39-.12-3.559c-.066-1.957-.715-4.372-1.442-5.367-1.137-1.555-1.262-.974-.892 4.148.459 6.335-.706 9.754-4.802 14.094-1.202 1.274-1.959 2.543-1.682 2.819 1.087 1.088 4.666-2.237 6.294-5.848 2.347-5.205 2.676-4.253.895 2.586-1.731 6.647-1.804 7.366-.614 6.077 1.289-1.396 3.78-9.97 5.168-17.785 1.966-11.073-.117-24.645-6.627-43.185-3.503-9.977-6.568-14.832-13.418-21.254a737.574 737.574 0 0 1-8.095-7.754c-2.527-2.459-4.777-4.458-5-4.44-.223.017-1.188.626-2.146 1.353M87.152 37.75 87 44l-3.25.063c-2.8.055-2.958.182-1.14.916 1.605.649 2.271 2.07 2.784 5.937.57 4.291 1.004 5.084 2.783 5.084 2.003 0 2.069-.312 1.325-6.25-.431-3.437-1.101-8.95-1.49-12.25l-.707-6-.153 6.25m4.854-4.5c.003.688.484 2.974 1.069 5.082.585 2.107 1.37 6.607 1.745 10l.68 6.168 3.637.304c3.6.3 3.65.252 4.827-4.654.825-3.439 1.778-5.111 3.113-5.46 1.086-.284 1.873-1.305 1.807-2.346-.105-1.675-.158-1.684-.573-.094-.303 1.158-1.436 1.75-3.353 1.75-2.163 0-2.75.38-2.32 1.5.317.825.234 2.288-.184 3.25-.419.962-.804 2.418-.857 3.235-.057.872-1.092 1.492-2.506 1.5-2.199.014-2.425-.419-2.604-4.985-.243-6.212-2.516-16.5-3.646-16.5-.463 0-.838.563-.835 1.25m33.189 1.25c.02 1.65.244 2.204.498 1.231.254-.973.237-2.323-.037-3-.274-.677-.481.119-.461 1.769M74.406 45.745c.328 2.615.706 6.787.841 9.271l.246 4.517 3.146-1.426c3.095-1.403 3.125-1.484 1.863-5.017-.706-1.974-1.777-3.479-2.38-3.344-.603.135-1.031-.54-.951-1.5.325-3.889-.253-6.063-1.766-6.644-1.368-.525-1.51.062-.999 4.143m39.978-1.834C110.729 48.383 108 54.341 108 57.852c0 3.061-.213 3.311-2.25 2.636-1.237-.41-4.45-.96-7.139-1.223l-4.888-.477 2.638 2.846C97.813 63.199 99 64.753 99 65.088c0 .334 1.352.646 3.005.693 3.864.11 5.995 2.286 5.995 6.123 0 2.836-.172 2.981-2.5 2.096-1.375-.523-2.532-.624-2.57-.225-.039.399-.457-.175-.93-1.275-.726-1.69-.87-1.509-.93 1.168-.038 1.743-.379 3.993-.757 5-.557 1.483-.414 1.619.75.716.79-.613 2.674-1.339 4.187-1.611 2.611-.471 2.75-.3 2.75 3.366 0 3.219-.339 3.861-2.04 3.861-2.797 0-9.584 3.577-10.293 5.425-.881 2.296.562 2.609 4.899 1.064 2.164-.771 5.102-1.421 6.53-1.445 3.416-.058 8.836 2.669 11.692 5.882 1.863 2.096 2.158 2.203 1.589.574-.383-1.1-1.556-2.833-2.605-3.852-1.049-1.019-1.707-2.375-1.461-3.015.305-.796-.776-1.046-3.433-.793l-3.878.37V58h8.262l-.54 3.75c-.296 2.063-.317 3.188-.047 2.5.611-1.553 3.028-1.642 3.532-.13.205.616 1.615-.509 3.134-2.5 2.509-3.29 3.207-3.62 7.651-3.62 2.689 0 5.18.47 5.535 1.044.771 1.247-1.065 3.647-3.945 5.156-2.06 1.08-2.062 1.069-.177-1.054 1.048-1.181 1.652-2.146 1.343-2.146-.309 0-2.495 2.309-4.857 5.13l-4.295 5.13 3.452-1.781c5.256-2.711 15.924-11.777 15.939-13.545.007-.861-1.747-2.555-3.897-3.763l-3.91-2.198-2.172 3.514c-1.711 2.768-2.814 3.513-5.205 3.513-2.994 0-3.012-.032-1.418-2.465.888-1.355 1.615-2.713 1.615-3.017 0-.755-9.723 4.224-10.405 5.329-.518.837-5.595.387-5.595-.496 0-1.014 3.036-7.028 4.419-8.754.839-1.046 3.225-2.232 5.303-2.635l3.778-.732-4.677-.115c-3.002-.074-4.792-.594-5-1.454-.214-.887-1.036-.466-2.439 1.25M65 44c0 .55-.668 1-1.484 1-1.274 0-1.244.53.212 3.75 2.291 5.065 3.431 6.491 4.409 5.513C69.483 52.917 67.919 43 66.361 43c-.749 0-1.361.45-1.361 1m14 0c0 .733.3 1.033.667.667a.948.948 0 0 0 0-1.334C79.3 42.967 79 43.267 79 44m34.892 3.842C111.12 51.748 109.379 57 110.856 57c.492 0 1.183-1.446 1.537-3.214.353-1.767 1.796-4.418 3.207-5.89 1.41-1.472 2.187-2.91 1.726-3.194-.46-.285-2.006 1.128-3.434 3.14M87.012 45.5c-.436 1.946.193 7.02 1.054 8.5.658 1.129.851.882.785-1-.108-3.075-1.53-8.876-1.839-7.5m-52.438 4.167c-.352.917-.175 2.132.393 2.7.711.711 1.033.19 1.033-1.667 0-3.085-.499-3.447-1.426-1.033m16.056.583c-.331 1.237-.605 2.925-.609 3.75-.007 1.807 4.543 4.105 6.581 3.322 1.171-.449.961-1.206-1.073-3.873C54.138 51.625 53 49.653 53 49.067c0-1.97-1.76-1.091-2.37 1.183m26.402 4c-.021 1.792.491 2.75 1.468 2.75 1.893 0 1.903-1.085.032-3.559-1.406-1.859-1.47-1.825-1.5.809m58.196.149c-1.433 3.145 1.567 5.107 5.244 3.432 3.324-1.515 3.193-2.143-.846-4.07-3.272-1.56-3.406-1.54-4.398.638m25.216.288c.848 1.752 2.04 3.494 2.649 3.87 1.341.829-.105-2.02-2.568-5.057-1.505-1.856-1.511-1.771-.081 1.187m-39.138 2.749c-.657.748-1.782 1.577-2.5 1.842-.995.367-.88.928.48 2.352 1.551 1.624 1.911 1.673 2.735.37.827-1.309 1.409-6.065.729-5.962-.138.021-.787.65-1.444 1.398m-32.973.231a.948.948 0 0 0 1.334 0C90.033 57.3 89.733 57 89 57c-.733 0-1.033.3-.667.667m55.885 2.083c-1.548 1.513-1.892 1.99-.766 1.06 1.127-.929 3.174-2.138 4.549-2.687 1.72-.686 1.959-1.016.765-1.06-.954-.034-3.001 1.174-4.548 2.687M30 61c0 .733.3 1.033.667.667a.948.948 0 0 0 0-1.334C30.3 59.967 30 60.267 30 61m41.872.75c-1.243 1.586-1.208 1.621.378.378C73.916 60.821 74.445 60 73.622 60c-.207 0-.995.788-1.75 1.75m-50.809-.526c-.034.399-1.638 6.986-3.563 14.638-3.935 15.642-4.401 23.872-2.007 35.43 1.859 8.971 5.911 20.337 8.527 23.918 1.089 1.49 1.98 2.984 1.98 3.319 0 3.241 19.274 24.733 19.815 22.095.173-.845-1.177-2.932-3-4.637l-3.315-3.101 3.25 1.583c2.888 1.406 3.25 1.413 3.25.057 0-.839-.843-1.526-1.873-1.526-1.736 0-13.819-8.889-15.271-11.235-.355-.573-.682-3.706-.728-6.963-.046-3.257-.322-6.307-.613-6.778-.812-1.314 1.553-11.19 3.356-14.014 3.353-5.251 8.502-8.74 13.682-9.27l3.947-.404-4.3-.168c-7.41-.29-13.337 4.388-16.692 13.173-1.395 3.653-1.668 6.361-1.227 12.189.339 4.481.195 7.264-.357 6.923-.508-.314-.924-1.163-.924-1.888 0-.724-1.143-3.901-2.541-7.061-3.096-7.002-5.317-17.109-4.693-21.361.281-1.918.027-3.143-.653-3.143-.675 0-1.113-2.046-1.113-5.197v-5.198l8.1 8.182-2.046 3.356c-3.131 5.135-2.512 17.857.869 17.857.468 0 2.047-2.812 3.508-6.25 4.299-10.114 8.241-13.493 17.569-15.058 1.744-.293 1.356-.461-1.282-.556-7.958-.286-13.944 4.488-17.288 13.79-1.004 2.791-2.237 5.074-2.74 5.074-.504 0-.739-3.127-.523-6.951.311-5.51.864-7.453 2.664-9.369l2.27-2.417-2.923-2.46C20.193 94.45 19 91.906 19 86.762c0-3.138.846-5.704 3-9.101 3.421-5.394 4.037-8.25.927-4.296-3.026 3.847-3.997 3.222-2.18-1.404 1.122-2.854 1.84-3.661 2.45-2.75.515.769.59.079.185-1.711-.778-3.437-2.224-7.352-2.319-6.276m26.231 2.099c.324.844.899 3.186 1.277 5.205.482 2.568.945 3.265 1.544 2.321.632-.999.858-1.024.87-.099.03 2.467 1.797 1.191 2.205-1.593.346-2.357-.173-3.231-3.034-5.106-2.519-1.652-3.292-1.848-2.862-.728m15.384.799c-.726 2.777-.532 3.061.973 1.426.633-.688.808-1.806.388-2.484-.521-.844-.951-.51-1.361 1.058M103 63.5c4.627 1.782 6.117 1.782 3 0-1.375-.786-3.4-1.411-4.5-1.388-1.31.026-.792.505 1.5 1.388m-71.921 2.083c.048 1.165.285 1.402.604.605.289-.722.253-1.585-.079-1.917-.332-.332-.568.258-.525 1.312m52.19-.89c.973.254 2.323.237 3-.037.677-.274-.119-.481-1.769-.461-1.65.02-2.204.244-1.231.498m66.398-.026c-1.146 1.145-.731 3.095.782 3.675 1 .384 1.265.076.854-.994-.327-.852.034-1.948.801-2.434 1.149-.727 1.116-.886-.187-.899-.871-.008-1.884.285-2.25.652m4.666 0a.948.948 0 0 0 1.334 0c.366-.367.066-.667-.667-.667-.733 0-1.033.3-.667.667M78.405 67.25 76.5 69.5l2.25-1.905c1.237-1.048 2.25-2.06 2.25-2.25 0-.8-.805-.209-2.595 1.905m61.587-1c-.004.688-1.804 2.276-4 3.53-2.195 1.254-3.992 2.716-3.992 3.25 0 .533-.675.97-1.5.97s-1.5.501-1.5 1.114c0 1.064 4.531.791 12.298-.742 2.316-.457 2.589-.803 1.588-2.009-.665-.802-1.474-1.051-1.798-.555-.323.497-2.388 1.217-4.588 1.599l-4 .696 3-2.516c1.65-1.383 3.563-2.531 4.25-2.551 1.146-.033 1.89-4.036.75-4.036-.275 0-.503.563-.508 1.25m17.341-.583a.948.948 0 0 0 1.334 0c.366-.367.066-.667-.667-.667-.733 0-1.033.3-.667.667M49 66.924c0 .474.675 1.121 1.5 1.438.825.316 1.5.187 1.5-.286 0-.474-.675-1.121-1.5-1.438-.825-.316-1.5-.187-1.5.286m68.872.826c-1.243 1.586-1.208 1.621.378.378 1.666-1.307 2.195-2.128 1.372-2.128-.207 0-.995.787-1.75 1.75m43.555-.985c-2.304 1.578-2.187 3.8.261 4.956 2.1.991 2.284.95 1.267-.275-.655-.79-.955-2.338-.667-3.441.591-2.26.603-2.242-.861-1.24m-97.306 5.32c-2.266 2.847-4.16 4.78-4.207 4.296-.106-1.087-1.346 2.868-3.9 12.441-1.803 6.758-1.844 7.874-.532 14.5.782 3.948 2.494 9.245 3.804 11.771l2.383 4.593.969-4.727c.82-4.005.692-5.068-.835-6.954-2.001-2.472-2.355-7.105-.768-10.071.57-1.064.646-1.934.169-1.934-.476 0-1.44 1.072-2.141 2.381-1.467 2.742-.642 8.21 1.629 10.787.808.917 1.286 2.717 1.062 4-.354 2.027-.68 1.744-2.494-2.168-1.928-4.158-2.713-10.675-2.379-19.75.145-3.967 2.609-4.417 3.555-.65.359 1.43 1.506 3.793 2.549 5.25 2.46 3.438 3.432 9.9 1.81 12.029-.679.892-.024.543 1.454-.774 1.479-1.318 2.486-2.724 2.238-3.125-.248-.402.7-.73 2.106-.73s3.063-.506 3.682-1.125c.833-.833.723-1.125-.425-1.125-.852 0-3.312-1.277-5.466-2.837-3.024-2.191-4.311-4.089-5.65-8.338C61.78 86.8 61 83.412 61 82.297 61 79.847 64.629 75 66.463 75c1.096 0 2.845-6.762 2.016-7.795-.13-.163-2.091 2.033-4.358 4.88M32 70c0 .733.3 1.033.667.667a.948.948 0 0 0 0-1.334C32.3 68.967 32 69.267 32 70m29 0c0 .733.3 1.033.667.667a.948.948 0 0 0 0-1.334C61.3 68.967 61 69.267 61 70m94.333-.333a.948.948 0 0 0 1.334 0c.366-.367.066-.667-.667-.667-.733 0-1.033.3-.667.667M15 71c0 .733.3 1.033.667.667a.948.948 0 0 0 0-1.334C15.3 69.967 15 70.267 15 71m61.232 2c0 1.925.206 2.713.457 1.75.252-.963.252-2.537 0-3.5-.251-.963-.457-.175-.457 1.75m-34.661.571c-.367 1.466-.534 2.739-.37 2.83.165.091 1.043.732 1.953 1.425 1.495 1.139 1.576.911.838-2.362-1.065-4.722-1.605-5.144-2.421-1.893M35 73c0 .733.3 1.033.667.667a.948.948 0 0 0 0-1.334C35.3 71.967 35 72.267 35 73m25 0c0 .733.3 1.033.667.667a.948.948 0 0 0 0-1.334C60.3 71.967 60 72.267 60 73m19.225 1.993-2.274 2.883 2.213 2.062C80.381 81.072 82.162 82 83.121 82c1.764 0 2.201-.872 3.384-6.75.616-3.063.491-3.247-2.176-3.195-1.883.037-3.589 1.019-5.104 2.938m45.855-1.532c.318.571 2.695 3.835 5.28 7.253 4.2 5.551 4.951 6.118 7.044 5.323 1.554-.591 2.789-.495 3.671.286 1.081.958 1.079.847-.011-.592-1.144-1.51-1.066-2.094.537-4 1.033-1.227 1.981-2.404 2.107-2.616.126-.212 1.353.35 2.726 1.25 1.372.899 2.849 1.628 3.281 1.62.432-.009.11-.468-.715-1.021-1.276-.854-1.126-1.325 1-3.15 1.53-1.313 1.833-1.904.782-1.524-.945.343-2.014.144-2.375-.44-.361-.585-.938-.669-1.282-.186-1.774 2.489-17.089 5.814-17.152 3.724-.015-.489-1.252-2.256-2.75-3.927-1.498-1.671-2.462-2.571-2.143-2m-92.049.039c0 .55.436 1.675.969 2.5.533.825.969 1.05.969.5S34.533 74.825 34 74c-.533-.825-.969-1.05-.969-.5M165.714 75c1.164 4.196.457 8.181-1.936 10.906L161.5 88.5l2.649-2.329c3.281-2.886 4.095-6.712 2.268-10.657-1.053-2.273-1.226-2.4-.703-.514M25 76c0 .733.3 1.033.667.667a.948.948 0 0 0 0-1.334C25.3 74.967 25 75.267 25 76m25.333-.333a.948.948 0 0 0 1.334 0C52.033 75.3 51.733 75 51 75c-.733 0-1.033.3-.667.667M92 76c0 .733.3 1.033.667.667a.948.948 0 0 0 0-1.334C92.3 74.967 92 75.267 92 76m83.158 2c0 1.375.227 1.938.504 1.25.278-.687.278-1.812 0-2.5-.277-.687-.504-.125-.504 1.25M68 78c0 .733.3 1.033.667.667a.948.948 0 0 0 0-1.334C68.3 76.967 68 77.267 68 78m86.333-.333a.948.948 0 0 0 1.334 0c.366-.367.066-.667-.667-.667-.733 0-1.033.3-.667.667M26 79c0 .733.3 1.033.667.667a.948.948 0 0 0 0-1.334C26.3 77.967 26 78.267 26 79m14 0c0 .733.3 1.033.667.667a.948.948 0 0 0 0-1.334C40.3 77.967 40 78.267 40 79m49.872.75c-1.243 1.586-1.208 1.621.378.378C91.916 78.821 92.445 78 91.622 78c-.207 0-.995.787-1.75 1.75M117 79.167c0 .641.289.877.642.524.353-.353 1.753 1.446 3.111 3.997 1.953 3.667 2.373 5.652 2.005 9.476-.348 3.628-.126 4.836.889 4.836.744 0 1.353-.712 1.353-1.583 0-2.275 2.442-1.154 2.803 1.287.167 1.126-.296 2.665-1.028 3.421-.732.756-1.319 2.725-1.303 4.375l.028 3-7.142.292c-6.883.281-7.136.38-7 2.749.175 3.022 3.221 3.36 4.142.459.478-1.505 1.513-2 4.184-2 3.057 0 3.477.277 3.026 2-.34 1.3-.03 2 .884 2 .94 0 1.406 1.159 1.406 3.5v3.5h-14v3c0 1.725.531 3.007 1.25 3.015.909.011.876.252-.122.885-.754.478-1.189 1.417-.966 2.086.245.736 2.323-.506 5.246-3.134 2.663-2.394 5.797-4.597 6.967-4.896 1.565-.401 2.284-1.585 2.73-4.5.333-2.176.944-4.743 1.357-5.706.414-.963.416-1.75.005-1.75-.41 0-1.344.787-2.075 1.75-1.219 1.606-1.331 1.612-1.36.067-.018-.925.792-1.944 1.799-2.264 4.12-1.307 5.015-18.511 1.108-21.289-.956-.68-3.021-3.267-4.589-5.749-2.691-4.259-5.35-5.924-5.35-3.348m39.71.833c-.287 1.1-.115 2 .384 2 .498 0 .906-.9.906-2s-.173-2-.383-2c-.211 0-.619.9-.907 2m-87.56 4.606c-.279 7.39 4.146 12.441 12.643 14.432 2.954.691 3.16.603 2-.857-.711-.896-3.08-3.352-5.263-5.459-3.026-2.92-3.649-4.031-2.618-4.667 1.021-.632.769-1.033-1.03-1.642-1.31-.443-2.944-.697-3.632-.565-.687.132-1.25-.257-1.25-.863 0-.607.45-.825 1-.485 1.399.865 1.19-.666-.371-2.721-1.141-1.503-1.329-1.145-1.479 2.827M45 82c0 .733.3 1.033.667.667a.948.948 0 0 0 0-1.334C45.3 80.967 45 81.267 45 82m53.048.911C96.164 86.43 90.647 89 84.976 89h-5.287l2.905 2.499c3.512 3.019 4.816 3.178 4.116.501-.633-2.423 1.781-2.77 2.695-.387.501 1.306.902 1.377 2.107.377.818-.679 1.488-1.803 1.488-2.497 0-.695 1.109-1.99 2.465-2.878C97.722 85.136 100.746 81 99.57 81c-.275 0-.96.86-1.522 1.911m36.647-1.211c-.993.257-1.631.993-1.417 1.634.655 1.969 3.274 1.852 5.809-.259l2.413-2.008-2.5.082c-1.375.046-3.312.294-4.305.551M26 82.771c-4.007 1.329-3.922 2.322.761 8.832 2.835 3.94 5.164 6.256 5.979 5.943 5.529-2.121 12.96-3.656 15.37-3.174 2.669.534 2.89.35 2.89-2.397C51 90.339 50.55 89 50 89s-1 .796-1 1.768c0 1.417-.845 1.765-4.25 1.75-2.337-.01-4.817-.385-5.509-.833-.692-.448-2.211-.512-3.375-.142-1.351.428-1.884.296-1.475-.367.353-.571.184-1.32-.375-1.666-.559-.345-1.016-.119-1.016.502 0 .654-.663.468-1.571-.441-.865-.864-2.188-1.571-2.941-1.571-2.059 0-2.82-1.896-1.432-3.568 1.441-1.736 1.046-2.358-1.056-1.661m127.333-.104a.948.948 0 0 0 1.334 0c.366-.367.066-.667-.667-.667-.733 0-1.033.3-.667.667M39 83.863c0 .398 1.818 1.209 4.041 1.802 2.407.643 3.913.696 3.725.132-.174-.521-.634-.942-1.023-.937-.388.006-2.064-.379-3.725-.855-1.66-.476-3.018-.54-3.018-.142M28 86c0 .733.3 1.033.667.667a.948.948 0 0 0 0-1.334C28.3 84.967 28 85.267 28 86m139.158 1c0 1.375.227 1.938.504 1.25.278-.687.278-1.812 0-2.5-.277-.687-.504-.125-.504 1.25m-129.079.583c.048 1.165.285 1.402.604.605.289-.722.253-1.585-.079-1.917-.332-.332-.568.258-.525 1.312M125 90.941c0 1.682.45 3.059 1 3.059s1-1.098 1-2.441c0-1.343-.45-2.719-1-3.059-.583-.361-1 .656-1 2.441m20.333-2.274a.948.948 0 0 0 1.334 0c.366-.367.066-.667-.667-.667-.733 0-1.033.3-.667.667m-11.682 1.801c-.31.807-.133 1.734.393 2.059.526.325.956-.336.956-1.468 0-2.415-.556-2.658-1.349-.591M147 90c-.825.533-3.724.976-6.441.985-4.561.014-4.792.128-3 1.483 1.916 1.449 1.915 1.47-.059 1.619-1.1.082-2.338.097-2.75.031-.412-.065-.75.384-.75.999 0 .703 1.017.884 2.75.489 7.454-1.701 15.24-2.518 19.75-2.072 3.584.354 4.434.227 3-.45-1.1-.519-3.762-.975-5.917-1.014-4.65-.083-4.098-1.092 1.156-2.111 3.725-.722 3.714-.73-1.239-.829-2.75-.055-5.675.337-6.5.87m21.158 2c0 1.375.227 1.938.504 1.25.278-.687.278-1.812 0-2.5-.277-.687-.504-.125-.504 1.25m-68.593 1.894c-.304.492 1.02 2.148 2.941 3.68 1.922 1.532 3.49 3.042 3.486 3.356-.004.313-1.09 1.072-2.413 1.685-2.014.933-2.744.775-4.492-.972-2.271-2.271-2.654-1.264-1.086 2.86 1.335 3.512.183 10.782-1.6 10.097-.984-.377-1.304.615-1.239 3.839.048 2.392-.182 4.784-.51 5.316-.374.605.888.695 3.375.24l3.973-.726v4.365c0 3.968-.224 4.366-2.453 4.366-2.651 0-7.547-1.92-7.547-2.961 0-.351.338-1.076.75-1.61s-.073-.08-1.08 1.009c-1.772 1.919-1.772 2.005 0 2.786 1.387.611 1.224.697-.67.352-1.375-.25-3.625.156-4.999.903l-2.499 1.358 2.499.517c5.8 1.199 10.683 1.56 13.981 1.034l3.518-.561-.317-15.779c-.358-17.814-.746-17.003 8.14-17.034l3.822-.014-2.146-2.728c-1.18-1.501-3.35-3.523-4.822-4.494-2.845-1.876-7.691-2.373-8.612-.884M103.5 96c2.752 1.183 3.731 1.183 3 0-.34-.55-1.604-.968-2.809-.93-2.112.068-2.119.101-.191.93m5.5 4c0 .733.3 1.033.667.667a.948.948 0 0 0 0-1.334c-.367-.366-.667-.066-.667.667m38 1.084c-3.025.459-6.906.589-8.624.288-2.878-.504-3.159-.304-3.577 2.546-.57 3.881-.347 4.082 4.53 4.082 2.497 0 5.657.974 8.425 2.596 3.81 2.233 4.382 2.349 4.088.831-.444-2.293-5.522-5.242-9.342-5.424-1.65-.079-3.9-.538-5-1.021-1.414-.62-.243-.855 4-.802 4.472.055 6.546.57 8.145 2.022 1.221 1.11 2.402 1.531 2.744.978.33-.534-.073-1.228-.895-1.544-2.058-.79-1.882-2.629.256-2.668.963-.017 2.624-.692 3.691-1.5 1.874-1.417 1.857-1.464-.5-1.343-1.342.068-4.916.5-7.941.959M9.17 102c.016.825.39 2.625.83 4 .644 2.01.806 2.108.83.5.016-1.1-.357-2.9-.83-4-.527-1.225-.848-1.419-.83-.5m67.58-.338c.688.278 1.813.278 2.5 0 .688-.277.125-.504-1.25-.504s-1.937.227-1.25.504m7.333.703c.23.2 1.542.949 2.917 1.663 2.287 1.189 2.383 1.158 1.128-.364-.755-.915-2.068-1.664-2.917-1.664-.849 0-1.357.164-1.128.365m32.25.302a.948.948 0 0 0 1.334 0c.366-.367.066-.667-.667-.667-.733 0-1.033.3-.667.667m43.133 3.268c1.393 2.693 1.374 2.984-.224 3.525-.958.325-2.551 1.704-3.539 3.065-2.791 3.845.255 3.146 4.249-.975 3.261-3.365 3.302-3.513 1.673-6-2.309-3.524-4.022-3.218-2.159.385m-68.896-1.048c-.301.487.07 1.399.824 2.025 1.048.869 1.502.801 1.92-.289.855-2.227-1.514-3.727-2.744-1.736M100 108c0 .55.45 1 1 1s1-.45 1-1-.45-1-1-1-1 .45-1 1m-26.441 2.532c-2.496 1.888-1.57 1.876 2.077-.026 1.575-.821 2.189-1.482 1.364-1.468-.825.014-2.374.686-3.441 1.494m6.774-.865a.948.948 0 0 0 1.334 0c.366-.367.066-.667-.667-.667-.733 0-1.033.3-.667.667m3.207 1.413c.753 2.189-10.241 5.021-11.512 2.966-.558-.903-1.03-.314-1.514 1.892-.388 1.763-.436 3.473-.109 3.8.327.328.595-.155.595-1.071 0-2.004 1.714-2.111 5.866-.366 1.702.716 4.679 1.117 6.614.891 2.877-.336 3.52-.827 3.52-2.691 0-1.254-.901-3.342-2.002-4.64-1.101-1.299-1.757-1.65-1.458-.781m-32.727 1.603c.721.289 1.584.253 1.916-.079.332-.332-.258-.568-1.312-.525-1.165.048-1.402.285-.604.604m-7.469 2.93c-6.061 2.881-8.689 5.387-5.648 5.387 3.576 0 12.081-2.997 14.455-5.093 1.904-1.681 1.993-1.961.472-1.473-1.032.33-2.383.18-3.003-.334-.729-.605-2.942-.071-6.276 1.513m40.288-.134c-1.797 1.36-1.787 1.408.25 1.255 1.165-.088 2.118-.739 2.118-1.447 0-1.572-.045-1.568-2.368.192m49.368-.524c0 .418 2.662 2.404 5.915 4.412 8.18 5.049 10.621 10.024 10.49 21.383-.11 9.461 1.171 11.037 2.03 2.5.318-3.162 1.009-7.609 1.536-9.881 1.59-6.858-.618-11.839-7.386-16.663-2.856-2.035-12.585-3.389-12.585-1.751M79.5 117c.34.55.816 1 1.059 1s.441-.45.441-1-.477-1-1.059-1-.781.45-.441 1m61.25-.338c.688.278 1.813.278 2.5 0 .688-.277.125-.504-1.25-.504s-1.937.227-1.25.504m3.063 3.021c.721.289 1.584.253 1.916-.079.332-.332-.258-.568-1.312-.525-1.165.048-1.402.285-.604.604M86 121c0 .733.3 1.033.667.667a.948.948 0 0 0 0-1.334c-.367-.366-.667-.066-.667.667m-24 1c0 .733.3 1.033.667.667a.948.948 0 0 0 0-1.334c-.367-.366-.667-.066-.667.667m9-.322c0 .557 1.013 1.869 2.25 2.917l2.25 1.905-1.989-2.5c-1.094-1.375-2.107-2.687-2.25-2.917-.144-.229-.261.039-.261.595m-22 1.224c-.825.462-3.817 1.382-6.648 2.045-4.262.996-5.23 1.634-5.626 3.707-.293 1.534.037 2.701.852 3.014 1.313.504 8.738-3.051 11.178-5.352.691-.652 2.153-1.47 3.25-1.818 1.097-.348 1.994-1.052 1.994-1.565 0-1.15-2.972-1.168-5-.031m34.872 1.848c-1.243 1.586-1.208 1.621.378.378 1.666-1.307 2.195-2.128 1.372-2.128-.207 0-.995.787-1.75 1.75m29.694-.852c-1.302.51-1.554.992-.77 1.476 1.074.664 5.204-.851 5.204-1.909 0-.664-2.175-.452-4.434.433m13.371.678c-1.084 1.307-1.063 1.732.127 2.485.79.5 2.336.925 3.436.946 1.1.02 3.962.927 6.359 2.015 2.398 1.088 4.873 1.96 5.5 1.937 1.748-.062-5.42-5.906-9.231-7.526-4.226-1.796-4.589-1.787-6.191.143M63 124.941c0 .518.445 1.216.989 1.552.566.35.734-.051.393-.941-.665-1.732-1.382-2.049-1.382-.611m97.683 5.148c.628 6.226-1.437 12.174-4.861 14.006-1.256.672-1.717 1.662-1.335 2.865.57 1.796-3.45 6.04-5.721 6.04-2.196 0-6.262 5.685-5.95 8.32.3 2.54.681 2.294 7.886-5.076C160.837 145.878 168 134.545 168 128.878c0-2.946-1.853-2.202-3.416 1.372-1.362 3.115-1.424 3.144-1.502.691-.045-1.407-.73-3.432-1.522-4.5-1.295-1.746-1.383-1.38-.877 3.648m-83.87-3.406c.721.289 1.584.253 1.916-.079.332-.332-.258-.568-1.312-.525-1.165.048-1.402.285-.604.604m3.52-.016a.948.948 0 0 0 1.334 0c.366-.367.066-.667-.667-.667-.733 0-1.033.3-.667.667M150.5 128c.34.55.816 1 1.059 1s.441-.45.441-1-.477-1-1.059-1-.781.45-.441 1m-85.5.378c0 .207.787.995 1.75 1.75 1.586 1.243 1.621 1.208.378-.378-1.307-1.666-2.128-2.195-2.128-1.372m-10 3.408c-1.375.924-2.725 1.913-3 2.197-.275.284-3.066 1.84-6.203 3.456l-5.703 2.94 3.014 1.833c5.165 3.141 6.196 2.752 11.723-4.426 2.843-3.692 5.169-6.955 5.169-7.25 0-1.042-2.532-.41-5 1.25M71 133c.825.533 2.175.945 3 .914.989-.036.819-.347-.5-.914-2.749-1.181-4.328-1.181-2.5 0m35.25.689c.963.252 2.537.252 3.5 0 .963-.251.175-.457-1.75-.457s-2.713.206-1.75.457m16.388.811c.317.825 1.653 1.5 2.969 1.5 1.316 0 2.393.477 2.393 1.059s-.45.781-1 .441c-1.398-.864-1.191.665.367 2.716 1.02 1.343 2.753 1.691 7.968 1.602 3.666-.062 6.665-.387 6.665-.722 0-.335-1.912-1.204-4.25-1.931-2.338-.727-6.424-2.411-9.082-3.743-5.606-2.81-6.826-2.996-6.03-.922m-44.305.167a.948.948 0 0 0 1.334 0c.366-.367.066-.667-.667-.667-.733 0-1.033.3-.667.667m-28.8 3.23c-.395 1.245-1.24 1.731-2.455 1.413-1.019-.266-2.155.005-2.524.603-.401.648.159 1.087 1.387 1.087 1.264 0 2.089.676 2.138 1.75.063 1.391.195 1.442.643.25.31-.825 1.43-2.738 2.489-4.25 1.58-2.256 1.656-2.75.424-2.75-.825 0-1.771.854-2.102 1.897m13.967.104c-.349 1.1-2.292 3.235-4.318 4.744-2.025 1.509-4.013 3.196-4.417 3.749-.404.553-.653 6.406-.554 13.006.112 7.463.313 9.448.531 5.25l.349-6.75h4.259c5.59 0 13.664-4.878 13.62-8.228-.028-2.048-.133-2.097-1.066-.493C70.04 152.481 63.294 156 59.02 156H55v-4c0-3.033.395-4 1.632-4 2.082 0 8.349-3.832 10.585-6.473.944-1.115 1.731-2.814 1.75-3.777.048-2.562-4.643-2.347-5.467.251m49.5.166c0 3.075 3.203 13.461 5.03 16.312l1.936 3.021.017-6.75c.009-3.713-.4-6.75-.91-6.75-.509 0-1.119-.562-1.354-1.25-.235-.687-.25-.2-.033 1.084.243 1.439-.004 2.087-.646 1.691-.572-.354-1.04-1.911-1.04-3.462 0-1.55-.675-3.378-1.5-4.063-1.213-1.007-1.5-.975-1.5.167m-36.765 2.345c-.695.789-1.697 2.572-2.225 3.962-.871 2.29-.723 2.526 1.574 2.526 1.394 0 2.275-.419 1.959-.931-.317-.512-.118-1.213.441-1.559 1.165-.72 1.399-5.529.266-5.472-.412.021-1.319.684-2.015 1.474m28.016 2.906c.235 3.231.472 3.435 4.346 3.75l4.097.332-3.097-3.732c-3.936-4.743-5.675-4.857-5.346-.35m-8.982-.066C92.55 144.7 91.491 147 93.59 147c.841 0 1.25-.45.91-1-.34-.55-.141-1 .441-1s1.059.45 1.059 1 .675 1 1.5 1c.933 0 1.5-.944 1.5-2.5 0-2.71-.358-2.82-3.731-1.148m35.206.608c.354.572 1.854 1.093 3.334 1.158l2.691.119-3 .763c-2.741.697-2.61.774 1.509.882 3.605.094 4.779-.313 5.849-2.027 1.213-1.942 1.165-2.071-.509-1.366-2.078.875-4.732.88-8.183.015-1.484-.371-2.099-.205-1.691.456m-48.44 1.974c-.569 1.064-1.035 6.302-1.035 11.64 0 8.071.295 9.929 1.75 11.034 3.181 2.415 4.943 1.556 2-.975-3.489-3.001-3.612-8.066-.176-7.204 2.865.719 3.802-.426 1.66-2.03-1.596-1.196-1.572-1.259.303-.788 1.816.455 2.055 1.371 2.206 8.45.187 8.771-.464 9.519-5.108 5.866-2.607-2.05-2.635-2.051-2.635-.077 0 1.422 1.077 2.345 3.75 3.214 2.063.67 4.11 1.83 4.55 2.577 1.089 1.851 8.132 1.748 9.7-.141.86-1.036.898-1.5.122-1.5-.617 0-1.122.45-1.122 1s-1.8 1-4 1h-4l-.015-15.25c-.009-8.387-.452-15.925-.985-16.75-.748-1.157-.973-1.19-.985-.143-.009.813-.637 1.118-1.567.761-.89-.341-1.291-.173-.941.393.336.544 1.259.989 2.052.989.793 0 1.441.36 1.441.799 0 .44-1.546.619-3.436.398-3.165-.369-3.365-.591-2.525-2.799 1.094-2.877.447-3.175-1.004-.464m-57.967 3.189c-.083 3.191 3.106 10.642 5.724 13.377 8 8.359 16.208 14.17 16.208 11.475 0-.536-.712-.975-1.582-.975-2.405 0-13.816-12.166-16.059-17.122A3361.6 3361.6 0 0 1 25.257 149l-1.122-2.5-.067 2.623m137.21.127c-1.499 1.938-2.442 3.75-1.952 3.75.244 0 1.181-1.125 2.082-2.5 1.686-2.573 1.592-3.476-.13-1.25M82.5 152c.34.55.843 1 1.118 1 .275 0 .222-.45-.118-1-.34-.55-.843-1-1.118-1-.275 0-.222.45.118 1m5.138.5c.317.825.753 1.5.969 1.5.216 0 .393-.675.393-1.5s-.436-1.5-.969-1.5c-.532 0-.709.675-.393 1.5m25.522-.25c-.1 1.094-.993 1.75-2.382 1.75h-2.222l2.194 2.194c2.688 2.689 3.518 2.035 2.981-2.348-.226-1.84-.483-2.559-.571-1.596M85 153c0 .55.477 1 1.059 1s.781-.45.441-1-.816-1-1.059-1-.441.45-.441 1m58 0c0 .733.3 1.033.667.667a.948.948 0 0 0 0-1.334c-.367-.366-.667-.066-.667.667m-60.667 1.667a.948.948 0 0 0 1.334 0c.366-.367.066-.667-.667-.667-.733 0-1.033.3-.667.667m17.096.904c.864.865 1.571 1.99 1.571 2.5 0 .511 1.083.929 2.406.929 2.207 0 2.31-.206 1.25-2.492-.831-1.791-1.95-2.495-3.977-2.5-2.565-.007-2.679.135-1.25 1.563M128 156.5c0 1.375.388 2.5.861 2.5.474 0 .647-1.125.384-2.5s-.651-2.5-.862-2.5c-.21 0-.383 1.125-.383 2.5m-42.667-.833a.948.948 0 0 0 1.334 0c.366-.367.066-.667-.667-.667-.733 0-1.033.3-.667.667m-20.584 3.246c-2.063.964-3.488 2.015-3.166 2.336.555.556 7.417-3.004 7.417-3.848 0-.498.232-.581-4.251 1.512M98 158c0 .733.3 1.033.667.667a.948.948 0 0 0 0-1.334c-.367-.366-.667-.066-.667.667m39.333.667a.948.948 0 0 0 1.334 0c.366-.367.066-.667-.667-.667-.733 0-1.033.3-.667.667m-25.173 3.966c-.166 4.285 1.017 5.315 6.149 5.353 2.736.021 1.138-1.647-2.222-2.319-2.434-.486-3.026-1.169-3.361-3.879-.368-2.981-.421-2.902-.566.845m-42.536.496C67.463 165.286 65.8 166 62.933 166c-4.03 0-6.109-1.655-3.84-3.057.742-.459 1.014-1.169.604-1.579-.409-.41-1.483-.007-2.385.895-1.354 1.354-1.416 1.911-.354 3.191 1.021 1.229 1.027 1.55.03 1.55-.692 0-.114.9 1.285 2 1.398 1.1 3.934 2 5.635 2 1.7 0 3.092.351 3.092.781 0 .429 1.35 1.29 3 1.913 2.83 1.068 3 .992 3-1.34 0-1.36-.398-2.226-.885-1.925-.486.3-2.592-.045-4.68-.768l-3.795-1.314 4.676-1.923c3.61-1.485 4.677-2.437 4.68-4.174.002-1.238-.108-2.192-.246-2.121-.138.07-1.544 1.42-3.126 3m33.899 7.059c6.015 4.307 6.181 6.18.295 3.323l-3.318-1.61 2.361 2.05c2.526 2.193 6.604 2.723 7.671.997.358-.578 1.847-.96 3.309-.849 4.228.322 6.159-.023 6.159-1.099 0-.55-2.138-1.003-4.75-1.006-4.919-.007-10.157-2.077-11.549-4.564-.44-.787-1.976-1.43-3.413-1.43-2.303 0-1.918.498 3.235 4.188M128 168.5c0 1.491.572 2.5 1.418 2.5.78 0 2.243.267 3.25.594 1.412.458 1.512.367.437-.398-1.082-.77-.408-1.447 3-3.011 3.763-1.726 4.028-2.029 1.845-2.101-1.402-.046-2.978.315-3.5.804-.522.488-2.031 1.215-3.351 1.615-1.956.593-2.286.428-1.782-.888.341-.888.184-1.615-.348-1.615-.533 0-.969 1.125-.969 2.5m14.333-.833a.948.948 0 0 0 1.334 0c.366-.367.066-.667-.667-.667-.733 0-1.033.3-.667.667m-6 4a.948.948 0 0 0 1.334 0c.366-.367.066-.667-.667-.667-.733 0-1.033.3-.667.667m3 0a.948.948 0 0 0 1.334 0c.366-.367.066-.667-.667-.667-.733 0-1.033.3-.667.667m-66.678 6.583c.254.412 2.21.75 4.345.75s4.091-.338 4.345-.75c.255-.412-1.7-.75-4.345-.75-2.645 0-4.6.338-4.345.75"/><path fill="#4b4849" d="M47.545 14.859C46.449 18.313 47.946 20 52.107 20H56v24h8V20h4.5c4.476 0 4.5-.019 4.5-3.5V13H60.567c-11.24 0-12.489.178-13.022 1.859M79.224 28.25 79.5 43.5l3.75.31 3.75.311V32h13v12h8V13h-8v12.095l-6.25-.297-6.25-.298-.6-11.5h-7.952l.276 15.25M117 28.5V44h23v-7h-7.5c-7.298 0-7.5-.066-7.5-2.456 0-2.356.298-2.468 7.25-2.75l7.25-.294v-6l-7.25-.294c-6.952-.282-7.25-.394-7.25-2.75 0-2.39.202-2.456 7.5-2.456h7.5v-7h-23v15.5M77.502 58.512c-9.067 4.92-11.797 13.115-7.397 22.206 5.441 11.238 23.909 11.201 29.252-.058 3.592-7.569.39-18.627-6.276-21.672-4.47-2.042-12.255-2.28-15.579-.476m70.499-.389c-7.204 2.873-9.554 10.724-4.419 14.763 2.67 2.1 3.057 2.256 10.168 4.093 3.182.822 4.25 1.591 4.25 3.06 0 1.143-.729 2.024-1.75 2.112-3.835.33-7.702-.401-9.969-1.886-2.245-1.472-2.483-1.423-4.083.836-.934 1.32-1.698 2.849-1.698 3.399 0 2.099 7.023 4.497 13.173 4.498 5.12.002 6.678-.423 9.132-2.487 3.359-2.827 4.423-6.56 3.017-10.591-1.033-2.963-5.06-5.336-10.887-6.414-4.774-.883-6.351-1.98-5.612-3.905.783-2.04 5.255-2.069 9.111-.059 2.827 1.474 3.016 1.429 5.196-1.256 2.073-2.553 2.124-2.891.612-4.045-3.809-2.908-11.685-3.934-16.241-2.118m-126.982.627c.01.413 1.923 7.275 4.252 15.25l4.233 14.5 4.104.3 4.104.301 1.25-4.801c.688-2.64 1.811-6.825 2.496-9.3l1.245-4.5.754 3c.414 1.65 1.516 5.7 2.448 9 1.693 5.996 1.696 6 5.81 6.303 3.264.241 4.227-.07 4.649-1.5C58.957 78.518 64 59.792 64 58.947c0-.63-1.71-.937-4.204-.754l-4.204.307-1.987 8.75C52.512 72.063 51.254 76 50.809 76c-.445 0-.809-.532-.809-1.182 0-.65-.949-4.7-2.11-9C45.817 58.133 45.727 58 42.587 58h-3.193l-2.318 9.614c-1.403 5.819-2.627 9.112-3.102 8.344-.431-.698-1.572-5.024-2.535-9.614L29.687 58h-4.343c-2.389 0-4.336.337-4.325.75M109 73.56v15.561l3.75-.311 3.75-.31.302-5.25c.188-3.27.754-5.236 1.5-5.214.659.02 2.781 2.383 4.715 5.25 3.322 4.925 3.78 5.231 8.25 5.519 2.603.167 4.733.065 4.733-.228 0-.293-2.671-4.001-5.936-8.24-6.719-8.724-6.76-8 .94-16.587L136.16 58h-5.048c-4.964 0-5.118.093-9.309 5.645-3.996 5.292-4.301 5.495-4.879 3.25-.339-1.317-.402-3.857-.14-5.645.473-3.219.439-3.25-3.653-3.25H109v15.56m-30.077-6.637c-5.79 5.79-2.208 14.967 5.872 15.045 4.271.041 8.205-3.735 8.205-7.875 0-9.019-8.101-13.145-14.077-7.17m-7.473 36.484c-7.748 3.375-11.242 12.792-7.692 20.73 2.272 5.078 4.433 7.14 9.141 8.721 11.586 3.891 22.506-3.468 22.247-14.992-.145-6.419-2.563-10.688-7.702-13.599-4.508-2.553-11.272-2.917-15.994-.86m33.3-.712c-1.567.405-1.75 1.993-1.75 15.212 0 8.118.211 14.971.469 15.229.259.258 2.059.284 4 .057l3.531-.412V121h14v-7h-7c-6.767 0-7-.082-7-2.456 0-2.356.298-2.468 7.25-2.75l7.25-.294-.012-6-9.494-.128c-5.222-.071-10.281.075-11.244.323m-30.961 7.668c-.941.715-2.197 2.579-2.791 4.142-3.351 8.814 7.059 16.529 13.547 10.04 3.411-3.411 3.411-9.679 0-13.09-2.738-2.739-7.898-3.263-10.756-1.092m-27.122 37.304c-.367.366-.667 7.341-.667 15.5V178h21v-7H54v-24h-3.333c-1.834 0-3.634.3-4 .667M73 162.5V178h8v-31h-8v15.5m17-.033V178h8v-12h14v-7h-7c-6.8 0-7-.071-7-2.5 0-2.446.162-2.5 7.563-2.5h7.564l-.314-3.25-.313-3.25-22.5-.566v15.533m30 .033V178h23.127l-.314-3.223c-.309-3.182-.383-3.225-5.813-3.364-9.039-.231-9-.219-9-2.869 0-2.356.298-2.468 7.25-2.75l7.25-.294.313-3.25.314-3.25h-7.564c-7.401 0-7.563-.054-7.563-2.5 0-2.444.167-2.5 7.5-2.5h7.5v-7h-23v15.5"/></svg>