<svg clip-rule="evenodd" fill-rule="evenodd" stroke-linejoin="round" stroke-miterlimit="2" viewBox="0 0 186 186" xmlns="http://www.w3.org/2000/svg"><path d="m0 0h219.433v265.113h-219.433z" fill="#fff" transform="scale(.847639 .701587)"/><path d="m1153 215.52v215.52l42.5-.54.26-30.547.27-30.548 24.59-31.251c13.52-17.188 24.97-31.117 25.43-30.953.46.165 23.93 27.974 52.16 61.799l51.32 61.5 27.32.266c15.81.154 27.19-.111 26.99-.63-.19-.493-29.36-35.458-64.84-77.702-35.47-42.243-65.02-77.521-65.65-78.396-.96-1.329 9.16-14.738 61.55-81.564l62.71-79.974-26.54-.267c-14.6-.147-27-.091-27.55.124-.56.216-33.87 43.332-74.02 95.814l-73 95.423-.51-303.594h-42.99zm551-159.52v56h-67v38h67v281.04l42.5-.54.25-140.25.26-140.25h75.99v-38h-76v-112h-43zm-1559.072 49.471c-72.084 11.732-126.845 63.195-142.083 133.529-1.979 9.136-2.275 13.358-2.275 32.5 0 19.056.3 23.375 2.239 32.273 3.276 15.035 6.72 25.295 12.809 38.154 23.088 48.758 66.681 82.208 121.548 93.265 9.829 1.98 14.388 2.285 34.334 2.296 24.132.013 30.286-.647 47.5-5.089 39.612-10.221 72.143-34.076 96.856-71.023 6.635-9.919 14.108-23.209 14.13-25.126.011-.964-5.219-1.25-22.854-1.25h-22.868l-3.853 6.587c-10.702 18.3-29.038 35.182-49.246 45.342-27.841 13.998-68.645 16.59-100.165 6.364-45.28-14.691-77.461-51.762-86.631-99.793-2.534-13.272-2.293-35.909.523-49.302 8.412-39.993 32.176-70.127 69.608-88.267 25.035-12.132 50.306-16.223 76.338-12.358 36.012 5.347 66.943 24.897 86.315 54.555 2.649 4.055 5.385 8.175 6.081 9.157 1.163 1.64 3.151 1.761 24.532 1.5l23.266-.285-6.272-12.5c-20.447-40.754-52.578-68.335-96.76-83.058-20.109-6.701-28.752-8.087-53-8.5-15.211-.259-24.007.042-30.072 1.029m369.952.501c-23.584 4.29-51.384 16.256-69.88 30.08-35.25 26.345-57.507 61.673-66.146 104.994-3.296 16.531-3.327 45.494-.065 61.682 13.35 66.248 64.607 117.898 131.462 132.468 8.871 1.933 13.208 2.234 32.249 2.234 19.128 0 23.371-.297 32.5-2.272 59.47-12.865 107.503-55.493 126.392-112.17 6.588-19.77 8.005-28.972 8.005-51.988 0-17.503-.329-22.035-2.255-31-14.416-67.12-65.346-118.868-130.983-133.089-14.398-3.119-46.58-3.612-61.279-.939m383.12-.502c-32.815 5.536-63.75 20.742-87.968 43.241-47.675 44.291-65.672 113.281-45.441 174.191 18.924 56.973 66.805 99.632 125.96 112.222 9.456 2.013 13.812 2.334 31.949 2.353 17.953.02 22.629-.307 32.228-2.253 51.302-10.4 94.442-43.743 118.432-91.534 22.7-45.246 22.7-100.134 0-145.38-18.53-36.913-50.88-67.336-87.511-82.299-11.652-4.76-24.783-8.414-37.649-10.479-11.525-1.849-39.202-1.883-50-.062m598 .484c-32.68 6.969-57.3 30.632-66.12 63.546-2.88 10.731-3.17 33.557-.55 44 7.23 28.893 28.65 48.545 69.17 63.462 38.71 14.251 49.15 19.237 58.81 28.082 12.09 11.084 16.8 21.642 16.93 37.956.14 17.581-4.73 31.277-14.65 41.198-20.43 20.422-61.78 20.774-81.85.697-9.21-9.209-16.7-27.814-16.75-41.603-.04-8.853 1.46-8.292-22.11-8.292h-20.88v7.869c0 44.332 28.16 80.124 72.5 92.145 5.74 1.555 12.14 2.322 22.62 2.709 49.3 1.821 84.49-20.039 98.55-61.223 7.28-21.314 7.16-51.582-.28-71.41-8.19-21.804-26.71-39.966-53.57-52.518-5.25-2.45-18.26-7.455-28.93-11.121-22.72-7.81-33.29-12.623-41.18-18.743-7-5.438-11.16-10.49-14.6-17.708-2.33-4.913-2.61-6.674-2.58-16.5.02-9.074.43-12.003 2.31-16.725 5.06-12.692 16.57-23.713 28.51-27.308 29.28-8.814 57.06 9.007 61.17 39.245 1.23 9.093-.96 8.288 22.55 8.288h20.93v-6.042c0-25.789-16.77-55.094-39.37-68.79-8.36-5.068-20.27-9.859-28.84-11.601-10.58-2.15-30.77-1.964-41.79.387m480.67-.387c-12.25 1.907-19.82 4.091-29.34 8.472-17.43 8.014-28.28 18.419-38.04 36.461l-3.24 6-.03-22.25-.02-22.25h-42v319h41.9l.36-100.25c.35-97.138.42-100.529 2.43-109.25 5.82-25.307 18.92-45.601 36.84-57.061 12.03-7.696 28.89-13.515 43.97-15.17l7-.769.54-44.5-5.77.097c-3.17.053-9.74.715-14.6 1.47m-1450.921 37.989c-4.813.749-13.44 2.931-19.171 4.849-43.763 14.644-74.688 49.234-85.11 95.194-2.481 10.94-3.056 38.829-1.038 50.401 5.285 30.321 20.21 56.521 43.199 75.832 26.079 21.907 59.197 32.684 90.121 29.327 54.138-5.877 95.399-41.66 109.513-94.969 2.996-11.319 3.096-12.388 3.162-33.69.061-19.95-.154-22.885-2.306-31.5-5.987-23.972-16.187-42.158-33.115-59.039-18.988-18.934-45.772-32.563-71.663-36.466-11.841-1.785-21.852-1.767-33.592.061m387.251-1.101c-.825.201-4.875.908-9 1.571-23.785 3.825-48.878 16.901-67.04 34.935-23.439 23.274-36.117 52.907-37.665 88.039-2.774 62.984 39.742 117.541 101.745 130.559 10.37 2.177 31.298 2.455 41.96.558 45.914-8.172 84.03-41.18 98.04-84.893 4.87-15.208 6.38-25.76 6.34-44.224-.02-13.172-.48-18.618-2.26-27-10.27-48.253-46.841-84.667-97.524-97.088-7.378-1.808-30.51-3.451-34.596-2.457m781 357.104c-162.52 21.103-296.31 38.386-297.31 38.405-.99.02-1.53.486-1.19 1.036s.13 1-.46 1-22.33-3.582-48.31-7.961c-64.71-10.907-98.87-15.429-145.23-19.228-24.76-2.028-98.83-1.729-118.18.477-21.86 2.492-37.35 5.278-57.82 10.399-45.241 11.317-63.5 20.336-63.5 31.366 0 9.766 5.492 13.411 20 13.276 8.595-.081 10.262-.426 17.5-3.622 27.66-12.217 64.82-21.39 106.5-26.289 18.23-2.143 69.02-3.006 89-1.511 67.73 5.065 131.71 19.992 199.56 46.56 21.4 8.382 23.6 9.873 27.87 18.952 4.81 10.226 5.18 10.557 10.89 9.878l4.81-.572-.64-4.112c-.35-2.262-.89-5.013-1.21-6.113-.35-1.235 2.08.49 6.34 4.511 23 21.678 44.84 32.462 73.01 36.056 19.13 2.439 152.75-4.43 196.87-10.121 49.95-6.444 191.04-36.728 208.96-44.854 15.33-6.954 30.62-20.414 41.51-36.544 14.14-20.951 26.27-54.706 30.49-84.798.63-4.505.54-4.745-1.65-4.656-1.27.052-135.28 17.361-297.81 38.465" fill="#040404" transform="matrix(.0824337 0 0 .0824337 10.6649 66.5152)"/></svg>