<svg xmlns="http://www.w3.org/2000/svg" xml:space="preserve" fill-rule="evenodd" stroke-linejoin="round" stroke-miterlimit="2" clip-rule="evenodd" viewBox="0 0 400 400"><path fill="#fff" d="M0 0h400.001v400H0z"/><path fill="#e85834" d="M192.433 257.974h15.55v19.648h-15.55zM141.032 234.397s-7.698 12.72-7.698 31.632c0 18.911 6.02 33.25 6.02 33.25s18.064.174 31.154-6.858c13.09-7.036 16.945-14.818 16.945-14.818l.112-7.213s-8.76 6.054-13.047 7.9c-4.286 1.845-6.346-2.355 0-5.648 6.35-3.292 9.118-5.802 9.118-5.802s-9.118-2.56-13.647-5.71c-1.972-1.367-.683-3.957 1.758-3.566 2.442.394 15.706 6.24 15.706 6.24v-6.24s-7.328-12.162-21.154-17.402c-13.83-5.24-25.267-5.765-25.267-5.765Zm118.148 0s7.694 12.72 7.694 31.632c0 18.911-6.014 33.25-6.014 33.25s-18.063.174-31.157-6.858c-13.09-7.036-16.942-14.818-16.942-14.818l-.112-7.213s8.76 6.054 13.047 7.9c4.284 1.845 6.346-2.355 0-5.648-6.35-3.292-9.117-5.802-9.117-5.802s9.114-2.56 13.646-5.71c1.97-1.367.683-3.957-1.758-3.566-2.442.394-15.706 6.24-15.706 6.24v-6.24s7.325-12.162 21.154-17.402c13.82-5.24 25.265-5.765 25.265-5.765"/><path fill="#233547" fill-rule="nonzero" d="M51.304 131.487h7.22l9.67 27.93h.15l9.582-27.93h7.305v52.552h-7.585v-31.927l-7.498 22.582h-3.782l-7.391-22.582h-.129v31.97h-7.52v-52.595h-.022ZM93.546 131.487h7.542v52.554h-7.542zM109.339 131.487h7.563v45.118h11.901v7.542h-19.464v-52.66ZM133.767 131.487h7.541v24.02h.15l11.002-23.998H160l-10.27 21.055 12.183 31.518h-7.971l-8.595-23.332-4.061 7.65v15.725h-7.52v-52.638ZM203.573 146.718h-7.52v-1.76a8.03 8.03 0 0 0-1.201-4.491 4.515 4.515 0 0 0-4.104-1.868c-.89-.041-1.774.159-2.557.58a4.276 4.276 0 0 0-1.547 1.524 6.496 6.496 0 0 0-.774 2.15 14.35 14.35 0 0 0-.237 2.556 26.637 26.637 0 0 0 0 2.62c.052.657.243 1.293.56 1.871a4.28 4.28 0 0 0 1.29 1.352c.726.48 1.504.875 2.319 1.183l5.759 2.276a14.318 14.318 0 0 1 4.059 2.15 9.162 9.162 0 0 1 2.408 3.03 12.936 12.936 0 0 1 1.225 4.21c.21 1.712.312 3.434.299 5.156a27.173 27.173 0 0 1-.664 6.168 13.009 13.009 0 0 1-2.15 4.876 10.46 10.46 0 0 1-4.083 3.138 14.363 14.363 0 0 1-6.122 1.18 13.448 13.448 0 0 1-5.093-.943 12.297 12.297 0 0 1-7.757-11.517v-2.794h7.52v2.364a6.165 6.165 0 0 0 1.226 3.739 4.748 4.748 0 0 0 4.104 1.653 6.546 6.546 0 0 0 3.007-.559 3.793 3.793 0 0 0 1.634-1.546 6.47 6.47 0 0 0 .645-2.513 32.62 32.62 0 0 0 .148-3.267c.011-1.125-.04-2.251-.148-3.373a5.42 5.42 0 0 0-.623-2.148 3.84 3.84 0 0 0-1.333-1.333 17.682 17.682 0 0 0-2.148-1.116l-5.308-2.15a11.918 11.918 0 0 1-6.445-5.305 18.193 18.193 0 0 1-1.655-8.23c-.009-1.9.266-3.79.817-5.609a13.085 13.085 0 0 1 2.384-4.574 11.454 11.454 0 0 1 4.04-3.053 13.25 13.25 0 0 1 5.673-1.159c1.771-.028 3.53.325 5.155 1.03a12.748 12.748 0 0 1 3.975 2.73 12.167 12.167 0 0 1 2.558 3.803c.578 1.359.877 2.819.88 4.295v3.653l-.216.021ZM215.154 138.577h-8.764v-7.09h24.944v7.069h-8.724v45.483h-7.456v-45.462ZM236.32 131.487h12.18c8.853 0 13.28 5.142 13.28 15.425a19.464 19.464 0 0 1-1.44 7.864 11.126 11.126 0 0 1-5.07 5.308l8.12 23.998h-7.97l-7.07-22.43h-4.49v22.452h-7.54v-52.617Zm7.605 23.482h4.296a7.541 7.541 0 0 0 3.16-.559 4.061 4.061 0 0 0 1.76-1.588 6.759 6.759 0 0 0 .86-2.556 27.996 27.996 0 0 0 0-7.071 6.448 6.448 0 0 0-.924-2.556 4.155 4.155 0 0 0-1.954-1.589 8.83 8.83 0 0 0-3.33-.516h-3.91v16.392l.042.043ZM268.225 131.487h22.41v7.069h-14.912v15.448h12.893v7.069h-12.893v15.425h14.911v7.52h-22.41v-52.53ZM297.552 131.487h22.453v7.069h-14.911v15.448h12.892v7.069h-12.892v15.425h14.91v7.52h-22.452v-52.53ZM333.798 138.577h-8.722v-7.09h24.945v7.069h-8.703v45.483h-7.52v-45.462ZM59.534 109.763a17.976 17.976 0 0 1-.924 2.537c-.985.243-1.993.387-3.008.43a5.25 5.25 0 0 1-.58.03c-2.913 0-5.308-2.395-5.308-5.306 0-.038 0-.08.002-.118.006-3.14 2.595-5.723 5.735-5.723.194 0 .387.009.58.03.981.026 1.955.17 2.901.428.129.925.236 1.591.322 2.494l-.515.129a2.87 2.87 0 0 0-3.137-2.472c-2.292.09-4.128 2.001-4.128 4.295 0 .058 0 .116.002.174.003.058 0 .194 0 .301-.025.2-.04.402-.04.606 0 2.408 1.93 4.416 4.338 4.509a3.64 3.64 0 0 0 3.352-2.516l.408.172ZM77.13 102.33c-1.352.128-1.46.193-1.46 1.547v6.445c0 1.376.13 1.462 1.439 1.548v.473h-4.446v-.387c1.374-.129 1.503-.193 1.503-1.548v-3.244H68.86v3.223c0 1.376.129 1.462 1.438 1.548v.473h-4.297v-.452c1.29-.129 1.418-.193 1.418-1.548v-6.466c0-1.376-.129-1.462-1.461-1.548v-.6h4.297v.535c-1.202.13-1.395.194-1.395 1.613v2.556h5.306v-2.556c0-1.376-.13-1.462-1.396-1.548v-.6h4.296v.535h.064ZM93.697 113.351h-.688a3.675 3.675 0 0 1-2.793-1.975c-.623-.99-1.376-2.062-1.827-2.836a1.31 1.31 0 0 0-1.353-.623h-.43v2.47c0 1.397.151 1.505 1.46 1.59v.56H83.62v-.56c1.353 0 1.482-.214 1.482-1.59v-6.445c0-1.398-.13-1.462-1.396-1.548v-.6h4.167c.93-.058 1.857.159 2.666.621a2.473 2.473 0 0 1 1.094 2.15 3.141 3.141 0 0 1-2.148 2.857 44.82 44.82 0 0 0 2.879 4.147c.389.559.885 1.034 1.462 1.397l-.13.385Zm-6.446-6.058a2.552 2.552 0 0 0 1.761-.473 2.4 2.4 0 0 0 .86-2.019 2.16 2.16 0 0 0-1.935-2.408h-.342a1.168 1.168 0 0 0-.816.194 1.053 1.053 0 0 0-.151.731v3.997h.666l-.043-.022ZM99.26 112.536V112c1.333 0 1.462-.193 1.462-1.57v-6.487c0-1.398-.129-1.484-1.462-1.57v-.578h4.448v.535c-1.33 0-1.46.194-1.46 1.57v6.445c0 1.397.13 1.483 1.46 1.57v.622H99.26ZM115.891 104.35a2.351 2.351 0 0 0-2.147-2.15h-.046c-.92 0-1.676.757-1.676 1.677l.002.065a2.733 2.733 0 0 0 2.147 2.362 3.92 3.92 0 0 1 2.838 3.266 3.324 3.324 0 0 1-3.306 3.162c-.052 0-.103 0-.153-.002h-.215a5.378 5.378 0 0 1-1.784-.194 5.928 5.928 0 0 1-.86-.343 20.17 20.17 0 0 1-.43-2.559l.494-.129a3.192 3.192 0 0 0 2.71 2.688 1.77 1.77 0 0 0 1.997-1.935 2.904 2.904 0 0 0-2.148-2.406 3.9 3.9 0 0 1-2.73-3.244 3.088 3.088 0 0 1 3.071-3.031l.046.002h.234a7.31 7.31 0 0 1 2.15.365c.038.755.118 1.507.236 2.256l-.43.15ZM131.834 104.436a3.913 3.913 0 0 0-.473-1.505 1.768 1.768 0 0 0-1.763-.494h-1.072v7.95c0 1.29.129 1.462 1.653 1.548v.473H125.3v-.452c1.462 0 1.59-.258 1.59-1.548v-7.971h-.816a1.873 1.873 0 0 0-1.89.516c-.269.46-.458.96-.559 1.483h-.494c0-1.01.15-2.15.193-3.008h.344c.177.32.542.493.903.43h6.445a.865.865 0 0 0 .839-.43h.365c-.023.983.026 1.968.15 2.944l-.537.064ZM149.43 107.035c.009.127.013.252.013.378 0 2.772-2.169 5.1-4.933 5.295h-.58c-2.912 0-5.307-2.397-5.307-5.307v-.215c-.107-2.986 2.255-5.536 5.242-5.65h.258c2.913 0 5.307 2.395 5.307 5.306a1.453 1.453 0 0 0 0 .193Zm-9.003-.193c0 3.007 1.59 5.308 3.868 5.308 1.762 0 3.308-1.527 3.308-4.642s-1.782-5.286-3.846-5.286c-2.062 0-3.351 1.57-3.351 4.62h.021ZM160.13 101.794a4.66 4.66 0 0 1 2.75.664 2.77 2.77 0 0 1 1.075 2.343 3.347 3.347 0 0 1-3.18 3.438 3.556 3.556 0 0 1-.71 0l-1.203-.322v2.47c0 1.376.15 1.462 1.569 1.548v.473h-4.512v-.452c1.29 0 1.418-.236 1.418-1.57v-6.444c0-1.44-.129-1.505-1.332-1.591v-.557h4.125Zm-1.29 5.5c.363.139.75.205 1.14.193a2.61 2.61 0 0 0 2.207-2.57 2.612 2.612 0 0 0-2.336-2.588 1.374 1.374 0 0 0-.86.194.957.957 0 0 0-.15.73v4.126-.086ZM181.701 102.33c-1.352.128-1.46.193-1.46 1.547v6.445c0 1.376.13 1.462 1.439 1.548v.473h-4.47v-.387c1.42-.129 1.42-.215 1.42-1.57v-3.222h-5.22v3.223c0 1.376.126 1.462 1.438 1.548v.473h-4.298v-.452c1.29-.129 1.419-.193 1.419-1.548v-6.466c0-1.376-.129-1.462-1.462-1.548v-.6h4.298v.535c-1.226.13-1.353.194-1.353 1.548v2.62h5.177v-2.555c0-1.42 0-1.505-1.333-1.613v-.535h4.298v.535h.107ZM196.59 109.87c0 .56-.43 2.15-.558 2.602h-8.012v-.473c1.46-.129 1.588-.236 1.588-1.57v-6.487c0-1.462-.129-1.527-1.395-1.634v-.514h7.348c0 .363 0 1.503.15 2.363h-.515a3.912 3.912 0 0 0-.56-1.398 1.987 1.987 0 0 0-1.762-.451h-1.159c-.537 0-.559 0-.559.559v3.652h1.46c1.462 0 1.548-.129 1.763-1.223h.494v3.33h-.473c-.215-1.16-.344-1.247-1.763-1.247h-1.48v3.008c-.113.488.033 1 .386 1.354.527.196 1.094.26 1.653.194.723.135 1.47-.071 2.021-.56a5.8 5.8 0 0 0 .836-1.547l.538.043ZM212.792 113.351h-.688a3.675 3.675 0 0 1-2.793-1.975c-.602-.99-1.376-2.062-1.87-2.836a1.31 1.31 0 0 0-1.352-.623h-.387v2.47c0 1.397.15 1.505 1.46 1.59v.56h-4.446v-.56c1.352 0 1.48-.214 1.48-1.59v-6.445c0-1.398-.128-1.462-1.394-1.548v-.6h4.168a4.77 4.77 0 0 1 2.62.557 2.48 2.48 0 0 1 1.097 2.15 3.144 3.144 0 0 1-2.15 2.857 44.82 44.82 0 0 0 2.879 4.147c.389.559.886 1.034 1.462 1.397l-.086.45Zm-6.445-6.058a2.549 2.549 0 0 0 1.76-.473 2.4 2.4 0 0 0 .86-2.019 2.16 2.16 0 0 0-1.935-2.408h-.341a1.168 1.168 0 0 0-.817.194 1.053 1.053 0 0 0-.15.731v3.997h.666l-.043-.022ZM237.8 113.373a4.578 4.578 0 0 1-.795-.13 3.675 3.675 0 0 1-2.556-1.545 84.955 84.955 0 0 1-3.072-3.91.821.821 0 0 0-.968-.43v3.029c0 1.44.15 1.548 1.462 1.634v.515h-4.297v-.515c1.225 0 1.376-.194 1.376-1.634v-6.445c0-1.462-.15-1.548-1.42-1.656v-.492h4.298v.535c-1.247 0-1.397.172-1.397 1.656v2.857a2.449 2.449 0 0 0 1.16-.753 32.245 32.245 0 0 0 2.707-3.05c.344-.452.301-.645-.494-.753h-.344v-.492h4.083v.535c-.979 0-1.912.424-2.557 1.161a63.451 63.451 0 0 0-2.75 2.857 69.34 69.34 0 0 0 3.546 4.556 8.413 8.413 0 0 0 2.147 1.999l-.128.47ZM243.667 112.536V112c1.331 0 1.46-.193 1.46-1.59v-6.467c0-1.398-.129-1.484-1.46-1.57v-.578h4.49v.535c-1.332 0-1.46.194-1.46 1.57v6.445c0 1.397.128 1.483 1.46 1.57v.622h-4.49ZM263.69 112.536V112c1.334-.129 1.377-.236 1.355-1.935v-6.574l-3.91 8.853h-.344l-3.545-8.595-.215 4.491c-.046.894-.046 1.79 0 2.685 0 .753.43.903 1.504.99v.622h-3.846v-.558c.944 0 1.245-.301 1.374-.968.16-.995.269-2 .323-3.007l.236-3.352c.15-2.15 0-2.15-1.417-2.322v-.535h2.922l3.545 7.97 3.588-7.97h2.857v.535c-1.419.13-1.524.172-1.462 1.763l.065 5.95c0 1.764 0 1.764 1.505 1.936v.558h-4.599.065ZM280.02 106.734a2.785 2.785 0 0 1 2.922 2.601 2.753 2.753 0 0 1-1.545 2.45 6.45 6.45 0 0 1-3.247.666h-3.695v-.452c1.397 0 1.483-.215 1.483-1.548v-6.51c0-1.354 0-1.461-1.354-1.547v-.6h4.297a4.303 4.303 0 0 1 2.494.557c.602.419.95 1.115.922 1.849a2.606 2.606 0 0 1-2.255 2.427l-.021.107Zm-1.87-.193c.166.043.336.066.508.066a2.008 2.008 0 0 0 1.986-2.214 1.944 1.944 0 0 0-1.763-2.15h-.344a1.762 1.762 0 0 0-.9.172.881.881 0 0 0-.194.774v3.352h.707Zm-.685 3.846c0 1.16.3 1.505 1.33 1.483a2.16 2.16 0 0 0 2.408-2.386c0-1.76-1.118-2.384-3.053-2.384h-.685v3.287ZM295.383 112.536V112c1.032-.129 1.159-.28.946-.946-.215-.666-.516-1.462-.86-2.384h-3.437l-.71 2.019c-.322.989-.193 1.16 1.032 1.29v.558h-3.545v-.558a1.77 1.77 0 0 0 1.76-1.677l3.374-8.593.559-.15c1.01 2.814 2.147 5.864 3.158 8.7.537 1.419.73 1.548 1.763 1.677v.601h-4.061.021Zm-1.548-8.594a177.724 177.724 0 0 0-1.48 4.06h2.92l-1.44-4.06ZM313.753 109.85c0 .558-.43 2.149-.58 2.622h-7.499v-.473c1.398 0 1.527-.215 1.527-1.59v-6.467c0-1.398-.13-1.484-1.42-1.57v-.578h4.298v.535c-1.29 0-1.44.172-1.44 1.57v6.445a1.337 1.337 0 0 0 .365 1.354c.482.176.996.24 1.505.194a2.154 2.154 0 0 0 1.76-.516 4.656 4.656 0 0 0 .86-1.613l.624.086ZM327.783 109.85c0 .558-.43 2.149-.58 2.622h-7.478v-.473c1.398 0 1.527-.215 1.527-1.59v-6.467c0-1.398-.13-1.484-1.419-1.57v-.578h4.405v.535c-1.29 0-1.44.172-1.44 1.57v6.445a1.337 1.337 0 0 0 .365 1.354c.482.176.995.24 1.505.194a2.154 2.154 0 0 0 1.76-.516 4.62 4.62 0 0 0 .86-1.613l.495.086ZM334.25 102.609a2.563 2.563 0 0 1-2.148 2.15l-.15-.452a1.659 1.659 0 0 0 1.29-1.397 1.119 1.119 0 0 0-1.054-1.052.346.346 0 0 1-.215-.365.71.71 0 0 1 .752-.645 1.766 1.766 0 0 1 1.525 1.76ZM346.497 104.35a2.351 2.351 0 0 0-2.148-2.15l-.088-.002a1.685 1.685 0 0 0-1.674 1.765 2.733 2.733 0 0 0 2.15 2.363 3.92 3.92 0 0 1 2.835 3.265 3.322 3.322 0 0 1-3.502 3.139h-.215a5.402 5.402 0 0 1-1.59-.258 5.928 5.928 0 0 1-.86-.344 19.788 19.788 0 0 1-.429-2.558l.493-.13a3.188 3.188 0 0 0 2.6 2.688c.046.002.091.004.136.004a1.77 1.77 0 0 0 1.755-1.917 2.901 2.901 0 0 0-2.148-2.406 3.956 3.956 0 0 1-2.75-3.244 3.087 3.087 0 0 1 3.072-3.053l.043.002h.301a7.308 7.308 0 0 1 2.148.366c.06.763.16 1.524.301 2.277l-.43.193Z"/><path fill="#e85834" fill-rule="nonzero" d="M59.018 201.96c.084.047.133.14.129.236v2.492a.149.149 0 0 1-.129.15H56.87a.153.153 0 0 1-.15-.128v-.796a.153.153 0 0 0-.13-.15 2.334 2.334 0 0 0-.988-.194 1.4 1.4 0 0 0-1.524.99 2.96 2.96 0 0 0-.15.709v2.986c.019.24.062.477.128.71.088.296.28.554.536.73.303.185.655.275 1.01.258.337.013.675-.045.989-.172a.156.156 0 0 0 0-.15v-.86a.15.15 0 0 1 .129-.15h2.148a.15.15 0 0 1 .15.128v2.449a.258.258 0 0 1-.129.236 6.451 6.451 0 0 1-3.545.946 5.113 5.113 0 0 1-2.664-.623 3.443 3.443 0 0 1-1.462-1.955 6.49 6.49 0 0 1-.257-1.246 19.36 19.36 0 0 1 0-1.935v-1.804c.045-.402.13-.797.257-1.182a3.9 3.9 0 0 1 4.169-2.707 6.268 6.268 0 0 1 3.631 1.032ZM74.639 201.358v1.89a.15.15 0 0 1-.13.15h-.644v6.447h.645a.149.149 0 0 1 .15.13v1.91a.15.15 0 0 1-.129.151h-4.297a.15.15 0 0 1-.15-.129v-1.892c0-.073.055-.137.128-.148h.645v-1.978h-2.943v1.978h.645a.149.149 0 0 1 .15.129v1.868c0 .075-.056.14-.129.15h-4.297a.15.15 0 0 1-.15-.128v-1.89a.149.149 0 0 1 .128-.15h.645v-6.448h-.645a.149.149 0 0 1-.15-.129v-1.911a.149.149 0 0 1 .129-.15h4.297a.15.15 0 0 1 .15.129v1.89c0 .074-.055.139-.128.15h-.645v1.763h2.943v-1.742h-.645a.149.149 0 0 1-.15-.129v-1.911c0-.075.055-.14.129-.15h4.297a.15.15 0 0 1 .15.15ZM86.478 201.358l2.75 8.595c.04.021.09.021.128 0h.516a.149.149 0 0 1 .15.127v1.87c0 .075-.055.14-.128.15h-3.932a.15.15 0 0 1-.15-.128v-1.742c0-.073.053-.14.128-.15h.452l-.258-.88h-3.116l-.257.858h.386c.076 0 .14.056.151.13v1.891c0 .075-.056.14-.129.15h-3.782a.153.153 0 0 1-.15-.128v-2.021a.148.148 0 0 1 .129-.149h.559l2.814-8.594a.216.216 0 0 1 .215-.15h3.287a.216.216 0 0 1 .237.171Zm-2.75 5.435h1.76l-.86-3.008-.9 3.008ZM105.084 201.358v1.89c0 .075-.056.14-.129.15h-.645v8.595a.15.15 0 0 1-.129.15h-2.513a.302.302 0 0 1-.387-.107l-3.287-6.101v4.102h.645c.073 0 .14.056.15.129v1.87c0 .075-.055.14-.128.15h-3.825a.153.153 0 0 1-.15-.128v-1.892a.15.15 0 0 1 .128-.15h.643v-6.446h-.643a.149.149 0 0 1-.15-.129v-1.911a.149.149 0 0 1 .129-.15h3.266a.26.26 0 0 1 .279.15l3.287 6.273v-4.125h-.645a.149.149 0 0 1-.15-.13v-1.91a.15.15 0 0 1 .129-.151h3.996a.149.149 0 0 1 .15-.129h-.02ZM116.816 201.294a5.456 5.456 0 0 1 1.61.752c.082.052.129.14.129.236v2.363a.149.149 0 0 1-.13.15h-2.104a.153.153 0 0 1-.15-.128v-.753a.156.156 0 0 0 0-.15 2.594 2.594 0 0 0-1.226-.258 1.529 1.529 0 0 0-1.653 1.053 3.651 3.651 0 0 0-.15.774v2.857c.021.256.07.507.15.753a1.53 1.53 0 0 0 1.653 1.01c.441.024.882-.052 1.29-.215a.195.195 0 0 0 .13-.172v-1.204h-1.463a.15.15 0 0 1-.15-.129v-1.806a.15.15 0 0 1 .129-.148h3.803a.149.149 0 0 1 .15.127v4.792a.37.37 0 0 1 0 .193l-.15.15c-.533.37-1.131.641-1.76.796-.702.191-1.424.286-2.15.28a4.033 4.033 0 0 1-4.298-2.686 6.035 6.035 0 0 1-.258-1.246v-3.502a6.49 6.49 0 0 1 .258-1.247c.24-.884.8-1.651 1.57-2.148a5.296 5.296 0 0 1 2.835-.688c.651-.024 1.3.04 1.935.194ZM132.2 201.358v2.793c0 .075-.056.14-.13.15h-2.15a.15.15 0 0 1-.15-.129v-.602h-2.147v1.914h1.287v-.366a.18.18 0 0 1 .301-.193h1.957a.15.15 0 0 1 .15.129v3.158c0 .075-.056.14-.129.15h-1.978a.15.15 0 0 1-.15-.129v-.3h-1.31v2.02h2.148v-.73a.147.147 0 0 1 .086 0h2.15a.15.15 0 0 1 .15.128v2.836c0 .075-.055.14-.128.15h-8.08a.153.153 0 0 1-.15-.129v-1.978a.15.15 0 0 1 .13-.15h.644v-6.445h-.645a.149.149 0 0 1-.15-.13v-1.932a.149.149 0 0 1 .129-.15h8.057a.15.15 0 0 1 .15.15v-.215h-.042ZM154.394 201.358v3.008c0 .075-.056.14-.129.15h-2.15a.15.15 0 0 1-.15-.129v-.774h-.922v6.445h.75c.075 0 .14.056.15.13v1.87a.149.149 0 0 1-.128.15h-4.49a.153.153 0 0 1-.15-.129v-1.935a.147.147 0 0 1 .13-.148h.771v-6.447h-.987v.752c0 .075-.056.14-.129.15h-2.15a.15.15 0 0 1-.15-.128v-3.008c0-.075.056-.14.129-.15h9.584a.15.15 0 0 1 .15.129l-.129.064ZM169.499 201.358v1.89c0 .075-.056.14-.13.15h-.623v6.447h.645a.15.15 0 0 1 .15.13v1.91c0 .076-.055.14-.128.151h-4.298a.15.15 0 0 1-.15-.129v-1.87a.148.148 0 0 1 .129-.149h.645v-1.977h-2.924v1.956h.645a.149.149 0 0 1 .15.129v1.868a.149.149 0 0 1-.128.15h-4.19a.15.15 0 0 1-.15-.128v-1.87a.15.15 0 0 1 .15-.149h.516v-6.447h-.645a.149.149 0 0 1-.15-.13v-1.932c0-.075.055-.14.128-.15h4.298a.15.15 0 0 1 .15.129v1.89a.149.149 0 0 1-.129.15h-.645v1.763h2.945v-1.72h-.645a.149.149 0 0 1-.15-.13v-1.932a.149.149 0 0 1 .129-.15h4.297a.15.15 0 0 1 .15.15h.151-.193ZM182.54 201.358v2.793a.15.15 0 0 1-.13.15h-2.147a.15.15 0 0 1-.15-.129v-.602h-2.15v1.914h1.118v-.366a.152.152 0 0 1 .135-.217.15.15 0 0 1 .08.024h1.997a.15.15 0 0 1 .15.129v3.158a.149.149 0 0 1-.129.15h-1.997a.15.15 0 0 1-.15-.129v-.3h-1.29v2.02h2.15v-.73a.163.163 0 0 1 .064 0h2.148a.149.149 0 0 1 .15.128v2.836a.15.15 0 0 1-.129.15h-7.928a.156.156 0 0 1 0-.172v-1.935a.156.156 0 0 1 0-.172h.645v-6.445h-.645a.147.147 0 0 1 0-.086v-1.954a.156.156 0 0 1 0-.15h8.057a.15.15 0 0 1 .13.15v-.215h.02ZM209.677 201.358v1.89c0 .075-.056.14-.13.15h-.644l-2.406 8.595a.217.217 0 0 1-.215.15h-2.15a.218.218 0 0 1-.236-.15l-1.632-6.058-1.763 6.209a.215.215 0 0 1-.236.15h-2.148a.213.213 0 0 1-.15-.15l-2.406-8.595a.137.137 0 0 0-.129 0h-.58a.149.149 0 0 1-.15-.13v-1.953a.149.149 0 0 1 .128-.151h4.083a.149.149 0 0 1 .15.129v1.89c0 .075-.056.14-.129.15h-.559v.13l1.032 4.297 1.76-6.445a.215.215 0 0 1 .237-.151h1.763a.213.213 0 0 1 .213.15l1.763 6.446.967-4.298h-.537a.149.149 0 0 1-.15-.129v-2.018a.15.15 0 0 1 .128-.151h4.083l.043.043ZM220.226 201.358l2.75 8.595c.04.021.09.021.128 0h.516a.149.149 0 0 1 .15.127v1.87a.15.15 0 0 1-.128.15h-3.954a.152.152 0 0 1-.142.1.155.155 0 0 1-.094-.035v-1.935c0-.073.056-.14.129-.15h.516l-.258-.88h-3.072l-.258.858h.387c.075 0 .14.056.15.13v1.891c0 .075-.056.14-.129.15h-3.781a.153.153 0 0 1-.144-.15c0-.021.004-.045.015-.064v-1.935a.142.142 0 0 1 0-.149h.559l2.814-8.594a.217.217 0 0 1 .215-.15h3.222a.221.221 0 1 1 .408.172Zm-2.75 5.435h1.76l-.859-3.008-.9 3.008ZM236.642 201.358v1.89c0 .075-.056.14-.13.15h-.73l-2.666 4.491v1.978h.881a.149.149 0 0 1 .151.129v1.868a.149.149 0 0 1-.129.15h-4.491a.152.152 0 0 1-.15-.128v-1.85c0-.072.055-.137.129-.148h.687v-1.977l-2.556-4.491a.156.156 0 0 0-.15 0h-.452a.149.149 0 0 1-.15-.13v-1.932c0-.075.056-.14.129-.15h4.082a.15.15 0 0 1 .15.129v1.76a.15.15 0 0 1-.128.15h-.58v.13l1.225 2.15 1.247-2.15h-.667a.149.149 0 0 1-.15-.13v-1.889a.149.149 0 0 1 .129-.15h4.04c.072.01.128.075.128.15h.15ZM257.46 201.358v1.89a.15.15 0 0 1-.128.15h-.667l-2.62 4.491v1.978h.752a.149.149 0 0 1 .15.129v1.868c0 .075-.056.14-.129.15h-4.512a.15.15 0 0 1-.15-.128v-1.85a.15.15 0 0 1 .128-.148h.774v-1.977l-2.6-4.491a.156.156 0 0 0-.151 0h-.45a.149.149 0 0 1-.15-.13v-1.932a.149.149 0 0 1 .129-.15h4.08a.15.15 0 0 1 .15.129v1.76a.149.149 0 0 1-.128.15h-.557v.13l1.223 2.15 1.247-2.15h-.559a.149.149 0 0 1-.15-.13v-1.975c0-.075.055-.14.129-.15h4.039a.172.172 0 0 1 .15.236ZM269.085 201.702a3.537 3.537 0 0 1 1.545 2.019c.13.406.215.823.258 1.247v1.76a13.4 13.4 0 0 1 0 1.763 6.18 6.18 0 0 1-.258 1.247 3.537 3.537 0 0 1-1.545 2.019 5.21 5.21 0 0 1-5.222 0 3.546 3.546 0 0 1-1.546-2.019 6.49 6.49 0 0 1-.258-1.247v-3.566a6.49 6.49 0 0 1 .258-1.247c.247-.84.8-1.561 1.546-2.019a5.205 5.205 0 0 1 5.222.043Zm-3.545 2.148a1.32 1.32 0 0 0-.516.73 2.805 2.805 0 0 0-.13.732v2.943c.011.247.054.494.13.73.081.295.264.553.516.732a1.764 1.764 0 0 0 1.76 0c.252-.179.434-.437.516-.731a2.82 2.82 0 0 0 .13-.731v-2.986a2.805 2.805 0 0 0-.13-.731 1.32 1.32 0 0 0-.516-.731 1.764 1.764 0 0 0-1.76 0v.043ZM286.057 201.358v1.89a.149.149 0 0 1-.129.15h-.664v4.47a4.475 4.475 0 0 1-1.16 3.33 4.303 4.303 0 0 1-3.159 1.16 4.294 4.294 0 0 1-3.201-1.16 4.466 4.466 0 0 1-1.16-3.33v-4.448h-.581a.149.149 0 0 1-.15-.13v-1.932a.15.15 0 0 1 .128-.15h4.298a.15.15 0 0 1 .15.129v1.89c0 .074-.056.139-.129.15h-.688v4.663c-.028.464.118.924.409 1.29a1.599 1.599 0 0 0 2.147 0c.29-.366.437-.826.409-1.29v-4.62h-.817a.15.15 0 0 1-.15-.13v-1.932c0-.075.055-.14.128-.15h4.298c.075.01.13.075.129.15h-.108ZM306.814 201.96c.084.047.133.14.129.236v2.492c0 .075-.056.14-.13.15h-2.15a.153.153 0 0 1-.15-.128v-.796a.149.149 0 0 0-.129-.15 2.327 2.327 0 0 0-.965-.194 1.402 1.402 0 0 0-1.526.99c-.08.236-.131.48-.15.73v2.986c.02.24.064.477.128.71.09.296.28.554.538.73.303.185.655.276 1.01.258.338.013.675-.047.987-.172a.146.146 0 0 0 0-.15v-.86c0-.075.056-.14.129-.15h2.15a.15.15 0 0 1 .15.129v2.599a.258.258 0 0 1-.129.236 6.46 6.46 0 0 1-3.545.946 5.12 5.12 0 0 1-2.666-.623 3.437 3.437 0 0 1-1.46-1.955 6.49 6.49 0 0 1-.257-1.246 18.152 18.152 0 0 1 0-1.935v-1.868a5.72 5.72 0 0 1 .258-1.183 3.902 3.902 0 0 1 4.211-2.706 6.28 6.28 0 0 1 3.567.924ZM319.253 201.702a3.54 3.54 0 0 1 1.547 2.019c.127.406.215.823.258 1.247v3.545a6.33 6.33 0 0 1-.258 1.247 3.54 3.54 0 0 1-1.547 2.018 5.206 5.206 0 0 1-5.22 0 3.549 3.549 0 0 1-1.548-2.018 6.656 6.656 0 0 1-.258-1.247v-3.588c.045-.424.133-.841.258-1.247.25-.84.8-1.561 1.548-2.019a5.201 5.201 0 0 1 5.22.043Zm-3.546 2.148c-.249.176-.432.434-.515.73a2.895 2.895 0 0 0-.127.732v2.943c.01.247.053.494.127.73.083.295.266.553.515.732a1.768 1.768 0 0 0 1.763 0c.252-.179.432-.437.516-.731.073-.237.116-.484.13-.731v-2.986a2.996 2.996 0 0 0-.13-.731 1.331 1.331 0 0 0-.516-.731 1.768 1.768 0 0 0-1.763 0v.043ZM333.327 201.702a3.546 3.546 0 0 1 1.546 2.019c.129.406.215.823.258 1.247v1.76a15.07 15.07 0 0 1 0 1.763 6.18 6.18 0 0 1-.258 1.247c-.247.84-.8 1.56-1.546 2.019a5.21 5.21 0 0 1-5.222 0 3.549 3.549 0 0 1-1.547-2.019 6.832 6.832 0 0 1-.258-1.247v-3.523c.047-.424.133-.841.258-1.247.249-.84.8-1.561 1.547-2.019a5.2 5.2 0 0 1 5.222 0Zm-3.545 2.148a1.32 1.32 0 0 0-.516.73 2.805 2.805 0 0 0-.129.732v2.921c.011.247.054.495.13.731.081.295.264.553.515.731a1.764 1.764 0 0 0 1.761 0c.252-.178.434-.436.516-.73a2.82 2.82 0 0 0 .129-.732v-2.964a2.898 2.898 0 0 0-.13-.731 1.32 1.32 0 0 0-.515-.731 1.764 1.764 0 0 0-1.76 0v.043ZM350.214 201.358v1.89a.15.15 0 0 1-.129.15h-.73l-2.149 2.3 2.148 4.298c.054.03.12.03.172 0h.817a.149.149 0 0 1 .15.127v1.892a.15.15 0 0 1-.128.15H347.4a.26.26 0 0 1-.258-.15l-2.15-4.169-1.18 1.247v.752h.645a.149.149 0 0 1 .15.13v1.868c0 .075-.056.14-.129.15h-4.297a.15.15 0 0 1-.15-.129v-1.806a.148.148 0 0 1 .128-.148h.645v-6.447h-.645a.149.149 0 0 1-.15-.13v-1.91a.149.149 0 0 1 .129-.15h4.297a.149.149 0 0 1 .15.128v1.89c0 .075-.055.14-.128.15h-.645V206l2.406-2.515h-.237a.149.149 0 0 1-.15-.129v-1.911c0-.075.056-.14.129-.15h4.06a.15.15 0 0 1 .194.064Z"/></svg>