<svg clip-rule="evenodd" fill-rule="evenodd" stroke-linecap="round" stroke-linejoin="round" stroke-miterlimit="1.5" viewBox="0 0 192 192" xmlns="http://www.w3.org/2000/svg"><path d="m0 0h192v192h-192z" fill="#fff" stroke="#fff"/><path d="m78 5.494c-30.787 6.879-55.957 28.186-67.008 56.722-5.983 15.449-7.738 36.375-4.408 52.576 9.064 44.104 49.499 75.157 94.916 72.893 29.558-1.473 55.875-16.614 72.308-41.602 26.073-39.645 17.583-92.629-19.593-122.265-8.267-6.59-23.835-14.598-33.715-17.342-8.44-2.344-33.784-2.929-42.5-.982m63.5 54.194c-1.65.213-16.479 1.962-32.953 3.886s-30.071 3.617-30.217 3.763c-.146.145.219 1.841.81 3.767.962 3.136.659 4.478-2.909 12.851l-3.985 9.349-5.043-9.402c-2.774-5.171-5.691-10.565-6.482-11.987l-1.438-2.584-11.392 1.434c-6.265.789-11.596 1.632-11.846 1.873s.063 1.809.695 3.484c.878 2.327.809 8.152-.292 24.711-1.273 19.143-2.081 25.02-4.119 29.984-.403.983.436 1.236 3.315 1l3.856-.317.735-11c.404-6.05 1.079-17.975 1.5-26.5l.765-15.5 4.171 7.5c5.393 9.698 9.857 21.044 12.754 32.416l2.314 9.084 2.434-5.5c1.338-3.025 5.11-11.954 8.38-19.842 6.836-16.487 7.175-16.215 5.546 4.461-.665 8.429-1.648 14.541-2.651 16.482-.878 1.697-1.361 3.319-1.075 3.605.831.831 60.558-6.64 66.627-8.333 12.41-3.464 20.078-11.299 20.798-21.252.365-5.045.103-6.085-2.225-8.852-1.451-1.725-4.212-3.655-6.135-4.29l-3.497-1.154 3.923-2.842c5.179-3.751 7.136-6.706 7.136-10.771 0-8.274-6.106-11.257-19.5-9.524m-12.752 16.062c-.292 6.463-.379 11.914-.192 12.114.987 1.06 8.072-4.785 10.565-8.716 5.561-8.768 3.158-15.148-5.704-15.148h-4.138zm-25.564-7.674c-1.552 2.486-1.916 5.592-3.623 30.924-1.257 18.649-.983 23 1.449 23 2.576 0 3.834-6.606 5.552-29.178 1.487-19.522 1.574-23.953.498-25.25-1.713-2.064-2.321-1.985-3.876.504m29.745 21.9c-1.965 1.039-4.047 2.481-4.628 3.206s-1.374 6.381-1.763 12.568l-.707 11.25h2.62c8.621 0 15.045-14.176 11.102-24.5-.945-2.475-2.019-4.48-2.386-4.456-.367.025-2.274.894-4.238 1.932" fill="#2d2d2d"/></svg>