<svg clip-rule="evenodd" fill-rule="evenodd" stroke-linejoin="round" stroke-miterlimit="2" viewBox="0 0 120 120" xmlns="http://www.w3.org/2000/svg"><path d="m0 0h67.395v78.792h-67.395z" transform="scale(1.78056 1.52299)"/><path d="m19.25 24.737c-4.182.293-5.25.722-5.25 2.108 0 1.102 1.194 2.093 3.25 2.698l3.25.957.265 29.25c.28 30.906.36 31.36 4.785 27.203l2.178-2.046 3.46 2.042c5.908 3.485 11.908 3.728 18.032.73 14.04-6.875 15.908-26.976 3.444-37.063-5.045-4.083-13.857-4.879-19.189-1.734-1.974 1.165-3.789 2.118-4.032 2.118-.244 0-.443-6.075-.443-13.5 0-13.388-.019-13.498-2.25-13.315-1.238.102-4.613.35-7.5.552m52.869 24.148c-2.988 1.592-5.982 5.217-6.084 7.365-.019.413.875 1.66 1.988 2.773 2.541 2.541 4.884 1.494 7.829-3.497 1.834-3.108 2.559-3.526 6.114-3.526 5.369 0 8.034 2.653 8.034 8 0 3.968-.03 4-3.818 4-4.553 0-13.548 2.538-16.991 4.794-1.355.888-3.093 3.122-3.863 4.963-4.442 10.633 7.3 19.598 18.93 14.453 2.466-1.091 4.803-2.499 5.193-3.13.471-.763 1.375-.3 2.701 1.386 1.309 1.664 2.982 2.534 4.874 2.534 3.091 0 7.974-1.86 7.974-3.038 0-1.386-2.925-3.126-4.068-2.42-2.205 1.363-2.901-2.106-2.92-14.542-.022-14.308-1.368-17.997-7.502-20.56-4.797-2.004-14.222-1.776-18.391.445m-40.042 6.704c-3.071 2.583-3.077 2.61-3.077 12.927 0 9.945.099 10.417 2.601 12.385 6.307 4.961 15.144 3.112 18.647-3.901 2.214-4.431 2.271-13.103.117-17.643-3.145-6.628-12.579-8.572-18.288-3.768m52.22 13.46c-7.801 1.541-12.093 5.644-10.895 10.415 1.257 5.009 8.508 5.754 13.997 1.437 2.231-1.755 2.601-2.819 2.601-7.474 0-2.985-.338-5.378-.75-5.317-.412.06-2.642.483-4.953.939" fill="#eaeaea"/></svg>