<svg xmlns="http://www.w3.org/2000/svg" xml:space="preserve" style="fill-rule:evenodd;clip-rule:evenodd;stroke-linejoin:round;stroke-miterlimit:2" viewBox="0 0 180 180"><path d="M0 90.005v90.006l90.25-.256 90.25-.255.255-89.75.256-89.75H0v90.005m.479.495c0 49.5.122 69.604.271 44.675.149-24.929.149-65.429 0-90C.601 20.604.479 41 .479 90.5" style="fill:#ffcd02"/><path d="M57.5 35.197C48.503 40.31 42 48.997 42 55.904c0 5.272 1.037 7.274 7.138 13.786 5.957 6.359 6.353 9.539 1.728 13.873-5.545 5.196-8.866 11.336-8.862 16.383.004 5.432 2.453 9.865 8.63 15.624 5.466 5.095 5.617 7.648.701 11.82-7.797 6.616-9.477 8.59-9.155 10.753.451 3.04 5.039 6.24 7.724 5.388 2.898-.92 13.86-11.174 15.654-14.642 3.466-6.703.639-15.857-6.965-22.554-5.247-4.621-4.953-8.003 1.269-14.645C65.963 85.178 67 83.176 67 77.904c0-4.953-3.135-10.809-8.424-15.735C55.834 59.614 55 58.047 55 55.45c0-2.941.715-3.915 5.425-7.395 2.984-2.204 5.709-4.901 6.055-5.993.761-2.396-.824-5.64-3.437-7.039-2.374-1.271-3.037-1.25-5.543.174m32.407 1.647c-2.466 1.564-6.16 4.802-8.21 7.197-7.305 8.534-7.004 16.487.936 24.741 8.07 8.387 8.11 9.189.874 17.299-9.548 10.7-9.526 17.743.084 27.723 7.155 7.429 7.109 9.889-.294 15.648-5.436 4.229-6.937 6.955-5.802 10.533.851 2.68 4.769 4.245 7.77 3.104 3.653-1.388 12.67-10.041 14.785-14.187 3.687-7.227 2.411-12.419-4.968-20.222-7.328-7.748-7.395-9.269-.732-16.517 9.696-10.546 9.995-17.436 1.173-26.965-2.965-3.202-5.693-7.029-6.064-8.503-.688-2.742 1.041-4.954 8.883-11.369 3.41-2.79 3.622-7.537.435-9.769-3-2.102-3.683-2.002-8.87 1.287m34.566-.06c-5.022 3.651-11.273 10.559-12.518 13.833-2.429 6.389-.442 12.095 6.819 19.587 6.267 6.465 6.17 9.048-.611 16.217-2.843 3.006-5.618 6.646-6.166 8.088-2.499 6.571-.127 13.106 7.42 20.449 6.545 6.367 6.112 9.319-2.248 15.325-2.685 1.929-5.103 4.358-5.376 5.399-.744 2.847.854 6.2 3.539 7.423 3.205 1.461 6.971-.535 14.045-7.442 9.772-9.541 9.796-17.041.089-27.526-6.975-7.534-7.05-9.454-.623-15.832 9.977-9.898 10.154-17.573.65-28.224-5.181-5.807-6.528-9.11-4.728-11.595.404-.557 3.097-2.962 5.985-5.343 5.423-4.472 6.463-7.173 4-10.397-2.364-3.095-5.987-3.082-10.277.038" style="fill:#fff"/></svg>