<svg xmlns="http://www.w3.org/2000/svg" xml:space="preserve" style="fill-rule:evenodd;clip-rule:evenodd;stroke-linejoin:round;stroke-miterlimit:2" viewBox="0 0 180 180"><path d="M0 0v180.011l90.25-.256 90.25-.255.255-89.75.256-89.75H0Zm.479 90.5c0 49.5.122 69.604.271 44.675.149-24.929.149-65.429 0-90C.601 20.604.479 41 .479 90.5" style="fill:#f49c55"/><path d="M56.024 50.539C40.396 54.922 30.456 67.357 27.85 85.786c-3.108 21.977 6.535 43.409 21.884 48.639 6.941 2.365 16.034 2.06 21.28-.714 5.209-2.754 9.702-8.039 10.584-12.449l.646-3.23-3.349 1.67c-1.842.919-5.717 1.867-8.611 2.107-6.936.576-15.149-3.259-19.324-9.023-5.751-7.939-7.318-13.934-7.392-28.286C43.465 64.798 46.895 58 56.939 58c6.307 0 12.435 3.992 17.568 11.445l3.993 5.798 1.175-8.372c.646-4.604 1.4-9.801 1.675-11.549.45-2.852.175-3.292-2.67-4.284-5.52-1.924-16.697-2.17-22.656-.499M98 51.25c0 .138.667 3.401 1.483 7.25 1.1 5.197 1.482 13.955 1.482 34s-.382 28.803-1.482 34c-.816 3.849-1.483 7.337-1.483 7.75 0 .412 11.264.75 25.031.75 19.134 0 25.131-.295 25.453-1.25.232-.687.105-5.643-.281-11.012l-.703-9.762-3.511 4.762c-4.489 6.088-12.082 10.279-19.91 10.989l-5.779.524-.65-3.251c-.357-1.787-.65-9.782-.65-17.765V93.72l5.372.555c5.84.602 11.58 3.131 16.494 7.266l3.134 2.637V79.013l-4.456 3.402c-5.115 3.904-9.162 5.416-15.544 5.808l-4.5.277v-32l5.237.217c7.727.319 14.483 3.649 20.283 9.995 4.934 5.398 4.98 5.422 4.98 2.519 0-1.611.291-6.372.647-10.58l.646-7.651h-25.646C109.541 51 98 51.113 98 51.25" style="fill:#fff"/></svg>