<svg xmlns="http://www.w3.org/2000/svg" xml:space="preserve" fill-rule="evenodd" stroke-linejoin="round" stroke-miterlimit="2" clip-rule="evenodd" viewBox="0 0 425 425"><path fill="#fff" d="M0 0h425v425H0z"/><path d="M216.7 26c8.3.5 19.6 1.6 25 2.5a198.7 198.7 0 0 1 37.2 9.8A214.4 214.4 0 0 1 329 67a193.3 193.3 0 0 1 27.3 27 218.1 218.1 0 0 1 24.2 38.2c3 6.3 7 16.2 9 22 2 6 4.4 15 5.5 20 1 5.2 2.4 13.5 3 18.4a213.8 213.8 0 0 1 0 40.3c-.7 5.3-2 14-3.2 19.2a227 227 0 0 1-5.5 20c-2 5.8-5.6 15-8.2 20.5-2.6 5.5-6.7 13.1-9 17-2.4 3.8-6.9 10.3-10 14.5a217.2 217.2 0 0 1-31.6 33 239 239 0 0 1-16.5 12c-5.2 3.4-14.4 8.6-20.5 11.5-6 3-15.7 7-21.5 8.8-5.8 2-14.8 4.4-20 5.5-5.2 1.2-13.9 2.5-19.2 3.1-5.4.6-14.3 1.1-19.8 1.1a222 222 0 0 1-19.8-1 217.9 217.9 0 0 1-41.1-9.1 215.4 215.4 0 0 1-41-20.1A209 209 0 0 1 78 341.4a219.3 219.3 0 0 1-23.5-30.6A233 233 0 0 1 44 291.4c-2.6-5.5-6.1-14.3-7.9-19.5-1.7-5.2-4.3-14.5-5.6-20.6-1.3-6.1-2.9-17.5-3.5-25.3-1-11-1-17.1 0-27.8l1.6-17.3c.4-3.5.4-3.5-.5 0a227.9 227.9 0 0 0-3 33c0 4.8.5 13.4 1 19.1a226.2 226.2 0 0 0 9.1 41.8 233.5 233.5 0 0 0 20.6 41.6A251 251 0 0 0 66 330.8a216.9 216.9 0 0 0 44.6 40.5c5 3.2 14 8.3 20 11.3s16.4 7.1 23 9.3a228 228 0 0 0 22 6 185.1 185.1 0 0 0 137.9-25c4.4-2.8 11.8-8 16.4-11.6 4.6-3.6 12-10.2 16.7-14.8a219.1 219.1 0 0 0 25.7-32 216.8 216.8 0 0 0 16.5-32.5c1.4-3.6 3.6-10.1 5-14.5 1.3-4.4 3.2-12.3 4.3-17.5 1-5.2 2.4-15.5 3-22.8 1-10 1-16.8 0-27.5-.6-7.8-2-18.6-3-24-1.2-5.5-3.5-14.3-5.2-19.6-1.7-5.3-5-13.9-7.2-19.1a216.9 216.9 0 0 0-21.5-36.6c-3.3-4.5-9.3-11.6-13.3-16A212.8 212.8 0 0 0 318.5 57a220.6 220.6 0 0 0-37.2-19.4A212.4 212.4 0 0 0 243 27.4a248 248 0 0 0-25.5-1.9c-16-.4-16-.4-.8.5m-24 .7c1.3.2 3.3.2 4.6 0 1.2-.2.2-.4-2.3-.4s-3.5.2-2.3.4m-7.4 1c1 .2 2.3.2 3 0 .6-.3-.2-.5-1.8-.5-1.7 0-2.2.2-1.2.5m37.2 30.6a29.3 29.3 0 0 0-9 9.9c-2.8 4.2-5.9 9.1-7 11a9.1 9.1 0 0 1-5.5 4.2l-18 5.3c-8 2.5-17.8 6-21.9 7.9-7.4 3.4-7.4 3.4-13.7-3a93.6 93.6 0 0 0-25-17.6c-2.6-1.2-8-3-11.9-4.1A88.4 88.4 0 0 0 91 69.4c-6.9-.3-14.5-.2-16.8.3-3.1.6 0 .8 11 .9a65 65 0 0 1 24.1 2.7c4.8 1.5 11.4 4 14.5 5.6a91.4 91.4 0 0 1 22.7 17.3c4.7 5.2 4.7 5.2 1.8 7.2l-7.3 6.2a40.2 40.2 0 0 0-12.2 21c-.8 4.4-.7 7 .2 10.3a20 20 0 0 0 4.5 7.8c1.8 1.8 4 3.3 4.9 3.3.9 0 2.4 2 3.7 5a31 31 0 0 0 6.3 8.8c2.3 2 6.3 4.7 8.9 5.8 2.6 1 4.7 2.3 4.7 2.8s-3.5 6.1-7.7 12.5c-4.7 7-11.1 15-16.6 20.4-5.1 5.2-9.4 8.7-10.2 8.4-.7-.3-1.5.2-1.8 1.2-.2 1-4 3.6-8.5 6a90 90 0 0 1-15.8 6.1 98.9 98.9 0 0 1-33.6.8c-3-.5-8-2.3-11.5-3.8-3.6-1.7-8-4.8-10.7-7.4a27 27 0 0 1-6.1-9.7c-1-3.1-1.6-7-1.3-9.8a31 31 0 0 1 2.3-8.6 34 34 0 0 1 5.7-7.7 41.2 41.2 0 0 1 19.5-10.3 63.7 63.7 0 0 1 26.3 0 49.3 49.3 0 0 1 22.8 12.7l7.2 7.8c1.8 2.2 1.8 2-.4-2.6a45 45 0 0 0-7.3-10 46.8 46.8 0 0 0-11.3-7.8 33 33 0 0 0-16-3.4 68.4 68.4 0 0 0-31.2 5.2c-3 1.4-7.2 4-9.4 6a38 38 0 0 0-7 8.7c-2.4 4.6-2.9 6.5-2.9 12.4 0 5.3.6 8 2.3 11.3 1.3 2.4 4.1 6.1 6.3 8.3 2.3 2.3 7 5.4 10.3 7 3.5 1.6 9.6 3.7 13.7 4.5a70.8 70.8 0 0 0 18.9 1 88 88 0 0 0 17-2.1c3-1 9-3.5 13.4-5.6 4.3-2.2 8-3.9 8.2-3.7.1.2.4 3.7.6 7.8.3 7.5.3 7.5-6.2 10.7-3.5 1.7-9.4 4-13 4.9-4 1-11.8 1.9-20.5 2.2-10.3.3-16.3 0-22.5-1.2l-11-2.2c-1.9-.4-2.1-.3-1 .4a75.7 75.7 0 0 0 33 5.6c10.9 0 16.1-.4 21-1.7 3.6-1 9.8-3.3 13.8-5.2 7.2-3.4 7.2-3.4 7.2 3.6s0 7-6 10.8a80.2 80.2 0 0 1-28.6 10.6c-7.9 1.4-7.9 1.4-.4.8a79.2 79.2 0 0 0 28-7.4c6.3-3 6.3-3 5.6 2.8l-1.8 12c-1.1 6.2-1.1 6.2-8.2 7.8-3.9.8-9 2.5-11.5 3.7a11.2 11.2 0 0 0-6.3 6.5 12.3 12.3 0 0 0-1.3 7.3c.4 1.6 2 4 3.7 5.5 1.6 1.4 4.2 2.5 5.6 2.5 1.5 0 4.2-.9 6-2 1.8-1.1 4.6-4.1 6.2-6.7 1.7-2.6 3.8-7.1 4.7-10 1.4-4.6 2-5.4 4.7-5.9 1.7-.3 6.5-.6 10.6-.7 5.7-.1 8.5.3 11.5 1.8l4.6 2.2c.4.2.6-.4.5-1.4 0-1-.5-2.1-1.1-2.6-.6-.4 4.6-.5 11.4-.2 6.9.2 18 1.2 24.5 2.1a108.7 108.7 0 0 1 18.1 3.5c.6-.2.7 0 .3.5-.4.4.4 2 1.7 3.6 1.4 1.6 2.5 4.2 2.5 5.6 0 2.6-.2 2.7-5.8 2.7-3.5 0-7.1.7-9.4 1.9-2 1-5.8 3.6-8.3 5.8a34 34 0 0 0-6.7 8 16 16 0 0 0-1.6 10c.3 3.7 1 6.4 2.3 7.8a11 11 0 0 0 5.5 2.6c3.7.6 3.7.6 4.3 6.3.2 3.2 1.4 7.6 2.6 9.9 1.1 2.2 3 4.8 4.3 5.6 1.2.9 3.7 1.6 5.6 1.6 1.8 0 4.6-.7 6.3-1.5 1.6-.9 2.9-1.8 2.9-2.1 0-.3-1.5-.3-3.3 0-2.8.5-3 .5-.8-.4 1.3-.6 3.2-.8 4.2-.5 1.3.4 2.7-.6 5-3.8 3.4-4.4 3.4-4.4 6.1 0 1.5 2.4 3.3 4.3 3.9 4.3.8 0 .7-.5-.2-1.8-1.1-1.5-1.1-1.5.1-.4.8.7 1.5 1.8 1.5 2.5s1.6 2 3.5 3a12.6 12.6 0 0 0 13.2-1c1.2-1 3-3.6 4-5.8a23 23 0 0 0-1.2-20.3 36 36 0 0 0-6.5-9 24 24 0 0 0-7.5-4.3c-3.2-1-4.5-1-6.5.1-1.4.7-2.5 1.8-2.5 2.3 0 .5.7.4 1.5-.3s1.5-1 1.6-.9l.4 2.1c.2 1-.1 2-.6 2.4-.5.3-.8.2-.7-.3.2-.4 0-1-.4-1l-1.4-.3c-.4 0 0 .7.6 1.5.7.8 1.6 1.3 2 1 .4-.2 2.2 1.2 4 3.3 3.5 3.7 3.5 3.7 0 .7s-3.5-3-.2.6c1.8 2 2.9 3.9 2.5 4.3-.5.5.3.5 1.7.2 2.5-.7 2.5-.7 0 .8-1.5 1-2 1.5-1 1.6 1.2 0 1.3.2.1.9-1 .6-1 1-.2 1.5.6.4 2 .4 3.1 0 1.1-.3 1.8-1 1.5-1.4-.3-.5.3-1.4 1.2-2 1.5-1 1.5-1 .1-.6-1 .3-1.5 0-1.4-1.2.2-.9 1-1.8 1.7-2 1-.3 1-.1-.1.7-.8.6-1 1-.5 1a6 6 0 0 0 2.5-.9c1.3-.9 1.3-1 0-1-1.2 0-1.3-.2-.1-1 1-.6.9-1-.8-1.5-1.2-.3-1.9-1-1.6-1.5.3-.5-.3-1.3-1.2-1.9-1.1-.5-2.5-.6-3.5 0-1.2.7-1.5.5-1.4-.9 0-1-.6-1.7-1.9-1.7-1.1 0-2-.5-2-1 0-.6-.4-1.6-.8-2.3-.5-.8-.3-1.2.8-1.2.9 0 3.3.9 5.4 2 2.2 1 5.3 3.6 7 5.6 1.6 2 2.8 4.1 2.5 4.6-.3.4 0 .8.8.8.7 0 .2.7-1.1 1.4-2.4 1.4-2.4 1.4-.1 2 1.7.7 2 1 .9 1.7s-1.1.9 0 .9c.6 0 1 .4.6 1-.3.6 0 1 .7 1 1 0 1 .2 0 .9-1 .6-1 1 .4 1.5 1.6.6 1.6.8-.2 2.1-1.2 1-1.4 1.3-.3 1 1-.4 1.5.1 1.5 2s-.4 2.4-1.5 2c-1.2-.5-1.3-.3-.4.6.6.6 1 1.8.6 2.5-.3.8-1 1-1.6.7-.6-.4-.8 0-.4 1 .5 1.4.3 1.6-1.1.8-1-.6-2.4-.6-3.4 0-1.1.6-1.8.4-2.2-.6-.3-.8-1-1.5-1.6-1.5-.6 0-.8.5-.4 1.2s.3.8-.5.4c-.6-.4-.9-1.2-.6-1.7.4-.5.3-.9 0-.9s-1.6.5-2.8 1c-2 1-2 1-.5-.3 1-.8 1.6-1.6 1.3-1.8-.2-.3.5-.6 1.5-.7l3.8-.3c1-.1 2.6.1 3.7.5 1.3.5 1.1.2-.5-.8s-2-1.5-1-1.6c1 0 1.1-.3.4-.8-.6-.4-1-1.5-.8-2.4.1-1-.2-2-.7-2.4a1 1 0 0 1-.4-1.5c.4-.5.3-.9-.2-.9-.4 0-1.9.7-3.2 1.4-2 1-2 1.4-.7 2a6 6 0 0 0 3.3 0c1.5-.5 1.6-.4.3.5-1.3 1-1.3 1 0 1.1 1.2 0 1.3.2.1.9-1.1.7-1.1 1 0 1.5.8.3.3.3-1 0s-2.1-.2-1.8.3c.3.5-.6.9-2.1.8-1.7 0-2.6-.6-2.4-1.4.2-.8-.3-1.1-1.2-.8-1 .4-1.3 0-1-1.1.1-1 .3-1.7.4-1.7l.5-1.8c.2-1-.5-2.3-1.5-3-1.4-.8-1.6-1.5-1-2.8.7-1.1.6-2 0-2.4-.5-.3-1-1.4-1-2.2 0-1-1-2.8-2.3-4.1-1.2-1.4-1.6-2.2-1-1.8 1 .6 1.2.1 1-1.7-.3-1.4-1.3-3.9-2.2-5.6-.8-1.7-1.3-3.7-.9-4.3.4-.6.3-.8-.4-.4-.6.3-1.4-.4-1.8-1.6a8 8 0 0 1-.6-3.1c.1-.5-.2-.6-.8-.2-.6.4.2 2.9 2 6.5 1.7 3.3 3 6.7 3 7.6 0 1.5-.3 1.5-2.8-.2-2.4-1.6-2.5-1.6-1.3 0 .8.9 1.2 1.8 1 2-.3.3-1.6 1-3 1.6-2 .9-1.8 1 1.6.5 2.2-.3 3.5-.2 3 .2-.7.4-1 2.4-1 4.3.1 2-.2 4.3-.7 5.2-.5 1-.3 1.8.5 2.1 1 .4 1 .6 0 .6-.7 0-1 .8-.7 1.6.4.8 0 1.5-.6 1.5-.7 0-.9.8-.5 2s.2 2-.5 2-1 .6-.7 1.4c.3.7 0 1.9-.6 2.5-.6.6-2.5 1-4.1 1-2.4 0-2.7-.2-1.6-.9 1.3-.9 1.3-1 0-1-.8-.1-.2-.8 1.5-1.6 2.2-1.1 2.4-1.4.7-1-1.2.2-2 0-1.6-.5.3-.5 1.2-.9 2-.9s1.4-.4 1.4-.8-.9-1.4-2-2.2c-1.4-1-1.6-1.6-.7-2.2.9-.6.8-.8-.2-.8s-1-.4.5-1.5c1.4-1.1 1.6-1.5.4-1.5-1.1 0-1-.3.4-1.1 1.5-1 1.6-1.3.5-2-1.2-.8-1.2-1 .1-1.9 1.3-.9 1.3-1 0-1-1.2 0-1.3-.2-.1-.9.7-.5 1-1.3.7-2-.3-.5.3-1.6 1.4-2.4 2-1.4 2-1.5-.7-2.2-1.5-.3-3-1-3.3-1.5-.3-.5-1.8-1.1-3.3-1.4-1.5-.3-2.5 0-2.2.4.3.5 0 1.2-.6 1.6-.8.4-1 .3-.5-.4.5-.8 0-1-1.6-.9-1.3.2-2.2.8-2 1.3.1.5 1 1 2 1s2.6-.4 3.7-1c1.8-.8 1.9-.7.6.7-1 1.3-1 1.7-.1 1.7 1 0 1 .4-.1 1.7-1.2 1.4-1.2 1.6.2 1 1-.3 1.5 0 1.4 1.2 0 .9-.5 2.2-.9 3-.4.7-1.5 1-2.5.7-1.5-.6-1.5-.5 0 .7 1.6 1.2 1.6 1.4 0 2.6-1.5 1-1.5 1.2 0 .7 1.2-.3 1.6 0 1.4 1.2-.1 1-1 1.7-2.2 1.6-1 0-2 .6-2 1.3 0 .9.8 1.1 2.1.8 1.7-.5 1.6-.3-.4 1-1.6.9-2 1.5-1 1.5s.6.6-1 1.6c-2.5 1.5-2.5 1.5 0 .9 2.2-.5 2.3-.4.7.5-1 .7-2.5 1-3.3.6-.9-.3-1.3-1-1-1.5.3-.5-.1-1.2-1-1.5-.8-.3-1.2-1-.9-1.6.3-.5.3-1-.2-1-.4 0-2-1.6-3.7-3.6-2.7-3.4-2.7-3.5-.4-2 2.1 1.4 2.5 1.4 2.5.2 0-.9-.5-1.2-1.1-.9-.6.4-.2-.4.9-1.7 1.3-1.5 1.5-2 .5-1.6-.8.4-.7 0 .3-.8s1.6-1.9 1.3-2.4c-.3-.6.6-1.8 2-2.7 2.5-1.6 2.6-1.9 1-3-1.6-1.2-1.5-1.3.1-2a51.6 51.6 0 0 1 4.7-2c1.1-.5 3.7-.2 6.5.7 4.6 1.4 4.6 1.4 4.7-3.1 0-2.5-.1-3.7-.4-2.7-.3 1.5-.6 1.6-1.3.5-.6-.9-.7-.3-.3 1.8.6 3.2.6 3.2-3.2 2.1-2.2-.5-4.2-1.5-4.6-2.1-.4-.6-.3-1.7.3-2.3.6-.7.4-1.6-.6-2.4-1.1-1-1.8-1-2.8-.1-.8.6-1.6.9-1.9.6-.3-.3-1.1.3-2 1.2-1.2 1.7-1.2 1.7.7.3 2-1.4 2-1.4.2.6-1 1.1-1.4 2.5-1 3 .5.4 0 .3-.9-.4-1.4-1.1-1.8-1-2.8.8-.6 1.1-1.6 1.7-2.2 1.4-.7-.4-.8-.2-.4.5.6 1 1.2.9 2.4-.1 1.5-1.1 1.5-1.1.5.3-.7.9-1 1.8-.8 2 .3.3-1.1.5-3 .4-3-.2-3.5.1-3 1.4.3.8.3 1.2-.1.8-.4-.4-1.5 0-2.5.9-1 .8-2 1.1-2.3.6-.3-.5.1-1.8 1-2.8 1.2-1.6 1.3-1.7.8-.1-.3 1-.4 1.7 0 1.7.3 0 1.2-1.2 2-2.8.8-1.5 1.5-2.1 1.6-1.4 0 .7.4 1 1 .7.6-.3 1-1 1-1.6 0-.6-.4-.8-1-.5-.4.4-1.3-.6-2-2.1-.8-2.3-1-2.4-.6-.5.3 1.3.2 3 0 3.7-.3.8-1.2 1.1-2 .8-.8-.3-1.4 0-1.4.7 0 .6-.4.8-1 .5-.5-.3-.7 0-.4.8.3.8-.2 2-1 2.7-1 .7-1.6 1.7-1.6 2.3 0 .6.6.3 1.3-.6 1.1-1.6 1.3-1.6 2.4.2 1 1.6 1 1.9-.5 1.6-1-.1-2.2.2-2.8.7-.9.6-1.1-.5-1-4 .2-2.6 1.1-6.2 2.1-8 1.3-2 2.2-2.8 2.6-2 .5.8 1 .2 1.4-1.4a4.3 4.3 0 0 1 3-3.2c1.4-.4 2.5-1.3 2.5-2 0-1 .6-1.3 1.5-1 .8.4 1.5.2 1.5-.3 0-.6 1.8-1 4-1 2.7 0 4 .5 4.3 1.6.3 1 .5.6.6-.8.1-2.3.2-2.4 2-.6 1.2 1 1.9 2 1.6 2.5-.2.4.4.7 1.3.7a7 7 0 0 0 3.7-1.6c1.8-1.5 1.9-1.5.6.2-.8 1-1 2-.7 2.4.3.4 1.4 0 2.2-.9 1-1 1.4-2.4 1-3.6-.5-1.4-1.2-1.9-2.3-1.5-1.4.5-1.4.3.1-2 1.4-2 1.5-2.9.4-5.3-.7-1.6-2.3-4.3-3.6-6.1-2.4-3.2-2.4-3.2.8-2.3 1.8.5 3.8 1.4 4.6 2.1.8.6 3 4.2 5 8 2 3.7 5.2 8.6 7.2 11 2 2.3 5.4 5.5 7.5 7 2.2 1.6 4.7 2.9 5.5 2.9 1.2 0 1.3-.9.8-4.3a28 28 0 0 0-3-8.2 65.7 65.7 0 0 0-7-8.8c-3.9-4.3-4.1-4.8-2-4.3 1.4.4 5 1.8 8 3.3a35 35 0 0 1 10.3 8c2.8 3 7 9.8 9.8 15.6 2.8 5.6 5.8 12.6 6.7 15.5 1 2.8 2 5 2.4 4.8.4-.2.7 1 .8 2.6 0 1.6.6 3.4 1.3 4 .8 1 1.5.7 2.6-.8.8-1 1.2-2.5 1-3.2-.3-.7 0-1 .5-.7.6.3 1-.2 1.2-1.2l.3-3.3c0-.8-.3-2.4-.9-3.5-.6-1.1-1-2.8-1-3.7 0-1-1-2.4-2.1-3.3-1.1-.8-1.6-1.4-1-1.3a1 1 0 0 0 1.2-.7c.2-.6 0-1.8-.3-2.8-.3-1-1.5-1.7-2.6-1.7-1.4 0-1.8.5-1.4 1.6l1.2 3.8c.4 1.6 0 2.3-.9 2.3-.8 0-1.4-1-1.3-2.1 0-1.3-.4-2-1.2-1.8-.8.1-1-.2-.8-.7.4-.5.2-1.2-.4-1.6-.6-.4-.8-1-.5-1.6.3-.5 0-.6-.8-.3s-1.8 0-2.3-.7c-.5-.8-.3-1 .7-.5.8.4.5 0-.6-.9s-2-2-2-2.5-.6-1.5-1.3-2.1c-.6-.7-1.2-1.9-1.2-2.5 0-.7-.7-2-1.5-2.8-1-.9-1.1-1.7-.5-2.1.5-.3 1-.1 1 .5s.4.8 1 .5c.6-.3.7 0 .4 1-.4 1 0 1.5 1 1.5a3 3 0 0 1 2.2 1.2c.5.7.2.9-.7.4-.8-.4-.1.2 1.4 1.4s3.4 3.5 4.3 5.1c1.3 2.6 1.7 2.8 3.6 1.8 1.1-.6 1.7-1.4 1.2-1.8-.5-.3-1.4-1.5-2-2.6a5.3 5.3 0 0 0-3.4-2.3c-1.8-.3-2-.6-1-1.2 1.1-.7.8-1.1-1.3-2-1.5-.5-2.7-1.2-2.7-1.4 0-.3.8-.3 1.8 0s.1-.4-1.8-1.5c-2-1.1-3-2-2.5-2 .6-.1-1.4-1.5-4.3-3.2-2.8-1.7-5.2-3.5-5.2-4 0-.7-.7-.9-1.5-.5-.8.3-1.5.1-1.5-.4 0-.6-.3-1-.8-.8-.4 0-1.6-.2-2.7-.7l-11-4.1c-5-1.9-13.5-4.5-19-5.8a501.3 501.3 0 0 0-24.5-5c-1.4-.2-9.3-1-17.5-1.6a228.3 228.3 0 0 0-43.3.8c-1.2.4-1.4 0-.9-1.9a165 165 0 0 0 1.9-12.9c.7-6.6 1.7-10.8 2.5-11.3.7-.5 4-3 7.2-5.7 5.9-4.9 5.9-4.9 4.6-.5-.8 2.4-1 4.6-.8 5 .4.2 2.3.5 4.3.5 3.5 0 3.6 0 3.7-4 .1-2.3.9-6.5 1.7-9.4 1-3.7 3.2-7 7-11.3a43 43 0 0 1 10.7-8.7c4-2 5.6-2.3 7-1.5 1 .5 1.9 1.8 1.9 2.8 0 1-1.6 3.3-3.5 5a16.6 16.6 0 0 1-7.6 3.7c-3.7.6-4.4 1.2-6.1 5.1a13.3 13.3 0 0 0-1.3 8.3c.4 2.2 1.5 5 2.6 6.4 1 1.3 3.5 3 5.5 3.6 3 1 4.3 1 8-.5 2.3-.9 5.6-3.1 7.2-5 2.9-3.2 2.9-3.2 4.1.2.8 2.1 2.3 3.8 3.9 4.4 1.4.5 3.8.7 5.3.4 1.5-.4 4.6-2.6 6.8-5a20 20 0 0 0 4.2-5.7c0-.7.7.8 1.5 3.4.8 2.6 2.4 5.4 3.6 6.3 1.3.8 3.4 1.5 4.8 1.5s4-.9 5.7-2c1.8-1 4.5-3.7 6.1-6 3-3.9 3-3.9 4 0 .7 2.1 2.4 4.8 3.9 6 1.9 1.4 4 2 8 2 3 0 6.8-.7 8.5-1.6 2.8-1.5 3-1.5 2.5 0-.5 1.2 0 1.6 2.3 1.6 1.6 0 3.4-.6 4-1.3.6-.6 3.7-5.3 6.9-10.2 3.1-5 8.3-11.4 11.5-14.3 3.2-2.8 6.4-5.2 7.2-5.2.8 0 1.4.6 1.4 1.4 0 .8-1.8 4.8-4 9-2.9 5.2-4.2 9-4.3 12-.1 3.1.4 5 1.7 6.5a7 7 0 0 0 5.4 2.1c1.8 0 4.7-1 6.4-2.1a27 27 0 0 0 5.6-6.3c2.1-3.4 2.7-3.7 3-2.1.1 1.1.5 3 .8 4.3.2 1.2 1.9 3.1 3.7 4.2 1.8 1.1 5 2 7.2 2s5.3-.7 6.9-1.5l3.2-1.5c.2 0 0 .7-.2 1.5-.5 1.2.2 1.5 2.9 1.5 3.3 0 3.7-.4 8.3-8.3a87.3 87.3 0 0 1 12-15.4c4-4 7.9-7.3 8.8-7.3.9 0 1.6.6 1.6 1.4 0 .8-1.8 4.7-4 8.8-2.1 4-4.2 9.1-4.5 11.3-.6 3.2-.3 4.5 1.5 6.8 1.7 2.1 3 2.7 6 2.7 3.3 0 4.7-.7 7.9-3.9 2.1-2.1 5.5-6.7 7.4-10.2 2-3.5 3.9-7.2 4.2-8.2.4-1 .3-1.7-.3-1.7a25 25 0 0 0-5 7.3c-2.2 4-5.4 8.8-7 10.6-2.2 2.2-3.9 3.1-5.4 3-2-.3-2.3-1-2.1-4a43 43 0 0 1 3.2-10.4 192 192 0 0 1 7-14.3c4-7.2 4-7.2 1.4-7.2-1.4 0-5.6 1.7-9.2 3.7-3.6 2-9.5 6.5-13 10-6.3 6.3-6.3 6.3-2.6-.5 2-3.7 5-8.4 6.6-10.4 3-3.8 3-3.8-1-3.8-3.3 0-4.4.5-6.4 3.3-1.3 1.7-5 8.1-8.1 14.2-3.2 6-7.3 12.7-9.3 14.7-2 2-5.2 4.3-7 4.9-1.8.6-4.1.8-5.1.5-1-.4-2.4-1.8-3-3.2-.7-1.4-1.2-3.3-1.2-4.2 0-1 .4-3.3 1-5.2.9-3.2 1.4-3.6 6.2-4.8a32 32 0 0 0 9-3.9 29 29 0 0 0 6-5.6c1.3-1.8 2.2-4.6 2.2-7 0-3.5-.3-4.3-2.6-5.5-2.2-1-3.7-1-7-.2-2.6.7-6 3-9.3 6.1-3.3 3.1-6.5 7.5-8.5 11.7-1.8 3.7-5.2 9.7-7.6 13.4a31.8 31.8 0 0 1-6.5 7.8c-1.7 1-2.4.9-3.6-.3-1.3-1.3-1.3-2.2.2-7.3 1-3.3 4.3-11 7.4-17.2 5.7-11 5.7-11.2 3.3-11.2-1.4 0-5.5 1.6-9 3.7-3.7 2-9.2 6.2-12.4 9.3a42.5 42.5 0 0 1-5.8 5.1l7-14 12.8-23.4a64.2 64.2 0 0 1 8.9-12.6l5.8-4.5a21 21 0 0 0 5-7c1.5-3 2.5-7 2.5-9.7a27.7 27.7 0 0 0-6.6-16c-.9-.7-.1 1 1.6 3.8 1.7 2.8 3.4 6.8 3.7 9 .3 2 0 5.7-.6 8a23.3 23.3 0 0 1-10.1 12.8 22.1 22.1 0 0 1-20-.5c-1.3-.8-1-1.4 1.8-3.6 1.7-1.4 4.4-4.6 5.9-7 1.8-3.2 2.6-6 2.5-8.9 0-2.3-1.4-7.7-3.1-12-1.8-4.4-3.1-9.5-3.1-12 0-2.8.7-5.1 2.2-7 1.8-2.3 2.7-2.6 5.5-2.2 1.8.3 3.3.2 3.3-.3s-1-1.4-2-2a8.3 8.3 0 0 0-5-.5c-1.4.3-4 2-5.8 3.8-1.6 1.8-6.1 9.5-10 17.2-3.8 7.7-8.2 15-9.6 16.3-1.5 1.2-3 3.6-3.3 5.3a16 16 0 0 1-4 6.5C255 177 253 178 251 178c-1.8 0-3.4-.8-4.4-2.2-.9-1.2-1.6-4-1.6-6.1 0-2.1.7-6.4 1.6-9.5 1.2-4.3 3-7.1 6.8-11.2 2.9-3 7.4-8.6 10-12.3a169 169 0 0 0 10.1-17.2c3-5.8 5.9-13 6.6-16 1-4.7 1-5.7-.5-8-.9-1.4-2.6-2.5-3.8-2.5-1.1 0-3.5 1-5.4 2-1.8 1.2-5 4.6-7 7.6s-6.2 11-9.4 17.7c-3.2 6.7-7.7 17.6-10 24.2-2.2 6.6-6.2 15.5-8.8 19.9-2.6 4.3-6 8.9-7.5 10.2-1.6 1.3-3.7 2.4-4.8 2.4-1 0-2.4-1-3-2.4-.8-1.8-.7-3.7.5-7.8a148.2 148.2 0 0 1 15.4-31c2.6-2.8 2.6-2.8-2.4-2.8a18 18 0 0 0-6 .8c-.6.4-3 4.5-5.4 9.2-2.3 4.7-6 11.7-8.3 15.5-2.2 3.8-5.6 9.2-7.6 11.8-2 2.7-4.9 5.5-6.4 6.4-2.2 1.1-3.2 1.2-4.3.2-.8-.6-1.4-2.8-1.4-4.8 0-2.2 2.1-8 5.6-15.6 3-6.5 7.3-14.6 9.5-17.8 4-5.8 4-5.8-1.8-5.5-5.8.3-5.8.3-12.4 13.1-3.7 7.1-8.2 14.5-10 16.4-1.9 1.9-4.7 4.1-6.2 5-2.8 1.4-2.8 1.4 0-3.9 1.4-3 9.5-21 17.7-40.2 15.1-35 15.1-35 20.1-36.6a45.8 45.8 0 0 0 17-9.1c2-1.8 4.5-5 5.6-7 1-2.1 1.9-5 1.9-6.4 0-1.6-1.2-3.8-3-5.6-2.3-2.3-3.7-2.9-7.2-2.9-2.6 0-5.9 1-8.3 2.3m5.8 4.8a24.9 24.9 0 0 0-7.2 5.8c-1.5 2-3.6 5.1-4.5 7-1 1.8-1.5 3.5-1.3 3.7.2.3 3-.5 6-1.6a49 49 0 0 0 9.6-5c2.2-1.7 4.3-4 4.7-5.4.3-1.3.4-3.3.2-4.3s-1-1.9-1.8-2c-.8-.2-3.4.6-5.7 1.8m-40.8 30.8c-6 1.6-14.6 4.3-19 6a72 72 0 0 0-10 4.4c-1.7 1.3-1.7 1.5 0 4.8 1 1.8 2.1 4.5 2.5 5.9a4.7 4.7 0 0 0 3 3.1c2.1.6 2.2.7.5.8-1.9 0-2 .8-2.1 7-.1 5.5-.7 8.2-2.8 12.5-1.5 3-4.5 7.1-6.8 9-2.2 2-5.3 3.8-7 4.1-1.5.4-2.8 1.2-2.8 2a32.6 32.6 0 0 0 8.2 11.5c1.5 1.1 4.3 2.7 6.2 3.5a19 19 0 0 0 5.5 1.5c1.5 0 3.2-2.6 7.4-11.3 3-6.1 8.7-18.6 12.7-27.7l12.5-28.3c3-6.4 4.8-11.7 4.2-11.7-.7 0-6.1 1.4-12.2 3m85.2 8.3a97.7 97.7 0 0 0-6 9.8 359 359 0 0 0-15.3 34.6c.2.3 2.5-2.2 5-5.4a167.2 167.2 0 0 0 18.2-30.3c1.3-3.3 2.4-7.3 2.4-9 0-1.6-.4-3-.9-3s-2 1.5-3.4 3.3m-123.3 7.3a74.1 74.1 0 0 0-8.2 6.7c-2.4 2.3-5.3 6-6.4 8.2a31.6 31.6 0 0 0-2.5 10c-.4 5.1-.2 6.5 1.9 9.5 1.3 2 3.1 3.6 4 3.8 1.5.3 1.8-.5 1.8-4.5 0-2.6.9-6.6 1.9-8.9 1-2.2 3.3-5.7 5-7.6 1.8-2 5.2-4.6 7.6-5.8a21 21 0 0 0 4.5-2.6l-2-5.9c-1.2-3-2.5-5.5-3-5.5-.4 0-2.5 1.2-4.6 2.6M308 112a8 8 0 0 0-2 5c0 1.9.9 3.5 2.6 5 1.5 1 3.4 2 4.3 2 1 0 2.7-.7 3.9-1.6 2-1.4 2.2-1.4 2.2 0 0 1-1.1 2.8-2.5 4.1a8.2 8.2 0 0 1-5.7 2.5c-2.8 0-3 .2-1.5 1.1 1.2.7 2.8.7 5.3-.1 2.1-.7 4.3-2.5 5.5-4.4 1-1.7 1.9-4.1 1.9-5.4a14 14 0 0 0-1.5-5.2c-.8-1.6-2.4-3.4-3.4-4-1.1-.5-3.1-1-4.5-1s-3.5.9-4.6 2m-152.5 9.6c-1.7.8-4.5 3-6.3 4.7-1.8 1.7-4 5-5.1 7.2-1.1 2.2-2.2 6-2.6 8.5-.3 2.5-.2 5.1.3 5.8.8 1.1 1.5 1.1 4.4-.1a23.9 23.9 0 0 0 12.6-23c-.3-4.7-.3-4.7-3.3-3.1m120.1 27.3c-5.5 10.9-5.7 11.6-4.3 14a23 23 0 0 1 2 6.1c.5 2 1.6 4.6 2.7 6 2 2.5 2 2.5 4 0a22 22 0 0 0 3.1-6.5c.7-2.6.9-7.2.4-13-.4-5-1-11-1.4-13.5-.7-4.5-.7-4.5-6.5 7m-64 18.2c-1.1 1.8-3.8 5.2-6 7.5a20.6 20.6 0 0 1-7.6 5.4c-3 .9-4.3.8-6.6-.2-1.6-.8-3.4-2.5-4.2-3.9a11 11 0 0 1-.8-5.7c.4-3.1.4-3.1-5-.2-3.1 1.6-6.2 2.9-6.8 2.9-.7 0-2.2 1.8-3.5 4a166.2 166.2 0 0 1-22 28c-4.2 4.2-10.7 9.6-14.5 12-6.8 4.5-6.8 4.5-6.2 11.4.4 3.9.9 7.2 1.1 7.5.3.2 2-.6 3.8-1.9l6.7-4.9c3.1-2.3 3.3-2.3 1.6-.3-1 1.2-4.3 4-7.2 6.3-5.4 4.1-5.4 4.1-5.4 10.5 0 3.5.4 6.4.9 6.4s3.7-3 7.1-6.7c3.4-3.6 7.8-9 9.7-12 1.8-3 5.4-9.7 7.9-15 2.4-5.3 6.7-13.7 9.6-18.6 2.8-5 7-11 9.3-13.4 3.9-4 4.5-4.3 9.4-4.3 5.2 0 5.2 0-1.7 8.3a184 184 0 0 0-11.4 15.2 225 225 0 0 0-13.6 24.8c-.2.4 2.3-2 5.7-5.3 3.3-3.3 8-7 10.3-8 2.4-1 6.2-2 8.5-2 3.7 0 4.3.3 4.9 2.4.3 1.4.3 3.4 0 4.5a20 20 0 0 1-9.7 10.1c-2 1.1-4.7 2-5.8 2-1.1 0-2.5 1-3.2 2.1-.6 1.2-1 4.4-.7 7 .4 3.3 1.3 5.8 2.8 7.4 1.3 1.4 3.2 2.5 4.3 2.5 1 0 3.4-.9 5-2 1.8-1 4.7-4.3 6.5-7.3 1.8-3 4.8-9.2 6.8-13.8 2.2-5.1 3.4-9.5 3.1-11.2-.3-2.6-.2-2.7 4.5-2.7 2.6 0 4.8.4 4.8 1 0 .5-2.7 7.3-6 15.2-4 9.2-6 15.4-5.8 17.3.2 2.4.8 3 3 3.3 2 .2 3.4-.6 6.1-3.9 2-2.3 5-7 6.6-10.3a202 202 0 0 0 6.4-15.6c3.4-9.5 3.4-9.5 0-9.8-1.8-.2-3.3-.7-3.3-1.3 0-.5 1.7-.9 3.8-.9 3.8 0 3.8 0 8.7-9.6a71.7 71.7 0 0 1 8.2-13c1.9-1.8 4.6-3.7 6-4 2-.5 3-.2 4 1.2 1 1.2 1.3 3.4 1 5.9-.2 2.2-2 7.2-4 11.2-2 4-3.3 7.4-3 7.7.4.3 1.7.6 3 .6s2.3.4 2.3 1-1.7 1-3.8 1c-3.3 0-4 .5-6.6 4.6-1.6 2.5-5 7-7.8 10a24.3 24.3 0 0 0-6.4 10.6 44 44 0 0 0-1.4 9c0 2.5.6 4 1.8 4.6 1 .6 2.6.6 3.8.2 1.1-.5 3.7-2.7 5.6-4.9 1.9-2.2 5.9-8.4 8.8-13.7 3-5.3 6.5-11 7.8-12.6a24 24 0 0 1 6.3-4.8c2-1.1 5.6-2 7.9-2 2.7 0 4.7.7 6 2a8 8 0 0 1 2 4.9c0 1.5-1 4-2 5.5-1.2 1.4-3 2.6-4.2 2.6-2 0-2 0 .1-3.4 1.2-1.8 2.1-4.5 2.1-6 0-2.3-.4-2.6-3.2-2.6-2.5 0-4.2 1-7.8 4.8-2.6 2.7-6 7.5-7.5 10.8-2 4.2-2.9 7.5-3 11.5 0 4.3.5 6.2 2 7.8 1 1.2 3 2.1 4.6 2.1 1.5 0 3.8-.4 5.2-1 1.3-.4 3.6-2.2 5.2-3.8 1.5-1.7 9.7-16.6 18-33.1C286 193.3 289.3 186 288 186c-1 0-3.9-1.1-6.6-2.5-3-1.5-6.6-2.5-9.3-2.5-3.6 0-4.9-.6-7.7-3.4s-3.5-3.1-4.6-2c-.6.9-3 2.5-5.2 3.6-2.9 1.5-5.1 1.9-8.4 1.5-2.4-.3-5.1-1.2-6-2.1-1-1-1.9-4-2.2-7.2-.5-5.5-.5-5.5-4-.2a25.7 25.7 0 0 1-7.8 7.6c-3 1.7-5 2.2-7.2 1.7a8.5 8.5 0 0 1-4.7-3.1c-1.1-1.7-1.4-4-1-8l.2-5.4-2 3.2m56.6 4a7 7 0 0 0-.3 3.8c.3.8 1 2 1.5 2.8a4 4 0 0 0 2.8 1.2c1 0 1.9-.1 1.9-.3l-2.5-5c-2.3-4.7-2.5-4.9-3.4-2.6m-31.4 19.7c-.8 1-3.4 5.4-5.6 9.9-2.3 4.5-4.1 8.7-4.1 9.2 0 .6 1.1 1.1 2.5 1.1 2.2 0 3.1-1.1 6.5-8.2 2.2-4.5 4-9.5 4-11s-.4-2.8-.8-2.8c-.5 0-1.6.8-2.5 1.8M201 203c-1.1 1.1-2 2.8-2 3.9 0 1 .7 2.4 1.6 3.2 1 .9 2.3 1 4.2.3 1.5-.5 3-2.1 3.6-3.6.7-2 .6-3.1-.3-4.2a4.7 4.7 0 0 0-3.2-1.6c-1 0-2.8.9-3.9 2m21.2 17.5a42 42 0 0 0-2.7 7.5c.3 0 2.7-3 5.5-6.6 2.7-3.7 5-7 5-7.5s-1-.9-2.4-.9c-2 0-2.8 1.1-5.4 7.5m99.5.9c-2.8 3-6.3 7.4-7.6 9.7-2.3 4.2-2.3 4.2 1 3.5 1.9-.3 5.2-1.9 7.3-3.4 2.2-1.5 4.8-3.9 5.8-5.3 1.1-1.4 2-4.1 2.1-6 .2-2.5-.3-3.4-1.6-3.7-1-.2-3.6 1.7-7 5.2m-106.4 40.3c1 .2 2.5.2 3.4 0 1-.3.2-.5-1.7-.5-2 0-2.7.2-1.8.5m7.5.5c-.3.8 0 1.5.9 1.5.7 0 1-.4.8-.9-.3-.4 0-.8.5-.8.6 0 1.1.4 1.1.9s-.6 1.4-1.3 2c-1 .8-1.7.7-2.5-.1a5.8 5.8 0 0 0-2.8-1.4c-1-.2-1.4.3-1 1 .2.8 0 1.3-.7 1.2-.7 0-1.7-.5-2.4-.9-.6-.4-1.8-.4-2.7-.1-.9.3-1.6 1.4-1.6 2.3 0 1.3-.2 1.3-1.1-.3-.9-1.4-1.3-1.5-2-.6-.3.7-1.2 1-1.8.6-.6-.4-.8-1.3-.5-2 .4-.6.3-.7-.2-.3-.5.5-1 1.2-1 1.5 0 .4-.5 1.7-1.2 3-.7 1.2-1 2.7-.6 3.3.4.7 1.2.5 2.2-.4 1-.8 4-2.2 6.6-3 2.7-1 5.8-1.7 6.8-1.7 1.1 0 1.6.5 1.3 1-.4.7-1 .9-1.2.6-.3-.3-1.5 0-2.7.6a11 11 0 0 1-2.8 1.3c-.4 0-1.7.8-2.8 1.7-1.1 1-2.3 1.7-2.8 1.6-.4 0-1.6.2-2.7.6l-5 2.2c-3 1.5-3 1.5-.3-.8 1.6-1.3 2.8-2.7 2.8-3.1 0-.5-.4-.5-1-.2-.6.4-.7-.1-.4-1.2.3-1-.3-.7-1.6 1-1.2 1.5-2.6 2.4-3.2 2-.5-.3.7-2.3 2.9-4.6 2-2.3 2.9-3.5 1.8-2.7a39.4 39.4 0 0 0-7.5 7.5c-1.4 1.8-1.4 1.9.2.7 1-.8 1.9-1 2.2-.3.4.5.2 1.2-.4 1.6-.6.4-.7 1.2-.4 1.8.4.7.4.9-.1.5-.4-.4-1.5-.2-2.3.5-1.3 1-1.5.9-.8-.8.5-1.3.4-1.7-.3-1a6 6 0 0 0-1.3 2.5c-.1.8 0 1.6.5 1.8.4.2 3.6-1 7.1-2.8 3.6-1.7 10-3.9 14.3-5 4.3-1 10.6-2.3 14-2.9 3.5-.5 7.5-1.6 9-2.3 1.5-.7 2.8-1.7 2.8-2.2 0-.6-1.4-1.8-3-2.7-1.7-1-4.9-2-7.1-2.5-3.1-.4-4.2-.3-4.7.8m7.5 2c-.8 1-.4 1.4 2 1.4h2.6c-.2 0-1-.7-2-1.4-1.2-1-1.8-1-2.6 0m.8 12.9c-2.5.5-6.3 2.1-8.4 3.6-2.2 1.6-3.9 3.3-3.8 3.8.1.6 2.4.9 5 .7 2.6-.1 7.8.6 11.7 1.6a1163.8 1163.8 0 0 1 33.8 9.8c1.7.5 1.7.4.2-3.3-.9-2-3-5.3-4.8-7.1a31.8 31.8 0 0 0-7-5.3c-2-1-4-1.9-4.4-1.9-.4 0 .5.8 2.2 1.7 1.6.9 4.7 3 6.8 4.6 2 1.6 3.6 3.1 3.4 3.3-.2.3-2.4-.7-4.8-2-2.4-1.5-6.2-3.1-8.4-3.7-2.2-.6-4.7-1.7-5.6-2.5-1.5-1.3-1.7-1.3-2.2 0-.4 1-1.4 1.6-2.2 1.6-.9 0-1.4.4-1 .9.2.5-.3 1.5-1.2 2.2-1.5 1.2-1.6 1.2-.8-.1.5-.8 1-2 1.1-2.8.2-.8-1.3-1.2-4.7-1.2-2.7 0-4.9-.4-4.9-.8 0-.5 1.3-.7 2.9-.4 1.6.2 3.2-.1 3.6-.8.5-.8 1-.8 2 0s1.5.8 2-.1c.6-.8.4-1-.5-.4-.9.5-1 .4-.6-.4.4-.6 1.2-.9 1.7-.5.5.3.7 1 .4 1.4-.3.5 0 1.2.5 1.5.6.4 1 0 .8-.6-.2-.7 1-1.6 2.7-1.9 2.7-.5 2.6-.7-1.9-1.3-2.7-.4-5.8-.7-7-.6a65 65 0 0 0-6.6 1m-3.5 3.7c-1.1.2-2.4.8-3 1.4-.7.6 0 .7 2 .2 1.7-.4 3.2-.8 3.4-1 .2-.2.2-.5 0-.7-.2-.2-1.3-.1-2.4 0m6.1 3.5c.3.4 1.2.4 2.1 0 1.2-.4 1.4-.2.8.8-.5.9-.4 1 .4.6.6-.4.9-1.1.6-1.6-.3-.5-1.4-.8-2.4-.7-1.1 0-1.8.5-1.5.9m8.3 1.6c-1.3 1.5-1.2 1.6.3.3 1-.7 1.8-1 1.8-.4 0 .5 1 1 2 1 1.2.1 2-.3 1.8-1-.2-.5-1.3-1.2-2.5-1.3a4 4 0 0 0-3.4 1.4m-79.9-.5c0 .3 1.5 1 3.2 1.6 1.8.6 2.8.7 2.3.2a10 10 0 0 0-3.3-1.6c-1.2-.3-2.2-.4-2.2-.2m-46.3 2.3c-3.1.8-7 2-8.6 2.9-1.6.8-3.9 2.7-5 4.1a9.9 9.9 0 0 0-2.1 4.9c0 1.2 1 3.4 2 4.9 1.5 1.7 3.1 2.6 5 2.6 1.8 0 4.2-1.1 6.3-3 1.9-1.6 4.6-5.7 6.1-9s2.6-6.6 2.4-7.4c-.2-1-1.3-1-6 0m40.5.2a31 31 0 0 0 6.8 8c3.5 3.3 8.5 8.5 11 11.6 2.4 3 4.7 5.6 5 5.6.4 0 1-1.4 1.3-3 .3-1.6.3-4.3 0-6-.4-1.7-1-2.7-1.7-2.3-.6.4-.8 0-.4-1 .3-1 .3-1.6-.1-1.4-.4 0-3-2.2-5.9-5-3-3.1-6-5.3-7.2-5.3-1.1 0-2.1-.5-2.1-1.1 0-.6-.7-.9-1.5-.6-.8.4-1.7.2-2-.3-.4-.6-1.3-1-2-1-.9 0-1.4.8-1.2 1.8m2.8 2.3c.9 1.3 2.6 2.8 3.7 3.4 1.2.5 2.2 1.3 2.2 1.8 0 .4.4.5 1 .2.5-.3 2.1.5 3.5 1.9s2.5 2 2.5 1.2c0-.7-1-2.2-2.3-3.3a47.3 47.3 0 0 0-7.2-4.9c-5-2.7-5-2.7-3.4-.3m9.9-1.7c0 .2 1.3 1.4 3 2.6 1.7 1.2 3 2 3 1.6 0-.2-1.3-1.4-3-2.6-1.7-1.2-3-2-3-1.6m57.5 9.9c2.5 2.7 4.9 4.5 6.3 4.6 1.3 0 2 .5 1.8 1-.3.5.4 2.2 1.6 3.7l2.8 3.4c.3.3 1.4 1.6 2.3 3 1 1.3 1.7 2 1.7 1.5a38 38 0 0 0-6.9-11.8 20.8 20.8 0 0 0-5.8-4.2c-1.8-.8-3.3-1.9-3.3-2.4 0-.6-1-1.6-2.3-2.2-1.6-.9-1 .1 1.8 3.4m-.8 2.7c.3 1 1 1.7 1.5 1.4.5-.3.4-1.2-.3-2a5.7 5.7 0 0 0-1.4-1.4c-.2 0 0 .9.2 2m-11.4 1.6c.4 2 .2 2-3.4 1.1-2.1-.5-4.6-.7-5.4-.3-1 .3-1.3 1-1 1.7.4.5 1 .8 1.3.4.3-.3 2.1 1 4 2.7 2 1.8 3.2 2.8 2.8 2.1-.3-.6.2-1.6 1.1-2.2 1-.6 1.4-1 1-1-.6 0-.4-.8.3-1.5.9-1.1.9-2 0-3.3-1-1.7-1.1-1.6-.7.3m49.7 7.2c3 2.7 5.7 4.8 5.9 4.6.2-.2-.1-1-.7-1.7s-3.3-2.8-5.9-4.6c-4.8-3.3-4.8-3.3.7 1.7m7.7 8c.3 1 1.2 2.5 2 3.4.8.9 2.1 3.8 2.9 6.5 1.3 4.6 1.3 4.6.8.8a27.6 27.6 0 0 0-6-12.5c-.1 0 0 .8.3 1.8m-31.3 11.8c.1.9.9 2 1.7 2.5.8.5 1.8.9 2.4.8.6 0 0-.6-1.4-1.3-1.6-.9-2-1.5-1-1.8 1-.3 1-.6-.3-1-1-.5-1.5-.2-1.4.8m31.7 3.5c-2.4 1-2.4 1 .4 4 1.6 1.6 3.4 2.9 4 2.9.5 0 .3-.5-.5-1s-1.1-1-.6-1c.5 0 .4-.6-.1-1.3-.6-.6-1-2-.8-3l.2-1.6-2.6 1m.4 2.9c1 1.1 2 2 2.3 2 .2 0 0-.6-.7-1.3-.6-.8-.8-1.7-.4-2 .3-.4-.2-.7-1.2-.7-1.7 0-1.7 0 0 2m-38.6 5c1.3 1 1.7 2 1 2s-1 .3-.6.6c.3.3 1.2.2 2-.3 1.3-.7 1-1.2-1.6-2.6-3.2-1.7-3.2-1.7-.8.3m4 6c1 .6.9 1-.8 1.5-1.3.4-2 .9-1.8 1.1.2.3 1.6 0 3.1-.7 2-1 2.3-1.5 1.4-2-.7-.5-1.8-.9-2.3-.9-.6 0-.4.4.4 1m-35.2 4.7c.7.2 1.3 1.1 1.3 1.9 0 .9 1 1.4 2.8 1.3 2.7-.1 2.7-.1.2-.9-2.1-.7-2.2-.8-.5-1 2-.1 2-.1 0-1-1.1-.5-2.7-.9-3.5-.9-1 0-1 .2-.3.6m37.5 1.1c-1 .6-.6 1.1 1.1 2 1.8.8 2.4.7 2.4-.3 0-.8-.7-1-1.5-.7-1 .3-1.3.1-.8-.6.4-.7.6-1.2.4-1.2a7 7 0 0 0-1.6.8m-28.6 1.3c.2.4-.4 1.3-1.3 2-1.6 1-1.6 1 .2.4l5-1.4c3-.8 3-.8-.7-1.2-2-.3-3.5-.2-3.2.2m11 1.5c-.3.4-.6 3-.7 5.8a28 28 0 0 1-.7 6.8c-.7 1.6-.8 1.6-2-.3-.8-1.2-.9-1.8-.3-1.4.6.3 1.1.2 1.1-.2 0-.5-.5-1.4-1.2-2.1-.7-.7-.8-1.2-.2-1.2.5 0 1-.9 1-2s-.3-2-.6-2-1.4.6-2.4 1.3c-1.2.9-2 3.5-2.6 8.5-.6 4.8-.6 9 0 12.2.7 2.8 1.8 5.1 2.8 5.5.9.3 2.7-.2 4.2-1.3a22.5 22.5 0 0 0 7-11.2c0-.8-1 .3-2 2.5-1.1 2.2-1.7 2.9-1.3 1.5.5-2.3.5-2.4-1.3-1s-1.8 1.4-.2-.5c1-1.2 1.5-3.3 1.3-5.2-.1-1.8.2-3 .7-2.7.5.3.7-.7.5-2.3-.2-1.5 0-3.4.7-4.2.9-1.2.8-1.3-.4-.6-1.3.8-1.3.7 0-.9 1.2-1.5 1-2-.6-3.7-1.1-1-2.3-1.6-2.7-1.3m5.8 7.6a15 15 0 0 1-.4 5.5c-.5 1.8-.6 3.3-.2 3.3.5 0 1.1-1.7 1.5-3.8l.6-5.4c0-1-.4-1.8-1-1.8-.5 0-.7 1-.5 2.2m-6.5 9.3c.7.8.9 1.6.4 1.6h-1.7c-.5 0-.5.3-.2 1 .5.7 1.1.6 2.1-.2 1-.9 1.2-1.5.3-2.5-.6-.8-1.4-1.4-1.6-1.4-.3 0 0 .7.7 1.5m-3.4 10.1c-.5 1.4-.4 1.5.8.5 1-.8 1.6-.9 2-.1.2.6.3.5.2-.2-.1-.6-.7-1.3-1.3-1.5-.6-.2-1.3.4-1.7 1.3"/></svg>