<svg clip-rule="evenodd" fill-rule="evenodd" stroke-linecap="round" stroke-linejoin="round" stroke-miterlimit="1.5" viewBox="0 0 122 122" xmlns="http://www.w3.org/2000/svg"><path d="m0 0h100v122h-100z" fill="#fff" stroke="#fff" stroke-width=".9" transform="scale(1.22 1)"/><path d="m60.5 10.708c-2.2.882-6.7 3.505-10 5.827-29.957 21.085-45.781 70.429-27.514 85.799 9.416 7.924 27.539 1.417 40.049-14.378 2.781-3.512 3.184-6.956.814-6.956-.515 0-3.719 2.316-7.12 5.146-10.356 8.618-16.335 9.965-21.952 4.946-3.085-2.756-3.268-3.314-3.531-10.75-.153-4.313.292-10.486.988-13.717l1.266-5.874 8.5-2.849c14.311-4.798 28.369-12.314 34.505-18.45 9.564-9.564 10.743-20.515 2.946-27.361-3.08-2.704-4.236-3.085-9.236-3.039-3.143.028-7.515.773-9.715 1.656m-.579 8.23c-7.122 4.733-16.388 17.085-21.518 28.685-2.858 6.463-2.383 6.598 7.125 2.022 12.744-6.133 23.101-16.294 25.547-25.063 2.366-8.485-2.882-11.141-11.154-5.644" fill="#0a0a0a" transform="translate(11.106 3.62)"/></svg>