<svg xmlns="http://www.w3.org/2000/svg" xml:space="preserve" fill-rule="evenodd" stroke-linejoin="round" stroke-miterlimit="2" clip-rule="evenodd" viewBox="0 0 47 47"><path fill="#c55264" fill-rule="nonzero" d="M0 0h6.61v6.61H0z"/><path fill="#e4b5b8" fill-rule="nonzero" d="M6.62 0h6.61v6.61H6.62z"/><path fill="#c55264" fill-rule="nonzero" d="M13.23 0h6.61v6.61h-6.61z"/><path fill="#e4b5b8" fill-rule="nonzero" d="M19.85 0h6.61v6.61h-6.61z"/><path fill="#c55264" fill-rule="nonzero" d="M26.46 0h6.61v6.61h-6.61z"/><path fill="#e4b5b8" fill-rule="nonzero" d="M33.07 0h6.61v6.61h-6.61z"/><path fill="#c55264" fill-rule="nonzero" d="M39.69 0h6.61v6.61h-6.61z"/><path fill="#a91e23" fill-rule="nonzero" d="M0 6.61h6.61v6.61H0z"/><path fill="#e4b5b8" fill-rule="nonzero" d="M0 13.23h6.61v6.61H0z"/><path fill="#f1ddde" fill-rule="nonzero" d="M6.62 13.23h6.61v6.61H6.62z"/><path fill="#c55264" fill-rule="nonzero" d="M6.62 6.61h6.61v6.61H6.62z"/><path fill="#a91e23" fill-rule="nonzero" d="M13.23 6.61h6.61v6.61h-6.61z"/><path fill="#c55264" fill-rule="nonzero" d="M19.85 6.61h6.61v6.61h-6.61z"/><path fill="#a91e23" fill-rule="nonzero" d="M26.46 6.61h6.61v6.61h-6.61z"/><path fill="#c55264" fill-rule="nonzero" d="M33.07 6.61h6.61v6.61h-6.61z"/><path fill="#a91e23" fill-rule="nonzero" d="M39.69 6.61h6.61v6.61h-6.61z"/><path fill="#e4b5b8" fill-rule="nonzero" d="M13.23 13.23h6.61v6.61h-6.61z"/><path fill="#f1dfdf" fill-rule="nonzero" d="M19.85 13.23h6.61v6.61h-6.61z"/><path fill="#e4b5b8" fill-rule="nonzero" d="M26.46 13.23h6.61v6.61h-6.61z"/><path fill="#f1dfdf" fill-rule="nonzero" d="M33.07 13.23h6.61v6.61h-6.61z"/><path fill="#e4b5b8" fill-rule="nonzero" d="M39.69 13.23h6.61v6.61h-6.61z"/><path fill="#a91e23" fill-rule="nonzero" d="M0 19.84h6.61v6.61H0z"/><path fill="#c55264" fill-rule="nonzero" d="M6.62 19.84h6.61v6.61H6.62z"/><path fill="#a91e23" fill-rule="nonzero" d="M13.23 19.84h6.61v6.61h-6.61z"/><path fill="#c55264" fill-rule="nonzero" d="M19.85 19.84h6.61v6.61h-6.61z"/><path fill="#a91e23" fill-rule="nonzero" d="M26.46 19.84h6.61v6.61h-6.61z"/><path fill="#c55264" fill-rule="nonzero" d="M33.07 19.84h6.61v6.61h-6.61z"/><path fill="#a91e23" fill-rule="nonzero" d="M39.69 19.84h6.61v6.61h-6.61z"/><path fill="#c55264" fill-rule="nonzero" d="M0 26.46h6.61v6.61H0z"/><path fill="#f1ddde" fill-rule="nonzero" d="M6.62 26.46h6.61v6.61H6.62z"/><path fill="#e4b5b8" fill-rule="nonzero" d="M13.23 26.46h6.61v6.61h-6.61z"/><path fill="#f1ddde" fill-rule="nonzero" d="M19.85 26.46h6.61v6.61h-6.61z"/><path fill="#e4b5b8" fill-rule="nonzero" d="M26.46 26.46h6.61v6.61h-6.61z"/><path fill="#f1ddde" fill-rule="nonzero" d="M33.07 26.46h6.61v6.61h-6.61z"/><path fill="#c55264" fill-rule="nonzero" d="M39.69 26.46h6.61v6.61h-6.61z"/><path fill="#a91e23" fill-rule="nonzero" d="M0 33.07h6.61v6.61H0z"/><path fill="#c55264" fill-rule="nonzero" d="M6.62 33.07h6.61v6.61H6.62z"/><path fill="#a91e23" fill-rule="nonzero" d="M13.23 33.07h6.61v6.61h-6.61z"/><path fill="#c55264" fill-rule="nonzero" d="M19.85 33.07h6.61v6.61h-6.61z"/><path fill="#a91e23" fill-rule="nonzero" d="M26.46 33.07h6.61v6.61h-6.61z"/><path fill="#c55264" fill-rule="nonzero" d="M33.07 33.07h6.61v6.61h-6.61z"/><path fill="#a91e23" fill-rule="nonzero" d="M39.69 33.07h6.61v6.61h-6.61z"/><path fill="#c55264" fill-rule="nonzero" d="M0 39.68h6.61v6.61H0z"/><path fill="#e4b5b8" fill-rule="nonzero" d="M6.62 39.68h6.61v6.61H6.62z"/><path fill="#c55264" fill-rule="nonzero" d="M13.23 39.68h6.61v6.61h-6.61z"/><path fill="#e4b5b8" fill-rule="nonzero" d="M19.85 39.68h6.61v6.61h-6.61z"/><path fill="#c55264" fill-rule="nonzero" d="M26.46 39.68h6.61v6.61h-6.61z"/><path fill="#e4b5b8" fill-rule="nonzero" d="M33.07 39.68h6.61v6.61h-6.61z"/><path fill="#c55264" fill-rule="nonzero" d="M39.69 39.68h6.61v6.61h-6.61z"/></svg>