<svg clip-rule="evenodd" fill-rule="evenodd" stroke-linejoin="round" stroke-miterlimit="2" viewBox="0 0 400 100" xmlns="http://www.w3.org/2000/svg"><g fill-rule="nonzero" stroke="#000"><path d="m138.768 52.086c.258-4.96.284-9.855.077-14.686s-.207-9.726 0-14.686c-.827 0-1.821.013-2.984.038-1.162.026-2.299.065-3.41.117-1.111.051-2.144.103-3.1.155-.956.051-1.614.051-1.976 0-.465.62-.943 1.601-1.434 2.945-.491 1.343-.93 2.699-1.317 4.068-.388 1.37-.749 2.571-1.085 3.604s-.581 1.524-.736 1.473c-.155 0-.31-.078-.465-.233-.414-.62-.814-1.472-1.202-2.557-.387-1.085-.788-2.222-1.201-3.41-.413-1.189-.852-2.312-1.317-3.372-.465-1.059-.93-1.847-1.395-2.363h-.078c-.878.051-1.782.064-2.712.038-.93-.025-1.86-.051-2.79-.077s-1.835-.013-2.713.039c-.878.051-1.653.18-2.325.387-.052 7.027-.09 13.175-.116 18.445s-.052 9.817-.078 13.64-.038 7.027-.038 9.61.012 4.663.038 6.239.065 2.751.117 3.526c.051.775.103 1.266.155 1.473.051.155.129.232.232.232 1.653 0 3.462.026 5.425.078 1.963.051 3.772-.052 5.425-.31-.31-4.805-.53-9.688-.659-14.648s.013-9.868.427-14.725c0 0 .09.258.271.775s.4 1.163.659 1.938c.258.775.568 1.627.93 2.557.361.93.71 1.808 1.046 2.635s.671 1.511 1.007 2.054c.336.542.633.814.891.814.207 0 .517-.491.931-1.473.413-.982.852-2.118 1.317-3.41s.93-2.544 1.395-3.759c.465-1.214.878-2.105 1.24-2.673.258 2.17.452 4.546.581 7.13.129 2.583.207 5.218.233 7.905.026 2.686.051 5.321.077 7.905.026 2.583.091 4.985.194 7.207.62 0 1.356-.013 2.209-.039.852-.025 1.744-.038 2.674-.038h2.79c.93 0 1.782.051 2.557.155z"/><path d="m145.51 41.391c-.155.568-.387 1.331-.697 2.286-.31.956-.491 1.718-.543 2.287-.155.981-.258 1.924-.31 2.828-.052.905-.077 1.822-.077 2.752.155 1.705.193 3.59.116 5.657-.078 2.067-.065 4.121.039 6.161.103 2.041.413 3.992.93 5.852.516 1.86 1.472 3.41 2.867 4.65 1.808 1.808 4.03 2.945 6.665 3.41 1.447 0 3.048.064 4.805.193 1.757.13 3.462.13 5.115 0 1.653-.129 3.19-.452 4.611-.968 1.421-.517 2.571-1.395 3.449-2.635.517-.517.917-1.473 1.201-2.868s.517-2.971.698-4.727c.181-1.757.31-3.591.387-5.503.078-1.912.142-3.617.194-5.115-.052-1.705-.103-3.371-.155-4.999-.052-1.627-.181-3.125-.387-4.495-.207-1.369-.517-2.57-.93-3.603-.414-1.034-.982-1.783-1.705-2.248-1.085-1.033-2.377-1.821-3.875-2.364-1.499-.542-3.075-.865-4.728-.968-1.085-.104-2.105-.117-3.061-.039-.956.077-1.951.064-2.984-.039-1.24 0-2.467.078-3.681.233s-2.351.426-3.41.813c-1.059.388-1.989.866-2.79 1.434s-1.382 1.24-1.744 2.015zm9.688 9.145c.671-.827 1.55-1.395 2.635-1.705 2.015-.465 3.642-.284 4.882.543 1.24.826 1.989 2.144 2.248 3.952.31 1.498.4 3.087.271 4.766-.129 1.68-.297 3.346-.504 4.999-.31 1.292-.904 2.144-1.782 2.558-.672.361-1.525.607-2.558.736s-2.028.077-2.984-.155c-.956-.233-1.769-.672-2.441-1.318-.672-.645-.982-1.563-.93-2.751.103-1.808.155-3.526.155-5.154 0-1.627.103-3.268.31-4.921.155-.827.388-1.343.698-1.55z"/><path d="m210.533 49.916c0-2.79-.517-5.309-1.55-7.556-1.034-2.248-2.765-3.888-5.193-4.921-1.343-.31-2.816-.556-4.417-.737-1.602-.18-3.204-.271-4.805-.271-1.602 0-3.113.078-4.534.233s-2.622.361-3.604.62c-2.532.671-4.482 1.963-5.851 3.875-1.369 1.911-2.093 3.991-2.17 6.238-.078 2.248.542 4.418 1.86 6.51 1.317 2.093 3.423 3.63 6.316 4.612 1.447.62 2.919 1.059 4.418 1.317 1.498.258 2.841.556 4.03.891 1.188.336 2.144.814 2.867 1.434s1.008 1.55.853 2.79c.051 1.498-.414 2.532-1.395 3.1-.982.568-2.067.788-3.255.659-1.189-.129-2.313-.568-3.372-1.318-1.059-.749-1.614-1.718-1.666-2.906-1.602 0-3.487-.039-5.657-.116-2.17-.078-4.108-.013-5.813.194v.387c0 2.067.426 3.927 1.279 5.58.852 1.653 2.041 3.048 3.565 4.185s3.345 1.989 5.464 2.558c2.118.568 4.495.8 7.13.697 2.996.052 5.76-.465 8.292-1.55s4.392-2.893 5.58-5.425c.982-2.842 1.343-5.231 1.085-7.169-.258-1.937-.956-3.836-2.092-5.696-1.189-1.55-3.049-2.674-5.58-3.371-2.532-.698-5.245-1.253-8.138-1.666-1.188-.414-2.092-1.034-2.712-1.86-.62-.827-.93-1.654-.93-2.48 0-.827.297-1.589.891-2.287.594-.697 1.485-1.149 2.674-1.356.671-.052 1.356.039 2.053.271.698.233 1.318.582 1.86 1.047.543.465.956 1.007 1.24 1.627s.349 1.24.194 1.86c1.757.362 3.63.517 5.619.465s3.81-.207 5.464-.465z"/><path d="m245.64 38.136c-1.653-.103-3.113-.181-4.379-.232-1.266-.052-2.338-.104-3.216-.155h-.852c-.414 0-.827-.013-1.24-.039-.414-.026-.788-.026-1.124 0s-.504.064-.504.116c0 .62-.065 1.227-.194 1.821-.129.595-.168 1.305-.116 2.132-.362-.879-.801-1.563-1.317-2.054-.517-.491-1.111-.853-1.783-1.085-.672-.233-1.408-.362-2.209-.388-.801-.025-1.666-.038-2.596-.038-1.808.051-3.513.529-5.115 1.433-1.602.905-2.984 2.145-4.146 3.72-1.163 1.576-2.08 3.449-2.751 5.619-.672 2.17-1.008 4.547-1.008 7.13 0 2.067.22 4.314.659 6.743.439 2.428 1.124 4.675 2.054 6.742s2.105 3.798 3.526 5.193 3.139 2.092 5.154 2.092c1.808 0 3.655-.439 5.541-1.317 1.886-.879 3.449-1.938 4.689-3.178 0 .517-.052.956-.155 1.318-.104.361-.155.826-.155 1.395 0 .413.064.775.193 1.085s.375.516.737.62c.568 0 1.123-.039 1.666-.117.542-.077 1.098-.116 1.666-.116.827 0 1.666.039 2.519.116.852.078 1.692.117 2.519.117h.93c.62-.104.942-.491.968-1.163s.039-1.343.039-2.015c.362-5.528.439-10.992.233-16.391-.207-5.399-.233-10.889-.078-16.469v-.775c0-.31-.013-.62-.039-.93s-.064-.62-.116-.93zm-22.552 15.423c.258-1.292.994-2.442 2.208-3.449 1.214-1.008 2.881-1.511 4.999-1.511 1.085 0 1.899.077 2.441.232.543.155.93.517 1.163 1.085.232.568.361 1.382.387 2.441.026 1.06.039 2.493.039 4.302 0 1.446-.013 2.751-.039 3.913-.026 1.163-.181 2.145-.465 2.945-.284.801-.749 1.421-1.395 1.86-.646.44-1.614.659-2.906.659-2.17 0-3.862-.814-5.076-2.441-1.214-1.628-1.821-3.604-1.821-5.929 0-.672.025-1.356.077-2.054.052-.697.181-1.382.388-2.053z"/><path d="m260.753 37.749c-1.654.051-3.075.051-4.263 0-1.188-.052-2.118-.104-2.79-.155-.258 0-.633-.026-1.124-.078s-.839-.052-1.046 0v.078c-.31 3.048-.465 6.187-.465 9.416s.052 6.497.155 9.804c.103 3.306.168 6.639.194 9.997s-.091 6.665-.349 9.92c.362-.103 1.085-.129 2.17-.077 1.085.051 2.235.09 3.449.116s2.338.026 3.371 0 1.679-.194 1.938-.504c-.362-6.252-.453-12.632-.272-19.142s.297-12.891.349-19.143v-.232zm-9.533-16.895c-.052 2.376-.013 4.378.116 6.006.129 1.627.194 3.19.194 4.689.982-.052 2.041-.039 3.178.038 1.136.078 2.208.13 3.216.155 1.007.026 1.886-.013 2.635-.116s1.227-.31 1.434-.62c0-.775-.013-1.666-.039-2.674-.026-1.007-.052-1.989-.078-2.945-.026-.955-.051-1.834-.077-2.635-.026-.8-.039-1.356-.039-1.666z"/><path d="m297.178 61.851c-.569-.155-1.292-.245-2.17-.271-.879-.026-1.809-.013-2.79.039-.982.051-1.912.09-2.79.116-.879.026-1.576.013-2.093-.039-.155.672-.375 1.434-.659 2.286-.284.853-.684 1.46-1.201 1.822-.62.413-1.447.684-2.48.813-1.033.13-2.041.078-3.022-.155-.982-.232-1.822-.684-2.519-1.356-.698-.672-.995-1.602-.891-2.79.103-1.808.155-3.539.155-5.192 0-1.654.103-3.281.31-4.883.155-.827.387-1.343.697-1.55.672-.827 1.55-1.395 2.635-1.705 2.015-.517 3.643-.271 4.883.736 1.24 1.008 1.989 2.416 2.247 4.224.672.103 1.434.207 2.286.31.853.103 1.731.181 2.635.233.904.051 1.783.077 2.635.077.853 0 1.615-.077 2.287-.232-.052-1.705-.091-3.294-.117-4.767-.026-1.472-.142-2.803-.348-3.991-.207-1.188-.504-2.222-.892-3.1-.387-.878-.943-1.576-1.666-2.092-1.085-1.034-2.377-1.809-3.875-2.325-1.498-.517-3.074-.827-4.727-.93-1.085-.104-2.106-.117-3.062-.039-.956.077-1.95.064-2.983-.039-1.24 0-2.468.078-3.682.233s-2.351.426-3.41.813c-1.059.388-1.989.866-2.79 1.434s-1.382 1.24-1.743 2.015c-.155.517-.388 1.266-.698 2.248-.31.981-.491 1.756-.542 2.325-.31 1.86-.465 3.72-.465 5.58.206 1.705.271 3.59.193 5.657-.077 2.067-.064 4.121.039 6.161.103 2.041.413 3.992.93 5.852s1.473 3.41 2.868 4.65c1.808 1.808 4.03 2.945 6.665 3.41 1.446 0 3.048.064 4.805.193 1.756.13 3.461.13 5.115 0 1.653-.129 3.19-.452 4.611-.968 1.421-.517 2.57-1.395 3.449-2.635.361-.362.658-.943.891-1.744.232-.801.426-1.757.581-2.868.155-1.11.284-2.312.388-3.603.103-1.292.206-2.61.31-3.953z"/><g fill="#fff"><path d="m141.094 53.526c.258-4.96.284-9.855.077-14.686-.206-4.831-.206-9.726 0-14.686-.826 0-1.821.013-2.983.039-1.163.025-2.3.064-3.41.116-1.111.051-2.145.103-3.1.155-.956.051-1.615.051-1.977 0-.465.62-.943 1.601-1.433 2.945-.491 1.343-.93 2.699-1.318 4.069-.387 1.369-.749 2.57-1.085 3.603-.336 1.034-.581 1.524-.736 1.473-.155 0-.31-.078-.465-.233-.413-.62-.814-1.472-1.201-2.557-.388-1.085-.788-2.222-1.202-3.41-.413-1.189-.852-2.312-1.317-3.371-.465-1.06-.93-1.848-1.395-2.364h-.078c-.878.051-1.782.064-2.712.039-.93-.026-1.86-.052-2.79-.078s-1.834-.013-2.713.039c-.878.051-1.653.181-2.325.387-.051 7.027-.09 13.175-.116 18.445s-.052 9.817-.077 13.64c-.026 3.824-.039 7.027-.039 9.61 0 2.584.013 4.663.039 6.239.025 1.576.064 2.751.116 3.526s.103 1.266.155 1.473c.052.155.129.232.232.232 1.654 0 3.462.026 5.425.078 1.964.051 3.772-.052 5.425-.31-.31-4.805-.529-9.688-.658-14.648-.13-4.96.013-9.868.426-14.725 0 0 .09.259.271.775.181.517.401 1.163.659 1.938s.568 1.627.93 2.557.71 1.809 1.046 2.635c.336.827.672 1.512 1.008 2.054.335.543.633.814.891.814.207 0 .517-.491.93-1.473.413-.981.852-2.118 1.317-3.41.465-1.291.93-2.544 1.395-3.758.465-1.215.879-2.106 1.24-2.674.259 2.17.452 4.546.582 7.13.129 2.583.206 5.218.232 7.905.026 2.686.052 5.321.078 7.905.025 2.583.09 4.986.193 7.207.62 0 1.357-.013 2.209-.038.853-.026 1.744-.039 2.674-.039h2.79c.93 0 1.782.051 2.557.155z"/><path d="m147.836 42.831c-.155.569-.387 1.331-.697 2.287-.31.955-.491 1.717-.543 2.286-.155.981-.258 1.924-.31 2.829-.051.904-.077 1.821-.077 2.751.155 1.705.194 3.591.116 5.657-.077 2.067-.064 4.121.039 6.162.103 2.04.413 3.991.93 5.851s1.472 3.41 2.867 4.65c1.809 1.808 4.03 2.945 6.665 3.41 1.447 0 3.049.064 4.805.194 1.757.129 3.462.129 5.115 0 1.654-.13 3.191-.453 4.612-.969 1.42-.517 2.57-1.395 3.448-2.635.517-.517.917-1.473 1.202-2.868.284-1.395.516-2.971.697-4.727.181-1.757.31-3.591.388-5.503.077-1.911.142-3.616.193-5.115-.051-1.705-.103-3.371-.155-4.998-.051-1.628-.18-3.126-.387-4.495-.207-1.37-.517-2.571-.93-3.604-.413-1.034-.982-1.783-1.705-2.248-1.085-1.033-2.377-1.821-3.875-2.363-1.498-.543-3.074-.866-4.728-.969-1.085-.104-2.105-.116-3.061-.039-.956.078-1.95.065-2.984-.039-1.24 0-2.467.078-3.681.233s-2.351.426-3.41.814c-1.059.387-1.989.865-2.79 1.433-.801.569-1.382 1.24-1.744 2.015zm9.688 9.145c.672-.826 1.55-1.395 2.635-1.705 2.015-.465 3.642-.284 4.882.543 1.24.826 1.99 2.144 2.248 3.952.31 1.499.4 3.087.271 4.767-.129 1.679-.297 3.345-.504 4.998-.31 1.292-.904 2.144-1.782 2.558-.672.361-1.524.607-2.558.736-1.033.129-2.028.078-2.983-.155-.956-.232-1.77-.672-2.442-1.317-.671-.646-.981-1.563-.93-2.752.104-1.808.155-3.526.155-5.153 0-1.628.104-3.268.31-4.922.155-.826.388-1.343.698-1.55z"/><path d="m212.859 51.356c0-2.79-.517-5.308-1.55-7.556-1.033-2.247-2.764-3.888-5.193-4.921-1.343-.31-2.815-.556-4.417-.736-1.602-.181-3.203-.272-4.805-.272s-3.113.078-4.534.233-2.622.361-3.604.62c-2.531.671-4.482 1.963-5.851 3.875-1.369 1.911-2.092 3.991-2.17 6.239-.077 2.247.543 4.417 1.86 6.51 1.318 2.092 3.423 3.629 6.316 4.611 1.447.62 2.92 1.059 4.418 1.317 1.498.259 2.842.556 4.03.892 1.188.335 2.144.813 2.867 1.433.724.62 1.008 1.55.853 2.79.052 1.499-.413 2.532-1.395 3.1-.982.569-2.067.788-3.255.659s-2.312-.568-3.371-1.317c-1.06-.75-1.615-1.718-1.667-2.907-1.601 0-3.487-.038-5.657-.116-2.17-.077-4.108-.013-5.813.194v.387c0 2.067.427 3.927 1.279 5.58.853 1.654 2.041 3.049 3.565 4.185 1.524 1.137 3.346 1.989 5.464 2.558 2.118.568 4.495.801 7.13.697 2.997.052 5.761-.465 8.292-1.55 2.532-1.085 4.392-2.893 5.58-5.425.982-2.841 1.344-5.231 1.085-7.168-.258-1.938-.955-3.837-2.092-5.697-1.188-1.55-3.048-2.673-5.58-3.371-2.532-.697-5.244-1.253-8.138-1.666-1.188-.414-2.092-1.034-2.712-1.86-.62-.827-.93-1.654-.93-2.48 0-.827.297-1.589.891-2.286.594-.698 1.486-1.15 2.674-1.357.672-.051 1.356.039 2.054.272.697.232 1.317.581 1.86 1.046.542.465.955 1.007 1.24 1.627.284.62.348 1.24.193 1.86 1.757.362 3.63.517 5.619.465 1.989-.051 3.811-.206 5.464-.465z"/><path d="m247.966 39.576c-1.653-.103-3.113-.181-4.378-.232-1.266-.052-2.338-.104-3.217-.155h-.852c-.413 0-.827-.013-1.24-.039s-.788-.026-1.124 0-.504.065-.504.116c0 .62-.064 1.227-.193 1.822-.13.594-.168 1.304-.117 2.131-.361-.879-.8-1.563-1.317-2.054s-1.111-.852-1.783-1.085c-.671-.232-1.408-.362-2.208-.387-.801-.026-1.667-.039-2.597-.039-1.808.051-3.513.529-5.115 1.434-1.601.904-2.983 2.144-4.146 3.72-1.162 1.575-2.079 3.448-2.751 5.618s-1.008 4.547-1.008 7.13c0 2.067.22 4.314.659 6.743.439 2.428 1.124 4.676 2.054 6.742.93 2.067 2.105 3.798 3.526 5.193s3.139 2.092 5.154 2.092c1.808 0 3.655-.439 5.541-1.317 1.886-.879 3.449-1.938 4.689-3.178 0 .517-.052.956-.155 1.318-.103.361-.155.826-.155 1.395 0 .413.064.775.194 1.085.129.31.374.516.736.62.568 0 1.124-.039 1.666-.116.543-.078 1.098-.117 1.666-.117.827 0 1.667.039 2.519.117.853.077 1.692.116 2.519.116h.93c.62-.104.943-.491.969-1.163.025-.671.038-1.343.038-2.015.362-5.528.44-10.992.233-16.391s-.233-10.889-.078-16.469v-.775c0-.31-.013-.62-.038-.93-.026-.31-.065-.62-.117-.93zm-22.552 15.423c.258-1.292.994-2.441 2.209-3.449 1.214-1.007 2.88-1.511 4.998-1.511 1.085 0 1.899.077 2.442.232.542.155.93.517 1.162 1.085.233.569.362 1.382.388 2.442.025 1.059.038 2.492.038 4.301 0 1.446-.013 2.751-.038 3.914-.026 1.162-.181 2.144-.465 2.945-.285.8-.75 1.42-1.395 1.86-.646.439-1.615.658-2.907.658-2.17 0-3.862-.813-5.076-2.441-1.214-1.627-1.821-3.604-1.821-5.929 0-.671.026-1.356.077-2.053.052-.698.181-1.383.388-2.054z"/><path d="m263.079 39.189c-1.653.051-3.074.051-4.263 0-1.188-.052-2.118-.104-2.79-.155-.258 0-.633-.026-1.123-.078-.491-.051-.84-.051-1.047 0v.078c-.31 3.048-.465 6.187-.465 9.416s.052 6.497.155 9.804c.104 3.306.168 6.639.194 9.997.026 3.359-.09 6.665-.349 9.92.362-.103 1.085-.129 2.17-.077 1.085.051 2.235.09 3.449.116s2.338.026 3.371 0c1.034-.026 1.68-.194 1.938-.504-.362-6.251-.452-12.632-.271-19.142.18-6.51.297-12.891.348-19.143v-.232zm-9.533-16.895c-.051 2.376-.013 4.379.117 6.006.129 1.628.193 3.19.193 4.689.982-.052 2.041-.039 3.178.039 1.137.077 2.209.129 3.216.155 1.008.025 1.886-.013 2.635-.117.749-.103 1.227-.31 1.434-.62 0-.775-.013-1.666-.039-2.673-.026-1.008-.052-1.99-.077-2.945-.026-.956-.052-1.835-.078-2.635-.026-.801-.039-1.357-.039-1.667z"/><path d="m299.504 63.291c-.568-.155-1.292-.245-2.17-.271s-1.808-.013-2.79.039c-.982.051-1.912.09-2.79.116s-1.576.013-2.093-.039c-.155.672-.374 1.434-.658 2.287-.285.852-.685 1.459-1.202 1.821-.62.413-1.446.684-2.48.814-1.033.129-2.04.077-3.022-.155-.982-.233-1.821-.685-2.519-1.357-.697-.671-.994-1.601-.891-2.79.103-1.808.155-3.539.155-5.192 0-1.654.103-3.281.31-4.883.155-.826.387-1.343.697-1.55.672-.826 1.55-1.395 2.635-1.705 2.015-.516 3.643-.271 4.883.737 1.24 1.007 1.989 2.415 2.247 4.223.672.104 1.434.207 2.287.31.852.104 1.73.181 2.635.233.904.051 1.782.077 2.635.077.852 0 1.614-.077 2.286-.232-.052-1.705-.091-3.294-.116-4.766-.026-1.473-.142-2.803-.349-3.992-.207-1.188-.504-2.221-.891-3.1-.388-.878-.943-1.576-1.667-2.092-1.085-1.034-2.376-1.809-3.875-2.325-1.498-.517-3.074-.827-4.727-.93-1.085-.104-2.106-.116-3.061-.039-.956.078-1.951.065-2.984-.039-1.24 0-2.467.078-3.681.233-1.215.155-2.351.426-3.41.814-1.06.387-1.99.865-2.79 1.433-.801.569-1.382 1.24-1.744 2.015-.155.517-.388 1.266-.698 2.248-.31.981-.49 1.756-.542 2.325-.31 1.86-.465 3.72-.465 5.58.207 1.705.271 3.591.194 5.657-.078 2.067-.065 4.121.038 6.162.104 2.04.414 3.991.93 5.851.517 1.86 1.473 3.41 2.868 4.65 1.808 1.808 4.03 2.945 6.665 3.41 1.447 0 3.048.064 4.805.194 1.757.129 3.462.129 5.115 0 1.653-.13 3.19-.453 4.611-.969 1.421-.517 2.571-1.395 3.449-2.635.362-.362.659-.943.891-1.744.233-.801.426-1.757.581-2.867.155-1.111.285-2.313.388-3.604.103-1.292.207-2.609.31-3.953z"/></g></g></svg>