<svg xmlns="http://www.w3.org/2000/svg" xml:space="preserve" fill-rule="evenodd" stroke-linejoin="round" stroke-miterlimit="2" clip-rule="evenodd" viewBox="0 0 300 300"><path fill="#fff" d="M0 0h300v300.002H0z"/><path fill="url(#a)" fill-rule="nonzero" d="M140.245 5.618c4.186-5.954 12.42-7.406 18.391-3.243 5.97 4.164 7.417 12.366 3.23 18.32-4.186 5.954-12.42 7.406-18.391 3.243-5.97-4.164-7.417-12.366-3.23-18.32Z" transform="translate(8.346 83.954) scale(.8763)"/><path fill="url(#b)" fill-rule="nonzero" d="M110.725 24.562c4.256-5.975 12.627-7.432 18.698-3.254 6.07 4.178 7.54 12.409 3.284 18.384-4.256 5.976-12.628 7.433-18.698 3.254-6.07-4.178-7.54-12.409-3.284-18.384Z" transform="translate(27.654 68.473) scale(.8763)"/><path fill="url(#c)" fill-rule="nonzero" d="m47.665 35.533 10.886.819c23.311 1.753 45.211 10.489 65.541 25.99l.616.472.573.445.403-.541C137.796 46.6 154.72 35.38 176.093 29.235l.649-.184.823-.229 11.646-3.191 3.125 11.66c.196.73.39 1.446.585 2.152l.195.703.313 1.115.169.597.214.743.389 1.337.162.547.246.825.334 1.107.344 1.12.264.853.455 1.448.379 1.19.293.913.508 1.567.535 1.632.334 1.014.704 2.115.968 2.894 1.95 5.854.695 2.122.446 1.387.365 1.16.389 1.268.211.701.284.958.373 1.281c3.418 11.815 5.185 22.442 5.524 35.369.36 13.723-1.972 26.65-7.165 38.219l-.201.445-.127.276-.14.269c-10.881 20.959-31.309 39.929-61.029 57.231l-.904.523-3.072 1.774-3.542-.18c-40.52-2.058-70.368-11.173-89.406-28.071l-.459-.412-.295-.258c-11.549-10.156-19.649-22.071-25.432-36.283l-.192-.474-.177-.442c-2.223-5.598-4.082-11.491-5.793-18.121l-.307-1.202-.337-1.349-.245-1.001-.282-1.173-.32-1.368-.243-1.058-.374-1.666-.304-1.381-.461-2.137-.505-2.375-1.546-7.385-.746-3.512-.442-2.046-.29-1.315-.355-1.573-.227-.988-.296-1.259-.257-1.059-.333-1.339-.151-.592-.23-.889-.237-.896L0 74.976l13.218-2.051a116.25 116.25 0 0 1 17.478-1.397c3.335-.017 6.668.13 9.988.441l.756.075.45.048.462-3.526.329-2.424.154-1.104.233-1.632.16-1.097.249-1.668.26-1.709.275-1.762.292-1.83.365-2.24.394-2.372.49-2.901 2.112-12.294Z" transform="translate(27.317 12.343) scale(1.16841)"/><path fill="#fff" d="M155.546 195.066c-5.015 3.517-10.839 6.216-17.472 8.097-6.633 1.881-13.144 2.822-19.534 2.822-9.06 0-17.19-1.901-24.389-5.705-7.2-3.803-12.842-9.119-16.926-15.948-4.084-6.829-6.127-14.58-6.127-23.25s2.042-16.418 6.127-23.247c4.085-6.829 9.787-12.146 17.109-15.95 7.32-3.802 15.591-5.704 24.812-5.704 8.332 0 15.793 1.41 22.386 4.233 6.593 2.822 12.073 6.93 16.44 12.329l-18.32 16.317c-5.339-6.298-11.69-9.447-19.05-9.447-6.31 0-11.324 1.922-15.046 5.766-3.72 3.844-5.581 9.079-5.581 15.704 0 6.461 1.84 11.655 5.52 15.58 3.68 3.925 8.595 5.89 14.744 5.89 3.64 0 7.118-.696 10.433-2.086v-6.243h-10.539v-19.16h35.414v40.002h-.001Z"/><path fill="#fff" d="M233.618 179.732v22.451h-78.019v-17.789l38.828-45.638h-37.614v-22.45h74.863v17.788l-38.827 45.638h40.769Z"/><defs><linearGradient id="a" x1="0" x2="1" y1="0" y2="0" gradientTransform="rotate(129.962 96.26 49.878) scale(499.398)" gradientUnits="userSpaceOnUse"><stop offset="0" stop-color="#ff9613"/><stop offset=".26" stop-color="#e43c9b"/><stop offset=".5" stop-color="#992aa2"/><stop offset=".74" stop-color="#631a97"/><stop offset="1" stop-color="#4f1493"/></linearGradient><linearGradient id="b" x1="0" x2="1" y1="0" y2="0" gradientTransform="rotate(132.545 103.476 48.798) scale(560.023)" gradientUnits="userSpaceOnUse"><stop offset="0" stop-color="#ff9613"/><stop offset=".26" stop-color="#e43c9b"/><stop offset=".5" stop-color="#992aa2"/><stop offset=".74" stop-color="#631a97"/><stop offset="1" stop-color="#4f1493"/></linearGradient><linearGradient id="c" x1="0" x2="1" y1="0" y2="0" gradientTransform="scale(-365.72) rotate(-33.627 -.547 .768)" gradientUnits="userSpaceOnUse"><stop offset="0" stop-color="#ff9613"/><stop offset=".26" stop-color="#e43c9b"/><stop offset=".5" stop-color="#992aa2"/><stop offset=".74" stop-color="#631a97"/><stop offset="1" stop-color="#4f1493"/></linearGradient></defs></svg>