<svg clip-rule="evenodd" fill-rule="evenodd" stroke-linejoin="round" stroke-miterlimit="2" viewBox="0 0 180 180" xmlns="http://www.w3.org/2000/svg"><path d="m0 0h180v180h-180z" fill="#fff"/><path d="m89.5 43.698c-14.565 1.934-30.339 12.53-37.763 25.365-5.953 10.293-7.522 26.023-3.791 38.01 10.327 33.181 54.616 40.471 82.804 13.629 1.788-1.702 3.25-3.639 3.25-4.305s-2.192-3.046-4.87-5.288l-4.871-4.078-3.285 6.673c-3.917 7.956-10.315 14.497-16.487 16.854-5.789 2.211-15.395 1.55-21.308-1.467-14.64-7.469-23.729-28.48-21.143-48.878 3.806-30.014 29.867-39.869 49.773-18.822 2.917 3.085 5.748 5.609 6.291 5.609.542 0 3.464-1.871 6.492-4.157l5.507-4.158-3.8-3.898c-8.371-8.59-22.823-12.945-36.799-11.089" fill="#fff"/><path d="m76.66 3.977c-34.284 6.254-60.152 29.329-70.32 62.726-2.363 7.762-2.683 10.503-2.72 23.297-.047 15.919 1.509 23.713 7.274 36.426 19.751 43.56 72.344 63.132 115.781 43.085 18.299-8.445 34.361-24.475 42.759-42.671 22.589-48.943-4.17-106.074-56.608-120.856-8.306-2.341-28.262-3.449-36.166-2.007m12.84 39.721c-14.565 1.934-30.339 12.53-37.763 25.365-5.953 10.293-7.522 26.023-3.791 38.01 10.327 33.181 54.616 40.471 82.804 13.629 1.788-1.702 3.25-3.639 3.25-4.305s-2.192-3.046-4.87-5.288l-4.871-4.078-3.285 6.673c-3.917 7.956-10.315 14.497-16.487 16.854-5.789 2.211-15.395 1.55-21.308-1.467-14.64-7.469-23.729-28.48-21.143-48.878 3.806-30.014 29.867-39.869 49.773-18.822 2.917 3.085 5.748 5.609 6.291 5.609.542 0 3.464-1.871 6.492-4.157l5.507-4.158-3.8-3.898c-8.371-8.59-22.823-12.945-36.799-11.089" fill="#040404"/></svg>