<svg width="800.595" height="148.459" viewBox="0 0 211.824 39.28" xmlns="http://www.w3.org/2000/svg"><g aria-label="2 large red onions, finely diced" style="line-height:1.25;-inkscape-font-specification:'Noto Serif Italic'" font-style="italic" font-size="14.111" font-family="Noto Serif" letter-spacing="0" word-spacing="0" stroke-width=".529" fill="#282828"><path d="M6.699 24.586l.296-1.143 3.316-2.992q.96-.86 1.468-1.524.508-.663.706-1.242.197-.578.197-1.185 0-.635-.339-1.03-.338-.395-.96-.395-.606 0-1.015.296-.41.296-.65.79-.24.48-.338 1.044-.437 0-.72-.211-.282-.212-.282-.692 0-.494.353-.931.367-.437 1.058-.72.692-.282 1.665-.282 1.327 0 1.99.55.677.55.677 1.51 0 .65-.338 1.284-.339.635-.988 1.341-.65.691-1.609 1.552l-3.175 2.85h3.274q.65 0 .931-.324.283-.339.466-.734l.099-.225h.593l-.565 2.413zM20.697 24.727q-.564 0-.875-.395-.296-.396-.296-.946 0-.296.056-.705.057-.41.127-.819.071-.423.127-.691l1.158-5.419q.042-.198.056-.381.028-.198.028-.254 0-.423-.296-.536-.282-.127-.692-.127h-.169l.127-.593h2.667l-1.637 7.69q-.028.156-.085.452-.056.297-.098.607-.043.31-.043.508 0 .72.466.72.24 0 .494-.1.254-.112.522-.267l.254.409q-.31.268-.833.564-.522.283-1.058.283zM25.213 24.727q-.621 0-1.03-.339-.41-.339-.607-.917-.184-.593-.184-1.327 0-.663.17-1.383.183-.733.536-1.41.353-.692.86-1.242.509-.565 1.172-.89.663-.338 1.467-.338.508 0 .932.141.437.141.72.367l.62-.353h.452l-.96 4.516-.084.451q-.057.297-.1.607-.027.31-.027.508 0 .72.465.72.24 0 .494-.1.254-.112.522-.267l.254.409q-.197.183-.536.381t-.72.325q-.38.14-.733.14-.508 0-.805-.31-.296-.31-.296-.86 0-.283.028-.509.043-.24.113-.592h-.085q-.48 1.086-1.143 1.679t-1.495.593zm.508-.89q.367 0 .748-.282.395-.282.733-.762.353-.48.621-1.072.268-.593.395-1.2l.522-2.497q-.155-.254-.451-.381-.296-.127-.621-.127-.564 0-1.016.324-.452.31-.79.833-.339.522-.579 1.143-.226.62-.338 1.256-.113.62-.113 1.129 0 .875.254 1.256.254.38.635.38zM32.762 18.913q.042-.198.057-.381.028-.198.028-.254 0-.423-.367-.536-.353-.127-.762-.127h-.113l.127-.593h2.498l-.297 2.032h.141q.269-.579.579-1.072.31-.494.748-.79.437-.311 1.072-.311.593 0 .875.282.282.268.282.692 0 .493-.282.79-.268.282-.889.282 0-.508-.113-.804-.113-.31-.451-.31-.367 0-.748.38-.367.381-.706 1.016-.324.621-.592 1.369-.268.734-.424 1.44l-.536 2.568h-1.312zM39.86 27.972q-1.538 0-2.314-.48-.762-.465-.762-1.354 0-.593.338-1.002.325-.41.847-.663.536-.254 1.115-.367-.268-.127-.48-.381-.197-.254-.197-.593 0-.451.296-.748.296-.31 1.044-.691-.466-.212-.734-.635-.254-.424-.254-1.03 0-.494.198-1.045.197-.55.593-1.03.409-.48 1.03-.776.62-.296 1.453-.296.423 0 .79.113.381.099.664.338.282-.409.663-.705.38-.296.86-.296.353 0 .523.183.183.183.183.466 0 .31-.183.592-.17.283-.65.283 0-.212-.098-.353-.099-.155-.297-.155-.197 0-.366.112-.17.1-.325.212.31.438.31 1.087 0 .48-.197 1.03-.184.536-.579 1.03-.395.48-1.016.79-.606.31-1.439.31h-.226l-.226-.028q-.31.141-.663.353-.338.212-.338.536 0 .226.197.31.212.085.522.114l1.355.14q1.044.1 1.609.551.578.452.578 1.298 0 1.27-.96 2.018-.959.762-2.864.762zm1.171-6.73q.48 0 .819-.255.338-.268.55-.663.226-.41.325-.847.098-.437.098-.79 0-.607-.268-.875-.254-.282-.705-.282-.48 0-.819.268-.338.254-.564.663-.212.395-.31.833-.1.437-.1.79 0 .607.269.89.268.267.705.267zm-1.115 6.039q.932 0 1.482-.24.565-.226.804-.621.254-.381.254-.833 0-.451-.31-.72-.31-.267-1.002-.324l-1.369-.127q-.48.057-.903.24-.423.198-.691.536-.254.353-.254.861 0 .536.423.875.438.353 1.566.353zM48.482 24.727q-.748 0-1.383-.325-.62-.324-1.002-.96-.367-.649-.367-1.636 0-.79.268-1.637.268-.861.805-1.609.536-.748 1.312-1.213.79-.466 1.82-.466.89 0 1.383.437.494.424.494 1.186 0 .733-.536 1.383-.522.649-1.454 1.044-.917.395-2.102.395h-.494l-.028.31v.283q0 .903.395 1.41.395.509 1.157.509.677 0 1.2-.325.536-.324.832-.691.141.098.141.352 0 .31-.268.678-.254.353-.79.62-.536.255-1.383.255zm-.988-4.05q.833 0 1.468-.268.649-.283 1.016-.762.38-.494.38-1.143 0-.946-.818-.946-.395 0-.748.282-.352.269-.635.734-.282.452-.494 1.002-.197.55-.31 1.1zM57.555 18.913q.043-.198.057-.381.028-.198.028-.254 0-.423-.367-.536-.353-.127-.762-.127h-.113l.127-.593h2.498l-.297 2.032h.142q.268-.579.578-1.072.31-.494.748-.79.437-.311 1.072-.311.593 0 .875.282.283.268.283.692 0 .493-.283.79-.268.282-.889.282 0-.508-.113-.804-.112-.31-.451-.31-.367 0-.748.38-.367.381-.706 1.016-.324.621-.592 1.369-.268.734-.424 1.44l-.536 2.568H56.37zM65.43 24.727q-.749 0-1.384-.325-.62-.324-1.002-.96-.366-.649-.366-1.636 0-.79.268-1.637.268-.861.804-1.609t1.312-1.213q.79-.466 1.82-.466.89 0 1.384.437.493.424.493 1.186 0 .733-.536 1.383-.522.649-1.453 1.044-.917.395-2.103.395h-.494l-.028.31v.283q0 .903.395 1.41.395.509 1.157.509.678 0 1.2-.325.536-.324.832-.691.141.098.141.352 0 .31-.268.678-.254.353-.79.62-.536.255-1.383.255zm-.989-4.05q.833 0 1.468-.268.65-.283 1.016-.762.381-.494.381-1.143 0-.946-.818-.946-.396 0-.748.282-.353.269-.635.734-.283.452-.494 1.002-.198.55-.31 1.1zM71.455 24.727q-.621 0-1.03-.339-.41-.339-.607-.917-.184-.593-.184-1.327 0-.663.17-1.383.183-.733.536-1.41.353-.692.86-1.242.509-.565 1.172-.89.663-.338 1.467-.338.41 0 .762.099.367.098.635.254.029-.184.071-.424.042-.254.07-.38l.142-.678q.042-.198.07-.367.028-.183.028-.268 0-.423-.296-.536-.282-.127-.691-.127h-.113l.127-.593h2.596l-1.637 7.69-.084.452q-.057.297-.1.607-.027.31-.027.508 0 .72.465.72.24 0 .494-.1.254-.112.522-.267l.254.409q-.197.183-.536.381t-.72.325q-.38.14-.733.14-.508 0-.805-.31-.296-.31-.296-.86 0-.184.028-.466.042-.282.113-.635h-.085q-.48 1.086-1.143 1.679t-1.495.593zm.508-.89q.367 0 .748-.282.395-.282.733-.762.353-.48.621-1.072.268-.593.395-1.2l.522-2.497q-.155-.254-.451-.381-.296-.127-.621-.127-.564 0-1.016.324-.452.31-.79.833-.339.522-.579 1.143-.226.62-.338 1.256-.113.62-.113 1.129 0 .875.254 1.256.254.38.635.38zM84.183 24.727q-1.2 0-1.962-.72-.748-.734-.748-2.201 0-.79.254-1.637.254-.861.777-1.609.522-.748 1.312-1.213.79-.466 1.863-.466.747 0 1.354.296.607.297.96.946.367.635.367 1.679 0 .607-.156 1.284-.155.663-.48 1.312-.324.65-.818 1.172-.494.522-1.171.846-.677.31-1.552.31zm.155-.72q.691 0 1.171-.437.494-.452.79-1.143.31-.706.452-1.468.141-.762.141-1.397 0-1.058-.367-1.51-.367-.451-1.016-.451-.55 0-.973.296-.424.296-.734.79-.297.48-.494 1.073-.184.592-.282 1.199-.085.593-.085 1.1 0 1.073.381 1.51.381.438 1.016.438zM95.458 24.727q-.621 0-.96-.395-.325-.41-.325-1.016 0-.65.269-1.905l.24-1.101q.042-.198.112-.494t.127-.62q.057-.325.057-.565 0-.283-.127-.55-.113-.283-.522-.283-.438 0-.875.325-.438.324-.819.832-.367.508-.635 1.059-.254.536-.338.96l-.762 3.612h-1.313l1.186-5.673q.042-.198.056-.381.028-.198.028-.254 0-.423-.296-.536-.282-.127-.692-.127h-.112l.127-.593h2.61l-.38 1.778h.14q.579-.931 1.171-1.411.607-.494 1.397-.494.833 0 1.172.48.338.465.338 1.086 0 .353-.098.776-.085.41-.156.777l-.367 1.665q-.084.395-.14.776-.043.38-.043.705 0 .678.494.678.41 0 .903-.325l.254.41q-.339.282-.762.55-.41.254-.96.254zM100.58 15.61q-.353 0-.579-.183-.211-.197-.211-.592 0-.452.225-.72.24-.268.621-.268.339 0 .565.198.226.183.226.578 0 .55-.269.776-.268.212-.578.212zm-.974 9.117q-.564 0-.875-.395-.296-.396-.296-.946 0-.296.056-.705.057-.41.127-.819.071-.423.127-.691l.55-2.597q.043-.211.043-.367 0-.38-.24-.48-.226-.112-.62-.112h-.184l.127-.593h2.526l-.96 4.53q-.028.155-.085.451-.056.297-.098.607-.029.31-.029.508 0 .72.466.72.24 0 .494-.1.254-.112.522-.267l.254.409q-.31.268-.847.564-.522.283-1.058.283zM105.025 24.727q-1.2 0-1.962-.72-.747-.734-.747-2.201 0-.79.254-1.637.254-.861.776-1.609t1.312-1.213q.79-.466 1.863-.466.748 0 1.354.296.607.297.96.946.367.635.367 1.679 0 .607-.155 1.284-.156.663-.48 1.312-.325.65-.819 1.172-.494.522-1.17.846-.678.31-1.553.31zm.155-.72q.692 0 1.171-.437.494-.452.79-1.143.311-.706.452-1.468.141-.762.141-1.397 0-1.058-.367-1.51-.367-.451-1.016-.451-.55 0-.973.296-.424.296-.734.79-.296.48-.494 1.073-.183.592-.282 1.199-.085.593-.085 1.1 0 1.073.381 1.51.381.438 1.016.438zM116.3 24.727q-.621 0-.96-.395-.324-.41-.324-1.016 0-.65.268-1.905l.24-1.101q.042-.198.112-.494t.127-.62q.057-.325.057-.565 0-.283-.127-.55-.113-.283-.522-.283-.438 0-.875.325-.438.324-.819.832-.367.508-.635 1.059-.254.536-.338.96l-.762 3.612h-1.313l1.186-5.673q.042-.198.056-.381.028-.198.028-.254 0-.423-.296-.536-.282-.127-.691-.127h-.113l.127-.593h2.61l-.38 1.778h.14q.579-.931 1.172-1.411.606-.494 1.397-.494.832 0 1.17.48.34.465.34 1.086 0 .353-.1.776-.084.41-.155.777l-.366 1.665q-.085.395-.142.776-.042.38-.042.705 0 .678.494.678.41 0 .903-.325l.254.41q-.338.282-.762.55-.409.254-.96.254zM120.942 24.727q-1.058 0-1.693-.424-.635-.437-.635-1.17 0-.382.155-.58.155-.211.353-.282.211-.07.38-.07 0 .494.156.917.155.423.508.677.367.254.945.254.706 0 1.115-.324.41-.339.41-.988 0-.494-.325-.847-.325-.352-1.1-.705-.777-.367-1.243-.847-.465-.494-.465-1.34 0-.918.734-1.51.747-.593 1.99-.593.775 0 1.255.198.48.197.706.508.24.31.24.635 0 .437-.283.663-.282.211-.776.211 0-.38-.127-.733-.113-.367-.395-.593-.268-.24-.748-.24-.635 0-1.002.339-.367.338-.367.875 0 .48.353.804.353.31 1.087.65.776.352 1.227.86.466.508.466 1.326 0 1.03-.79 1.68-.776.649-2.13.649zM124.47 26.053q1.44-.324 1.44-1.185 0-.198-.142-.31-.141-.114-.324-.226-.17-.113-.31-.269-.142-.169-.142-.451 0-.41.254-.621.268-.212.62-.212.452 0 .777.31.325.297.325.847 0 .96-.621 1.694-.621.748-1.934 1.016zM130.848 27.972q-.212 0-.437-.042-.24-.028-.381-.07l.127-.65q.113.028.31.057.184.042.339.042.691 0 1.086-.593.381-.592.692-2.003l1.481-6.887h-1.284l.085-.508 1.355-.296.183-.776q.282-1.214 1.044-1.863.776-.663 2.173-.663 1.087 0 1.637.296.55.283.55.748 0 .466-.394.692-.396.225-1.13.225 0-.536-.183-.917-.17-.395-.748-.395-.663 0-1.058.423-.381.424-.564 1.327l-.184.903h4.078l-.96 4.53-.084.451q-.056.297-.099.607-.028.31-.028.508 0 .72.466.72.24 0 .494-.1.254-.112.522-.267l.254.409q-.31.268-.847.564-.522.283-1.058.283-.565 0-.875-.395-.297-.396-.297-.946 0-.296.057-.705.056-.41.127-.819.07-.423.127-.691l.705-3.345h-2.751l-1.468 6.872q-.268 1.256-.691 1.962-.424.72-1.016 1.016-.593.296-1.355.296zM146.878 24.727q-.62 0-.96-.395-.324-.41-.324-1.016 0-.65.268-1.905l.24-1.101q.042-.198.113-.494.07-.296.127-.62.057-.325.057-.565 0-.283-.127-.55-.113-.283-.523-.283-.437 0-.874.325-.438.324-.819.832-.367.508-.635 1.059-.254.536-.339.96l-.762 3.612h-1.312l1.185-5.673q.043-.198.057-.381.028-.198.028-.254 0-.423-.296-.536-.282-.127-.692-.127h-.113l.127-.593h2.61l-.38 1.778h.141q.579-.931 1.171-1.411.607-.494 1.397-.494.833 0 1.172.48.338.465.338 1.086 0 .353-.099.776-.084.41-.155.777l-.367 1.665q-.084.395-.14.776-.043.38-.043.705 0 .678.494.678.409 0 .903-.325l.254.41q-.339.282-.762.55-.41.254-.96.254zM152.198 24.727q-.748 0-1.383-.325-.62-.324-1.002-.96-.366-.649-.366-1.636 0-.79.268-1.637.268-.861.804-1.609t1.312-1.213q.79-.466 1.82-.466.89 0 1.383.437.494.424.494 1.186 0 .733-.536 1.383-.522.649-1.453 1.044-.918.395-2.103.395h-.494l-.028.31v.283q0 .903.395 1.41.395.509 1.157.509.678 0 1.2-.325.536-.324.832-.691.141.098.141.352 0 .31-.268.678-.254.353-.79.62-.536.255-1.383.255zm-.988-4.05q.833 0 1.468-.268.65-.283 1.016-.762.38-.494.38-1.143 0-.946-.818-.946-.395 0-.747.282-.353.269-.635.734-.283.452-.494 1.002-.198.55-.31 1.1zM157.998 24.727q-.565 0-.875-.395-.296-.396-.296-.946 0-.296.056-.705.056-.41.127-.819.07-.423.127-.691l1.157-5.419q.042-.198.056-.381.029-.198.029-.254 0-.423-.297-.536-.282-.127-.691-.127h-.17l.128-.593h2.667l-1.637 7.69-.085.452q-.056.297-.099.607-.042.31-.042.508 0 .72.466.72.24 0 .493-.1.254-.112.523-.267l.254.409q-.31.268-.833.564-.522.283-1.058.283z"/><path d="M159.127 27.972q-.748 0-1.327-.254l.212-.705q.17.056.423.098.24.057.678.057.691 0 1.27-.254.592-.24 1.086-.635.494-.381.89-.833.408-.437.719-.846l-1.863-6.237q-.127-.424-.353-.579-.211-.17-.62-.17h-.142l.113-.592h2.06l1.101 3.81q.113.367.24.875t.226.974q.113.465.127.705h.042q.536-.818.96-1.65.437-.833.691-1.61.254-.79.254-1.425 0-.296-.155-.522-.141-.24-.536-.24 0-.508.282-.776.296-.268.635-.268.451 0 .705.296.254.297.254.89 0 1.1-.677 2.54-.677 1.439-1.806 3.16-.692 1.073-1.284 1.863-.579.79-1.171 1.298-.593.522-1.327.776-.72.254-1.707.254zM173.633 24.727q-.621 0-1.03-.339-.41-.339-.607-.917-.183-.593-.183-1.327 0-.663.169-1.383.183-.733.536-1.41.353-.692.86-1.242.509-.565 1.172-.89.663-.338 1.468-.338.409 0 .762.099.367.098.635.254.028-.184.07-.424.043-.254.07-.38l.142-.678q.042-.198.07-.367.029-.183.029-.268 0-.423-.297-.536-.282-.127-.691-.127h-.113l.127-.593h2.596l-1.636 7.69-.085.452q-.057.297-.099.607-.028.31-.028.508 0 .72.466.72.24 0 .493-.1.254-.112.523-.267l.254.409q-.198.183-.537.381-.338.198-.72.325-.38.14-.733.14-.508 0-.804-.31-.297-.31-.297-.86 0-.184.028-.466.043-.282.113-.635h-.084q-.48 1.086-1.143 1.679-.664.593-1.496.593zm.508-.89q.367 0 .748-.282.395-.282.734-.762.352-.48.62-1.072.269-.593.396-1.2l.522-2.497q-.156-.254-.452-.381-.296-.127-.62-.127-.565 0-1.017.324-.451.31-.79.833-.339.522-.579 1.143-.225.62-.338 1.256-.113.62-.113 1.129 0 .875.254 1.256.254.38.635.38zM182.537 15.61q-.353 0-.579-.183-.211-.197-.211-.592 0-.452.225-.72.24-.268.621-.268.34 0 .565.198.226.183.226.578 0 .55-.269.776-.268.212-.578.212zm-.974 9.117q-.564 0-.875-.395-.296-.396-.296-.946 0-.296.056-.705.057-.41.127-.819.071-.423.127-.691l.55-2.597q.043-.211.043-.367 0-.38-.24-.48-.226-.112-.62-.112h-.184l.127-.593h2.526l-.96 4.53-.084.451q-.057.297-.1.607-.027.31-.027.508 0 .72.465.72.24 0 .494-.1.254-.112.522-.267l.254.409q-.31.268-.846.564-.523.283-1.059.283zM187.024 24.727q-.748 0-1.383-.325-.62-.324-1.002-.96-.366-.649-.366-1.636 0-.79.268-1.637.268-.861.804-1.609t1.312-1.213q.79-.466 1.82-.466 1.059 0 1.553.423.508.41.508.932 0 .395-.325.691-.324.296-.931.296 0-.677-.268-1.17-.254-.495-.819-.495-.451 0-.832.31-.381.297-.692.79-.296.48-.508 1.073-.197.579-.31 1.157-.113.579-.113 1.03 0 .904.395 1.412.395.508 1.157.508.748 0 1.242-.325.494-.324.79-.691.141.098.141.352 0 .31-.268.678-.254.353-.79.62-.536.255-1.383.255zM193.896 24.727q-.748 0-1.383-.325-.62-.324-1.001-.96-.367-.649-.367-1.636 0-.79.268-1.637.268-.861.804-1.609t1.312-1.213q.79-.466 1.82-.466.89 0 1.384.437.494.424.494 1.186 0 .733-.537 1.383-.522.649-1.453 1.044-.917.395-2.103.395h-.494l-.028.31v.283q0 .903.395 1.41.395.509 1.157.509.678 0 1.2-.325.536-.324.832-.691.142.098.142.352 0 .31-.269.678-.254.353-.79.62-.536.255-1.383.255zm-.987-4.05q.832 0 1.467-.268.65-.283 1.016-.762.381-.494.381-1.143 0-.946-.818-.946-.395 0-.748.282-.353.269-.635.734-.282.452-.494 1.002-.198.55-.31 1.1zM199.922 24.727q-.621 0-1.03-.339-.41-.339-.607-.917-.184-.593-.184-1.327 0-.663.17-1.383.183-.733.536-1.41.353-.692.86-1.242.509-.565 1.172-.89.663-.338 1.468-.338.409 0 .762.099.366.098.635.254.028-.184.07-.424.042-.254.07-.38l.142-.678q.042-.198.07-.367.029-.183.029-.268 0-.423-.297-.536-.282-.127-.691-.127h-.113l.127-.593h2.596l-1.637 7.69-.084.452q-.057.297-.1.607-.027.31-.027.508 0 .72.465.72.24 0 .494-.1.254-.112.522-.267l.254.409q-.197.183-.536.381-.338.198-.72.325-.38.14-.733.14-.508 0-.805-.31-.296-.31-.296-.86 0-.184.028-.466.043-.282.113-.635h-.085q-.48 1.086-1.143 1.679t-1.495.593zm.508-.89q.367 0 .748-.282.395-.282.733-.762.353-.48.621-1.072.268-.593.395-1.2l.523-2.497q-.156-.254-.452-.381-.296-.127-.62-.127-.565 0-1.017.324-.451.31-.79.833-.339.522-.579 1.143-.225.62-.338 1.256-.113.62-.113 1.129 0 .875.254 1.256.254.38.635.38z"/></g><path fill="#fb4934" d="M5.265 5h31.416v7.052H5.265z"/><g aria-label="QUANTITY" style="line-height:1.25;-inkscape-font-specification:'Noto Serif Italic'" font-style="italic" font-size="5.644" font-family="Noto Serif" letter-spacing="0" word-spacing="0" stroke-width=".529"><path d="M10.985 8.072q0 .74-.299 1.26-.293.518-.875.716l.965 1.005h-.728l-.779-.91h-.073q-.034.006-.068.006-.626 0-1.044-.26-.412-.259-.615-.727-.204-.469-.204-1.095 0-.621.204-1.084.203-.463.615-.723Q8.502 6 9.134 6q.604 0 1.016.26.412.254.62.723.215.463.215 1.09zm-3.183 0q0 .762.321 1.203.322.434 1.005.434.689 0 1.005-.434.316-.44.316-1.203 0-.762-.316-1.19-.316-.435-1-.435-.682 0-1.01.434-.321.43-.321 1.191zM14.942 8.67q0 .418-.17.757-.169.333-.519.53-.344.193-.88.193-.75 0-1.146-.407-.39-.412-.39-1.084V6.063h.508v2.613q0 .491.26.762.265.271.796.271.548 0 .79-.288.249-.293.249-.75V6.063h.502zM18.475 10.093l-.485-1.247h-1.597l-.48 1.247h-.514l1.575-4.047h.457l1.57 4.047zm-1.089-2.918q-.017-.045-.056-.164-.04-.118-.08-.243-.033-.13-.056-.197-.04.175-.09.344-.051.164-.085.26l-.457 1.22h1.276zM22.748 10.093h-.592l-2.157-3.347h-.022l.028.491q.017.293.017.604v2.252h-.469v-4.03h.587l2.151 3.336h.023l-.017-.271q-.006-.18-.017-.395-.006-.215-.006-.395V6.063h.474zM25.119 10.093h-.508V6.51h-1.259v-.446h3.02v.446h-1.253zM28.116 10.093H26.66V9.8l.474-.108V6.47l-.474-.113v-.293h1.456v.293l-.474.113v3.223l.474.108zM30.17 10.093h-.507V6.51h-1.26v-.446h3.02v.446h-1.252z" fill="#282828"/><path d="M33.083 8.044l1.05-1.981h.548L33.337 8.53v1.563h-.508v-1.54l-1.343-2.49h.553z" style="-inkscape-font-specification:'Noto Sans'" font-style="normal" font-family="Noto Sans"/></g><path d="M5.265 5.038V25.5h9.932v-1.384" fill="none" stroke="#cc241d" stroke-width=".53"/><path fill="#b8bb26" d="M17.766 28.132h16.898v6.086H17.766z"/><g aria-label="UNIT" style="line-height:1.25;-inkscape-font-specification:'Noto Serif Italic'" font-style="normal" font-size="5.644" font-family="Noto Sans" letter-spacing="0" word-spacing="0" stroke-width=".529" fill="#282828"><path d="M22.87 31.74q0 .417-.169.756-.169.333-.519.53-.344.192-.88.192-.751 0-1.146-.406-.39-.412-.39-1.084v-2.596h.508v2.613q0 .491.26.762.265.271.796.271.547 0 .79-.288.248-.293.248-.75v-2.608h.503zM27.127 33.162h-.593l-2.156-3.347h-.023l.028.49q.017.294.017.605v2.252h-.468v-4.03h.587l2.15 3.336h.023l-.017-.271q-.006-.181-.017-.395-.005-.215-.005-.396v-2.274h.474zM29.356 33.162H27.9v-.294l.474-.107v-3.223l-.474-.113v-.293h1.456v.293l-.474.113v3.223l.474.107zM31.41 33.162h-.507v-3.584h-1.259v-.446h3.02v.446H31.41z" style="-inkscape-font-specification:'Noto Sans'"/></g><path d="M17.766 34.218V13.096h34.076v2.11" fill="none" stroke="#98971a" stroke-width=".53"/><path fill="#83a598" d="M54.701 5H73.97v6.048H54.701z"/><g aria-label="NAME" style="line-height:1.25;-inkscape-font-specification:'Noto Serif Italic'" font-style="normal" font-size="5.644" font-family="Noto Sans" letter-spacing="0" word-spacing="0" fill="#282828" stroke-width=".529"><path d="M59.896 10.048h-.593L57.147 6.7h-.023l.029.491q.017.294.017.604v2.253H56.7v-4.03h.587l2.15 3.335h.023l-.017-.27q-.006-.181-.017-.396-.006-.214-.006-.395V6.017h.475zM63.52 10.048L63.034 8.8h-1.597l-.48 1.248h-.514L62.018 6h.457l1.57 4.048zm-1.09-2.919q-.017-.045-.056-.163l-.08-.243q-.033-.13-.056-.198-.04.175-.09.345-.05.163-.085.26l-.457 1.219h1.276zM66.376 10.048l-1.327-3.534h-.022q.017.175.028.474.011.294.011.615v2.445h-.468v-4.03h.75l1.242 3.301h.023l1.264-3.302h.745v4.03h-.502V7.57q0-.294.011-.582l.028-.468h-.022l-1.344 3.528zM71.97 10.048h-2.253v-4.03h2.252v.445h-1.744v1.259h1.643v.44h-1.643v1.44h1.744z" style="-inkscape-font-specification:'Noto Sans'"/></g><path d="M124.368 22.382v3.124H54.696V5.038" fill="none" stroke="#458588" stroke-width=".53"/><path d="M206.559 16.323v-3.225h-77.515v21.129" fill="none" stroke="#b16286" stroke-width=".53"/><path fill="#d3869b" d="M128.805 28.132h32.262v6.148h-32.262z"/><g aria-label="COMMENT" style="line-height:1.25;-inkscape-font-specification:'Noto Serif Italic'" font-style="normal" font-size="5.644" font-family="Noto Sans" letter-spacing="0" word-spacing="0" stroke-width=".529" fill="#282828"><path d="M132.736 29.583q-.65 0-1.022.435-.372.434-.372 1.19 0 .751.344 1.192.35.434 1.044.434.265 0 .503-.045.237-.045.462-.113v.44q-.225.085-.468.125-.237.04-.57.04-.615 0-1.027-.255-.413-.254-.621-.722-.204-.469-.204-1.101 0-.61.22-1.072.226-.469.661-.729.435-.265 1.055-.265.638 0 1.112.237l-.203.43q-.186-.085-.417-.153-.226-.068-.497-.068zM137.98 31.203q0 .627-.215 1.095-.209.463-.62.723-.413.26-1.022.26-.627 0-1.045-.26-.412-.26-.615-.729-.203-.468-.203-1.095 0-.62.203-1.083.203-.463.615-.723.418-.26 1.05-.26.604 0 1.016.26.412.254.621.723.215.462.215 1.089zm-3.184 0q0 .762.322 1.202.322.435 1.005.435.688 0 1.004-.435.316-.44.316-1.202t-.316-1.19q-.316-.436-.999-.436t-1.01.435q-.322.429-.322 1.191zM140.65 33.224l-1.327-3.534h-.023q.017.175.028.474.012.294.012.616v2.444h-.469v-4.03h.751l1.242 3.302h.022l1.265-3.302h.745v4.03h-.503v-2.478q0-.294.012-.582l.028-.468h-.023l-1.343 3.528zM145.769 33.224l-1.327-3.534h-.022q.017.175.028.474.011.294.011.616v2.444h-.468v-4.03h.75l1.242 3.302h.023l1.264-3.302h.745v4.03h-.502v-2.478q0-.294.011-.582l.028-.468h-.022l-1.344 3.528zM151.362 33.224h-2.252v-4.03h2.252v.446h-1.744v1.258h1.643v.44h-1.643v1.44h1.744zM155.443 33.224h-.592l-2.156-3.347h-.023l.028.49q.017.294.017.605v2.252h-.468v-4.03h.587l2.15 3.335h.023l-.017-.27q-.006-.181-.017-.396-.006-.214-.006-.395v-2.274h.474zM157.814 33.224h-.508V29.64h-1.259v-.446h3.02v.446h-1.253z" style="-inkscape-font-specification:'Noto Sans'"/></g></svg>