<?xml version="1.0" encoding="utf-8" standalone="no"?>
<!DOCTYPE svg PUBLIC "-//W3C//DTD SVG 1.1//EN"
  "http://www.w3.org/Graphics/SVG/1.1/DTD/svg11.dtd">
<svg xmlns:xlink="http://www.w3.org/1999/xlink" width="864pt" height="360pt" viewBox="0 0 864 360" xmlns="http://www.w3.org/2000/svg" version="1.1">
 <metadata>
  <rdf:RDF xmlns:dc="http://purl.org/dc/elements/1.1/" xmlns:cc="http://creativecommons.org/ns#" xmlns:rdf="http://www.w3.org/1999/02/22-rdf-syntax-ns#">
   <cc:Work>
    <dc:type rdf:resource="http://purl.org/dc/dcmitype/StillImage"/>
    <dc:date>2025-04-21T09:40:05.069050</dc:date>
    <dc:format>image/svg+xml</dc:format>
    <dc:creator>
     <cc:Agent>
      <dc:title>Matplotlib v3.10.1, https://matplotlib.org/</dc:title>
     </cc:Agent>
    </dc:creator>
   </cc:Work>
  </rdf:RDF>
 </metadata>
 <defs>
  <style type="text/css">*{stroke-linejoin: round; stroke-linecap: butt}</style>
 </defs>
 <g id="figure_1">
  <g id="patch_1">
   <path d="M 0 360 
L 864 360 
L 864 0 
L 0 0 
z
" style="fill: #1d2021"/>
  </g>
  <g id="axes_1">
   <g id="patch_2">
    <path d="M 24.420865 287.2047 
L 860.99976 287.2047 
L 860.99976 3.00024 
L 24.420865 3.00024 
z
" style="fill: #1d2021"/>
   </g>
   <g id="patch_3">
    <path d="M 28.860258 1320.675465 
L 47.60436 1320.675465 
L 47.60436 223.387881 
L 28.860258 223.387881 
z
" clip-path="url(#pa60f29ea14)" style="fill: #3e686a"/>
   </g>
   <g id="patch_4">
    <path d="M 68.321526 1320.675465 
L 87.065629 1320.675465 
L 87.065629 204.268671 
L 68.321526 204.268671 
z
" clip-path="url(#pa60f29ea14)" style="fill: #3e686a"/>
   </g>
   <g id="patch_5">
    <path d="M 107.782795 1320.675465 
L 126.526898 1320.675465 
L 126.526898 204.268671 
L 107.782795 204.268671 
z
" clip-path="url(#pa60f29ea14)" style="fill: #3e686a"/>
   </g>
   <g id="patch_6">
    <path d="M 147.244064 1320.675465 
L 165.988166 1320.675465 
L 165.988166 201.039075 
L 147.244064 201.039075 
z
" clip-path="url(#pa60f29ea14)" style="fill: #3e686a"/>
   </g>
   <g id="patch_7">
    <path d="M 186.705332 1320.675465 
L 205.449435 1320.675465 
L 205.449435 201.039075 
L 186.705332 201.039075 
z
" clip-path="url(#pa60f29ea14)" style="fill: #3e686a"/>
   </g>
   <g id="patch_8">
    <path d="M 226.166601 1320.675465 
L 244.910703 1320.675465 
L 244.910703 201.039075 
L 226.166601 201.039075 
z
" clip-path="url(#pa60f29ea14)" style="fill: #3e686a"/>
   </g>
   <g id="patch_9">
    <path d="M 265.62787 1320.675465 
L 284.371972 1320.675465 
L 284.371972 163.446576 
L 265.62787 163.446576 
z
" clip-path="url(#pa60f29ea14)" style="fill: #3e686a"/>
   </g>
   <g id="patch_10">
    <path d="M 305.089138 1320.675465 
L 323.833241 1320.675465 
L 323.833241 158.666774 
L 305.089138 158.666774 
z
" clip-path="url(#pa60f29ea14)" style="fill: #3e686a"/>
   </g>
   <g id="patch_11">
    <path d="M 344.550407 1320.675465 
L 363.294509 1320.675465 
L 363.294509 130.763063 
L 344.550407 130.763063 
z
" clip-path="url(#pa60f29ea14)" style="fill: #3e686a"/>
   </g>
   <g id="patch_12">
    <path d="M 384.011675 1320.675465 
L 402.755778 1320.675465 
L 402.755778 130.763063 
L 384.011675 130.763063 
z
" clip-path="url(#pa60f29ea14)" style="fill: #3e686a"/>
   </g>
   <g id="patch_13">
    <path d="M 423.472944 1320.675465 
L 442.217047 1320.675465 
L 442.217047 111.643854 
L 423.472944 111.643854 
z
" clip-path="url(#pa60f29ea14)" style="fill: #3e686a"/>
   </g>
   <g id="patch_14">
    <path d="M 462.934213 1320.675465 
L 481.678315 1320.675465 
L 481.678315 103.246904 
L 462.934213 103.246904 
z
" clip-path="url(#pa60f29ea14)" style="fill: #3e686a"/>
   </g>
   <g id="patch_15">
    <path d="M 502.395481 1320.675465 
L 521.139584 1320.675465 
L 521.139584 103.246904 
L 502.395481 103.246904 
z
" clip-path="url(#pa60f29ea14)" style="fill: #3e686a"/>
   </g>
   <g id="patch_16">
    <path d="M 541.85675 1320.675465 
L 560.600853 1320.675465 
L 560.600853 96.658528 
L 541.85675 96.658528 
z
" clip-path="url(#pa60f29ea14)" style="fill: #3e686a"/>
   </g>
   <g id="patch_17">
    <path d="M 581.318019 1320.675465 
L 600.062121 1320.675465 
L 600.062121 92.137093 
L 581.318019 92.137093 
z
" clip-path="url(#pa60f29ea14)" style="fill: #3e686a"/>
   </g>
   <g id="patch_18">
    <path d="M 620.779287 1320.675465 
L 639.52339 1320.675465 
L 639.52339 92.137093 
L 620.779287 92.137093 
z
" clip-path="url(#pa60f29ea14)" style="fill: #3e686a"/>
   </g>
   <g id="patch_19">
    <path d="M 660.240556 1320.675465 
L 678.984658 1320.675465 
L 678.984658 82.319121 
L 660.240556 82.319121 
z
" clip-path="url(#pa60f29ea14)" style="fill: #3e686a"/>
   </g>
   <g id="patch_20">
    <path d="M 699.701824 1320.675465 
L 718.445927 1320.675465 
L 718.445927 82.319121 
L 699.701824 82.319121 
z
" clip-path="url(#pa60f29ea14)" style="fill: #3e686a"/>
   </g>
   <g id="patch_21">
    <path d="M 739.163093 1320.675465 
L 757.907196 1320.675465 
L 757.907196 82.189937 
L 739.163093 82.189937 
z
" clip-path="url(#pa60f29ea14)" style="fill: #3e686a"/>
   </g>
   <g id="patch_22">
    <path d="M 778.624362 1320.675465 
L 797.368464 1320.675465 
L 797.368464 97.04608 
L 778.624362 97.04608 
z
" clip-path="url(#pa60f29ea14)" style="fill: #3e686a"/>
   </g>
   <g id="patch_23">
    <path d="M 818.08563 1320.675465 
L 836.829733 1320.675465 
L 836.829733 97.821183 
L 818.08563 97.821183 
z
" clip-path="url(#pa60f29ea14)" style="fill: #3e686a"/>
   </g>
   <g id="patch_24">
    <path d="M 47.60436 1320.675465 
L 66.348463 1320.675465 
L 66.348463 90.199336 
L 47.60436 90.199336 
z
" clip-path="url(#pa60f29ea14)" style="fill: #9f4e19"/>
   </g>
   <g id="patch_25">
    <path d="M 87.065629 1320.675465 
L 105.809732 1320.675465 
L 105.809732 79.993812 
L 87.065629 79.993812 
z
" clip-path="url(#pa60f29ea14)" style="fill: #9f4e19"/>
   </g>
   <g id="patch_26">
    <path d="M 126.526898 1320.675465 
L 145.271 1320.675465 
L 145.271 79.993812 
L 126.526898 79.993812 
z
" clip-path="url(#pa60f29ea14)" style="fill: #9f4e19"/>
   </g>
   <g id="patch_27">
    <path d="M 165.988166 1320.675465 
L 184.732269 1320.675465 
L 184.732269 83.998511 
L 165.988166 83.998511 
z
" clip-path="url(#pa60f29ea14)" style="fill: #9f4e19"/>
   </g>
   <g id="patch_28">
    <path d="M 205.449435 1320.675465 
L 224.193537 1320.675465 
L 224.193537 83.998511 
L 205.449435 83.998511 
z
" clip-path="url(#pa60f29ea14)" style="fill: #9f4e19"/>
   </g>
   <g id="patch_29">
    <path d="M 244.910703 1320.675465 
L 263.654806 1320.675465 
L 263.654806 83.998511 
L 244.910703 83.998511 
z
" clip-path="url(#pa60f29ea14)" style="fill: #9f4e19"/>
   </g>
   <g id="patch_30">
    <path d="M 284.371972 1320.675465 
L 303.116075 1320.675465 
L 303.116075 77.280951 
L 284.371972 77.280951 
z
" clip-path="url(#pa60f29ea14)" style="fill: #9f4e19"/>
   </g>
   <g id="patch_31">
    <path d="M 323.833241 1320.675465 
L 342.577343 1320.675465 
L 342.577343 77.410135 
L 323.833241 77.410135 
z
" clip-path="url(#pa60f29ea14)" style="fill: #9f4e19"/>
   </g>
   <g id="patch_32">
    <path d="M 363.294509 1320.675465 
L 382.038612 1320.675465 
L 382.038612 67.333795 
L 363.294509 67.333795 
z
" clip-path="url(#pa60f29ea14)" style="fill: #9f4e19"/>
   </g>
   <g id="patch_33">
    <path d="M 402.755778 1320.675465 
L 421.499881 1320.675465 
L 421.499881 67.333795 
L 402.755778 67.333795 
z
" clip-path="url(#pa60f29ea14)" style="fill: #9f4e19"/>
   </g>
   <g id="patch_34">
    <path d="M 442.217047 1320.675465 
L 460.961149 1320.675465 
L 460.961149 61.003787 
L 442.217047 61.003787 
z
" clip-path="url(#pa60f29ea14)" style="fill: #9f4e19"/>
   </g>
   <g id="patch_35">
    <path d="M 481.678315 1320.675465 
L 500.422418 1320.675465 
L 500.422418 58.161742 
L 481.678315 58.161742 
z
" clip-path="url(#pa60f29ea14)" style="fill: #9f4e19"/>
   </g>
   <g id="patch_36">
    <path d="M 521.139584 1320.675465 
L 539.883687 1320.675465 
L 539.883687 58.161742 
L 521.139584 58.161742 
z
" clip-path="url(#pa60f29ea14)" style="fill: #9f4e19"/>
   </g>
   <g id="patch_37">
    <path d="M 560.600853 1320.675465 
L 579.344955 1320.675465 
L 579.344955 56.869904 
L 560.600853 56.869904 
z
" clip-path="url(#pa60f29ea14)" style="fill: #9f4e19"/>
   </g>
   <g id="patch_38">
    <path d="M 600.062121 1320.675465 
L 618.806224 1320.675465 
L 618.806224 55.06133 
L 600.062121 55.06133 
z
" clip-path="url(#pa60f29ea14)" style="fill: #9f4e19"/>
   </g>
   <g id="patch_39">
    <path d="M 639.52339 1320.675465 
L 658.267492 1320.675465 
L 658.267492 55.06133 
L 639.52339 55.06133 
z
" clip-path="url(#pa60f29ea14)" style="fill: #9f4e19"/>
   </g>
   <g id="patch_40">
    <path d="M 678.984658 1320.675465 
L 697.728761 1320.675465 
L 697.728761 49.377241 
L 678.984658 49.377241 
z
" clip-path="url(#pa60f29ea14)" style="fill: #9f4e19"/>
   </g>
   <g id="patch_41">
    <path d="M 718.445927 1320.675465 
L 737.19003 1320.675465 
L 737.19003 49.377241 
L 718.445927 49.377241 
z
" clip-path="url(#pa60f29ea14)" style="fill: #9f4e19"/>
   </g>
   <g id="patch_42">
    <path d="M 757.907196 1320.675465 
L 776.651298 1320.675465 
L 776.651298 50.927447 
L 757.907196 50.927447 
z
" clip-path="url(#pa60f29ea14)" style="fill: #9f4e19"/>
   </g>
   <g id="patch_43">
    <path d="M 797.368464 1320.675465 
L 816.112567 1320.675465 
L 816.112567 56.999087 
L 797.368464 56.999087 
z
" clip-path="url(#pa60f29ea14)" style="fill: #9f4e19"/>
   </g>
   <g id="patch_44">
    <path d="M 836.829733 1320.675465 
L 855.573836 1320.675465 
L 855.573836 56.999087 
L 836.829733 56.999087 
z
" clip-path="url(#pa60f29ea14)" style="fill: #9f4e19"/>
   </g>
   <g id="matplotlib.axis_1">
    <g id="xtick_1">
     <g id="line2d_1">
      <defs>
       <path id="m901c4b2077" d="M 0 0 
L 0 3.5 
" style="stroke: #ebdbb2; stroke-width: 0.8"/>
      </defs>
      <g>
       <use xlink:href="#m901c4b2077" x="47.60436" y="287.2047" style="fill: #ebdbb2; stroke: #ebdbb2; stroke-width: 0.8"/>
      </g>
     </g>
     <g id="text_1">
      <!-- 0.1.0-alpha2 -->
      <g style="fill: #ebdbb2" transform="translate(23.160121 354.223482) rotate(-45) scale(0.12 -0.12)">
       <defs>
        <path id="DejaVuSans-30" d="M 2034 4250 
Q 1547 4250 1301 3770 
Q 1056 3291 1056 2328 
Q 1056 1369 1301 889 
Q 1547 409 2034 409 
Q 2525 409 2770 889 
Q 3016 1369 3016 2328 
Q 3016 3291 2770 3770 
Q 2525 4250 2034 4250 
z
M 2034 4750 
Q 2819 4750 3233 4129 
Q 3647 3509 3647 2328 
Q 3647 1150 3233 529 
Q 2819 -91 2034 -91 
Q 1250 -91 836 529 
Q 422 1150 422 2328 
Q 422 3509 836 4129 
Q 1250 4750 2034 4750 
z
" transform="scale(0.015625)"/>
        <path id="DejaVuSans-2e" d="M 684 794 
L 1344 794 
L 1344 0 
L 684 0 
L 684 794 
z
" transform="scale(0.015625)"/>
        <path id="DejaVuSans-31" d="M 794 531 
L 1825 531 
L 1825 4091 
L 703 3866 
L 703 4441 
L 1819 4666 
L 2450 4666 
L 2450 531 
L 3481 531 
L 3481 0 
L 794 0 
L 794 531 
z
" transform="scale(0.015625)"/>
        <path id="DejaVuSans-2d" d="M 313 2009 
L 1997 2009 
L 1997 1497 
L 313 1497 
L 313 2009 
z
" transform="scale(0.015625)"/>
        <path id="DejaVuSans-61" d="M 2194 1759 
Q 1497 1759 1228 1600 
Q 959 1441 959 1056 
Q 959 750 1161 570 
Q 1363 391 1709 391 
Q 2188 391 2477 730 
Q 2766 1069 2766 1631 
L 2766 1759 
L 2194 1759 
z
M 3341 1997 
L 3341 0 
L 2766 0 
L 2766 531 
Q 2569 213 2275 61 
Q 1981 -91 1556 -91 
Q 1019 -91 701 211 
Q 384 513 384 1019 
Q 384 1609 779 1909 
Q 1175 2209 1959 2209 
L 2766 2209 
L 2766 2266 
Q 2766 2663 2505 2880 
Q 2244 3097 1772 3097 
Q 1472 3097 1187 3025 
Q 903 2953 641 2809 
L 641 3341 
Q 956 3463 1253 3523 
Q 1550 3584 1831 3584 
Q 2591 3584 2966 3190 
Q 3341 2797 3341 1997 
z
" transform="scale(0.015625)"/>
        <path id="DejaVuSans-6c" d="M 603 4863 
L 1178 4863 
L 1178 0 
L 603 0 
L 603 4863 
z
" transform="scale(0.015625)"/>
        <path id="DejaVuSans-70" d="M 1159 525 
L 1159 -1331 
L 581 -1331 
L 581 3500 
L 1159 3500 
L 1159 2969 
Q 1341 3281 1617 3432 
Q 1894 3584 2278 3584 
Q 2916 3584 3314 3078 
Q 3713 2572 3713 1747 
Q 3713 922 3314 415 
Q 2916 -91 2278 -91 
Q 1894 -91 1617 61 
Q 1341 213 1159 525 
z
M 3116 1747 
Q 3116 2381 2855 2742 
Q 2594 3103 2138 3103 
Q 1681 3103 1420 2742 
Q 1159 2381 1159 1747 
Q 1159 1113 1420 752 
Q 1681 391 2138 391 
Q 2594 391 2855 752 
Q 3116 1113 3116 1747 
z
" transform="scale(0.015625)"/>
        <path id="DejaVuSans-68" d="M 3513 2113 
L 3513 0 
L 2938 0 
L 2938 2094 
Q 2938 2591 2744 2837 
Q 2550 3084 2163 3084 
Q 1697 3084 1428 2787 
Q 1159 2491 1159 1978 
L 1159 0 
L 581 0 
L 581 4863 
L 1159 4863 
L 1159 2956 
Q 1366 3272 1645 3428 
Q 1925 3584 2291 3584 
Q 2894 3584 3203 3211 
Q 3513 2838 3513 2113 
z
" transform="scale(0.015625)"/>
        <path id="DejaVuSans-32" d="M 1228 531 
L 3431 531 
L 3431 0 
L 469 0 
L 469 531 
Q 828 903 1448 1529 
Q 2069 2156 2228 2338 
Q 2531 2678 2651 2914 
Q 2772 3150 2772 3378 
Q 2772 3750 2511 3984 
Q 2250 4219 1831 4219 
Q 1534 4219 1204 4116 
Q 875 4013 500 3803 
L 500 4441 
Q 881 4594 1212 4672 
Q 1544 4750 1819 4750 
Q 2544 4750 2975 4387 
Q 3406 4025 3406 3419 
Q 3406 3131 3298 2873 
Q 3191 2616 2906 2266 
Q 2828 2175 2409 1742 
Q 1991 1309 1228 531 
z
" transform="scale(0.015625)"/>
       </defs>
       <use xlink:href="#DejaVuSans-30"/>
       <use xlink:href="#DejaVuSans-2e" transform="translate(63.623047 0)"/>
       <use xlink:href="#DejaVuSans-31" transform="translate(95.410156 0)"/>
       <use xlink:href="#DejaVuSans-2e" transform="translate(159.033203 0)"/>
       <use xlink:href="#DejaVuSans-30" transform="translate(190.820312 0)"/>
       <use xlink:href="#DejaVuSans-2d" transform="translate(254.443359 0)"/>
       <use xlink:href="#DejaVuSans-61" transform="translate(290.527344 0)"/>
       <use xlink:href="#DejaVuSans-6c" transform="translate(351.806641 0)"/>
       <use xlink:href="#DejaVuSans-70" transform="translate(379.589844 0)"/>
       <use xlink:href="#DejaVuSans-68" transform="translate(443.066406 0)"/>
       <use xlink:href="#DejaVuSans-61" transform="translate(506.445312 0)"/>
       <use xlink:href="#DejaVuSans-32" transform="translate(567.724609 0)"/>
      </g>
     </g>
    </g>
    <g id="xtick_2">
     <g id="line2d_2">
      <g>
       <use xlink:href="#m901c4b2077" x="87.065629" y="287.2047" style="fill: #ebdbb2; stroke: #ebdbb2; stroke-width: 0.8"/>
      </g>
     </g>
     <g id="text_2">
      <!-- 0.1.0-alpha3 -->
      <g style="fill: #ebdbb2" transform="translate(62.621389 354.223482) rotate(-45) scale(0.12 -0.12)">
       <defs>
        <path id="DejaVuSans-33" d="M 2597 2516 
Q 3050 2419 3304 2112 
Q 3559 1806 3559 1356 
Q 3559 666 3084 287 
Q 2609 -91 1734 -91 
Q 1441 -91 1130 -33 
Q 819 25 488 141 
L 488 750 
Q 750 597 1062 519 
Q 1375 441 1716 441 
Q 2309 441 2620 675 
Q 2931 909 2931 1356 
Q 2931 1769 2642 2001 
Q 2353 2234 1838 2234 
L 1294 2234 
L 1294 2753 
L 1863 2753 
Q 2328 2753 2575 2939 
Q 2822 3125 2822 3475 
Q 2822 3834 2567 4026 
Q 2313 4219 1838 4219 
Q 1578 4219 1281 4162 
Q 984 4106 628 3988 
L 628 4550 
Q 988 4650 1302 4700 
Q 1616 4750 1894 4750 
Q 2613 4750 3031 4423 
Q 3450 4097 3450 3541 
Q 3450 3153 3228 2886 
Q 3006 2619 2597 2516 
z
" transform="scale(0.015625)"/>
       </defs>
       <use xlink:href="#DejaVuSans-30"/>
       <use xlink:href="#DejaVuSans-2e" transform="translate(63.623047 0)"/>
       <use xlink:href="#DejaVuSans-31" transform="translate(95.410156 0)"/>
       <use xlink:href="#DejaVuSans-2e" transform="translate(159.033203 0)"/>
       <use xlink:href="#DejaVuSans-30" transform="translate(190.820312 0)"/>
       <use xlink:href="#DejaVuSans-2d" transform="translate(254.443359 0)"/>
       <use xlink:href="#DejaVuSans-61" transform="translate(290.527344 0)"/>
       <use xlink:href="#DejaVuSans-6c" transform="translate(351.806641 0)"/>
       <use xlink:href="#DejaVuSans-70" transform="translate(379.589844 0)"/>
       <use xlink:href="#DejaVuSans-68" transform="translate(443.066406 0)"/>
       <use xlink:href="#DejaVuSans-61" transform="translate(506.445312 0)"/>
       <use xlink:href="#DejaVuSans-33" transform="translate(567.724609 0)"/>
      </g>
     </g>
    </g>
    <g id="xtick_3">
     <g id="line2d_3">
      <g>
       <use xlink:href="#m901c4b2077" x="126.526898" y="287.2047" style="fill: #ebdbb2; stroke: #ebdbb2; stroke-width: 0.8"/>
      </g>
     </g>
     <g id="text_3">
      <!-- 0.1.0-alpha4 -->
      <g style="fill: #ebdbb2" transform="translate(102.082658 354.223482) rotate(-45) scale(0.12 -0.12)">
       <defs>
        <path id="DejaVuSans-34" d="M 2419 4116 
L 825 1625 
L 2419 1625 
L 2419 4116 
z
M 2253 4666 
L 3047 4666 
L 3047 1625 
L 3713 1625 
L 3713 1100 
L 3047 1100 
L 3047 0 
L 2419 0 
L 2419 1100 
L 313 1100 
L 313 1709 
L 2253 4666 
z
" transform="scale(0.015625)"/>
       </defs>
       <use xlink:href="#DejaVuSans-30"/>
       <use xlink:href="#DejaVuSans-2e" transform="translate(63.623047 0)"/>
       <use xlink:href="#DejaVuSans-31" transform="translate(95.410156 0)"/>
       <use xlink:href="#DejaVuSans-2e" transform="translate(159.033203 0)"/>
       <use xlink:href="#DejaVuSans-30" transform="translate(190.820312 0)"/>
       <use xlink:href="#DejaVuSans-2d" transform="translate(254.443359 0)"/>
       <use xlink:href="#DejaVuSans-61" transform="translate(290.527344 0)"/>
       <use xlink:href="#DejaVuSans-6c" transform="translate(351.806641 0)"/>
       <use xlink:href="#DejaVuSans-70" transform="translate(379.589844 0)"/>
       <use xlink:href="#DejaVuSans-68" transform="translate(443.066406 0)"/>
       <use xlink:href="#DejaVuSans-61" transform="translate(506.445312 0)"/>
       <use xlink:href="#DejaVuSans-34" transform="translate(567.724609 0)"/>
      </g>
     </g>
    </g>
    <g id="xtick_4">
     <g id="line2d_4">
      <g>
       <use xlink:href="#m901c4b2077" x="165.988166" y="287.2047" style="fill: #ebdbb2; stroke: #ebdbb2; stroke-width: 0.8"/>
      </g>
     </g>
     <g id="text_4">
      <!-- 0.1.0-beta1 -->
      <g style="fill: #ebdbb2" transform="translate(143.737505 349.836326) rotate(-45) scale(0.12 -0.12)">
       <defs>
        <path id="DejaVuSans-62" d="M 3116 1747 
Q 3116 2381 2855 2742 
Q 2594 3103 2138 3103 
Q 1681 3103 1420 2742 
Q 1159 2381 1159 1747 
Q 1159 1113 1420 752 
Q 1681 391 2138 391 
Q 2594 391 2855 752 
Q 3116 1113 3116 1747 
z
M 1159 2969 
Q 1341 3281 1617 3432 
Q 1894 3584 2278 3584 
Q 2916 3584 3314 3078 
Q 3713 2572 3713 1747 
Q 3713 922 3314 415 
Q 2916 -91 2278 -91 
Q 1894 -91 1617 61 
Q 1341 213 1159 525 
L 1159 0 
L 581 0 
L 581 4863 
L 1159 4863 
L 1159 2969 
z
" transform="scale(0.015625)"/>
        <path id="DejaVuSans-65" d="M 3597 1894 
L 3597 1613 
L 953 1613 
Q 991 1019 1311 708 
Q 1631 397 2203 397 
Q 2534 397 2845 478 
Q 3156 559 3463 722 
L 3463 178 
Q 3153 47 2828 -22 
Q 2503 -91 2169 -91 
Q 1331 -91 842 396 
Q 353 884 353 1716 
Q 353 2575 817 3079 
Q 1281 3584 2069 3584 
Q 2775 3584 3186 3129 
Q 3597 2675 3597 1894 
z
M 3022 2063 
Q 3016 2534 2758 2815 
Q 2500 3097 2075 3097 
Q 1594 3097 1305 2825 
Q 1016 2553 972 2059 
L 3022 2063 
z
" transform="scale(0.015625)"/>
        <path id="DejaVuSans-74" d="M 1172 4494 
L 1172 3500 
L 2356 3500 
L 2356 3053 
L 1172 3053 
L 1172 1153 
Q 1172 725 1289 603 
Q 1406 481 1766 481 
L 2356 481 
L 2356 0 
L 1766 0 
Q 1100 0 847 248 
Q 594 497 594 1153 
L 594 3053 
L 172 3053 
L 172 3500 
L 594 3500 
L 594 4494 
L 1172 4494 
z
" transform="scale(0.015625)"/>
       </defs>
       <use xlink:href="#DejaVuSans-30"/>
       <use xlink:href="#DejaVuSans-2e" transform="translate(63.623047 0)"/>
       <use xlink:href="#DejaVuSans-31" transform="translate(95.410156 0)"/>
       <use xlink:href="#DejaVuSans-2e" transform="translate(159.033203 0)"/>
       <use xlink:href="#DejaVuSans-30" transform="translate(190.820312 0)"/>
       <use xlink:href="#DejaVuSans-2d" transform="translate(254.443359 0)"/>
       <use xlink:href="#DejaVuSans-62" transform="translate(290.527344 0)"/>
       <use xlink:href="#DejaVuSans-65" transform="translate(354.003906 0)"/>
       <use xlink:href="#DejaVuSans-74" transform="translate(415.527344 0)"/>
       <use xlink:href="#DejaVuSans-61" transform="translate(454.736328 0)"/>
       <use xlink:href="#DejaVuSans-31" transform="translate(516.015625 0)"/>
      </g>
     </g>
    </g>
    <g id="xtick_5">
     <g id="line2d_5">
      <g>
       <use xlink:href="#m901c4b2077" x="205.449435" y="287.2047" style="fill: #ebdbb2; stroke: #ebdbb2; stroke-width: 0.8"/>
      </g>
     </g>
     <g id="text_5">
      <!-- 0.1.0-beta2 -->
      <g style="fill: #ebdbb2" transform="translate(183.198773 349.836326) rotate(-45) scale(0.12 -0.12)">
       <use xlink:href="#DejaVuSans-30"/>
       <use xlink:href="#DejaVuSans-2e" transform="translate(63.623047 0)"/>
       <use xlink:href="#DejaVuSans-31" transform="translate(95.410156 0)"/>
       <use xlink:href="#DejaVuSans-2e" transform="translate(159.033203 0)"/>
       <use xlink:href="#DejaVuSans-30" transform="translate(190.820312 0)"/>
       <use xlink:href="#DejaVuSans-2d" transform="translate(254.443359 0)"/>
       <use xlink:href="#DejaVuSans-62" transform="translate(290.527344 0)"/>
       <use xlink:href="#DejaVuSans-65" transform="translate(354.003906 0)"/>
       <use xlink:href="#DejaVuSans-74" transform="translate(415.527344 0)"/>
       <use xlink:href="#DejaVuSans-61" transform="translate(454.736328 0)"/>
       <use xlink:href="#DejaVuSans-32" transform="translate(516.015625 0)"/>
      </g>
     </g>
    </g>
    <g id="xtick_6">
     <g id="line2d_6">
      <g>
       <use xlink:href="#m901c4b2077" x="244.910703" y="287.2047" style="fill: #ebdbb2; stroke: #ebdbb2; stroke-width: 0.8"/>
      </g>
     </g>
     <g id="text_6">
      <!-- 0.1.0-beta3 -->
      <g style="fill: #ebdbb2" transform="translate(222.660042 349.836326) rotate(-45) scale(0.12 -0.12)">
       <use xlink:href="#DejaVuSans-30"/>
       <use xlink:href="#DejaVuSans-2e" transform="translate(63.623047 0)"/>
       <use xlink:href="#DejaVuSans-31" transform="translate(95.410156 0)"/>
       <use xlink:href="#DejaVuSans-2e" transform="translate(159.033203 0)"/>
       <use xlink:href="#DejaVuSans-30" transform="translate(190.820312 0)"/>
       <use xlink:href="#DejaVuSans-2d" transform="translate(254.443359 0)"/>
       <use xlink:href="#DejaVuSans-62" transform="translate(290.527344 0)"/>
       <use xlink:href="#DejaVuSans-65" transform="translate(354.003906 0)"/>
       <use xlink:href="#DejaVuSans-74" transform="translate(415.527344 0)"/>
       <use xlink:href="#DejaVuSans-61" transform="translate(454.736328 0)"/>
       <use xlink:href="#DejaVuSans-33" transform="translate(516.015625 0)"/>
      </g>
     </g>
    </g>
    <g id="xtick_7">
     <g id="line2d_7">
      <g>
       <use xlink:href="#m901c4b2077" x="284.371972" y="287.2047" style="fill: #ebdbb2; stroke: #ebdbb2; stroke-width: 0.8"/>
      </g>
     </g>
     <g id="text_7">
      <!-- 0.1.0-beta4 -->
      <g style="fill: #ebdbb2" transform="translate(262.12131 349.836326) rotate(-45) scale(0.12 -0.12)">
       <use xlink:href="#DejaVuSans-30"/>
       <use xlink:href="#DejaVuSans-2e" transform="translate(63.623047 0)"/>
       <use xlink:href="#DejaVuSans-31" transform="translate(95.410156 0)"/>
       <use xlink:href="#DejaVuSans-2e" transform="translate(159.033203 0)"/>
       <use xlink:href="#DejaVuSans-30" transform="translate(190.820312 0)"/>
       <use xlink:href="#DejaVuSans-2d" transform="translate(254.443359 0)"/>
       <use xlink:href="#DejaVuSans-62" transform="translate(290.527344 0)"/>
       <use xlink:href="#DejaVuSans-65" transform="translate(354.003906 0)"/>
       <use xlink:href="#DejaVuSans-74" transform="translate(415.527344 0)"/>
       <use xlink:href="#DejaVuSans-61" transform="translate(454.736328 0)"/>
       <use xlink:href="#DejaVuSans-34" transform="translate(516.015625 0)"/>
      </g>
     </g>
    </g>
    <g id="xtick_8">
     <g id="line2d_8">
      <g>
       <use xlink:href="#m901c4b2077" x="323.833241" y="287.2047" style="fill: #ebdbb2; stroke: #ebdbb2; stroke-width: 0.8"/>
      </g>
     </g>
     <g id="text_8">
      <!-- 0.1.0-beta5 -->
      <g style="fill: #ebdbb2" transform="translate(301.582579 349.836326) rotate(-45) scale(0.12 -0.12)">
       <defs>
        <path id="DejaVuSans-35" d="M 691 4666 
L 3169 4666 
L 3169 4134 
L 1269 4134 
L 1269 2991 
Q 1406 3038 1543 3061 
Q 1681 3084 1819 3084 
Q 2600 3084 3056 2656 
Q 3513 2228 3513 1497 
Q 3513 744 3044 326 
Q 2575 -91 1722 -91 
Q 1428 -91 1123 -41 
Q 819 9 494 109 
L 494 744 
Q 775 591 1075 516 
Q 1375 441 1709 441 
Q 2250 441 2565 725 
Q 2881 1009 2881 1497 
Q 2881 1984 2565 2268 
Q 2250 2553 1709 2553 
Q 1456 2553 1204 2497 
Q 953 2441 691 2322 
L 691 4666 
z
" transform="scale(0.015625)"/>
       </defs>
       <use xlink:href="#DejaVuSans-30"/>
       <use xlink:href="#DejaVuSans-2e" transform="translate(63.623047 0)"/>
       <use xlink:href="#DejaVuSans-31" transform="translate(95.410156 0)"/>
       <use xlink:href="#DejaVuSans-2e" transform="translate(159.033203 0)"/>
       <use xlink:href="#DejaVuSans-30" transform="translate(190.820312 0)"/>
       <use xlink:href="#DejaVuSans-2d" transform="translate(254.443359 0)"/>
       <use xlink:href="#DejaVuSans-62" transform="translate(290.527344 0)"/>
       <use xlink:href="#DejaVuSans-65" transform="translate(354.003906 0)"/>
       <use xlink:href="#DejaVuSans-74" transform="translate(415.527344 0)"/>
       <use xlink:href="#DejaVuSans-61" transform="translate(454.736328 0)"/>
       <use xlink:href="#DejaVuSans-35" transform="translate(516.015625 0)"/>
      </g>
     </g>
    </g>
    <g id="xtick_9">
     <g id="line2d_9">
      <g>
       <use xlink:href="#m901c4b2077" x="363.294509" y="287.2047" style="fill: #ebdbb2; stroke: #ebdbb2; stroke-width: 0.8"/>
      </g>
     </g>
     <g id="text_9">
      <!-- 0.1.0-beta6 -->
      <g style="fill: #ebdbb2" transform="translate(341.043848 349.836326) rotate(-45) scale(0.12 -0.12)">
       <defs>
        <path id="DejaVuSans-36" d="M 2113 2584 
Q 1688 2584 1439 2293 
Q 1191 2003 1191 1497 
Q 1191 994 1439 701 
Q 1688 409 2113 409 
Q 2538 409 2786 701 
Q 3034 994 3034 1497 
Q 3034 2003 2786 2293 
Q 2538 2584 2113 2584 
z
M 3366 4563 
L 3366 3988 
Q 3128 4100 2886 4159 
Q 2644 4219 2406 4219 
Q 1781 4219 1451 3797 
Q 1122 3375 1075 2522 
Q 1259 2794 1537 2939 
Q 1816 3084 2150 3084 
Q 2853 3084 3261 2657 
Q 3669 2231 3669 1497 
Q 3669 778 3244 343 
Q 2819 -91 2113 -91 
Q 1303 -91 875 529 
Q 447 1150 447 2328 
Q 447 3434 972 4092 
Q 1497 4750 2381 4750 
Q 2619 4750 2861 4703 
Q 3103 4656 3366 4563 
z
" transform="scale(0.015625)"/>
       </defs>
       <use xlink:href="#DejaVuSans-30"/>
       <use xlink:href="#DejaVuSans-2e" transform="translate(63.623047 0)"/>
       <use xlink:href="#DejaVuSans-31" transform="translate(95.410156 0)"/>
       <use xlink:href="#DejaVuSans-2e" transform="translate(159.033203 0)"/>
       <use xlink:href="#DejaVuSans-30" transform="translate(190.820312 0)"/>
       <use xlink:href="#DejaVuSans-2d" transform="translate(254.443359 0)"/>
       <use xlink:href="#DejaVuSans-62" transform="translate(290.527344 0)"/>
       <use xlink:href="#DejaVuSans-65" transform="translate(354.003906 0)"/>
       <use xlink:href="#DejaVuSans-74" transform="translate(415.527344 0)"/>
       <use xlink:href="#DejaVuSans-61" transform="translate(454.736328 0)"/>
       <use xlink:href="#DejaVuSans-36" transform="translate(516.015625 0)"/>
      </g>
     </g>
    </g>
    <g id="xtick_10">
     <g id="line2d_10">
      <g>
       <use xlink:href="#m901c4b2077" x="402.755778" y="287.2047" style="fill: #ebdbb2; stroke: #ebdbb2; stroke-width: 0.8"/>
      </g>
     </g>
     <g id="text_10">
      <!-- 0.1.0-beta7 -->
      <g style="fill: #ebdbb2" transform="translate(380.505116 349.836326) rotate(-45) scale(0.12 -0.12)">
       <defs>
        <path id="DejaVuSans-37" d="M 525 4666 
L 3525 4666 
L 3525 4397 
L 1831 0 
L 1172 0 
L 2766 4134 
L 525 4134 
L 525 4666 
z
" transform="scale(0.015625)"/>
       </defs>
       <use xlink:href="#DejaVuSans-30"/>
       <use xlink:href="#DejaVuSans-2e" transform="translate(63.623047 0)"/>
       <use xlink:href="#DejaVuSans-31" transform="translate(95.410156 0)"/>
       <use xlink:href="#DejaVuSans-2e" transform="translate(159.033203 0)"/>
       <use xlink:href="#DejaVuSans-30" transform="translate(190.820312 0)"/>
       <use xlink:href="#DejaVuSans-2d" transform="translate(254.443359 0)"/>
       <use xlink:href="#DejaVuSans-62" transform="translate(290.527344 0)"/>
       <use xlink:href="#DejaVuSans-65" transform="translate(354.003906 0)"/>
       <use xlink:href="#DejaVuSans-74" transform="translate(415.527344 0)"/>
       <use xlink:href="#DejaVuSans-61" transform="translate(454.736328 0)"/>
       <use xlink:href="#DejaVuSans-37" transform="translate(516.015625 0)"/>
      </g>
     </g>
    </g>
    <g id="xtick_11">
     <g id="line2d_11">
      <g>
       <use xlink:href="#m901c4b2077" x="442.217047" y="287.2047" style="fill: #ebdbb2; stroke: #ebdbb2; stroke-width: 0.8"/>
      </g>
     </g>
     <g id="text_11">
      <!-- 0.1.0-beta8 -->
      <g style="fill: #ebdbb2" transform="translate(419.966385 349.836326) rotate(-45) scale(0.12 -0.12)">
       <defs>
        <path id="DejaVuSans-38" d="M 2034 2216 
Q 1584 2216 1326 1975 
Q 1069 1734 1069 1313 
Q 1069 891 1326 650 
Q 1584 409 2034 409 
Q 2484 409 2743 651 
Q 3003 894 3003 1313 
Q 3003 1734 2745 1975 
Q 2488 2216 2034 2216 
z
M 1403 2484 
Q 997 2584 770 2862 
Q 544 3141 544 3541 
Q 544 4100 942 4425 
Q 1341 4750 2034 4750 
Q 2731 4750 3128 4425 
Q 3525 4100 3525 3541 
Q 3525 3141 3298 2862 
Q 3072 2584 2669 2484 
Q 3125 2378 3379 2068 
Q 3634 1759 3634 1313 
Q 3634 634 3220 271 
Q 2806 -91 2034 -91 
Q 1263 -91 848 271 
Q 434 634 434 1313 
Q 434 1759 690 2068 
Q 947 2378 1403 2484 
z
M 1172 3481 
Q 1172 3119 1398 2916 
Q 1625 2713 2034 2713 
Q 2441 2713 2670 2916 
Q 2900 3119 2900 3481 
Q 2900 3844 2670 4047 
Q 2441 4250 2034 4250 
Q 1625 4250 1398 4047 
Q 1172 3844 1172 3481 
z
" transform="scale(0.015625)"/>
       </defs>
       <use xlink:href="#DejaVuSans-30"/>
       <use xlink:href="#DejaVuSans-2e" transform="translate(63.623047 0)"/>
       <use xlink:href="#DejaVuSans-31" transform="translate(95.410156 0)"/>
       <use xlink:href="#DejaVuSans-2e" transform="translate(159.033203 0)"/>
       <use xlink:href="#DejaVuSans-30" transform="translate(190.820312 0)"/>
       <use xlink:href="#DejaVuSans-2d" transform="translate(254.443359 0)"/>
       <use xlink:href="#DejaVuSans-62" transform="translate(290.527344 0)"/>
       <use xlink:href="#DejaVuSans-65" transform="translate(354.003906 0)"/>
       <use xlink:href="#DejaVuSans-74" transform="translate(415.527344 0)"/>
       <use xlink:href="#DejaVuSans-61" transform="translate(454.736328 0)"/>
       <use xlink:href="#DejaVuSans-38" transform="translate(516.015625 0)"/>
      </g>
     </g>
    </g>
    <g id="xtick_12">
     <g id="line2d_12">
      <g>
       <use xlink:href="#m901c4b2077" x="481.678315" y="287.2047" style="fill: #ebdbb2; stroke: #ebdbb2; stroke-width: 0.8"/>
      </g>
     </g>
     <g id="text_12">
      <!-- 0.1.0-beta9 -->
      <g style="fill: #ebdbb2" transform="translate(459.427654 349.836326) rotate(-45) scale(0.12 -0.12)">
       <defs>
        <path id="DejaVuSans-39" d="M 703 97 
L 703 672 
Q 941 559 1184 500 
Q 1428 441 1663 441 
Q 2288 441 2617 861 
Q 2947 1281 2994 2138 
Q 2813 1869 2534 1725 
Q 2256 1581 1919 1581 
Q 1219 1581 811 2004 
Q 403 2428 403 3163 
Q 403 3881 828 4315 
Q 1253 4750 1959 4750 
Q 2769 4750 3195 4129 
Q 3622 3509 3622 2328 
Q 3622 1225 3098 567 
Q 2575 -91 1691 -91 
Q 1453 -91 1209 -44 
Q 966 3 703 97 
z
M 1959 2075 
Q 2384 2075 2632 2365 
Q 2881 2656 2881 3163 
Q 2881 3666 2632 3958 
Q 2384 4250 1959 4250 
Q 1534 4250 1286 3958 
Q 1038 3666 1038 3163 
Q 1038 2656 1286 2365 
Q 1534 2075 1959 2075 
z
" transform="scale(0.015625)"/>
       </defs>
       <use xlink:href="#DejaVuSans-30"/>
       <use xlink:href="#DejaVuSans-2e" transform="translate(63.623047 0)"/>
       <use xlink:href="#DejaVuSans-31" transform="translate(95.410156 0)"/>
       <use xlink:href="#DejaVuSans-2e" transform="translate(159.033203 0)"/>
       <use xlink:href="#DejaVuSans-30" transform="translate(190.820312 0)"/>
       <use xlink:href="#DejaVuSans-2d" transform="translate(254.443359 0)"/>
       <use xlink:href="#DejaVuSans-62" transform="translate(290.527344 0)"/>
       <use xlink:href="#DejaVuSans-65" transform="translate(354.003906 0)"/>
       <use xlink:href="#DejaVuSans-74" transform="translate(415.527344 0)"/>
       <use xlink:href="#DejaVuSans-61" transform="translate(454.736328 0)"/>
       <use xlink:href="#DejaVuSans-39" transform="translate(516.015625 0)"/>
      </g>
     </g>
    </g>
    <g id="xtick_13">
     <g id="line2d_13">
      <g>
       <use xlink:href="#m901c4b2077" x="521.139584" y="287.2047" style="fill: #ebdbb2; stroke: #ebdbb2; stroke-width: 0.8"/>
      </g>
     </g>
     <g id="text_13">
      <!-- 0.1.0-beta10 -->
      <g style="fill: #ebdbb2" transform="translate(496.189542 355.235087) rotate(-45) scale(0.12 -0.12)">
       <use xlink:href="#DejaVuSans-30"/>
       <use xlink:href="#DejaVuSans-2e" transform="translate(63.623047 0)"/>
       <use xlink:href="#DejaVuSans-31" transform="translate(95.410156 0)"/>
       <use xlink:href="#DejaVuSans-2e" transform="translate(159.033203 0)"/>
       <use xlink:href="#DejaVuSans-30" transform="translate(190.820312 0)"/>
       <use xlink:href="#DejaVuSans-2d" transform="translate(254.443359 0)"/>
       <use xlink:href="#DejaVuSans-62" transform="translate(290.527344 0)"/>
       <use xlink:href="#DejaVuSans-65" transform="translate(354.003906 0)"/>
       <use xlink:href="#DejaVuSans-74" transform="translate(415.527344 0)"/>
       <use xlink:href="#DejaVuSans-61" transform="translate(454.736328 0)"/>
       <use xlink:href="#DejaVuSans-31" transform="translate(516.015625 0)"/>
       <use xlink:href="#DejaVuSans-30" transform="translate(579.638672 0)"/>
      </g>
     </g>
    </g>
    <g id="xtick_14">
     <g id="line2d_14">
      <g>
       <use xlink:href="#m901c4b2077" x="560.600853" y="287.2047" style="fill: #ebdbb2; stroke: #ebdbb2; stroke-width: 0.8"/>
      </g>
     </g>
     <g id="text_14">
      <!-- 0.1.0-beta11 -->
      <g style="fill: #ebdbb2" transform="translate(535.650811 355.235087) rotate(-45) scale(0.12 -0.12)">
       <use xlink:href="#DejaVuSans-30"/>
       <use xlink:href="#DejaVuSans-2e" transform="translate(63.623047 0)"/>
       <use xlink:href="#DejaVuSans-31" transform="translate(95.410156 0)"/>
       <use xlink:href="#DejaVuSans-2e" transform="translate(159.033203 0)"/>
       <use xlink:href="#DejaVuSans-30" transform="translate(190.820312 0)"/>
       <use xlink:href="#DejaVuSans-2d" transform="translate(254.443359 0)"/>
       <use xlink:href="#DejaVuSans-62" transform="translate(290.527344 0)"/>
       <use xlink:href="#DejaVuSans-65" transform="translate(354.003906 0)"/>
       <use xlink:href="#DejaVuSans-74" transform="translate(415.527344 0)"/>
       <use xlink:href="#DejaVuSans-61" transform="translate(454.736328 0)"/>
       <use xlink:href="#DejaVuSans-31" transform="translate(516.015625 0)"/>
       <use xlink:href="#DejaVuSans-31" transform="translate(579.638672 0)"/>
      </g>
     </g>
    </g>
    <g id="xtick_15">
     <g id="line2d_15">
      <g>
       <use xlink:href="#m901c4b2077" x="600.062121" y="287.2047" style="fill: #ebdbb2; stroke: #ebdbb2; stroke-width: 0.8"/>
      </g>
     </g>
     <g id="text_15">
      <!-- 1.0.0 -->
      <g style="fill: #ebdbb2" transform="translate(591.60866 322.241926) rotate(-45) scale(0.12 -0.12)">
       <use xlink:href="#DejaVuSans-31"/>
       <use xlink:href="#DejaVuSans-2e" transform="translate(63.623047 0)"/>
       <use xlink:href="#DejaVuSans-30" transform="translate(95.410156 0)"/>
       <use xlink:href="#DejaVuSans-2e" transform="translate(159.033203 0)"/>
       <use xlink:href="#DejaVuSans-30" transform="translate(190.820312 0)"/>
      </g>
     </g>
    </g>
    <g id="xtick_16">
     <g id="line2d_16">
      <g>
       <use xlink:href="#m901c4b2077" x="639.52339" y="287.2047" style="fill: #ebdbb2; stroke: #ebdbb2; stroke-width: 0.8"/>
      </g>
     </g>
     <g id="text_16">
      <!-- 1.0.1 -->
      <g style="fill: #ebdbb2" transform="translate(631.069928 322.241926) rotate(-45) scale(0.12 -0.12)">
       <use xlink:href="#DejaVuSans-31"/>
       <use xlink:href="#DejaVuSans-2e" transform="translate(63.623047 0)"/>
       <use xlink:href="#DejaVuSans-30" transform="translate(95.410156 0)"/>
       <use xlink:href="#DejaVuSans-2e" transform="translate(159.033203 0)"/>
       <use xlink:href="#DejaVuSans-31" transform="translate(190.820312 0)"/>
      </g>
     </g>
    </g>
    <g id="xtick_17">
     <g id="line2d_17">
      <g>
       <use xlink:href="#m901c4b2077" x="678.984658" y="287.2047" style="fill: #ebdbb2; stroke: #ebdbb2; stroke-width: 0.8"/>
      </g>
     </g>
     <g id="text_17">
      <!-- 1.1.0 -->
      <g style="fill: #ebdbb2" transform="translate(670.531197 322.241926) rotate(-45) scale(0.12 -0.12)">
       <use xlink:href="#DejaVuSans-31"/>
       <use xlink:href="#DejaVuSans-2e" transform="translate(63.623047 0)"/>
       <use xlink:href="#DejaVuSans-31" transform="translate(95.410156 0)"/>
       <use xlink:href="#DejaVuSans-2e" transform="translate(159.033203 0)"/>
       <use xlink:href="#DejaVuSans-30" transform="translate(190.820312 0)"/>
      </g>
     </g>
    </g>
    <g id="xtick_18">
     <g id="line2d_18">
      <g>
       <use xlink:href="#m901c4b2077" x="718.445927" y="287.2047" style="fill: #ebdbb2; stroke: #ebdbb2; stroke-width: 0.8"/>
      </g>
     </g>
     <g id="text_18">
      <!-- 1.2.0 -->
      <g style="fill: #ebdbb2" transform="translate(709.992465 322.241926) rotate(-45) scale(0.12 -0.12)">
       <use xlink:href="#DejaVuSans-31"/>
       <use xlink:href="#DejaVuSans-2e" transform="translate(63.623047 0)"/>
       <use xlink:href="#DejaVuSans-32" transform="translate(95.410156 0)"/>
       <use xlink:href="#DejaVuSans-2e" transform="translate(159.033203 0)"/>
       <use xlink:href="#DejaVuSans-30" transform="translate(190.820312 0)"/>
      </g>
     </g>
    </g>
    <g id="xtick_19">
     <g id="line2d_19">
      <g>
       <use xlink:href="#m901c4b2077" x="757.907196" y="287.2047" style="fill: #ebdbb2; stroke: #ebdbb2; stroke-width: 0.8"/>
      </g>
     </g>
     <g id="text_19">
      <!-- 1.3.0 -->
      <g style="fill: #ebdbb2" transform="translate(749.453734 322.241926) rotate(-45) scale(0.12 -0.12)">
       <use xlink:href="#DejaVuSans-31"/>
       <use xlink:href="#DejaVuSans-2e" transform="translate(63.623047 0)"/>
       <use xlink:href="#DejaVuSans-33" transform="translate(95.410156 0)"/>
       <use xlink:href="#DejaVuSans-2e" transform="translate(159.033203 0)"/>
       <use xlink:href="#DejaVuSans-30" transform="translate(190.820312 0)"/>
      </g>
     </g>
    </g>
    <g id="xtick_20">
     <g id="line2d_20">
      <g>
       <use xlink:href="#m901c4b2077" x="797.368464" y="287.2047" style="fill: #ebdbb2; stroke: #ebdbb2; stroke-width: 0.8"/>
      </g>
     </g>
     <g id="text_20">
      <!-- 2.0.0 -->
      <g style="fill: #ebdbb2" transform="translate(788.915003 322.241926) rotate(-45) scale(0.12 -0.12)">
       <use xlink:href="#DejaVuSans-32"/>
       <use xlink:href="#DejaVuSans-2e" transform="translate(63.623047 0)"/>
       <use xlink:href="#DejaVuSans-30" transform="translate(95.410156 0)"/>
       <use xlink:href="#DejaVuSans-2e" transform="translate(159.033203 0)"/>
       <use xlink:href="#DejaVuSans-30" transform="translate(190.820312 0)"/>
      </g>
     </g>
    </g>
    <g id="xtick_21">
     <g id="line2d_21">
      <g>
       <use xlink:href="#m901c4b2077" x="836.829733" y="287.2047" style="fill: #ebdbb2; stroke: #ebdbb2; stroke-width: 0.8"/>
      </g>
     </g>
     <g id="text_21">
      <!-- 2.1.0 -->
      <g style="fill: #ebdbb2" transform="translate(828.376271 322.241926) rotate(-45) scale(0.12 -0.12)">
       <use xlink:href="#DejaVuSans-32"/>
       <use xlink:href="#DejaVuSans-2e" transform="translate(63.623047 0)"/>
       <use xlink:href="#DejaVuSans-31" transform="translate(95.410156 0)"/>
       <use xlink:href="#DejaVuSans-2e" transform="translate(159.033203 0)"/>
       <use xlink:href="#DejaVuSans-30" transform="translate(190.820312 0)"/>
      </g>
     </g>
    </g>
   </g>
   <g id="matplotlib.axis_2">
    <g id="text_22">
     <!-- Accuracy (%) -->
     <g style="fill: #ebdbb2" transform="translate(16.677428 204.627626) rotate(-90) scale(0.18 -0.18)">
      <defs>
       <path id="DejaVuSans-41" d="M 2188 4044 
L 1331 1722 
L 3047 1722 
L 2188 4044 
z
M 1831 4666 
L 2547 4666 
L 4325 0 
L 3669 0 
L 3244 1197 
L 1141 1197 
L 716 0 
L 50 0 
L 1831 4666 
z
" transform="scale(0.015625)"/>
       <path id="DejaVuSans-63" d="M 3122 3366 
L 3122 2828 
Q 2878 2963 2633 3030 
Q 2388 3097 2138 3097 
Q 1578 3097 1268 2742 
Q 959 2388 959 1747 
Q 959 1106 1268 751 
Q 1578 397 2138 397 
Q 2388 397 2633 464 
Q 2878 531 3122 666 
L 3122 134 
Q 2881 22 2623 -34 
Q 2366 -91 2075 -91 
Q 1284 -91 818 406 
Q 353 903 353 1747 
Q 353 2603 823 3093 
Q 1294 3584 2113 3584 
Q 2378 3584 2631 3529 
Q 2884 3475 3122 3366 
z
" transform="scale(0.015625)"/>
       <path id="DejaVuSans-75" d="M 544 1381 
L 544 3500 
L 1119 3500 
L 1119 1403 
Q 1119 906 1312 657 
Q 1506 409 1894 409 
Q 2359 409 2629 706 
Q 2900 1003 2900 1516 
L 2900 3500 
L 3475 3500 
L 3475 0 
L 2900 0 
L 2900 538 
Q 2691 219 2414 64 
Q 2138 -91 1772 -91 
Q 1169 -91 856 284 
Q 544 659 544 1381 
z
M 1991 3584 
L 1991 3584 
z
" transform="scale(0.015625)"/>
       <path id="DejaVuSans-72" d="M 2631 2963 
Q 2534 3019 2420 3045 
Q 2306 3072 2169 3072 
Q 1681 3072 1420 2755 
Q 1159 2438 1159 1844 
L 1159 0 
L 581 0 
L 581 3500 
L 1159 3500 
L 1159 2956 
Q 1341 3275 1631 3429 
Q 1922 3584 2338 3584 
Q 2397 3584 2469 3576 
Q 2541 3569 2628 3553 
L 2631 2963 
z
" transform="scale(0.015625)"/>
       <path id="DejaVuSans-79" d="M 2059 -325 
Q 1816 -950 1584 -1140 
Q 1353 -1331 966 -1331 
L 506 -1331 
L 506 -850 
L 844 -850 
Q 1081 -850 1212 -737 
Q 1344 -625 1503 -206 
L 1606 56 
L 191 3500 
L 800 3500 
L 1894 763 
L 2988 3500 
L 3597 3500 
L 2059 -325 
z
" transform="scale(0.015625)"/>
       <path id="DejaVuSans-20" transform="scale(0.015625)"/>
       <path id="DejaVuSans-28" d="M 1984 4856 
Q 1566 4138 1362 3434 
Q 1159 2731 1159 2009 
Q 1159 1288 1364 580 
Q 1569 -128 1984 -844 
L 1484 -844 
Q 1016 -109 783 600 
Q 550 1309 550 2009 
Q 550 2706 781 3412 
Q 1013 4119 1484 4856 
L 1984 4856 
z
" transform="scale(0.015625)"/>
       <path id="DejaVuSans-25" d="M 4653 2053 
Q 4381 2053 4226 1822 
Q 4072 1591 4072 1178 
Q 4072 772 4226 539 
Q 4381 306 4653 306 
Q 4919 306 5073 539 
Q 5228 772 5228 1178 
Q 5228 1588 5073 1820 
Q 4919 2053 4653 2053 
z
M 4653 2450 
Q 5147 2450 5437 2106 
Q 5728 1763 5728 1178 
Q 5728 594 5436 251 
Q 5144 -91 4653 -91 
Q 4153 -91 3862 251 
Q 3572 594 3572 1178 
Q 3572 1766 3864 2108 
Q 4156 2450 4653 2450 
z
M 1428 4353 
Q 1159 4353 1004 4120 
Q 850 3888 850 3481 
Q 850 3069 1003 2837 
Q 1156 2606 1428 2606 
Q 1700 2606 1854 2837 
Q 2009 3069 2009 3481 
Q 2009 3884 1853 4118 
Q 1697 4353 1428 4353 
z
M 4250 4750 
L 4750 4750 
L 1831 -91 
L 1331 -91 
L 4250 4750 
z
M 1428 4750 
Q 1922 4750 2215 4408 
Q 2509 4066 2509 3481 
Q 2509 2891 2217 2550 
Q 1925 2209 1428 2209 
Q 931 2209 642 2551 
Q 353 2894 353 3481 
Q 353 4063 643 4406 
Q 934 4750 1428 4750 
z
" transform="scale(0.015625)"/>
       <path id="DejaVuSans-29" d="M 513 4856 
L 1013 4856 
Q 1481 4119 1714 3412 
Q 1947 2706 1947 2009 
Q 1947 1309 1714 600 
Q 1481 -109 1013 -844 
L 513 -844 
Q 928 -128 1133 580 
Q 1338 1288 1338 2009 
Q 1338 2731 1133 3434 
Q 928 4138 513 4856 
z
" transform="scale(0.015625)"/>
      </defs>
      <use xlink:href="#DejaVuSans-41"/>
      <use xlink:href="#DejaVuSans-63" transform="translate(66.658203 0)"/>
      <use xlink:href="#DejaVuSans-63" transform="translate(121.638672 0)"/>
      <use xlink:href="#DejaVuSans-75" transform="translate(176.619141 0)"/>
      <use xlink:href="#DejaVuSans-72" transform="translate(239.998047 0)"/>
      <use xlink:href="#DejaVuSans-61" transform="translate(281.111328 0)"/>
      <use xlink:href="#DejaVuSans-63" transform="translate(342.390625 0)"/>
      <use xlink:href="#DejaVuSans-79" transform="translate(397.371094 0)"/>
      <use xlink:href="#DejaVuSans-20" transform="translate(456.550781 0)"/>
      <use xlink:href="#DejaVuSans-28" transform="translate(488.337891 0)"/>
      <use xlink:href="#DejaVuSans-25" transform="translate(527.351562 0)"/>
      <use xlink:href="#DejaVuSans-29" transform="translate(622.371094 0)"/>
     </g>
    </g>
   </g>
   <g id="text_23">
    <!-- 84.94 -->
    <g style="fill: #ebdbb2" transform="translate(41.543559 263.387881) rotate(-90) scale(0.12 -0.12)">
     <use xlink:href="#DejaVuSans-38"/>
     <use xlink:href="#DejaVuSans-34" transform="translate(63.623047 0)"/>
     <use xlink:href="#DejaVuSans-2e" transform="translate(127.246094 0)"/>
     <use xlink:href="#DejaVuSans-39" transform="translate(159.033203 0)"/>
     <use xlink:href="#DejaVuSans-34" transform="translate(222.65625 0)"/>
    </g>
   </g>
   <g id="text_24">
    <!-- 86.42 -->
    <g style="fill: #ebdbb2" transform="translate(81.004828 244.268671) rotate(-90) scale(0.12 -0.12)">
     <use xlink:href="#DejaVuSans-38"/>
     <use xlink:href="#DejaVuSans-36" transform="translate(63.623047 0)"/>
     <use xlink:href="#DejaVuSans-2e" transform="translate(127.246094 0)"/>
     <use xlink:href="#DejaVuSans-34" transform="translate(159.033203 0)"/>
     <use xlink:href="#DejaVuSans-32" transform="translate(222.65625 0)"/>
    </g>
   </g>
   <g id="text_25">
    <!-- 86.42 -->
    <g style="fill: #ebdbb2" transform="translate(120.466096 244.268671) rotate(-90) scale(0.12 -0.12)">
     <use xlink:href="#DejaVuSans-38"/>
     <use xlink:href="#DejaVuSans-36" transform="translate(63.623047 0)"/>
     <use xlink:href="#DejaVuSans-2e" transform="translate(127.246094 0)"/>
     <use xlink:href="#DejaVuSans-34" transform="translate(159.033203 0)"/>
     <use xlink:href="#DejaVuSans-32" transform="translate(222.65625 0)"/>
    </g>
   </g>
   <g id="text_26">
    <!-- 86.67 -->
    <g style="fill: #ebdbb2" transform="translate(159.927365 241.039075) rotate(-90) scale(0.12 -0.12)">
     <use xlink:href="#DejaVuSans-38"/>
     <use xlink:href="#DejaVuSans-36" transform="translate(63.623047 0)"/>
     <use xlink:href="#DejaVuSans-2e" transform="translate(127.246094 0)"/>
     <use xlink:href="#DejaVuSans-36" transform="translate(159.033203 0)"/>
     <use xlink:href="#DejaVuSans-37" transform="translate(222.65625 0)"/>
    </g>
   </g>
   <g id="text_27">
    <!-- 86.67 -->
    <g style="fill: #ebdbb2" transform="translate(199.388634 241.039075) rotate(-90) scale(0.12 -0.12)">
     <use xlink:href="#DejaVuSans-38"/>
     <use xlink:href="#DejaVuSans-36" transform="translate(63.623047 0)"/>
     <use xlink:href="#DejaVuSans-2e" transform="translate(127.246094 0)"/>
     <use xlink:href="#DejaVuSans-36" transform="translate(159.033203 0)"/>
     <use xlink:href="#DejaVuSans-37" transform="translate(222.65625 0)"/>
    </g>
   </g>
   <g id="text_28">
    <!-- 86.67 -->
    <g style="fill: #ebdbb2" transform="translate(238.849902 241.039075) rotate(-90) scale(0.12 -0.12)">
     <use xlink:href="#DejaVuSans-38"/>
     <use xlink:href="#DejaVuSans-36" transform="translate(63.623047 0)"/>
     <use xlink:href="#DejaVuSans-2e" transform="translate(127.246094 0)"/>
     <use xlink:href="#DejaVuSans-36" transform="translate(159.033203 0)"/>
     <use xlink:href="#DejaVuSans-37" transform="translate(222.65625 0)"/>
    </g>
   </g>
   <g id="text_29">
    <!-- 89.58 -->
    <g style="fill: #ebdbb2" transform="translate(278.311171 203.446576) rotate(-90) scale(0.12 -0.12)">
     <use xlink:href="#DejaVuSans-38"/>
     <use xlink:href="#DejaVuSans-39" transform="translate(63.623047 0)"/>
     <use xlink:href="#DejaVuSans-2e" transform="translate(127.246094 0)"/>
     <use xlink:href="#DejaVuSans-35" transform="translate(159.033203 0)"/>
     <use xlink:href="#DejaVuSans-38" transform="translate(222.65625 0)"/>
    </g>
   </g>
   <g id="text_30">
    <!-- 89.95 -->
    <g style="fill: #ebdbb2" transform="translate(317.772439 198.666774) rotate(-90) scale(0.12 -0.12)">
     <use xlink:href="#DejaVuSans-38"/>
     <use xlink:href="#DejaVuSans-39" transform="translate(63.623047 0)"/>
     <use xlink:href="#DejaVuSans-2e" transform="translate(127.246094 0)"/>
     <use xlink:href="#DejaVuSans-39" transform="translate(159.033203 0)"/>
     <use xlink:href="#DejaVuSans-35" transform="translate(222.65625 0)"/>
    </g>
   </g>
   <g id="text_31">
    <!-- 92.11 -->
    <g style="fill: #ebdbb2" transform="translate(357.233708 170.763063) rotate(-90) scale(0.12 -0.12)">
     <use xlink:href="#DejaVuSans-39"/>
     <use xlink:href="#DejaVuSans-32" transform="translate(63.623047 0)"/>
     <use xlink:href="#DejaVuSans-2e" transform="translate(127.246094 0)"/>
     <use xlink:href="#DejaVuSans-31" transform="translate(159.033203 0)"/>
     <use xlink:href="#DejaVuSans-31" transform="translate(222.65625 0)"/>
    </g>
   </g>
   <g id="text_32">
    <!-- 92.11 -->
    <g style="fill: #ebdbb2" transform="translate(396.694977 170.763063) rotate(-90) scale(0.12 -0.12)">
     <use xlink:href="#DejaVuSans-39"/>
     <use xlink:href="#DejaVuSans-32" transform="translate(63.623047 0)"/>
     <use xlink:href="#DejaVuSans-2e" transform="translate(127.246094 0)"/>
     <use xlink:href="#DejaVuSans-31" transform="translate(159.033203 0)"/>
     <use xlink:href="#DejaVuSans-31" transform="translate(222.65625 0)"/>
    </g>
   </g>
   <g id="text_33">
    <!-- 93.59 -->
    <g style="fill: #ebdbb2" transform="translate(436.156245 151.643854) rotate(-90) scale(0.12 -0.12)">
     <use xlink:href="#DejaVuSans-39"/>
     <use xlink:href="#DejaVuSans-33" transform="translate(63.623047 0)"/>
     <use xlink:href="#DejaVuSans-2e" transform="translate(127.246094 0)"/>
     <use xlink:href="#DejaVuSans-35" transform="translate(159.033203 0)"/>
     <use xlink:href="#DejaVuSans-39" transform="translate(222.65625 0)"/>
    </g>
   </g>
   <g id="text_34">
    <!-- 94.24 -->
    <g style="fill: #ebdbb2" transform="translate(475.617514 143.246904) rotate(-90) scale(0.12 -0.12)">
     <use xlink:href="#DejaVuSans-39"/>
     <use xlink:href="#DejaVuSans-34" transform="translate(63.623047 0)"/>
     <use xlink:href="#DejaVuSans-2e" transform="translate(127.246094 0)"/>
     <use xlink:href="#DejaVuSans-32" transform="translate(159.033203 0)"/>
     <use xlink:href="#DejaVuSans-34" transform="translate(222.65625 0)"/>
    </g>
   </g>
   <g id="text_35">
    <!-- 94.24 -->
    <g style="fill: #ebdbb2" transform="translate(515.078783 143.246904) rotate(-90) scale(0.12 -0.12)">
     <use xlink:href="#DejaVuSans-39"/>
     <use xlink:href="#DejaVuSans-34" transform="translate(63.623047 0)"/>
     <use xlink:href="#DejaVuSans-2e" transform="translate(127.246094 0)"/>
     <use xlink:href="#DejaVuSans-32" transform="translate(159.033203 0)"/>
     <use xlink:href="#DejaVuSans-34" transform="translate(222.65625 0)"/>
    </g>
   </g>
   <g id="text_36">
    <!-- 94.75 -->
    <g style="fill: #ebdbb2" transform="translate(554.540051 136.658528) rotate(-90) scale(0.12 -0.12)">
     <use xlink:href="#DejaVuSans-39"/>
     <use xlink:href="#DejaVuSans-34" transform="translate(63.623047 0)"/>
     <use xlink:href="#DejaVuSans-2e" transform="translate(127.246094 0)"/>
     <use xlink:href="#DejaVuSans-37" transform="translate(159.033203 0)"/>
     <use xlink:href="#DejaVuSans-35" transform="translate(222.65625 0)"/>
    </g>
   </g>
   <g id="text_37">
    <!-- 95.10 -->
    <g style="fill: #ebdbb2" transform="translate(594.00132 132.137093) rotate(-90) scale(0.12 -0.12)">
     <use xlink:href="#DejaVuSans-39"/>
     <use xlink:href="#DejaVuSans-35" transform="translate(63.623047 0)"/>
     <use xlink:href="#DejaVuSans-2e" transform="translate(127.246094 0)"/>
     <use xlink:href="#DejaVuSans-31" transform="translate(159.033203 0)"/>
     <use xlink:href="#DejaVuSans-30" transform="translate(222.65625 0)"/>
    </g>
   </g>
   <g id="text_38">
    <!-- 95.10 -->
    <g style="fill: #ebdbb2" transform="translate(633.462589 132.137093) rotate(-90) scale(0.12 -0.12)">
     <use xlink:href="#DejaVuSans-39"/>
     <use xlink:href="#DejaVuSans-35" transform="translate(63.623047 0)"/>
     <use xlink:href="#DejaVuSans-2e" transform="translate(127.246094 0)"/>
     <use xlink:href="#DejaVuSans-31" transform="translate(159.033203 0)"/>
     <use xlink:href="#DejaVuSans-30" transform="translate(222.65625 0)"/>
    </g>
   </g>
   <g id="text_39">
    <!-- 95.86 -->
    <g style="fill: #ebdbb2" transform="translate(672.923857 122.319121) rotate(-90) scale(0.12 -0.12)">
     <use xlink:href="#DejaVuSans-39"/>
     <use xlink:href="#DejaVuSans-35" transform="translate(63.623047 0)"/>
     <use xlink:href="#DejaVuSans-2e" transform="translate(127.246094 0)"/>
     <use xlink:href="#DejaVuSans-38" transform="translate(159.033203 0)"/>
     <use xlink:href="#DejaVuSans-36" transform="translate(222.65625 0)"/>
    </g>
   </g>
   <g id="text_40">
    <!-- 95.86 -->
    <g style="fill: #ebdbb2" transform="translate(712.385126 122.319121) rotate(-90) scale(0.12 -0.12)">
     <use xlink:href="#DejaVuSans-39"/>
     <use xlink:href="#DejaVuSans-35" transform="translate(63.623047 0)"/>
     <use xlink:href="#DejaVuSans-2e" transform="translate(127.246094 0)"/>
     <use xlink:href="#DejaVuSans-38" transform="translate(159.033203 0)"/>
     <use xlink:href="#DejaVuSans-36" transform="translate(222.65625 0)"/>
    </g>
   </g>
   <g id="text_41">
    <!-- 95.87 -->
    <g style="fill: #ebdbb2" transform="translate(751.846394 122.189937) rotate(-90) scale(0.12 -0.12)">
     <use xlink:href="#DejaVuSans-39"/>
     <use xlink:href="#DejaVuSans-35" transform="translate(63.623047 0)"/>
     <use xlink:href="#DejaVuSans-2e" transform="translate(127.246094 0)"/>
     <use xlink:href="#DejaVuSans-38" transform="translate(159.033203 0)"/>
     <use xlink:href="#DejaVuSans-37" transform="translate(222.65625 0)"/>
    </g>
   </g>
   <g id="text_42">
    <!-- 94.72 -->
    <g style="fill: #ebdbb2" transform="translate(791.307663 137.04608) rotate(-90) scale(0.12 -0.12)">
     <use xlink:href="#DejaVuSans-39"/>
     <use xlink:href="#DejaVuSans-34" transform="translate(63.623047 0)"/>
     <use xlink:href="#DejaVuSans-2e" transform="translate(127.246094 0)"/>
     <use xlink:href="#DejaVuSans-37" transform="translate(159.033203 0)"/>
     <use xlink:href="#DejaVuSans-32" transform="translate(222.65625 0)"/>
    </g>
   </g>
   <g id="text_43">
    <!-- 94.66 -->
    <g style="fill: #ebdbb2" transform="translate(830.768932 137.821183) rotate(-90) scale(0.12 -0.12)">
     <use xlink:href="#DejaVuSans-39"/>
     <use xlink:href="#DejaVuSans-34" transform="translate(63.623047 0)"/>
     <use xlink:href="#DejaVuSans-2e" transform="translate(127.246094 0)"/>
     <use xlink:href="#DejaVuSans-36" transform="translate(159.033203 0)"/>
     <use xlink:href="#DejaVuSans-36" transform="translate(222.65625 0)"/>
    </g>
   </g>
   <g id="text_44">
    <!-- 95.25 -->
    <g style="fill: #ebdbb2" transform="translate(60.287662 130.199336) rotate(-90) scale(0.12 -0.12)">
     <use xlink:href="#DejaVuSans-39"/>
     <use xlink:href="#DejaVuSans-35" transform="translate(63.623047 0)"/>
     <use xlink:href="#DejaVuSans-2e" transform="translate(127.246094 0)"/>
     <use xlink:href="#DejaVuSans-32" transform="translate(159.033203 0)"/>
     <use xlink:href="#DejaVuSans-35" transform="translate(222.65625 0)"/>
    </g>
   </g>
   <g id="text_45">
    <!-- 96.04 -->
    <g style="fill: #ebdbb2" transform="translate(99.74893 119.993812) rotate(-90) scale(0.12 -0.12)">
     <use xlink:href="#DejaVuSans-39"/>
     <use xlink:href="#DejaVuSans-36" transform="translate(63.623047 0)"/>
     <use xlink:href="#DejaVuSans-2e" transform="translate(127.246094 0)"/>
     <use xlink:href="#DejaVuSans-30" transform="translate(159.033203 0)"/>
     <use xlink:href="#DejaVuSans-34" transform="translate(222.65625 0)"/>
    </g>
   </g>
   <g id="text_46">
    <!-- 96.04 -->
    <g style="fill: #ebdbb2" transform="translate(139.210199 119.993812) rotate(-90) scale(0.12 -0.12)">
     <use xlink:href="#DejaVuSans-39"/>
     <use xlink:href="#DejaVuSans-36" transform="translate(63.623047 0)"/>
     <use xlink:href="#DejaVuSans-2e" transform="translate(127.246094 0)"/>
     <use xlink:href="#DejaVuSans-30" transform="translate(159.033203 0)"/>
     <use xlink:href="#DejaVuSans-34" transform="translate(222.65625 0)"/>
    </g>
   </g>
   <g id="text_47">
    <!-- 95.73 -->
    <g style="fill: #ebdbb2" transform="translate(178.671468 123.998511) rotate(-90) scale(0.12 -0.12)">
     <use xlink:href="#DejaVuSans-39"/>
     <use xlink:href="#DejaVuSans-35" transform="translate(63.623047 0)"/>
     <use xlink:href="#DejaVuSans-2e" transform="translate(127.246094 0)"/>
     <use xlink:href="#DejaVuSans-37" transform="translate(159.033203 0)"/>
     <use xlink:href="#DejaVuSans-33" transform="translate(222.65625 0)"/>
    </g>
   </g>
   <g id="text_48">
    <!-- 95.73 -->
    <g style="fill: #ebdbb2" transform="translate(218.132736 123.998511) rotate(-90) scale(0.12 -0.12)">
     <use xlink:href="#DejaVuSans-39"/>
     <use xlink:href="#DejaVuSans-35" transform="translate(63.623047 0)"/>
     <use xlink:href="#DejaVuSans-2e" transform="translate(127.246094 0)"/>
     <use xlink:href="#DejaVuSans-37" transform="translate(159.033203 0)"/>
     <use xlink:href="#DejaVuSans-33" transform="translate(222.65625 0)"/>
    </g>
   </g>
   <g id="text_49">
    <!-- 95.73 -->
    <g style="fill: #ebdbb2" transform="translate(257.594005 123.998511) rotate(-90) scale(0.12 -0.12)">
     <use xlink:href="#DejaVuSans-39"/>
     <use xlink:href="#DejaVuSans-35" transform="translate(63.623047 0)"/>
     <use xlink:href="#DejaVuSans-2e" transform="translate(127.246094 0)"/>
     <use xlink:href="#DejaVuSans-37" transform="translate(159.033203 0)"/>
     <use xlink:href="#DejaVuSans-33" transform="translate(222.65625 0)"/>
    </g>
   </g>
   <g id="text_50">
    <!-- 96.25 -->
    <g style="fill: #ebdbb2" transform="translate(297.055273 117.280951) rotate(-90) scale(0.12 -0.12)">
     <use xlink:href="#DejaVuSans-39"/>
     <use xlink:href="#DejaVuSans-36" transform="translate(63.623047 0)"/>
     <use xlink:href="#DejaVuSans-2e" transform="translate(127.246094 0)"/>
     <use xlink:href="#DejaVuSans-32" transform="translate(159.033203 0)"/>
     <use xlink:href="#DejaVuSans-35" transform="translate(222.65625 0)"/>
    </g>
   </g>
   <g id="text_51">
    <!-- 96.24 -->
    <g style="fill: #ebdbb2" transform="translate(336.516542 117.410135) rotate(-90) scale(0.12 -0.12)">
     <use xlink:href="#DejaVuSans-39"/>
     <use xlink:href="#DejaVuSans-36" transform="translate(63.623047 0)"/>
     <use xlink:href="#DejaVuSans-2e" transform="translate(127.246094 0)"/>
     <use xlink:href="#DejaVuSans-32" transform="translate(159.033203 0)"/>
     <use xlink:href="#DejaVuSans-34" transform="translate(222.65625 0)"/>
    </g>
   </g>
   <g id="text_52">
    <!-- 97.02 -->
    <g style="fill: #ebdbb2" transform="translate(375.977811 107.333795) rotate(-90) scale(0.12 -0.12)">
     <use xlink:href="#DejaVuSans-39"/>
     <use xlink:href="#DejaVuSans-37" transform="translate(63.623047 0)"/>
     <use xlink:href="#DejaVuSans-2e" transform="translate(127.246094 0)"/>
     <use xlink:href="#DejaVuSans-30" transform="translate(159.033203 0)"/>
     <use xlink:href="#DejaVuSans-32" transform="translate(222.65625 0)"/>
    </g>
   </g>
   <g id="text_53">
    <!-- 97.02 -->
    <g style="fill: #ebdbb2" transform="translate(415.439079 107.333795) rotate(-90) scale(0.12 -0.12)">
     <use xlink:href="#DejaVuSans-39"/>
     <use xlink:href="#DejaVuSans-37" transform="translate(63.623047 0)"/>
     <use xlink:href="#DejaVuSans-2e" transform="translate(127.246094 0)"/>
     <use xlink:href="#DejaVuSans-30" transform="translate(159.033203 0)"/>
     <use xlink:href="#DejaVuSans-32" transform="translate(222.65625 0)"/>
    </g>
   </g>
   <g id="text_54">
    <!-- 97.51 -->
    <g style="fill: #ebdbb2" transform="translate(454.900348 101.003787) rotate(-90) scale(0.12 -0.12)">
     <use xlink:href="#DejaVuSans-39"/>
     <use xlink:href="#DejaVuSans-37" transform="translate(63.623047 0)"/>
     <use xlink:href="#DejaVuSans-2e" transform="translate(127.246094 0)"/>
     <use xlink:href="#DejaVuSans-35" transform="translate(159.033203 0)"/>
     <use xlink:href="#DejaVuSans-31" transform="translate(222.65625 0)"/>
    </g>
   </g>
   <g id="text_55">
    <!-- 97.73 -->
    <g style="fill: #ebdbb2" transform="translate(494.361617 98.161742) rotate(-90) scale(0.12 -0.12)">
     <use xlink:href="#DejaVuSans-39"/>
     <use xlink:href="#DejaVuSans-37" transform="translate(63.623047 0)"/>
     <use xlink:href="#DejaVuSans-2e" transform="translate(127.246094 0)"/>
     <use xlink:href="#DejaVuSans-37" transform="translate(159.033203 0)"/>
     <use xlink:href="#DejaVuSans-33" transform="translate(222.65625 0)"/>
    </g>
   </g>
   <g id="text_56">
    <!-- 97.73 -->
    <g style="fill: #ebdbb2" transform="translate(533.822885 98.161742) rotate(-90) scale(0.12 -0.12)">
     <use xlink:href="#DejaVuSans-39"/>
     <use xlink:href="#DejaVuSans-37" transform="translate(63.623047 0)"/>
     <use xlink:href="#DejaVuSans-2e" transform="translate(127.246094 0)"/>
     <use xlink:href="#DejaVuSans-37" transform="translate(159.033203 0)"/>
     <use xlink:href="#DejaVuSans-33" transform="translate(222.65625 0)"/>
    </g>
   </g>
   <g id="text_57">
    <!-- 97.83 -->
    <g style="fill: #ebdbb2" transform="translate(573.284154 96.869904) rotate(-90) scale(0.12 -0.12)">
     <use xlink:href="#DejaVuSans-39"/>
     <use xlink:href="#DejaVuSans-37" transform="translate(63.623047 0)"/>
     <use xlink:href="#DejaVuSans-2e" transform="translate(127.246094 0)"/>
     <use xlink:href="#DejaVuSans-38" transform="translate(159.033203 0)"/>
     <use xlink:href="#DejaVuSans-33" transform="translate(222.65625 0)"/>
    </g>
   </g>
   <g id="text_58">
    <!-- 97.97 -->
    <g style="fill: #ebdbb2" transform="translate(612.745422 95.06133) rotate(-90) scale(0.12 -0.12)">
     <use xlink:href="#DejaVuSans-39"/>
     <use xlink:href="#DejaVuSans-37" transform="translate(63.623047 0)"/>
     <use xlink:href="#DejaVuSans-2e" transform="translate(127.246094 0)"/>
     <use xlink:href="#DejaVuSans-39" transform="translate(159.033203 0)"/>
     <use xlink:href="#DejaVuSans-37" transform="translate(222.65625 0)"/>
    </g>
   </g>
   <g id="text_59">
    <!-- 97.97 -->
    <g style="fill: #ebdbb2" transform="translate(652.206691 95.06133) rotate(-90) scale(0.12 -0.12)">
     <use xlink:href="#DejaVuSans-39"/>
     <use xlink:href="#DejaVuSans-37" transform="translate(63.623047 0)"/>
     <use xlink:href="#DejaVuSans-2e" transform="translate(127.246094 0)"/>
     <use xlink:href="#DejaVuSans-39" transform="translate(159.033203 0)"/>
     <use xlink:href="#DejaVuSans-37" transform="translate(222.65625 0)"/>
    </g>
   </g>
   <g id="text_60">
    <!-- 98.41 -->
    <g style="fill: #ebdbb2" transform="translate(691.66796 89.377241) rotate(-90) scale(0.12 -0.12)">
     <use xlink:href="#DejaVuSans-39"/>
     <use xlink:href="#DejaVuSans-38" transform="translate(63.623047 0)"/>
     <use xlink:href="#DejaVuSans-2e" transform="translate(127.246094 0)"/>
     <use xlink:href="#DejaVuSans-34" transform="translate(159.033203 0)"/>
     <use xlink:href="#DejaVuSans-31" transform="translate(222.65625 0)"/>
    </g>
   </g>
   <g id="text_61">
    <!-- 98.41 -->
    <g style="fill: #ebdbb2" transform="translate(731.129228 89.377241) rotate(-90) scale(0.12 -0.12)">
     <use xlink:href="#DejaVuSans-39"/>
     <use xlink:href="#DejaVuSans-38" transform="translate(63.623047 0)"/>
     <use xlink:href="#DejaVuSans-2e" transform="translate(127.246094 0)"/>
     <use xlink:href="#DejaVuSans-34" transform="translate(159.033203 0)"/>
     <use xlink:href="#DejaVuSans-31" transform="translate(222.65625 0)"/>
    </g>
   </g>
   <g id="text_62">
    <!-- 98.29 -->
    <g style="fill: #ebdbb2" transform="translate(770.590497 90.927447) rotate(-90) scale(0.12 -0.12)">
     <use xlink:href="#DejaVuSans-39"/>
     <use xlink:href="#DejaVuSans-38" transform="translate(63.623047 0)"/>
     <use xlink:href="#DejaVuSans-2e" transform="translate(127.246094 0)"/>
     <use xlink:href="#DejaVuSans-32" transform="translate(159.033203 0)"/>
     <use xlink:href="#DejaVuSans-39" transform="translate(222.65625 0)"/>
    </g>
   </g>
   <g id="text_63">
    <!-- 97.82 -->
    <g style="fill: #ebdbb2" transform="translate(810.051766 96.999087) rotate(-90) scale(0.12 -0.12)">
     <use xlink:href="#DejaVuSans-39"/>
     <use xlink:href="#DejaVuSans-37" transform="translate(63.623047 0)"/>
     <use xlink:href="#DejaVuSans-2e" transform="translate(127.246094 0)"/>
     <use xlink:href="#DejaVuSans-38" transform="translate(159.033203 0)"/>
     <use xlink:href="#DejaVuSans-32" transform="translate(222.65625 0)"/>
    </g>
   </g>
   <g id="text_64">
    <!-- 97.82 -->
    <g style="fill: #ebdbb2" transform="translate(849.513034 96.999087) rotate(-90) scale(0.12 -0.12)">
     <use xlink:href="#DejaVuSans-39"/>
     <use xlink:href="#DejaVuSans-37" transform="translate(63.623047 0)"/>
     <use xlink:href="#DejaVuSans-2e" transform="translate(127.246094 0)"/>
     <use xlink:href="#DejaVuSans-38" transform="translate(159.033203 0)"/>
     <use xlink:href="#DejaVuSans-32" transform="translate(222.65625 0)"/>
    </g>
   </g>
   <g id="legend_1">
    <g id="patch_45">
     <path d="M 35.620865 62.77024 
L 239.138365 62.77024 
Q 242.338365 62.77024 242.338365 59.57024 
L 242.338365 14.20024 
Q 242.338365 11.00024 239.138365 11.00024 
L 35.620865 11.00024 
Q 32.420865 11.00024 32.420865 14.20024 
L 32.420865 59.57024 
Q 32.420865 62.77024 35.620865 62.77024 
z
" style="fill: #1d2021; opacity: 0.8; stroke: #cccccc; stroke-linejoin: miter"/>
    </g>
    <g id="patch_46">
     <path d="M 38.820865 29.55774 
L 70.820865 29.55774 
L 70.820865 18.35774 
L 38.820865 18.35774 
z
" style="fill: #3e686a"/>
    </g>
    <g id="text_65">
     <!-- Sentence accuracy -->
     <g style="fill: #ebdbb2" transform="translate(83.620865 29.55774) scale(0.16 -0.16)">
      <defs>
       <path id="DejaVuSans-53" d="M 3425 4513 
L 3425 3897 
Q 3066 4069 2747 4153 
Q 2428 4238 2131 4238 
Q 1616 4238 1336 4038 
Q 1056 3838 1056 3469 
Q 1056 3159 1242 3001 
Q 1428 2844 1947 2747 
L 2328 2669 
Q 3034 2534 3370 2195 
Q 3706 1856 3706 1288 
Q 3706 609 3251 259 
Q 2797 -91 1919 -91 
Q 1588 -91 1214 -16 
Q 841 59 441 206 
L 441 856 
Q 825 641 1194 531 
Q 1563 422 1919 422 
Q 2459 422 2753 634 
Q 3047 847 3047 1241 
Q 3047 1584 2836 1778 
Q 2625 1972 2144 2069 
L 1759 2144 
Q 1053 2284 737 2584 
Q 422 2884 422 3419 
Q 422 4038 858 4394 
Q 1294 4750 2059 4750 
Q 2388 4750 2728 4690 
Q 3069 4631 3425 4513 
z
" transform="scale(0.015625)"/>
       <path id="DejaVuSans-6e" d="M 3513 2113 
L 3513 0 
L 2938 0 
L 2938 2094 
Q 2938 2591 2744 2837 
Q 2550 3084 2163 3084 
Q 1697 3084 1428 2787 
Q 1159 2491 1159 1978 
L 1159 0 
L 581 0 
L 581 3500 
L 1159 3500 
L 1159 2956 
Q 1366 3272 1645 3428 
Q 1925 3584 2291 3584 
Q 2894 3584 3203 3211 
Q 3513 2838 3513 2113 
z
" transform="scale(0.015625)"/>
      </defs>
      <use xlink:href="#DejaVuSans-53"/>
      <use xlink:href="#DejaVuSans-65" transform="translate(63.476562 0)"/>
      <use xlink:href="#DejaVuSans-6e" transform="translate(125 0)"/>
      <use xlink:href="#DejaVuSans-74" transform="translate(188.378906 0)"/>
      <use xlink:href="#DejaVuSans-65" transform="translate(227.587891 0)"/>
      <use xlink:href="#DejaVuSans-6e" transform="translate(289.111328 0)"/>
      <use xlink:href="#DejaVuSans-63" transform="translate(352.490234 0)"/>
      <use xlink:href="#DejaVuSans-65" transform="translate(407.470703 0)"/>
      <use xlink:href="#DejaVuSans-20" transform="translate(468.994141 0)"/>
      <use xlink:href="#DejaVuSans-61" transform="translate(500.78125 0)"/>
      <use xlink:href="#DejaVuSans-63" transform="translate(562.060547 0)"/>
      <use xlink:href="#DejaVuSans-63" transform="translate(617.041016 0)"/>
      <use xlink:href="#DejaVuSans-75" transform="translate(672.021484 0)"/>
      <use xlink:href="#DejaVuSans-72" transform="translate(735.400391 0)"/>
      <use xlink:href="#DejaVuSans-61" transform="translate(776.513672 0)"/>
      <use xlink:href="#DejaVuSans-63" transform="translate(837.792969 0)"/>
      <use xlink:href="#DejaVuSans-79" transform="translate(892.773438 0)"/>
     </g>
    </g>
    <g id="patch_47">
     <path d="M 38.820865 53.04274 
L 70.820865 53.04274 
L 70.820865 41.84274 
L 38.820865 41.84274 
z
" style="fill: #9f4e19"/>
    </g>
    <g id="text_66">
     <!-- Word accuracy -->
     <g style="fill: #ebdbb2" transform="translate(83.620865 53.04274) scale(0.16 -0.16)">
      <defs>
       <path id="DejaVuSans-57" d="M 213 4666 
L 850 4666 
L 1831 722 
L 2809 4666 
L 3519 4666 
L 4500 722 
L 5478 4666 
L 6119 4666 
L 4947 0 
L 4153 0 
L 3169 4050 
L 2175 0 
L 1381 0 
L 213 4666 
z
" transform="scale(0.015625)"/>
       <path id="DejaVuSans-6f" d="M 1959 3097 
Q 1497 3097 1228 2736 
Q 959 2375 959 1747 
Q 959 1119 1226 758 
Q 1494 397 1959 397 
Q 2419 397 2687 759 
Q 2956 1122 2956 1747 
Q 2956 2369 2687 2733 
Q 2419 3097 1959 3097 
z
M 1959 3584 
Q 2709 3584 3137 3096 
Q 3566 2609 3566 1747 
Q 3566 888 3137 398 
Q 2709 -91 1959 -91 
Q 1206 -91 779 398 
Q 353 888 353 1747 
Q 353 2609 779 3096 
Q 1206 3584 1959 3584 
z
" transform="scale(0.015625)"/>
       <path id="DejaVuSans-64" d="M 2906 2969 
L 2906 4863 
L 3481 4863 
L 3481 0 
L 2906 0 
L 2906 525 
Q 2725 213 2448 61 
Q 2172 -91 1784 -91 
Q 1150 -91 751 415 
Q 353 922 353 1747 
Q 353 2572 751 3078 
Q 1150 3584 1784 3584 
Q 2172 3584 2448 3432 
Q 2725 3281 2906 2969 
z
M 947 1747 
Q 947 1113 1208 752 
Q 1469 391 1925 391 
Q 2381 391 2643 752 
Q 2906 1113 2906 1747 
Q 2906 2381 2643 2742 
Q 2381 3103 1925 3103 
Q 1469 3103 1208 2742 
Q 947 2381 947 1747 
z
" transform="scale(0.015625)"/>
      </defs>
      <use xlink:href="#DejaVuSans-57"/>
      <use xlink:href="#DejaVuSans-6f" transform="translate(93.001953 0)"/>
      <use xlink:href="#DejaVuSans-72" transform="translate(154.183594 0)"/>
      <use xlink:href="#DejaVuSans-64" transform="translate(193.546875 0)"/>
      <use xlink:href="#DejaVuSans-20" transform="translate(257.023438 0)"/>
      <use xlink:href="#DejaVuSans-61" transform="translate(288.810547 0)"/>
      <use xlink:href="#DejaVuSans-63" transform="translate(350.089844 0)"/>
      <use xlink:href="#DejaVuSans-63" transform="translate(405.070312 0)"/>
      <use xlink:href="#DejaVuSans-75" transform="translate(460.050781 0)"/>
      <use xlink:href="#DejaVuSans-72" transform="translate(523.429688 0)"/>
      <use xlink:href="#DejaVuSans-61" transform="translate(564.542969 0)"/>
      <use xlink:href="#DejaVuSans-63" transform="translate(625.822266 0)"/>
      <use xlink:href="#DejaVuSans-79" transform="translate(680.802734 0)"/>
     </g>
    </g>
   </g>
  </g>
 </g>
 <defs>
  <clipPath id="pa60f29ea14">
   <rect x="24.420865" y="3.00024" width="836.578895" height="284.20446"/>
  </clipPath>
 </defs>
</svg>
