<svg height="44.534153mm" viewBox="0 0 153.69363 44.534152" width="153.69363mm" xmlns="http://www.w3.org/2000/svg"><g transform="translate(-42.481552 -45.457466)"><path d="m42.481552 45.457466h153.69363v44.534153h-153.69363z" fill="#ebdbb2"/><path d="m47.481552 55.683449h8.398v10.857542h-8.398z" fill="#b8bb26"/><path d="m47.481556 74.733467h8.398v10.857542h-8.398z" fill="#b8bb26"/><path d="m47.481556 69.507469h10.346v5.226h-10.346z" fill="#98971a"/><text style="font-style:italic;font-size:4.23333;font-family:Noto Serif;letter-spacing:0;word-spacing:0;fill:#fbf1c7;stroke-width:.529166" x="49.24461" y="73.142815"><tspan fill="#fbf1c7" font-family="Latin Modern Mono" font-size="4.23333" font-style="normal" stroke-width=".529166" x="49.24461" y="73.142815">QTY</tspan></text><path d="m47.481552 50.457451h21.458v5.226h-21.458z" fill="#98971a"/><text style="font-style:italic;font-size:4.23333;font-family:Noto Serif;letter-spacing:0;word-spacing:0;fill:#fbf1c7;stroke-width:.529166" x="49.244366" y="54.094917"><tspan fill="#fbf1c7" font-family="Latin Modern Mono" font-size="4.23333" font-style="normal" stroke-width=".529166" x="49.244366" y="54.094917">QUANTITY</tspan></text><path d="m68.939552 50.457451h13.091981v5.226h-13.091981z" fill="#d65d0e"/><path d="m55.879551 55.683449h26.151979v10.85778h-26.151979z" fill="#fe8019"/><path d="m55.879555 74.733467h18.751513v10.85778h-18.751513z" fill="#fabd2f"/><text style="font-style:italic;font-size:4.23333;font-family:Noto Serif;letter-spacing:0;word-spacing:0;fill:#fbf1c7;stroke-width:.529166" x="70.979164" y="54.363731"><tspan fill="#fbf1c7" font-family="Latin Modern Mono" font-size="4.23333" font-style="normal" stroke-width=".529166" x="70.979164" y="54.363731">SIZE</tspan></text><path d="m82.031532 50.505466h12.674v5.177984h-12.674z" fill="#689d6a"/><path d="m82.031532 55.683449h52.403839v10.85778h-52.403839z" fill="#8ec07c"/><path d="m74.631065 74.733467h51.491039v10.85778h-51.491039z" fill="#8ec07c"/><path d="m126.1221 74.733467h47.430027v10.85778h-47.430027z" fill="#fb4934"/><text style="font-style:italic;font-size:4.23333;font-family:Noto Serif;letter-spacing:0;word-spacing:0;fill:#fbf1c7;stroke-width:.529166" x="83.912956" y="54.413139"><tspan fill="#fbf1c7" font-family="Latin Modern Mono" font-size="4.23333" font-style="normal" stroke-width=".529166" x="83.912956" y="54.413139">NAME</tspan></text><path d="m134.43536 50.457451h28.215v5.226h-28.215z" fill="#458588"/><text style="font-style:italic;font-size:4.23333;font-family:Noto Serif;letter-spacing:0;word-spacing:0;fill:#fbf1c7;stroke-width:.529166" x="136.32549" y="54.365849"><tspan fill="#fbf1c7" font-family="Latin Modern Mono" font-size="4.23333" font-style="normal" stroke-width=".529166" x="136.32549" y="54.365849">PREPARATION</tspan></text><path d="m134.43536 55.683449h56.147808v10.85778h-56.147808z" fill="#83a598"/><text style="font-style:italic;font-size:9.87778;font-family:Noto Serif;letter-spacing:0;word-spacing:0;fill:#282828;stroke-width:.529166" x="49.15546" y="64.663673"><tspan fill="#282828" font-size="9.87778" stroke-width=".529166" x="49.15546" y="64.663673">2 large red onions, finely diced</tspan></text><text style="font-style:italic;font-size:9.87778;font-family:Noto Serif;letter-spacing:0;word-spacing:0;fill:#282828;stroke-width:.529166" x="48.612198" y="83.650841"><tspan fill="#282828" font-size="9.87778" stroke-width=".529166" x="48.612198" y="83.650841">1 cup neutral oil, for frying</tspan></text><path d="m74.631065 69.555481h12.674v5.177984h-12.674z" fill="#689d6a"/><text style="font-style:italic;font-size:4.23333;font-family:Noto Serif;letter-spacing:0;word-spacing:0;fill:#fbf1c7;stroke-width:.529166" x="76.512489" y="73.463158"><tspan fill="#fbf1c7" font-family="Latin Modern Mono" font-size="4.23333" font-style="normal" stroke-width=".529166" x="76.512489" y="73.463158">NAME</tspan></text><path d="m126.1221 69.507469h19.274v5.226h-19.274z" fill="#cc241d"/><text style="font-style:italic;font-size:4.23333;font-family:Noto Serif;letter-spacing:0;word-spacing:0;fill:#fbf1c7;stroke-width:.529166" x="127.97401" y="73.41375"><tspan fill="#fbf1c7" font-family="Latin Modern Mono" font-size="4.23333" font-style="normal" stroke-width=".529166" x="127.97401" y="73.41375">PURPOSE</tspan></text><path d="m57.827557 69.507469h13.091981v5.226h-13.091981z" fill="#d79921"/><text style="font-style:italic;font-size:4.23333;font-family:Noto Serif;letter-spacing:0;word-spacing:0;fill:#fbf1c7;stroke-width:.529166" x="59.977238" y="73.390465"><tspan fill="#fbf1c7" font-family="Latin Modern Mono" font-size="4.23333" font-style="normal" stroke-width=".529166" x="59.977238" y="73.390465">UNIT</tspan></text></g></svg>